<svg id="图层_1" data-name="图层 1" xmlns="http://www.w3.org/2000/svg" viewBox="0 0 600 466"><defs><style>.cls-2{fill:#090909}.cls-3{fill:#fefefe}.cls-4{fill:#f9f9f9}.cls-5{fill:#f4f3ee}.cls-8{fill:#fafafa}.cls-10{fill:#090809}.cls-11{fill:#f8f7f6}.cls-20{fill:#afb0b0}.cls-28{fill:#b0b0b0}.cls-33{fill:#cbcbcb}.cls-39{fill:#cacaca}.cls-42{fill:#c3c3c3}.cls-57{fill:#cdcdcd}.cls-63{fill:#e2e2e2}.cls-67{fill:#e7e0d4}.cls-88{fill:#fafaf9}.cls-89{fill:#f9f9f7}.cls-91{fill:#d9191b}.cls-92{fill:#f5f4ef}.cls-100{fill:#232323}</style></defs><path d="M253.71 1.81q-54.18-.07-108.37 0" fill="#5f1b21"/><path class="cls-2" d="M13.15 462.6c-3.49 3.78-8 1.21-12 2v-1.24a6.58 6.58 0 0 1 3-1.64c1.75-2.94.22-6 .23-9q.12-170.61.09-341.21a40.85 40.85 0 0 1 .21-5c3.22-6.35 13.23-10.59 19.41-8.29 2.79 1 4 3.3 4.92 5.84 1.57 4.29 2.81 8.71 4.94 12.78 1.35 2.57 2.5 5.94 5.2 6.69 7.22 2 12.05 7.7 15.77 12.71 5 6.67 8.7 9.18 16.55 5.64 3.34-1.51 5.92 2.14 6.21 5.41.86 9.53 9.77 8.51 15.2 11.91 1.89 1.18 4-1 5.67-2.38 3.28-2.82 6.45-5.77 9.86-8.45 3.88-3.05 8.81-5.11 3.16-11.86-4.13-4.93-.16-12.08-.29-18.21-2.44-2.32-5.8-.53-8.43-1.91a3.6 3.6 0 0 1-1.48-1.4 9.14 9.14 0 0 1 .8-5.11 17.62 17.62 0 0 1 3.62-5.34c3.38-3.36 4-7.86 1.93-11.28-4.6-7.49-3.12-14.84-1-22.23 1.6-5.45.62-9.23-4.47-12.07-2.27-1.26-4.69-3.23-3.76-6.3.85-2.79 3.82-2.37 6.12-2.82 7.85-1.51 13.36-6.43 17.22-13 2.15-3.66 3.2-7.94 5.62-11.61 2.58-3.91-.93-5.44-3.56-7.11a3.58 3.58 0 0 1-1.12-1.79c.05-3.07 2.31-3.75 4.47-3.2 6.47 1.66 11-1.9 15.85-5.1 4.18-2.78 8-6.18 13-7.53 4-.07 8 0 12.06 0 2.16 2.84 4.44 4.32 7.78 1.38a7.1 7.1 0 0 1 5.38-1.42h54.6c4 1.43 8.41 1.22 12.45 2.59 2.53 2.47 0 3.7-1.53 3.66-6.52-.17-8.27 4.46-10.09 9.2.28 1.66.13 3.45 1.56 4.73a8.3 8.3 0 0 1 1.38 2.2c.25 2 1.23 1.76 2.47.78a3.56 3.56 0 0 1 2.63.08c1.27.83 2.23 2.12 3.8 2.48a10 10 0 0 1 3.3 1.66 2.59 2.59 0 0 1 .76 1.63 3.79 3.79 0 0 1-.73 1.63c-1.52 1.16-1.83 2.87-2.08 4.61a8.05 8.05 0 0 1-1.37 2.22 1.42 1.42 0 0 0 .58 2.46 6.57 6.57 0 0 0 4 0 7.24 7.24 0 0 1 3.68.38c1.48.77 2.91 1.58 2.91 3.55-1.25 1.46-1.77 2.94 0 4.46.24 2-1.23 2.78-2.54 3.69-.78.68-2.21 1-1.3 2.53 1.44.92 3.11.16 4.56.75 1.32 4.39-.53 8.21-2.17 12.08-.19.76-4-.94-1.24 1.89.79.8.71 2 .62 3.17-5.86 11.67-6.94 24.93-12.26 36.78-2.55.76-5 1.45-4.41 5.13a11.47 11.47 0 0 1-1.16 7c-1.24 2.38-.13 6.46-3.84 7-3.08.41-5-2.44-7-4.47-.83-.84-1.21-2.05-2.31-2.7-1.3 2.34-1.54 6.17-5.22 5.65-3.09-.44-3.15-3.88-3.77-6.33-1.42-5.55-3.31-11-4.58-16.56-.81-3.92-1.66-7.83-4.06-11.16-5.61-3.72-7.18.22-8.35 4.5-2.5 9.15-.21 18 3.94 25.82 3.06 5.79.33 10.15-.74 15.06-.43 2-2.27 2.48-4 1.53-1.51-.81-2.21-.28-3.61.61-10.47 6.64-10.53 7.06 0 14.08 4.81 3.22 9.6 6.46 12.46 11.75 3.36 4.19.88 7.9-1 11.87 2.79-1.29 3.18-5.23 7.11-5.14-7.8-6.36-8.48-12.79-2.3-16.6 4.8 4.19 7.22 10.07 10.69 15.2 1.3 1.92.7 4.19.19 6.31-1.07 4.44-2.37 8.82-3.83 13.15-16.86 49.85-33 99.95-49.38 149.95q-18.53 56.51-36.9 113.08c-1.15 3.55-1.61 7.71-5.91 9.34-6.05 1.54-12.15 1-18.24.38-2.68-1.25-3.53-3.82-4.46-6.29-1.19-3.15-2.68-6.29-3.2-9.57-2.51-16-10.78-30.33-13.58-46.22a145.73 145.73 0 0 1-2.61-22.87c-9.35 13.07-17.72 25-26.46 36.65a27 27 0 0 0-3.48 4.76c-1.47 2.53-3.08 5-4.6 7.48-5.29 5.84-7.69 14-14.73 18.45a2.21 2.21 0 0 1-2.31-.67c-.13-.43-.5-.9-.82-.77s-.35.74-.38 1.21a6.35 6.35 0 0 1-1.3 2.34c-4.12 4.59-7.66 9.75-13.33 12.72-1.54.66-2.82 1.8-4.67 1.26z"/><path class="cls-3" d="M127.27 463.66c5.74-12.15 9.14-25.14 13.3-37.85 26.8-81.87 53.36-163.82 80.27-245.65 1.66-5 1.21-8.3-2.21-12.14-2.82-3.17-4.64-7.22-6.9-10.88-3.34-4.06-2-8.67-1.56-13.18a5.35 5.35 0 0 1 2-2.73c1.94-1 5.58.81 5.35-3.8-.09-1.76 2.46-1.95 4.07-2.28 4.9-1 9.77-2.6 14.85-.82.91.32.19-.53.17-.57-1-2-.22-3.53 1.78-3.67 7.83-.55 6.47-5.63 5-10.31-1.27-4-1.16-7.47 1.26-10.87 3.35-12.5 5.15-25.49 11.8-36.91.47-.47 1-.92 1.47-1.35 3.12-1.66 4.1-5.2 6.57-7.45s-.33-1-.82-1.08c-2.35-.23-2.42-1.77-2.29-3.6s1-3.47 3-3.28c3.49.34 4.71-1.87 6.64-4.17 4.33-5.18 13.42-4.17 16.61 1.39a3.44 3.44 0 0 1-.82 1.79c-.62.63-1.36 1.16-1.92 1.85.8.05 1.61-.76 2.41.08a5.42 5.42 0 0 1 .89 1.77c.63 1.77-1.64 4.85 2.5 5.12.8.05 1.18 1.94 1.45 3.11a5.68 5.68 0 0 1-.34 3.07c-4.57 7.77-4.35 10.35 1 17.14 1.77 2.25 3.55 4.88 2.73 7.87-.94 3.43-3.37 3.53-6.8 3-2.53-.4-4.71 8.48-2.65 12.34 2.15 4 1.18 7.94.69 11.93-.28 2.29-1.71 4.45-3.79 4.89-5.24 1.1-10 3.44-14.9 5-3.12 1-3 1.43-2.62 3.67.29 1.93-.42 3.8-.6 5.71-.27 3-.22 5.86 3.36 7a6.4 6.4 0 0 1 3.2 2.74c6.23 8.92 6.39 9.26-3.91 13.77-2.9 1.27-2.7 3.11-2.78 4.76-.12 2.33 2.29 2 3.86 2 4.8.22 9.6.29 14.27-1.25 20.67-1.63 41.09-.39 61.15 5.14a23 23 0 0 1 2.76.78c2.36 1 5.81 1.48 5.31 4.79s-3.92 3.23-6.47 3.19c-8-.11-15.6 2.17-23.27 3.91a97.13 97.13 0 0 0-16.38 4.57 16.75 16.75 0 0 1-1.85.74 19.57 19.57 0 0 0-7.69 3.74 14.91 14.91 0 0 1-1.65 1.06c-6.62 4-10.73 13.91-9.31 22.55.46.41.92.83 1.4 1.21 3.87 2.78 8.85 3.32 12.59 6.33 3.69 2.14 7.21 1 10.71-.58a11.07 11.07 0 0 1 1.86-.65c5.83-1.46 10.34 3.68 16 3.17a3.17 3.17 0 0 1 1.29 1.44c.14.72-.32 1.91-.12 2 5.3 3.55 5.29 10.22 8.81 14.8 3 6.64 4.08 13.81 5.82 20.79 1.23 4.92 3.35 8.9 7.85 11.51 4.78 2.78 6.55 6.62 4.42 12.13-1.64 4.24 0 8.53.67 12.79.86 5.67 3.12 11.15 2.31 17-1.38 5.74-2.39 11.52-1.91 17.45.13-1.64-1.31-3.83.88-4.73 1.86-.77 3.07 1.19 3.87 2.55 2.65 4.51 6.14 8.71 6.09 14.37 0 1.6-.62 3.37 2.25 3 1.17-.13 2.13 1.14 2.45 2.33 1.32 4.9 3.86 9.18 6.14 13.67 3.32 6.54.73 10.05-6.77 10.21.66 2.86 1.48 6.17 3.44 7.69 5.64 4.38 2.6 6.81-2.13 9.64 3.28-.49 4.46-2 5.22-4.27 1.19-3.49 4.47-2.55 6.69-2.14 2.9.54 1.52 3.11 1.56 5.24.1 5.53-5.29 7.93-6.74 13.27 6.17-4.1 11.36-3.37 16.09 1.61a5.38 5.38 0 0 1 1.68 5c-1 7.58 2 11.46 9.67 13.12 2.85.62 5.28 3.94 8.65 1.44-4.52-4.07-4.54-4.1.44-7.49 1.81-1.23 4.23-2.41 4.27-4.6.13-7.34 5-6.67 9.92-6.57 4.16.08 7.82 2.28 12 2.29 2.06 0 5 .3 4.68 3.21-.34 3.2-3.26 1.74-3.71 1.78 4.09-.82 5.55 2.84 6.24 7.73.43-2.25-.94-3.7-.91-5.34 0-2.44 1.87-4.29 3.46-2 3.34 4.75 11.84 4.24 12 12 0 1.07.36.74 1.17.42 5-2 4.59 1.86 4.36 4.57-.29 3.39.44 5.11 4.18 4.56a5.21 5.21 0 0 1 3.48.78c6 3.86 12.44 3.65 19.05 2.68a17.92 17.92 0 0 1 5.17.34c5.12 1.54 10.19 2 15.15-.61 6.05 1.85 9.57-.24 10.61-6.6.67-4.06 3.29-4.5 6.34-2.58a129.73 129.73 0 0 1 11 8.23c3 2.39 6.08 5.05 9.44.06 1.41-2.1 4.05-1.77 5.83-.35 3.4 2.7 7 2.67 10.94 1.82.74-.16 13.83 4.64 14.46 5.25a6.84 6.84 0 0 1 2 5.92c-.29 2.81-2.58 3.34-4.73 3.53-5.75.5-11.41 1.77-17.22 1.75-61.86-.22-123.71-.07-185.57-.06-6.24 0-12.48-.86-18.74.05-3 .44-5.57-1.17-8.08-2.66-4.63-4.63-5.61-11-8.1-16.7a78.38 78.38 0 0 0-4.08-7.82c1.63 8.1 3.9 15.18 5.28 22.46.93 4.92-.27 7.73-6.13 7.72q-103.4-.15-206.8-.07a4.52 4.52 0 0 1-2.73-.69z"/><path class="cls-4" d="M57 415.73l29.2-41.82c.72 6.79 1.08 11.94 1.84 17 3.81 25.28 13.72 48.82 21 73.11l-11.2.61a3.19 3.19 0 0 1-2.45-3.13c-.64-9.07-4-17.72-4.29-26.82-.11-3.24-2.07-5.21-3.76-7.52-4.66-6.39-9.7-12.61-8.34-21.43.47-3.05-1.33-3.16-3.52-1.82l-9.25 12c-3.57 3.93-8.07 7.22-8.87 13-4 2.23-5.68 1.79-7.71-2.08.39-2.95 2.8-4.62 4.3-6.88 2.05-.63 2.57-2.43 3.05-4.22z"/><path class="cls-5" d="M49.63 426.85c2.43 1.23 4.67 3.15 7.71 2.08a54.89 54.89 0 0 1-13.69 17.15 169.41 169.41 0 0 0-18.35 18.78c-3.92-1.43-8.72 1.83-12.15-2.26 4.89-4.32 11.41-6.89 14.28-13.4a2.46 2.46 0 0 1 3.57-1.36 31.93 31.93 0 0 0 4.18-1.84c6.02-5.5 8.75-13.45 14.45-19.15z"/><path class="cls-5" d="M57.34 429c-2.07-7.77 4-10 8.87-13a42 42 0 0 1-8.87 13z"/><path d="M3.57 463.26l-2.42.06-.49.11c-1.11-2-.63-4.24-.63-6.37Q0 288.31 0 119.57c0-1.91-.29-3.85.45-5.71a2 2 0 0 0 0-1.4l.53-2.9c1.65-.11 2.16 1.09 2.68 2.31a20.36 20.36 0 0 1 .56 5.31c.1 114.47-.07 228.93.1 343.39 0 .48-.05.95-.08 1.42z" fill="#01100a"/><path class="cls-2" d="M2.16 111L1 109.56.7 107l.06-.31c.94-1.64 2.07-2.86 4.2-2 1.38 2.24.41 4.49 0 6.73a2.3 2.3 0 0 1-2.8-.42z"/><path d="M5 105l-4.23 1.7c-1.52-5.26.26-8.79 5.4-10.8a18.91 18.91 0 0 0 5.62-3.18c8.19-7.26 15.71-1.78 23.28 1.15 3.23 1.25 2.25 4.61 2.06 7-.86 10.88 4 17.21 13.27 23.09 5.26 3.34 12.73 7.19 14.4 15.26a14.13 14.13 0 0 0 6.83-3.39c6.44-4.3 7-4 9.46 3.17 1.27 3.63 1.83 9.05 8.44 6.1 2.51-1.12 3.6 3 6.25 2.63 4.82-2.34 9.33-4.85 6.8-11.52a7.55 7.55 0 0 1-.67-1.93c-.69-3.16 1.25-5.29 2.93-7.53l1.23-2.78c-.27-3-.3-2.87-4.68-4.38-3.16-1.09-7.12-2.11-2.65-6.45a3.28 3.28 0 0 1 3.26 2.06c3.58 2.29 7.84-.43 11.46 1.57 1.22 6.32-3.31 12.42-.73 18.8.51 1.26.44 3.21 1.32 3.78 5 3.23 5 3 0 7-6 4.82-11.87 9.81-17.64 14.9-2.33 2.05-4.08 3.1-6.27-.12-.89-1.31-2.69-3.16-3.77-3C77 159.7 77.23 152.4 75.83 147c-1.12-4.36-2.72-5.4-6.81-2.95-2.46 1.48-4.88 4-8.56 2.26-2.25-1.08-5.59-.7-3.87-4.83.25-.59.17-1.91-.15-2.06-5.49-2.52-8.08-9.22-12.86-11.16-5.81-2.36-9-5.69-11.28-10.83A120.84 120.84 0 0 1 27.84 106c-2.25-7-5.5-8.79-12.19-6.15-3.12 1.23-6.1 2.8-9.15 4.22A2.87 2.87 0 0 1 5 105z" fill="#f8f8f7"/><path class="cls-4" d="M244.64 108.91c-1.88 5.56 1.56 10.56 1.66 15.9.08 4.13.16 7.87-6.07 6.57-5.86-1.23 0 4.7-3.57 5.4-1.75-6.57-5.11.47-7.62-.56-3.77-1.55-6.64 2.39-10.17.62-.3 2.22 3.93 3 1.12 5-2.14 1.52-4.76 2.3-6.77-.59-.87-.78-1.64-.88-2.23.35-1.45 2.67-.54 5.55-.84 8.32-.27 2.43 0 4.89-.49 7.3-1.55 3.13 2.38 7.55-2.34 9.93-4.27-6.37-10.82-10-16.94-14.14-1.83-1.24-5.59-1.17-5-4.08.66-3.5 3.63-8.43 6.1-8.23 6.11.5 3.53-3.76 4.47-6.11 3.22.72 3.1 5.6 7.42 5.25.13-3.15-3-7.12 1.8-9.37 1.27-.6.5-1.88-.27-3-6.65-9.53-8.12-20.14-6.08-31.34.57-3.13 1.92-6.25 5.32-7 2.36-.55 5.49-1.11 6.37 2.69a9 9 0 0 1 .11 4.94c2 7.31-3.61 13.63-2.48 20.9 2.92-4.24.38-10.3 4.54-14.09a1.54 1.54 0 0 1 1.86.15l6.72 22.93c4-2 2.92-6.84 5.85-9.73.61 5.84 5.29 8.22 8.76 12.16a39.7 39.7 0 0 0 2.76-21.81c2.83-.69 3.42 3.59 6.01 1.64z"/><path class="cls-8" d="M13.64 243.46c.41-4.54.65-9.1 1.31-13.6.4-2.7-1.18-6.55 3.77-7.17 4.31-.53 8.62-1.87 10.94 3.57a8 8 0 0 0 2.08 2.91c9.91 8.38 5.45 18 2.38 27.44-.92 2.85-3.51 3.77-5.66 5.22-4.17 2.81-4.68 6.53-2.44 10.7 1.46 2.73-1.12 4.8-2.07 5-2.08.42-5.16.7-5.7-2.89-1.58-10.38-5.56-20.41-4.61-31.18z"/><path d="M87.73 46.09c3.82 0 7.64.2 11.46.11 15.75-.39 26.67-13.55 24.41-29.33 4.72-1 6.6 3.15 8.38 5.74 1.64 2.39-2.8 3-4 4.94-.61 1-1.65 1.87-1.94 2.94-3.63 13.74-12.27 21.51-26.72 22.06-.12 2.86 2.06 3.74 3.54 4.38 6.74 2.91 8 7.39 5.92 14.25-2.19 7.14-4.09 14 .88 21.82 4.28 6.71-2.19 12.61-6.27 18-1.43.38-2.07-.47-2.54-1.61-.81-2.94 1.6-4.85 2.39-7.28 1.53-4.71 2.82-9.17-2.2-12.85-3.13-2.29-1.31-5.72-1.35-8.69.4-2.48-.91-5.15.83-7.48 3.92-3 2.3-5.67-.68-7.9-5.3-4-8.2-9.73-11.78-15-.81-1.19-2.58-2.55-.33-4.1z" fill="#f5f5f2"/><path class="cls-10" d="M250.15 1.43l3.14-.19.28.27c4 6.09 8.32 11.93 12.47 17.91 2.86 2.39 6.86 4 6 8.9-3.57 9.34-5.27 19.55-12.52 27.2-1.3 2-2.91 1.45-4.56.56-1.18-1.82.17-2.83 1.25-3.94l3.08-3.31a3 3 0 0 1 0-4.26l-3-3.24c-1.58-1.84-3-1.27-4.24.36-1.07 1.45-2 1.27-2.91-.2a4.65 4.65 0 0 1-1.4-4.45l1.79-1.38c.92-1.81 1.37-3.83 2.52-5.53l.31-1.93a7.41 7.41 0 0 0 1.16-1.48 11.56 11.56 0 0 1-1.11 1.53 2.79 2.79 0 0 1-3.17-.94c-1.35-1.28-3.08-2-4.56-3.09h-2.4c-1.74 1.2-2.42-.07-3.1-1.34l-1.54-1.43c-1.3-1.71-.45-3.86-1.17-5.69-1.72-4.84.71-9.47 5.33-10.22 2.48-.4 5.33.95 7.36-1.57-.92-1.33.23-1.86.99-2.54z"/><path class="cls-11" d="M259.53 55.52c-.23-.67-.85-1.73-.63-1.95 7-6.91 6.81-17.2 11.87-25 1.22-1.14 1.4-3.07 2.94-3.94 1.23-.69 2.58-1.45 4-.63a2.91 2.91 0 0 1 1.11 3.77c-3.21 8.73 1.59 13.79 8.15 18.08 3 .49 2.57 3.09 3 5.06 2.32 10.29 5.29 20.52 5.54 31.1.17 7 6.84 6.43 10.4 10.41l-10.48 7c2.39-8.39-4.28-15-4.53-22.89-.08-2.5-1.81-5 .15-7.46V66.2c-.32-3.45-3.05-5.7-4.32-8.68v-1.44a27.61 27.61 0 0 0 0-2.9c-1.26-4.2-4.11-4.9-7.79-3.38-2.88 1.19-7.91-1-7.88 4.91 0 5.07-3.78 1.86-5.49 2.07s-3.44-.21-3.24 2.18c.31 3.77 2.14 1 3.28.55 1.81-.66 3.56-.54 4.28 1.26 1.1 2.74-1.57 2.17-2.88 2.74a8.66 8.66 0 0 0-4.44 5.33c-.93 2.59-2.42 3.3-4.82 3.08a4 4 0 0 1 0-4.45c.29-1.14 1.21-2.84.77-3.33-2.93-3.3-3.14-5.2 2-5.88.69-.11.27-2.09-.99-2.74z"/><path d="M5 105l1.51-.87v349.42c0 3.32-1.2 7.1 3.89 9.74H3.57V462 121.48c0-3.52-.94-7.26 1.4-10.51C3.64 109 5.08 107 5 105z" fill="#06070f"/><path d="M96.88 228.51c5.69-13.8 17.83-20.74 27.3-30.47 2 2.71 1.28 4.53-.12 6.39-1 1.28-2.45 2.67-.81 4.38 4.57 4.79.93 6.73-2.86 8.88-5.41 3.07-10.69 6.39-16.08 9.49-2.31 1.32-4.75 2.11-7.43 1.33z" fill="#f4f4f4"/><path d="M123.7 17c-4.25-1.06-4.51-5.21-7.86-9.14 10.64 1.45 20.49 5.21 27.11-5L145.14 1l10.42.46c-5.68 5.14-12.52 8.59-18.75 12.94-2.71 1.89-5.62 1.45-8.2.36-2.8-1.16-4.04-.27-4.91 2.24z" fill="#f0ede8"/><path d="M207.31 167.2c3.48-3.47-.19-7.76 1.33-11.45.58-1.92 1.39-3.83.13-5.79-.13-3.44-.52-6.93 1.51-10 2.79-.13 1.9 1.66 1.63 3.13.06 4.7-1.24 9.38-.19 14.09-3.43 8.71-2.38 11.38 6.52 15.55-3 2.67-8.48 2.87-8 8.55.05.64-3.24.9-4.55-.12-1.83-1.42-1.49-3.35.07-4.95 2.55-2.69 4.92-5.33 1.55-9.01z" fill="#0a0a0a"/><path class="cls-10" d="M228.93 11.34c.35-1.7-1.8-3.65.46-5.13 1.23-.81 2.13.1 3.14.71 2.66 1.61.08 3.21 0 4.79a46.94 46.94 0 0 1-.78 5.53c-1.42.47-2.12-.29-2.55-1.5l-1.69-1.51c-.96-1.65.25-2.23 1.42-2.89z"/><path d="M169.25 1.52h9.45c-3.2 3.11-6.49 6-11.44 5.2-.88-2.59 2.28-3.17 1.99-5.2z" fill="#e4dfe0"/><path d="M250.15 1.43l-1 2.55c-4.13.58-8.45 2-11.5-2.46z" fill="#e3dee2"/><path d="M214.48 103.74h-.7l-.7-.05c-3.29-1.29-3.17-4.64-4.34-7.21l1.71-4.67a28.26 28.26 0 0 1 4.03 11.93z" fill="#b4b3b4"/><path d="M257.76 67.45v4.45l-.65.07h-.65c-.24-.63-.41-1.77-.72-1.8-2.33-.28-5.46-.32-3.54-3.74 2.01-3.59 3.66.65 5.56 1.02z" fill="#bbbaba"/><path class="cls-20" d="M225.9 28.28c-1.62-.44-2.64-1.48-2.34-3.06a2.52 2.52 0 0 1 2.6-2 2.23 2.23 0 0 1 2.23 2.27 2.52 2.52 0 0 1-2.49 2.79zM233.22 28.23c-1.53-.07-2.62-.77-2.67-2.52a2.31 2.31 0 0 1 2.1-2.46 2.44 2.44 0 0 1 2.81 2.52c.07 1.4-.9 2.08-2.24 2.46z"/><path d="M208.21 16.17a2.32 2.32 0 0 1 2.61 2 2.47 2.47 0 0 1-2.09 3.15 2.27 2.27 0 0 1-2.59-2c-.44-1.64.57-2.64 2.07-3.15z" fill="#adadad"/><path d="M219.4 23.13c1.34.66 2.58 1.5 2 3.23-.38 1.12-1.23 2.19-2.63 1.86a2.41 2.41 0 0 1-2-3.17 2.39 2.39 0 0 1 2.63-1.92z" fill="#b2b4b3"/><path d="M221.54 67.46a2.47 2.47 0 0 1-2.66 2.61 2.2 2.2 0 0 1-2.31-2.23c0-1.54.85-2.85 2.6-2.8 1.32.03 1.97 1.13 2.37 2.42z" fill="#b4b4b4"/><path d="M246.21 32.43c-.49 2-1.49 3-3 2.81a2.37 2.37 0 0 1-2-3.06 2.25 2.25 0 0 1 2.41-2c1.66.13 2.07 1.43 2.59 2.25z" fill="#b0b1b0"/><path d="M228.45 67.3a2.46 2.46 0 0 1-1.8 2.7 2.31 2.31 0 0 1-3-2.09 2.41 2.41 0 0 1 2.35-2.84c1.39-.02 2 1.07 2.45 2.23z" fill="#afafb0"/><path d="M235.53 67.57a2.58 2.58 0 0 1-2.77 2.55 2.55 2.55 0 0 1 .09-5.06c1.65-.06 2.47.94 2.68 2.51z" fill="#a9a9aa"/><path d="M252.89 60.73c-.32 1.3-.93 2.4-2.3 2.35a2.38 2.38 0 0 1-2.54-2.68 2.46 2.46 0 0 1 2.25-2.35c1.7-.05 2.43 1.16 2.59 2.68z" fill="#adadae"/><path class="cls-28" d="M241.07 60.83c.36-1.45.8-3 2.69-2.71a2.39 2.39 0 0 1 2.32 2.3 2.45 2.45 0 0 1-2.68 2.66 2.39 2.39 0 0 1-2.33-2.25z"/><path d="M208.72 30.13c1.53.5 2.5 1.41 2.12 3-.35 1.48-1.36 2.52-3 2.05a2.49 2.49 0 0 1-1.8-2.67 2.42 2.42 0 0 1 2.68-2.38z" fill="#b1afb0"/><path d="M252 30.14c1.63 3 1.13 5-2.52 5.53-2.34-3.31-2.59-5.67 2.52-5.53z" fill="#a7a6a6"/><path class="cls-28" d="M250.28 77.2a2.68 2.68 0 0 1-2.2-2.42 2.32 2.32 0 0 1 2.49-2.73 2.19 2.19 0 0 1 2.25 2.24 2.72 2.72 0 0 1-2.54 2.91z"/><path d="M229.22 15.75l2.55 1.5c.19 2.34-.05 5.07-3.15 3.59-2.7-1.31-1.26-3.55.6-5.09z" fill="#c7c7c7"/><path d="M220.23 19a2.22 2.22 0 0 1 1.95-2.51 2 2 0 0 1 2.52 1.82 2.31 2.31 0 0 1-2.23 3 2.17 2.17 0 0 1-2.24-2.31z" fill="#d0d0d0"/><path class="cls-33" d="M223 72.17a2.16 2.16 0 0 1 1.69 2.53 2.21 2.21 0 0 1-2.26 2.3 2.26 2.26 0 0 1-2.26-3c.26-1.22 1.3-1.94 2.83-1.83z"/><path d="M195.7 24.26c1.37-.93 2.76-1.93 4.22-.18a2.41 2.41 0 0 1 0 3.18c-1.38 1.85-2.81.8-4.19-.09a2 2 0 0 1-.03-2.91z" fill="#a8a8a8"/><path d="M212.15 23.17c1.16.39 2.2 1 2.27 2.32a2.43 2.43 0 0 1-2.53 2.71c-1.36.08-2.06-1-2.2-2.24-.18-1.73.96-2.45 2.46-2.79z" fill="#b3b4b4"/><path d="M236.56 35.26c-1.69-.22-2.62-1.2-2.44-2.88a2.17 2.17 0 0 1 2.36-2.14 2.3 2.3 0 0 1 2.4 2.76 2.38 2.38 0 0 1-2.32 2.26z" fill="#b3b2b2"/><path d="M232 32.33c-.4 2-1.23 3.1-2.91 2.79a2.24 2.24 0 0 1-1.82-2.58 2.2 2.2 0 0 1 2.09-2.35 2.61 2.61 0 0 1 2.64 2.14z" fill="#b5b4b4"/><path d="M221.89 30.29c1.73-.18 2.65.61 2.86 1.87.28 1.63-.54 2.95-2.26 3a2.24 2.24 0 0 1-2.26-2.3 2.41 2.41 0 0 1 1.66-2.57z" fill="#cdcccc"/><path class="cls-39" d="M222.5 58.11c1.18.36 2.2.87 2.28 2.31a2.16 2.16 0 0 1-2 2.48 2.13 2.13 0 0 1-2.6-2.46c.08-1.44 1.19-1.91 2.32-2.33z"/><path d="M238.89 46.67c-.29 1.22-.89 2.33-2.24 2.33-1.66 0-2.73-1-2.49-2.65a2.37 2.37 0 0 1 2.54-2c1.45 0 1.93 1.1 2.19 2.32z" fill="#c9c8c8"/><path d="M236 58.23a2.29 2.29 0 0 1 2.76 1.87 2.32 2.32 0 0 1-2.28 2.9 2.23 2.23 0 0 1-2.28-2.27 2.29 2.29 0 0 1 1.8-2.5z" fill="#bcbcbd"/><path class="cls-42" d="M216.53 21.13c-2.1.2-3-.71-3.28-1.85a2.15 2.15 0 0 1 2.18-2.9 2 2 0 0 1 2.22 2.23 8.12 8.12 0 0 1-1.12 2.52z"/><path d="M229.56 63.16c-1.25-.31-2.24-1-2.29-2.36s.57-2.48 2-2.57a2.28 2.28 0 0 1 2.67 2.56c-.11 1.37-1.16 2.01-2.38 2.37z" fill="#bebec0"/><path d="M215.59 58a2.52 2.52 0 0 1 2.18 3 2.06 2.06 0 0 1-2.33 2c-1.44-.25-2.57-1.23-2.26-2.88a2.79 2.79 0 0 1 2.41-2.12z" fill="#c2c2c2"/><path d="M236.47 15.76c3 1.36 3 3.34 1.17 5.69-4.89-.97-4.32-3.06-1.17-5.69z" fill="#c1c1c1"/><path d="M246.91 51.31c1.14.11 2.14.59 2.25 2s-.32 2.33-1.69 2.6c-1.75.34-2.59-.73-2.73-2.27-.12-1.36.82-2.06 2.17-2.33z" fill="#d1d1d1"/><path class="cls-42" d="M219.27 51.22c1.31.26 2.28 1 2.17 2.36-.12 1.6-1.12 2.72-2.86 2.41a2.19 2.19 0 0 1-1.76-2.68 2.3 2.3 0 0 1 2.45-2.09z"/><path d="M231.44 88.8c-.25 1.31-1 2.15-2.37 2s-1.9-1.22-1.78-2.5.83-2.22 2.28-2 1.87 1.19 1.87 2.5z" fill="#bebebe"/><path d="M249.25 81.06a2.16 2.16 0 0 1-2 2.5 2.1 2.1 0 0 1-2.46-2 2.33 2.33 0 0 1 2.06-2.51c1.42-.26 2.15.7 2.4 2.01z" fill="#c8c8c8"/><path d="M228.91 82c-1.33 1.38-2.59 3.14-4.7 1.17a2.11 2.11 0 0 1-.08-3.17c1.9-2.29 3.29-.66 4.71.65q.84.41.59.87c-.17.35-.34.48-.52.48z" fill="#a5a5a5"/><path class="cls-33" d="M233.1 37.27a2.15 2.15 0 0 1 2.2 2.32c0 1.78-1.29 2.56-2.85 2.34a2 2 0 0 1-1.78-2.59 2.32 2.32 0 0 1 2.43-2.07z"/><path d="M242.25 39.63c-.17 1.27-.82 2.25-2.12 2.32a2.11 2.11 0 0 1-2.34-2 2.21 2.21 0 0 1 2.39-2.65c1.34 0 1.82 1.13 2.07 2.33z" fill="#cbc9ca"/><path d="M247.74 37.05c1.56 1.14 1.65 2.74 1.4 4.45-1.81.47-3.84 1.12-4.35-1.56-.39-2.1 1.21-2.72 2.95-2.89z" fill="#d6d3d4"/><path d="M228.29 40a2.14 2.14 0 0 1-2.46 1.91c-1.34-.15-2.36-1-2.24-2.28.14-1.52 1.12-2.75 2.88-2.4 1.3.29 1.82 1.42 1.82 2.77z" fill="#c6c3c4"/><path d="M252 41.69c-.2-1.78-1.06-4.13 1.72-4.33 2.53-.18 2.67 2 2.53 4a5.29 5.29 0 0 1-4.25.33z" fill="#c9c9c9"/><path d="M215.22 35.21a2.64 2.64 0 0 1-2-3.16 2.23 2.23 0 0 1 2.58-1.81c1.73.26 2.18 1.57 1.89 3.08a2.14 2.14 0 0 1-2.47 1.89z" fill="#b7b6b7"/><path d="M217.78 46.5c-.11 1.22-.53 2.29-1.92 2.41a2.18 2.18 0 0 1-2.55-1.77c-.36-1.72.73-2.65 2.21-2.81 1.32-.14 1.96.96 2.26 2.17z" fill="#d1d2d2"/><path d="M214.24 53.68a2.17 2.17 0 0 1-2.18 2.21 2.12 2.12 0 0 1-2.16-2.24 1.91 1.91 0 0 1 2.1-2.17 2.21 2.21 0 0 1 2.24 2.2z" fill="#eaeaea"/><path class="cls-57" d="M259.27 44.58a5 5 0 0 1 0 4.26c-2 .4-4.18.31-4.19-2.15s2.19-2.56 4.19-2.11z"/><path d="M239.18 22.88l3.1 1.34c0 2.14 0 4.86-3.09 3.66-2.87-1.12-1.4-3.3-.01-5z" fill="#b7b9b8"/><path class="cls-57" d="M229.33 44.28a2.33 2.33 0 0 1 2.36 2 2.24 2.24 0 0 1-2.34 2.72 2.4 2.4 0 0 1 0-4.74z"/><path d="M224.78 46.82a2.3 2.3 0 0 1-2.13 2.18 2.18 2.18 0 0 1-2.35-2.65 2.05 2.05 0 0 1 2.38-1.92c1.32.04 2.01.92 2.1 2.39z" fill="#d3d4d3"/><path d="M244.67 24.23c3.57-2 4.84-.6 4.56 3.09-3.41 1.76-4.87.68-4.56-3.09z" fill="#bfbfbf"/><path d="M242 54.15c-.54 1.51-1.53 2.18-2.77 1.42A3 3 0 0 1 238 53.3a1.84 1.84 0 0 1 2.47-1.78 2 2 0 0 1 1.53 2.63z" fill="#ebebeb"/><path d="M235.05 53.49c-.15 1.3-.65 2.4-2.14 2.29a2.11 2.11 0 0 1-2.08-2.4 2.13 2.13 0 0 1 4.23.11z" fill="#f0f2f2"/><path class="cls-63" d="M225.65 55.94a2.23 2.23 0 0 1-1.72-2.61c.24-1.13.84-2.3 2.34-2a2.33 2.33 0 0 1-.62 4.59z"/><path d="M243.39 49a2.25 2.25 0 0 1-2-2.62 2 2 0 0 1 2.46-1.92A2.2 2.2 0 0 1 245.8 47a2.27 2.27 0 0 1-2.41 2z" fill="#e2e3e2"/><path d="M216.89 39.71c.26-1 .46-2.25 1.89-2.35a2.28 2.28 0 0 1 2.6 2.46 2.18 2.18 0 0 1-2.35 2 1.9 1.9 0 0 1-2.14-2.11z" fill="#dcd9da"/><path d="M205.21 23.15c1.36.5 2.39 1.39 2.16 3a2.18 2.18 0 0 1-2.39 2 2.21 2.21 0 0 1-2.15-2.86 2.56 2.56 0 0 1 2.38-2.14z" fill="#c2c3c2"/><path class="cls-67" d="M113.38 116.72c-3.83-.43-8 1.75-11.46-1.57 3.76.95 7.88-.72 11.46 1.57z"/><path class="cls-67" d="M101.55 109l1.84 2-1.39 4.2-3.41-1.53c-.44-1-.45-1.92.75-2.45.21-1.22.74-2.22 2.21-2.22z"/><path d="M228.93 11.34l-1.39 2.9c-2.39.13-4.83-.37-3.49-3.33s3.35-1.19 4.88.43z" fill="#b9babb"/><path d="M243.56 72.41a2 2 0 0 1 2.15 1.44A1.81 1.81 0 0 1 244 76.3c-.57 0-1.47-1.11-1.71-1.88a1.44 1.44 0 0 1 1.27-2.01z" fill="#f0f0f0"/><path class="cls-39" d="M242.08 66.58c-.19 1.72-1 2.67-2.2 3a1.66 1.66 0 0 1-2.11-1.4 2.37 2.37 0 0 1 2.29-2.94c.68-.09 1.44.92 2.02 1.34z"/><path d="M256.21 52.15L255 56.08c-2.15-.15-3.67-1.08-2.76-3.41.76-2.11 2.52-1.11 3.97-.52z" fill="#eae9eb"/><path d="M35.18 446c-.87 1.62-1.75 3.25-3.81 3.55 0 0-.25-1.1-.38-1.69l.3-3.4a1.9 1.9 0 0 1 2.57.12z" fill="#534b4c"/><path class="cls-5" d="M57 415.73c.48 1.4 1.88 2.69.52 4.31-1.23 1.45-2.42.28-3.63-.06a7.21 7.21 0 0 1 3.11-4.25z"/><path d="M230.94 74c0 1.27-.49 2.36-1.85 2.49a1.51 1.51 0 0 1-1.78-1.62 2.21 2.21 0 0 1 1.87-2.51c1.01-.12 1.71.53 1.76 1.64z" fill="#c4c4c4"/><path class="cls-63" d="M252.49 46.42c-.07 1.23-.41 2.35-1.85 2.48a2.23 2.23 0 0 1-.41-4.44c1.51-.29 2.03.69 2.26 1.96z"/><path d="M221.5 12.35c-.58 1-1.19 2-2.6 2-1.16 0-1.79-.71-1.55-1.74a2.71 2.71 0 0 1 2.57-2c1.23-.15 1.5.75 1.58 1.74z" fill="#adaeae"/><path d="M210.48 46.3c-.08 1.29-.49 2.34-1.93 2.35a1.42 1.42 0 0 1-1.43-1.84 3.38 3.38 0 0 1 1.67-1.94c1.21-.58 1.37.66 1.69 1.43z" fill="silver"/><path d="M214.52 39.31a2 2 0 0 1-1.91 2.39c-.38 0-1.13-.68-1.18-1.12-.14-1.12.06-2.35 1.39-2.71s1.48.65 1.7 1.44z" fill="#aeaeae"/><path d="M195.7 24.26v2.92c-1.3-.18-3.45.43-3.61-1.1-.25-2.58 2.27-1.4 3.61-1.82z" fill="#333"/><path d="M156.38 12.26c1.53-1.57 2.73-3.92 6-2.32-1.4 2.05-3.28 2.68-5.26 3.16-.7.16-.98-.1-.74-.84z" fill="#89898a"/><path d="M157.15 13.1a13.2 13.2 0 0 1-6.22 4.55 1.39 1.39 0 0 1 0-2l5.42-3.36a5.11 5.11 0 0 0 .8.81z" fill="#8c8d8f"/><path class="cls-8" d="M201.51 17.68c1.69.06 2.18.95 1.81 1.82a3 3 0 0 1-2 1.47 1.27 1.27 0 0 1-1.38-1.77c.23-.7 1.18-1.2 1.57-1.52z"/><path d="M249.33 68.24c0 .58-.66 1.46-2 1.48a1.38 1.38 0 0 1-1.39-1.87c.25-1 0-2.58 1.76-2.36.99.13 1.55.89 1.63 2.75z" fill="#bcbcbc"/><path d="M210 62.85a1.57 1.57 0 0 1-1.24-2 1.36 1.36 0 0 1 1.9-1.27 2 2 0 0 1 1 1.57c-.1.85-.5 1.77-1.66 1.7z" fill="#525252"/><path d="M151 15.62v2c-.78 1.22-2.74 2.54-3.11 1.57-.89-2.01 1.57-2.69 3.11-3.57z" fill="#585759"/><path d="M213 65.24a1.78 1.78 0 0 1 1.46 2c-.08.65-.41 1.52-1.23 1a3.77 3.77 0 0 1-1.5-2c-.18-.69.46-1.17 1.27-1z" fill="#777"/><path d="M228.91 82a4 4 0 0 1-.07-1.35c1.29.15 2.87-.64 3.66 1.05.13.27-.3 1.12-.35 1.11-1.09-.19-2.15-.49-3.24-.81z" fill="#2d2d2d"/><path d="M232.12 95.49c-.28 1-.62 1.73-1.47 1.27a2.05 2.05 0 0 1-1-1.6c0-.41.92-.74 1.42-1.11z" fill="#616161"/><path d="M204 32.61c-.72.93-1.12 2-1.83 2.24a1.21 1.21 0 0 1-1.68-1.46 4.7 4.7 0 0 1 1.79-2c.08-.14.89.61 1.72 1.22z" fill="#e8e8e8"/><path d="M33.86 444.56l-2.57-.12c.84-1.24 1.12-3.6 3.1-2.89 1.2.45-.39 1.94-.53 3.01z" fill="#a2a5a1"/><path d="M493.43 442.83c11 2.45 21.37 2.44 30.45-5.86 6-5.5 12.93-10 18.89-15.6 2.85-2.66 4.41-6.71 6.56-10.13 1.74-1.51 1.52-4.16 3.29-5.66 2-3 2.63-8.1 7.85-6.75 5.4 1.4 5.22 6 5 10.58-.48 9.48-6.15 16.46-11.13 23.78-.94 1.39-2.12 2.62-3.19 3.91-1.51 1.81-2.23 4.07-1.09 6 1.28 2.18 3.65.67 5.22.13 11.58-4 23.33-2.21 35-1.28 4.19.33 7.95 1.25 9.32 6.3 1.41 5.21-1.38 8.28-5.3 9.6s-4.06 6.82-8.56 7c-13.21-.11-26.43-.31-39.64-.32H362.88c-3.87 0-8.77 1.3-8.63-5.34 6.59 3 13.54 1.1 20.24 1.13 64.23.27 128.47.14 192.7.21 5.55 0 10.82-2.28 16.42-1.54 1.65.22 2.85-.44 2.35-2.46-.43-1.76.05-4-2.59-4.57-2.34-.47-4.69-.92-7-1.53-.69-.18-2.26.61-1.94-1 .2-1 2.39 0 2.65-2.28-7.41 1.58-15 4.4-21.44-3 .36 2.29 3.32 2.57 2.19 4.77-.9 1.73-2.41.69-3.71.88-9.61 1.39-13.43-7.64-20.34-11-1.36-.67-2.06-3.36-4.06-1.92-2.32 1.68.14 2.79 1 4 1.89 2.83-.46 3-2.18 3.85s-4.55.23-3.8 4.46c.41 2.33-3.94 1.09-4.31-.45-.82-3.48-2.34-1.94-4-1.23-2.34.15-4.56-.54-6.82-.9a13.07 13.07 0 0 0-4.23.66 20.49 20.49 0 0 1-3.4.24h-5.78c-1.46-1.23-4.2-1.76-2.77-4.68z" fill="#fafaf8"/><path class="cls-88" d="M493.43 442.83l2.77 4.7c-2.26 1.26-5-1.18-7.51 1.77-1.57 1.87-4.53-.35-6.79-1.86-2.46-1.64-6.18-4.08-8.16-3.27-8.79 3.59-6.37-1.66-5.4-6.07.31-1.43.67-2.83-.51-4.12-3.16-.13-1 4.89-4.3 4.54a1.76 1.76 0 0 1-1.72-1.93c.24-2.76 2.23-5.42.35-8.38-3-.4-1.27 3.13-3.8 4.21 1.67-6.92-5.05-7.45-7.72-11.75-1.09 3.37 1 5.29 2.21 7.4 1 1.75.26 2.8-1.34 3.23s-4.43.46-4-1.52c2.4-10.2-5.22-7.76-10.3-8.65-.31-.05-.53-.67-.94-1.23 3-3.42 6.79 2.14 10.83-1.85-8.1-1.25-15.36-2.39-22.63-3.41-.4-.06-1.42 1-1.34 1.25 2.25 8.17-4.7 9.21-9.4 12.16 2 1.52 5.53-.27 6.61 2.93a1.85 1.85 0 0 1-1.32 2.25c-2.83 1.14-6.41 3.33-8.61.84-3.22-3.65-5.73-1.91-8.71 0-1.33-3-.41-6.73-5-7.36-2.62-.36-2.23-3.93-1.58-5.58 2.37-6-1-9.61-5.43-11.27-4.16-1.57-8.29.67-10.27 5.85-4.54-5 2.31-8.83.19-13 7.47 1.16 1.16-8 4.33-7.89-.53.4-4.79-2.59-5.46 2.95-.33 2.71-2.66 3.83-5.46 3.42-1.75-.26-3.63-.8-3.4-2.91.31-2.93 2.91-2.65 5-2.86 1.26-.12 2.47-.45 2.59-1.92 0-.59-.56-1.78-.81-1.76-4.69.31-3.49-3.82-5-5.77-2.45-3.08-2.65-5.86-1-7.9 2.55-3.14 4.06 2 6.94 1.9 1.69-3.42 1.32-7.62-.92-9.83a16.81 16.81 0 0 1-5-10.83C371 353 368.2 357.7 366 358c1.57-9-2.75-15.52-7.87-22.28-1.46 3.94 3.56 6.31.39 11.42-1.54-6.63-5.73-11.4-2-17.43 1.4-2.25-4.45-5.51 1.15-6.89 9.67 21.7 20.93 42.68 29.36 64.94 1.87 4.94 4 9.79 5.68 14.79 1.42 4.27 3.32 7.86 7.63 9.89 3.23 1.52 5 4.31 5.73 7.85.62 3.05 2.44 3.78 4.26 1.1 5.42-8 13.28-10.36 22.37-10.68 9.71-.35 18.65 1.75 26.37 7.72 11.17 8.57 21.37 18.45 34.36 24.4z"/><path class="cls-89" d="M291.06 69.05c3.51 7.28.76 16.5 7.93 22.93 2.66 2.38-4.45 3.81-3.55 7.42-.34 1.14-1.31 3-.92 3.32 3.88 3.69.07 8.69 2.35 12.59a1.54 1.54 0 0 1-.93 2.33c-11.31 2.12-5.87 9-4.25 14.78a6 6 0 0 1 .23 1.4c0 .2-.21.4-.65 1.15-5-5.1-8.13-3.21-12.49 1.76s-1.93-3.26-4.81-3.32c-3.52 1.13-4.5 3.87-3.39 7.68 1.42 4.85 2.55 9.92 5.89 13.82 4.2 4.9 1.39 6.95-2.93 8.69-1.56.63-3.2 1-4.73 1.74a3 3 0 0 0-1.77 3.56c.35 1.69 1.62 2.15 3.21 2.2 3.58.11 7.17.3 10.75.45-5.13 3.14-10.73 1.14-16.09 1.31-3.11.1-2.78-2.78-2.57-4.9.23-2.36 2.67-5.42 4-5.32 3.14.23 4.74-4.53 8.93-2.48-5.42-2.21-2.51-11.39-10.61-11.09-1.17 0-2.53-4.2-2-7 .59-3.34 2.26-6.6.25-10.18-.42-.74-1.16-6.67 3.32-2a4.21 4.21 0 0 0 2.47.76c2.77-5.9 8.09-4.57 13.09-5.65 6-1.3 4.65-8.86 3.51-12.26-1-3-2.87-6.16-3.4-9.65-.76-5 5.67-4.07 6.39-7.84 2.27 1.8 5.12 2.17 5.64-.9a8.09 8.09 0 0 0-3.58-7.74c-5.61-3.92-5.16-13.2.71-17.56z"/><path d="M296.06 213.86c.09.18-2.82 1.83-4.58 2.95" fill="#d9161b"/><path class="cls-91" d="M285.18 222.27c1.41.19 3 0 4.2.62M322.78 226.8c-3.73 1.45-7.85-1.25-11.5 1.1"/><path class="cls-92" d="M328.78 230.68c6.39 4.14 6.46 10.93 7.31 17.4-2.56-1.54-3-4.07-3.14-6.75-.07-2.05-.65-4-2.83-4.42-5.53-1.09-3.07-3.69-1.34-6.23z"/><path class="cls-92" d="M311.28 227.9c3.58-3 7.53-2.15 11.5-1.1l6 3.9c-6.19 1.3-11.44-3.31-17.5-2.8z"/><path class="cls-88" d="M502 447.53a3 3 0 0 1 2.9-1.44c1.91 1.06 3.11-.13 4.31-1.35 2.59.46 5.21.85 7.24 2.79-4.84 3.07-9.66 2.32-14.45 0z"/><path class="cls-89" d="M286.74 57.5c2.64 2.29 5.09 4.69 4.32 8.68-3.35-1.94-5.37-4.55-4.32-8.68zM286.74 53.17c.64.57 1.69 1.06 1.81 1.73.23 1.22-1 1-1.83 1.17l-3.11 4.64c-.61-4.21.56-6.13 3.13-7.54z"/><path class="cls-92" d="M298.44 229.15c4.41 1.09 8.54-.75 12.8-1.25-3.95 3.68-8.19 4.34-12.8 1.25z"/><path class="cls-89" d="M267.11 155.51c.09 1.37-1 1.4-1.86 1.51s-2-.05-2.24-1.11c-.29-1.34.93-1.4 1.81-1.5a2 2 0 0 1 2.29 1.1z"/><path class="cls-11" d="M270.29 68.26a5.22 5.22 0 0 1-1.9.53.79.79 0 0 1-.45-1.46 3.37 3.37 0 0 1 1.89-.48c.11 0 .27.79.46 1.41z"/><path d="M211.91 143l-1.63-3.13c0-1.25.49-2.67 1.7-2.48 2.44.38.62 2.6 1.23 3.86z" fill="#575757"/><path d="M287 45.85c-8.73-2.68-12.23-9.27-9.25-17.26.42-1.12.6-2.51-.44-3.34s-2.16 0-3.1.77c-1.11.88-2.27 1.7-3.41 2.55.35-2.4 1.07-5-2.78-5.1-1.89-.07-3.23-.88-3.15-3.06-.71-1.9.25-2.26 1.86-2 2.59 1.18 6.38-.86 7.79 4 .54 1.86 4.39-2 8-.37-5.2 8.96-4.22 17.27 4.48 23.81z" fill="#f5f9ee"/><path d="M266.69 18.4l-1.86 2c-3.3-6.57-11.07-10.49-11.26-18.92 6.56.52 13.06 8.91 13.12 16.92z" fill="#f0e5dc"/><path d="M594.21 464.29v-.87" fill="#f50513"/><path d="M552.62 405.58c-.31 2.34-.48 4.77-3.29 5.66.16-2.43.78-4.6 3.29-5.66z" fill="#bf5341"/><path d="M5.05 111q0 171-.05 342c0 3 1.19 6.3-1.39 8.94-1.37-2.75-.66-5.68-.67-8.51q-.06-164.83-.07-329.66c0-2.83.74-5.77-.7-8.5v-4.34z" fill="#0e0a09"/><path d="M2.17 115.29c2.58 2.64 1.38 6 1.39 8.94Q3.65 293.1 3.6 462c-2.48-2.39-1.39-5.46-1.39-8.21q-.08-169.27-.04-338.5z" fill="#060502"/><path class="cls-100" d="M208.74 96.51c2.55 1.74 2.46 5.07 4.34 7.21-2.6 6-1.38 12.67-3.25 19.29-3.64-1.83-5.54-4.12-4.37-8 1.86-6.01 4.07-12.01 3.28-18.5z"/><path class="cls-2" d="M208.77 150c2 2 2 3.91-.13 5.79a6.15 6.15 0 0 1 .13-5.79z"/><path class="cls-28" d="M243.42 16.22c1.59.42 2.84 1.16 2.59 2.83a2.56 2.56 0 0 1-3 2.24 2.28 2.28 0 0 1-2-2.43c.09-1.49.76-2.66 2.41-2.64z"/><path d="M250.53 21.35a2.57 2.57 0 0 1-2.47-2.75 2.33 2.33 0 0 1 2.75-2.4 2.39 2.39 0 0 1 2.19 2.34c.09 1.63-.8 2.57-2.47 2.81z" fill="#a5a6a7"/><path class="cls-100" d="M259.35 37.41l-1.84-1.82a6 6 0 0 1 1.42-5.33l3.14 1.21a3.55 3.55 0 0 1 1.86 4.15l-1.71 1.57a1.91 1.91 0 0 1-2.87.22z"/><path d="M252.4 28.26c-.67-1.81-1.65-3.75.86-4.9a2 2 0 0 1 2.84 1.43c.75 3.14-1.23 3.66-3.75 3.42l-.27.27z" fill="#b3b3b3"/><path d="M263.93 35.63c-1.1-1.17-2.11-2.38-1.86-4.15 1.52-1.4 3.26-2.25 4.38.16 1.03 2.2-.75 3.24-2.52 3.99z" fill="#bfbebf"/><path d="M259.35 37.41l2.86-.21c.85 1.41 1.94 2.91.11 4.26a2.81 2.81 0 0 1-2.51.26c-1.81-1.13-1.15-2.77-.46-4.31z" fill="#c8c7c7"/><path d="M258.93 30.27c1.07 2.19.71 4-1.42 5.33-1.49-.7-2.92-1.57-2.4-3.51s2.13-2.09 3.82-1.82z" fill="#c6c6c6"/><path d="M262 26.86c-.22.83-.57 1.33-1.41 1a2.7 2.7 0 0 1-1.85-2.67c0-.35 1.17-1 1.46-.9a2.79 2.79 0 0 1 1.8 2.57z" fill="#e4e4e4"/><path class="cls-3" d="M561 463H366.68v-.52H561v.52zM509.19 444.74c.26.83 1 1.93 0 2.43a3.21 3.21 0 0 1-4.31-1.08z"/></svg>