<svg data-name="图层 1" xmlns="http://www.w3.org/2000/svg" viewBox="0 0 146.79 89.19"><path d="M6.05 20.26c14.69 6.52 29.24 8.84 43.23 12.94 8.31 2.43 16.52 5.22 24.82 7.71 8.29-2.41 16.49-5.15 24.8-7.5 12-3.41 24.1-6.54 36.1-9.91 1.85-.52 3.52-1.71 6.56-2-1.72 5.23-3.12 10.59-5.23 15.66-6.24 15-14.54 28.47-29.22 36.88-2.2 1.26-3.67 1.77-6.2.14-5.76-3.7-15.89-1-21.75 5.24-1.79 1.92-3.29 4.12-4.35 5.47C69.75 81.13 65 77.12 59.82 74c-4.36-2.64-9.13-2.11-13.79.39-1.27.68-3.71.2-5.14-.6-14.58-8.16-23.11-21.29-29.15-36.28C9.48 31.91 7.93 26 6.05 20.26zm99.46 51.24c5-10.85 9.57-14.32 13.75-13.94-.9-6.09.78-8.3 7.53-10.29-.59-1.73-1.77-3.53-1.61-5.2.2-2.13 1.47-4.16 2.53-6.89-4.93.78-9 1.71-13.08 2-2.47.14-5-.8-7.9-1.33-1 1-2.65 3.54-5 4.57C93.35 44.11 88.22 50.67 84 58.71c3.57 1.42 6.81 3.88 9.92 3.72 8.97-.48 9.58-.43 11.59 9.07zm-82.9-35.85c.26 3.92 5.56 7.59-.54 11.32 6 0 9.81 4.48 8.58 9.46 6.47 2.13 10 7 13 13.27 0-7 5-8.63 9.5-7.84 4.9.85 7.5-2.76 12-2.71-4.11-7.64-8.13-14-15.14-17.93-3-1.67-5.83-3.6-8.76-5.42-.11.21-.65 1.81-1 1.78-5.83-.51-11.66-1.24-17.64-1.93z" fill="#fff" stroke="#0c0a0a" stroke-miterlimit="10"/><path d="M105.51 71.5c-2-9.51-2.62-9.55-11.58-9.07-3.11.17-6.35-2.3-9.92-3.72 4.22-8 9.35-14.6 17.75-18.34 2.32-1 4-3.6 5-4.57 2.91.53 5.44 1.48 7.9 1.33 4.09-.24 8.15-1.17 13.08-2-1.07 2.73-2.34 4.76-2.53 6.89-.15 1.67 1 3.47 1.61 5.2-6.75 2-8.43 4.2-7.53 10.29-4.22-.33-8.78 3.14-13.78 13.99zM22.61 35.65c6 .69 11.81 1.41 17.66 1.92.39 0 .93-1.57 1-1.78 2.93 1.82 5.77 3.75 8.76 5.42 7 3.92 11 10.29 15.14 17.93-4.51 0-7.12 3.56-12 2.71-4.52-.79-9.53.82-9.5 7.84-3-6.25-6.57-11.14-13-13.27 1.23-5-2.59-9.47-8.58-9.46 6.08-3.72.78-7.39.52-11.31z"/></svg>