<svg id="图层_1" data-name="图层 1" xmlns="http://www.w3.org/2000/svg" viewBox="0 0 604.36 421.68"><defs><style>.cls-1{fill:#e50618;}.cls-2{fill:#faf9f9;}.cls-3{fill:#f7f5f5;}.cls-4{fill:#fbfcfb;}.cls-5{fill:#fafaf8;}.cls-6{fill:#8a2517;}.cls-7{fill:#fcfcfc;}.cls-8{fill:#090909;}.cls-9{fill:#fbfbfb;}.cls-10{fill:#0b0b0b;}.cls-11{fill:#040404;}.cls-12{fill:#e1dfe1;}.cls-13{fill:#9c9194;}.cls-14{fill:#fdfdfd;}.cls-15{fill:#f8f8f7;}.cls-16{fill:#010b00;}.cls-17{fill:#f0eff0;}.cls-18{fill:#e0e0e0;}.cls-19{fill:#d2d5d6;}.cls-20{fill:#2e2d2d;}.cls-21{fill:#d0d0d0;}.cls-22{fill:#b4b9b7;}.cls-23{fill:#262625;}.cls-24{fill:#414040;}.cls-25{fill:#c8c8c8;}.cls-26{fill:#bdbdbd;}.cls-27{fill:#cdcfce;}.cls-28{fill:#c2c2c2;}.cls-29{fill:#dadbdb;}.cls-30{fill:#d5d5d5;}.cls-31{fill:#c8c9ca;}.cls-32{fill:#d7d8d8;}.cls-33{fill:#d6d6d6;}.cls-34{fill:#cacaca;}.cls-35{fill:#c6c6c6;}.cls-36{fill:#d3d3d4;}.cls-37{fill:#b1b0b2;}.cls-38{fill:#cfcecf;}.cls-39{fill:#babbba;}.cls-40{fill:#d9d9d9;}.cls-41{fill:#dee0df;}.cls-42{fill:#e9eaeb;}.cls-43{fill:#e5e5e5;}.cls-44{fill:#d3d3d3;}.cls-45{fill:#e8e8e9;}.cls-46{fill:#f2f2f2;}.cls-47{fill:#434242;}.cls-48{fill:#969696;}.cls-49{fill:#cbcbcb;}.cls-50{fill:#d4d4d4;}.cls-51{fill:silver;}.cls-52{fill:#9d9d9d;}.cls-53{fill:#424242;}.cls-54{fill:#fafafa;}.cls-55{fill:#b1b3b2;}.cls-56{fill:#d4d4d5;}.cls-57{fill:#5c5c5d;}.cls-58{fill:#ccc;}.cls-59{fill:#434645;}.cls-60{fill:#d9dcdc;}.cls-61{fill:#bfc0c0;}.cls-62{fill:#5d595b;}.cls-63{fill:#dbdbdc;}.cls-64{fill:#e9e9e9;}.cls-65{fill:#d5d6d8;}.cls-66{fill:#dedede;}.cls-67{fill:#b2b2b4;}.cls-68{fill:#d1d3d3;}.cls-69{fill:#f5f5f5;}.cls-70{fill:#adadad;}.cls-71{fill:#2f2f2f;}.cls-72{fill:#bcbebe;}.cls-73{fill:#6e6e6e;}.cls-74{fill:#a4a7a6;}.cls-75{fill:#515151;}.cls-76{fill:#cecece;}.cls-77{fill:#b7b7b7;}.cls-78{fill:#b8b7b8;}.cls-79{fill:#cdcecd;}.cls-80{fill:#c8c7c9;}.cls-81{fill:#cccdcd;}.cls-82{fill:#c6c7c8;}.cls-83{fill:#c4c4c4;}.cls-84{fill:#cccbcc;}.cls-85{fill:#cecfcf;}.cls-86{fill:#d5d5d6;}.cls-87{fill:#dcdcdc;}.cls-88{fill:#d7d7d7;}.cls-89{fill:#dbdcdc;}.cls-90{fill:#ddd;}.cls-91{fill:#e0dfe0;}.cls-92{fill:#b3b3b3;}.cls-93{fill:#bcbcbc;}.cls-94{fill:#e5e5e7;}.cls-95{fill:#5f5f5f;}.cls-96{fill:#b9b8b8;}.cls-97{fill:#fefefe;}.cls-98{fill:#fbfafa;}.cls-99{fill:#21201f;}.cls-100{fill:#3d3a39;}.cls-101{fill:#2a2928;}.cls-102{fill:#474645;}.cls-103{fill:#474546;}.cls-104{fill:#262727;}.cls-105{fill:#1f1f1f;}</style></defs><title>bg1</title><path class="cls-1" d="M164.07,414.32a24.66,24.66,0,0,0,3.9.17c4.83.26,9.73-.86,14.47.85a1.09,1.09,0,0,1,.44,1.49"/><path class="cls-2" d="M435,421.42l-6.66.11c-.16-.19-.52-5.94-.68-6.12a3.85,3.85,0,0,1,.05-1.49c5.5-16.24,11.79-32.1,21-46.71,4.08-6.48,6.63-13.77,10-20.63.92-1.87,1.45-4.17,3.85-4.93,1.13.3,1.73,2.76,3.56.39,1.22-1.58,3.1-3.54,5.79-2.11-4.39,5.16-6.48,11.46-8.86,17.65"/><path class="cls-3" d="M183,420.28c-.72-1.24-.6-6.29.81-6.64,1.15.18,2.18.8,3.37.81q116.25.15,232.47.07c2.76,0,11.42-.17,8.21,1.2l.42,5.81"/><path class="cls-4" d="M.52,304.07l-.64-1.15c-.47-5,1.48-6.8,6.83-7.46,26.27-3.2,52.47-7.07,78.71-10.58,2.74-.37,4.48-1.24,4.35-4.2-.37-8.42,4.31-11.4,12-13,8.32-1.73,16.56-4,25-4.48,10.55-.62,17.1-8.27,25.18-13.25,1.55-1,.85-2.68.76-4.15-.53-8.87-1.93-17.56-5.84-25.63-1.34-2.76-1-4.85.66-7.36,3.16-4.86,5.81-10,9.43-14.61.87-1.88,2.83-2.67,4.14-4.1l-.07.07c1.89-2.06,2.93-4.72,4.89-6.76,1.74-1.81.5-3.84-.33-5.54-3.77-7.71-7.8-15.26-14.85-20.63-6-2.62-6.67-7.57-5.54-13.08,1.22-6,1.43-12,1.69-18.06A3.84,3.84,0,0,1,148.1,127c4.72-1.63,9.33-3.81,14.18-4.77,9.41-1.86,16.09-7.79,22.31-14.26,2.61-2.71,4.87-3.22,8.29-2.54,19.43,3.89,39,6.64,58.74,8.65,8.13.83,15.84.8,23.33-2.81,2.84-1.37,5.88-2.32,8.83-3.46a18.11,18.11,0,0,1,3.3-1.79c4.45-2.26,8.35-.7,12.72.95,14.28,5.39,28.77,10.21,43.2,15.19,2.5.86,4.56-.84,6.52-1.86,4-2.07,7.8-2.46,11.87-.39,8.87,4.49,17.71,4.79,26.45-.39a2.9,2.9,0,0,1,.93-.37c9.91-1.83,15.94-7.13,16.1-17.82,0-2.1,1.17-3.52,3.26-4.54,7.31-3.58,14.35-7.8,22.82-8a5.45,5.45,0,0,0,4.82-2.91c.85-.5,1.16-1.75,2.15-1.92,4-.69,4.58-3.12,4.62-6.87a14.23,14.23,0,0,1,3-7.87c2-.62,4.14-1,5.46.93s-.27,3.51-1.29,5c-3.13,4.42-4,9.46-4.06,14.67-.12,5.73-1.41,7.23-7.16,8.09a78.23,78.23,0,0,1-9.46.49c-10.48.3-15,3.42-16.78,14-1.23,7.35-5.13,10-11.7,11.17-5.78,1-10.94,4-16.24,6.32-9.07,4.05-18.17,6.53-27.87,2.18a3.06,3.06,0,0,0-1.46-.29c-18.11,1.5-34.59-5.7-51.58-9.93-6.87-1.71-13.72-2.31-20.67-3-3.63-.33-5.56,2.74-8.46,3.8s-5.77.19-8.57,1a10.27,10.27,0,0,1-1.54.36c-3.37.55-6.85-.26-10.18.85a9.56,9.56,0,0,1-1.62.3c-3.07.17-6.14.11-9.21.09a12.89,12.89,0,0,1-2.51-.36q-8.67-1.05-17.37-1.65c-9.86-1.58-19.81-2.44-29.7-3.76a10,10,0,0,0-8.29,2.68c-7.83,7.06-16.13,13.25-26.24,16.87-4,1.43-4.47,9.9-.9,13.54,7.27,7.42,12.83,16.15,19.17,24.28,2.83,3.62,4.28,7.85,5.3,12.28a7.33,7.33,0,0,1-2.73,8A93.18,93.18,0,0,1,168.95,205c-6.13,3.65-8.28,8.36-6.51,15.13,1.7,6.52,2,13.18,2.23,19.8.15,3.68.87,6.79,3.09,9.7s1.7,5.12-1.64,6.85c-10.51,5.43-20.53,11.71-30.68,17.77a10.87,10.87,0,0,1-8.11,1.49c-6.74-1.37-13.24.34-19.73,1.82-3.37.77-4.45,3.32-4.32,6.42.2,4.7-2.41,6.45-6.6,7-30.32,4.31-60.52,9.41-90.88,13.45C4,304.72,2.19,305.38.52,304.07Z"/><path class="cls-5" d="M596.86,104.92l-.14,1.64c0,2.9.36,5.24,3.74,6.58,5,2,4.93,2.31,1.15,6.69l-.79,1c-2.54,2.39-6,2.7-9,4v0c-2.08,1.78-1.79,4.44-2.34,6.73-.39,1.61-.37,3.24-1.9,4.28-3.33,3.65-6,7.85-10.23,10.74-2.59,1.77-1.19,5-1.18,7.49,0,2.77-.48,4.31-3.57,2.93-3.87-1.73-6.84-1.56-9.79,2.3-1.74,2.28-5.22,3.22-7.92,4.76-2.2,1.14-4.69,1.19-7,1.86h0c-.74.69-2,.56-2-.13-.16-3.91-2.74-1.91-4.46-2L537.89,165a64.12,64.12,0,0,1-8.29,2.87c-1.74.08-3,1.14-4.4,2-3.35,2.2-4.22,4.55-1.27,8,2.77,3.2,5.07,6.81,7.58,10.24,1.44.47,1.58,1.93,2.25,3v0c3.09,2.63,6.45,5,7.9,9.08l0-.05c5.4,3.5,8.23,9.24,12.19,14,4.19,5.82,10.21,9.9,14.88,15.65-4,2.55-7.7,3.93-12.28.91-6.86-4.53-15.41-4.94-22.69-8.57.53-.4-.2.14.33-.26a1.89,1.89,0,0,0-.39.24c-4.67-1-8.83.59-12.89,2.63-3.93,2.68-8.83,3.05-12.89,5.42-2.12-3.39.82-4.9,2.71-6.41,3.79-3,8.33-4.68,12.91-6.14a7.37,7.37,0,0,0,6.17,2c1.75,0,.89-1,1.09-.37.06.18-.09.32-.39.24-1.16-.31-3.13.8-3.35-.92-.2-1.55,1.51-1,2.4-1-1.72-1-3.07,1.15-4.8.83a3.56,3.56,0,0,1-1-.79c.08-.31.34-.57.38-.92a1.56,1.56,0,0,1-1.55.76c-2.87.44-5.44-1.13-8.28-1.12-4.11,0-8.18-.06-12,1.75-2.06-2.55-1.21-5,1.61-5.1,10.44-.31,21.06-2.65,31.22,1.82,3,3.58,6.93,5.11,11.43,5.56a7,7,0,0,1,5.79,3.19c-.05,1-1.22,1-1.61,1.66.75-.42,1.88-.41,1.89-1.67-3.92-2.86-6.85-6.64-9.68-10.5-9.78-13.35-22.56-23.86-33.85-35.78-1.26-1.33-2.62-2.55-3.85-3.89-3.71-4-3.3-5.45,2-6.95a69.87,69.87,0,0,0,9.46-3.08c1.4-.62,3.22-1.73,3.92,1a8,8,0,0,1-.28,1.82c-.13.65.19,1,.06.3s.82,0,.26-.34c2.36-4.29,6.38-6.21,10.69-7.71,7.1-2.46,14.66-2.88,21.88-4.83,2.57-.69,3.3.57,2.5,2.68,5.66-.2,7.45-9.17,15.27-6.47-2.93-7,1-10.37,6.38-13.58a17.25,17.25,0,0,0,8.13-11c1-4.45,3.07-6.87,9.1-5.89-3.06-2.69-6.35-4.14-5.29-7.94,1.83-7.19,5-14.11,4.34-21.8a15.11,15.11,0,0,0-.71-4.89,17.4,17.4,0,0,0-2.23-4.94c-2.3-5.09-.31-10.56-1.45-15.75-2.39-5.23-4.95-10.48,1.06-15.41a4.57,4.57,0,0,0-2,1c-8.35,4.6-9,4.23-10.78-5.2-.86-4.68-3.91-8-7.53-10.73-2.19-1.64-.73,1.26-1.49,1.58a2.05,2.05,0,0,1-1.63,1.22c-2.93-.39-5.1-2.33-7.54-3.71-2.77-1.57-5.63-3.44-8.79-3.26-6.34.36-10.19-3.26-13.8-7.56-1.22-1.45-1.52-3.4-4.7-2.16-2.28.88-3.65-2.76-5-4.73-.36-.16-.63,0-.67.38-.67,7.78-.64,7.6-8.19,6.29C508,19.94,498.81,23.61,490.82,29c-5.75,3.89-11,5.06-17.92,2.57,2.59,3.4,2.05,5.74-1.45,7.06-2.85,1.08-4.91,3.42-7.63,4.69-4.25,2.41-7.6,5.27-7.85,10.79-.22,4.81-1.78,5.45-6.22,3.29a2.86,2.86,0,0,1-.5-1.33c2.79-4.1,3.13-9.24,5.72-13.42.68-.19,2.19.64,1.53-1.25,1.43-3.43,5.3-4.28,7.4-7a6.31,6.31,0,0,0-.12-5.58L463,24c4.6-.18,8.64,2,12.91,2.64,3.35.53,5.88.11,8.56-2.27,6.65-5.92,15.57-7.08,23.44-10.47,8.61,1.31,12.76-3,13.91-11.06.57-2.44,2.43-3,4.51-2.78s1.49,2.28,2,3.53a16.67,16.67,0,0,1,.74,2.89c.74,3.33,1.72,5.88,5.51,2.41,2.19-2,3.44-1.11,4,1.57a35.26,35.26,0,0,0,1.16,3.75q.5.17.38.44c-.08.2-.17.3-.26.3-.34,2.29.74,3.62,2.71,4.72a40.72,40.72,0,0,0,11.63,4.09c2,.42,5.1,2.65,4.76-2.33-.1-1.51,1.23-1,2.16-.58l6.58,3.29,0,0c.93.67,1.77,1.67,2.81,2,7,2,11.15,6.51,12.77,13.54.74,3.2,2.67,3.18,5.13,1.8,3.09-1.73,6.24-3.36,10.28-5.52l-2.92,13.89h0c-2.87,3.67-4.1,7.44-.9,11.62a7.77,7.77,0,0,1,1.41,4.69c.11,8,1.14,15.79,4.28,23.26,1.36,3.24-1,6-1.7,9C598.3,100.6,596.65,102.48,596.86,104.92Z"/><path class="cls-5" d="M445,69.65c.29,5.1-1.9,9.83-2.24,14.85-.06.88-.63,1.17-1.69.41-1.88-1.34-3.4,1.13-5.27.93.87-3.36,1.65-6.74,2.65-10.06.51-1.72,1.13-3.25-1.24-4-2.2-1.17-6.51-1.6-1.4-5,1.14-.76-1.06-2.2-1-3.51.17-2.68-2.81-5.24-1.34-7.54,2.16-3.38,4.47.77,6.9.82,3.07.06,6.14.54,9.23.12L450,57c2.51,3.06,0,3.35-2.46,3.81,2.11.49,4.87-1.57,5.36,2.09-2.83,2-5.78,1.59-8.77.48a7.62,7.62,0,0,1-1.38-1.31c-.72-.81-1.32-1.94-2.71-1.37a.94.94,0,0,0-.58,1.17c.42,1.33,1.71,1.24,2.74,1.55C444,65.13,443.52,67.82,445,69.65Z"/><path class="cls-6" d="M464.67,35l-.94-2.11q0-2,.08-4C464.3,30.85,466.76,32.6,464.67,35Z"/><path class="cls-7" d="M183,420.28c-5.25-.06-13.7.06-18.94,0-2.12-2.25-1.39-8.76-4-10.4a10.36,10.36,0,0,1-1.1-.79c-3.77-3.12-7.77-5.94-11.7-8.86-1.28-1-2.51-2.23-4.37-1.34a19.31,19.31,0,0,1-7.1,2c-9.88,4.4-20.21,3-30,7.58-2.45,1.14-4.43.54-6.67-.22-30.82-10.58-61.25-15.45-92.09-26-1.87-.64-3.83-1-5.74-1.49-2.5-5.1-.25-10.59-1.32-15.81l.59-1c1.63-1.17,3.22-.32,4.75.18,32.15,10.3,64.49,20,96.54,30.57a22.56,22.56,0,0,0,15,0c9.14-3.07,18.42-5.74,27.51-9,4.19-1.48,7.38-1,9.71,3.19,1.77,3.16,5,4.82,7.94,6.68,4.07,2.58,8.33,4.85,11.38,8.78,1.73,2.23,4.42,1.93,6.88,2.22,5,.59,6,3.2,3.2,7.86"/><path class="cls-8" d="M0,309.86c0-2.15.24-4.31.37-6.46,32.43-4.9,64.86-9.85,97.32-14.6,3.29-.48,4.41-1.4,4.34-4.84-.15-7.46.1-7.31,7.47-9a51.53,51.53,0,0,1,17.35-1.15,15.52,15.52,0,0,0,10.3-2.7c10.29-6.39,20.41-13.06,32.25-18.24-6-4.87-6.74-10.92-6.32-17.42.33-5-.94-9.91-2.16-14.77-2.13-8.48,0-13.22,7.57-17.72a31.16,31.16,0,0,0,5.78-3.88c2.59-2.47,7.7-4.06,7.32-7.49-.54-4.88-1.7-10.11-5.21-14.32-7.24-8.68-13-18.57-21.57-26.16-1.3-1.15-.86-2.49-1-4-.62-8,4.46-10.91,10.82-13,8.22-2.66,13.86-9,20.21-14.34a9.62,9.62,0,0,1,8.19-2.42c9.87,1.45,19.79,2.63,29.69,3.92,6.1,1.41,12.36,1.31,18.55,1.9l1.43,0a18.39,18.39,0,0,0,10,0l.3-.24.34.19c3.68-1.23,7.66.68,11.29-1.09l-.11.05c3-1.08,6.23.59,9.13-1,6.34-7.19,14.55-4.86,21.78-3.15C311,121.6,326.37,126,342,129.55c1,.22,2.05.86,2.9.63,9.14-2.44,17.78,2.89,26.82,1.6a15,15,0,0,0,3.4-.57c10.3-4.1,20.32-9,31.15-11.63,2.6-.64,3.48-2.16,3.7-5,.35-4.49,2.19-8.67,4.25-12.71,2.47-4.84,7.35-4.8,11.64-5.46a69.35,69.35,0,0,1,13.46-.65c4,.17,5.11-2.22,5-5.19-.38-7.61.88-14.53,6.88-20.12-2-1.63-4.47-.39-6.29-1.53a5.14,5.14,0,0,1-3.13-5.62c-1.41-.61-2.86-1.68-1.59-3.09s2.49.3,3.56,1.15c3.1,1.67,6.17.87,9.23-.12,1.23-4,5-5.7,7.49-8.5a16.9,16.9,0,0,1,2-3A26.54,26.54,0,0,0,460,53.1c-2.16,1.34-2.93.12-2.49-1.72.83-3.46,1.8-7,5.3-8.92,2.52-1.81,4.28-4.67,7.54-5.47,3.86-.94,3.78-2.85,1.29-5.35-.57-.57-1-1.22-1.95-2.31,4.56.11,8.38,2.68,12.66,1.7,1.62-.37,3.11-.51,4.52-1.65a43.47,43.47,0,0,1,27.58-9.76c2.16,0,4.34-.24,6.34.82,4,2.13,4.29,0,4-3.28-.23-2.36-.88-4.88,1.18-7.5,2.49,3.3,2.59,7.8,6.59,9.5.83-1.53.46-3.62,2.65-5-.26,6.11,5,8.27,8,12a2.84,2.84,0,0,0,2.18.86c8.57-1,14.69,4.28,21.35,8.21A6.61,6.61,0,0,1,569,37.18c0-.06.12.08.12.08s-.17-.31-.2-.35c-.83-.8-.67-1.92-1.07-2.84l-2.27-4.35c6.27,1.34,12.7,8.57,13.36,15a37.14,37.14,0,0,0,.5,4.91c.34,1.39,1.06,2.35,2.82,1.06,3.11-2.29,7.25-2.83,10.19-6-3.59,5.63-7.32,11-2.54,17.51-.36,4.74.65,10.18-6,11.72a3.17,3.17,0,0,1-1.4-.43c-2.27-2.14-.52-6.1-3.93-8.1-1.68,3.17-2.23,6.69-3.26,10a2.3,2.3,0,0,1-.69,1.18c-2.36.81-3.23-1.16-4.5-2.4A6.91,6.91,0,0,1,568.44,72c.34-1.92,1.06-3.89.25-5.79-1.18-2.76-1.69-.61-2.29.44A8,8,0,0,1,565,69.76c-1.94,1.61-4,3-6.66,2.89-1.49-.07-2.7.29-2.41,2.21a1.73,1.73,0,0,1-.44,1.83,3.22,3.22,0,0,1-3.14.16c-.18-.07-.29-.3-.51-.36,0,0,0,.15.07.47-2.35,2.61-4.14-1-6.29-.52-1.1-1-1.93-3.58-3.68-.59a2.71,2.71,0,0,1-3.1.72A10.61,10.61,0,0,0,535.49,72c1-2.41,3.3-.63,4.79-1.46A2,2,0,0,0,541,68.9c-.32.54-.06,1.34-.79,1.69a21.29,21.29,0,0,1-4.09.12c-1.22-1.31-1.37-4-4.23-3.18-.54-.42-.91-.87-.13-1.42-.73.17-.59,1-1.13,1.38-2.29-.29-3.58.25-2.38,2.86a3.18,3.18,0,0,1-1.3,2.31c-1.19.72-2.78,1.11-2.46,3,1.94,2.05,2.83-1,4.35-.89a11.61,11.61,0,0,1,4.2.66c1.61.75,4,.47,4.13,3.16.61.67-2.58.69-.27,1.67-1.58,1.53-.36,4.43-2.71,5.58-.61.43-1.81.21-1.88,1.07,0,.54,1.06.47,1.66.68,2.14.62,2.81,3.85,5.68,3.14a2.93,2.93,0,0,0,3,.17,15.33,15.33,0,0,1,3.2,0c.84.34,1.7,1,2.42-.22a7.2,7.2,0,0,1,1.43-2,3.72,3.72,0,0,1,3.17-.77c1.09,1,3.07,1.15,2.89,3.25-.32.49-1,.67-1,1.39a3.39,3.39,0,0,1,.8-1.16,2.66,2.66,0,0,1,3.57.05,2.86,2.86,0,0,1-.48,2.66c-1.17,3.32-4.29,2.21-6.61,2.92a4.49,4.49,0,0,0-1.23,2.08c.84-.57.46-1.82,1.4-2.21a17.76,17.76,0,0,1,4.15-.14c1.62,1.36,0,2.38-.36,3.53-.88,1.28-.17,2.95-1,4.24a21.46,21.46,0,0,0-2.75,3.52c-1,.83-1.82,0-2.71-.15-1,.41-.27,1.3-.5,1.91-.79,1.54-2.45,1.48-3.76,2.07a11.51,11.51,0,0,1-3,.81,12.57,12.57,0,0,0-3,.15c-1.55.26-1.94,1.28-1.76,2.66,1.05,1.91,6.13.25,4.24,4.75-1.36,1.11-3.68.09-4.71,2.46,1.64-2.06,2.94-2.39,3.66.32.46.78,1.27.76,2,.88-.56-.51-1.54,0-2-.82-.83-1.33,0-2.09,1-2.78,2-1,2.43-5.47,6.11-2.75a1.44,1.44,0,0,0,2.12.28c6.38-2.34,7.81-1.28,7.16,5.38a8,8,0,0,0,.2,2.44c.77,1.55,1.48.29,2.21-.07a2.55,2.55,0,0,1,2.51-.5,8.43,8.43,0,0,1,2.11,3.42c-1.73,1.84-1.69,3.47.57,4.82,1.82-.48,2.37-2.14,3.23-3.46a.81.81,0,0,1,.88,0c.14-.44-.07-.3-.46-.38-1-.2-1-1.06-.94-1.91,1.2-1.39,4-.81,4.16-3.47.82-.93,2.17-1.24,2.77-2.43a2.09,2.09,0,0,1,1.47-1c.79,0,1.55,1.08,2.36,0a4.83,4.83,0,0,0,3.22-2.45c1.73-1.43-2-1.94-.57-3.33a5.64,5.64,0,0,1,2.45-1.07c1.63-.56,2.72-2.14,4.5-2.4a7,7,0,0,1,1.06-.59,1.25,1.25,0,0,1,1.09.33c.81,3.51,1.57,4.27,6.64,6.47-2.28,1.48-4.14,3.24-7.22,1.92-2.22-.95-1.81,1.46-2,2.43a21.19,21.19,0,0,1-11.19,15.64c-4.5,2.44-6.37,5.33-4.45,10.29.39,1,.26,2.25.5,4.65-4-5.51-6.38-3.9-9.34-.15-2.54,3.21-6.46,4.87-11.3,5.28.9-2.28,3.77-2.1,3.82-4.67-8.13,3.64-17.17,3-25.31,6.29-4,1.62-7.49,3.56-9.39,7.63-2.47-.27-1.16-1.67-.82-2.77.27-.7-.07-1.74-.58-1.45-5.08,2.91-11.07,3.19-17.17,5.85a489.72,489.72,0,0,1,51.71,54.59,1.58,1.58,0,0,1-2.15,0,14.29,14.29,0,0,0-5.81-3.2c-3.32-1.1-6.7-2.07-9.65-4a22.15,22.15,0,0,0-11.85-2.64c-6.27.25-12.56.25-18.83.05-3.42-.11-4.17,1.07-2.84,4a4.38,4.38,0,0,1,.4,3.39c-3.33,14-3.81,28.65-8.89,42.39a450.8,450.8,0,0,0-15.72,52,12.11,12.11,0,0,1-1.45,4.23c-4.91,7-9.86,14.08-14.35,21.41-4.95,9.92-9.33,20.18-15,29.69C439.68,384,434.23,398.34,429,412.83c-2.16,1.44-2.16,1.44-1.19,1.48l-1,0q-119.25,0-238.49,0a17.37,17.37,0,0,0-3.57.81c-1,.12-1.21-.54-1.41-1.27.11-1,.13-2,.33-3,.58-2.86-.07-4.55-3.44-3.88-4.41.88-7.17-1.2-10.18-4.38-3.24-3.42-7.73-5.66-11.7-8.38-2.7-1.85-5.59-3.31-6.69-6.94-.81-2.67-3.17-2.11-5.43-1.36-11,3.66-22.12,7.16-33.15,10.79a9.06,9.06,0,0,1-5.82.43Q53.82,380.21.38,363.3"/><path class="cls-9" d="M462.73,341.58c1.38-4.09,2.74-8.27,5.67-11.52,5.71-6.33,9-13.61,10.85-22,4.15-18.67,11.11-36.53,16.78-54.77,2.78-9,2.51-18.42,4.86-27.44.67-2.57,1.25-5.16,1.87-7.74.12-1.78.45-3.44,2.79-3.19,5.29.57,10.89-1.61,15.89,1.79.58.4,1.62.13,2.45.16v1c-1.73,0-3.36.16-3.9,2.17s-2.3,2-3.88,2.26c-4.52.67-7.31,3.15-8.13,7.71,1,1.24,1.58,3.08.9,4.14-2.3,3.61-.73,8.16-3.15,11.65-4.94,24.28-12.48,47.91-18.12,72a16.17,16.17,0,0,1-3.49,7c-4.19,4.92-8.18,10-12.25,15a13.4,13.4,0,0,0-7.45,5.32A5.81,5.81,0,0,1,462.73,341.58Z"/><path class="cls-10" d="M241.44,123.85c-6.26.13-12.55.5-18.55-1.9Z"/><path class="cls-10" d="M264.81,122.72c-3.56,2.42-7.52.74-11.29,1.09A43.84,43.84,0,0,1,264.81,122.72Z"/><path class="cls-10" d="M252.88,123.87a10.76,10.76,0,0,1-10,0Z"/><path class="cls-10" d="M273.82,121.75c-2.82,2.3-6.08.76-9.13,1C267.66,121.72,270.76,121.94,273.82,121.75Z"/><path class="cls-11" d="M566.17,67.06c-1-2,.26-3,1.76-3.32a2.08,2.08,0,0,1,2.24,2.16c-.27,2.34,1.91,5.21-1.29,7,.47.69.67,1.9,2,1,1.44,1.19,2.18,3.46,4.69,3a11.92,11.92,0,0,0,1-.9c-.48-.17-1,.25-1.43,0-.73-4,1-7.58,2.54-11,.77-1.66,2.08-.48,3.09.63,2.26,2.48,1.35,5.63,2,8.43l0,0c4.1-.89,6.1-3.48,6.15-7.64,0-1.29-.2-2.68,1.16-3.54a30.55,30.55,0,0,1,.84,12.08,7.51,7.51,0,0,0,1,5.06c-.73,2.46-3.26,3.46-5.32,1.45-1.63-1.59-2.87-.8-4.35-.67-.53.14-1.36-.15-1.53.34-.12.34.67.19,1.09.18,3.56-1.18,3.14,1.06,2.81,3.24-.86,1.49-2.46,2.47-2.83,4.28s-1.64,2.81-2.39,4.26a2.58,2.58,0,0,0,.37,2.13c1,1,2.71,1.28,2.92,3,.2.25-.45,1.61.81.57s3.18-1.56,3.65.27c.9,3.58,4.33,6.79,1.94,11a3.45,3.45,0,0,0-.13,1.94c-.33,1-1.5,1.88-5.33,3.87-.73-1.27-1.57-1.25-2.5-.22.16,1.12,1.15,1.4,1.92,1.92.55.38,1.84.49,1,1.59-.62.77-1.44,0-2.18-.11a20.05,20.05,0,0,0-3.84,2.89c-.74,1.08-1.49.1-2.23,0-.69-.32-1.27-1.63-1.92-1s.61,1.3,1,2c.8,3.25-2,1.51-3,2.16-1,1.29-2.53,1.93-3.8,2.9-.16,2.18,2,1.68,3.29,2.78l-3.54.38a5.59,5.59,0,0,1-2.4,3.71c-.89-.11-2.23,1.15-2.08.9,1.38-2.32-3.48-3.06-1.2-5.28a19.84,19.84,0,0,1,1.92-1.47c.3-1.75-1-2.36-2.19-3l-1.69,1c-1.13-.06-2.26,0-3.38,0a3.37,3.37,0,0,1-1-3.12c1.44-6,1.15-6.21-5-4.58-.29.08-.65-.12-1-.19a1.14,1.14,0,0,1-1.76-.1c-1.5-.66-3.08-1.73-3.6,1.08-.27,1.41-1.56.72-2.41.92h0c.17-4.15-3.94-1.57-5.26-3.36-.06-.08,0-.33.13-.45a1.59,1.59,0,0,1,.38-.3,14.08,14.08,0,0,1,2.8-4c.87-1,1.51-.65,2,.35,1.66,1.1,3.34,2.23,2.91-1.31.94-1.47,3.12-.25,4-1.86-1.18-1.45-.11-2.22.92-3l2.08,2a3.91,3.91,0,0,0,3-4.07c.32-1.31-1.77-2.6,0-3.93,3,.56,3.06-.84,2.05-3l-5.19.25h0c1.89-1.73,5.35-1.11,6.29-4.24.74.26,1.71.72,2.14-.08s-.61-1.29-1.09-1.88a4.86,4.86,0,0,1-3.4.12l0,0c-.35-1.59-3.05-1.11-2.81-3.21-1.88-2.35-2.44-.69-3,1a2.1,2.1,0,0,1-1,2,2,2,0,0,1-2.87.09,4.15,4.15,0,0,1-3.36,0,2,2,0,0,1-2.87-.09c-3.52,2-4.09-2-6.09-3a2.17,2.17,0,0,1-.22-2.81c2.34-.93,1.41-4,3.35-5.17q-.52-.33-.34-.65t.35-.32c0-2.83-3.3-1.32-4-3.15-.72-2.36-2-2.59-3.85-1.09-1,1.82-2.15,3.4-4.5,3.12-1.4-.17-1.59-.92-.55-1.92a22,22,0,0,1,2.85-3.75l1.13-2.34a3.52,3.52,0,0,1,2.79-2.59c.17-.44.29-1.22.52-1.25.9-.12.59.8.84,1.26a7.26,7.26,0,0,1,3.4,2.46l5.53.15-.06,0c-1,2.05-4.08-.05-4.9,2.4a21.14,21.14,0,0,1,2.87,3.69l3.21-1.08a3.38,3.38,0,0,1,3.68,1c.84.07,1.29-2.31,2.53-.29.86,1.4,2.22,1.9,3.58.37h0l4.2-.14c.17-.48,1.14-.65.78-1.13-.24-.33-1.08,0-1.64.11-2.28-2.45-.19-3.83,1.58-3.66,3.13.3,5.48-1.16,8.07-2.21C566,69.26,566.87,68.5,566.17,67.06Z"/><path class="cls-10" d="M581.86,98.84c.11-2.71-3.47-1.1-3.82-3.27,1.77-1,1.44-1.93-.19-2.73,0-2.12,2.92-2,3.13-4,1.61-.77,1.6-2.75,2.84-3.8l-.13-3.19-2,1a2,2,0,0,1,.31-3c1.72.38,4.44-3.63,5.14,1.18,1.56-.37,3.45.72,4.69-1.07a5.22,5.22,0,0,1,2,3.93,63.91,63.91,0,0,1-5,28l-1.63-.87c1.94-3.46.55-6.54-.29-10.08-1-4.27-2.54-1-3.84-1C582.35,100,582.18,99.32,581.86,98.84Z"/><path class="cls-4" d="M460.82,53.82,453,62c-2.09-.08-4.16-.83-6.15-.08-1.18-3.2,4.61-1.51,3.08-4.85,4.29,1.84,5.17-.16,4.62-4-.44-3,5.81-10.29,8.38-9.92-1.43,2.9-2.92,5.78-4.25,8.73-.63,1.39-.48,2.39,1.36,1.16C460.82,52.83,461.3,52.89,460.82,53.82Z"/><path class="cls-11" d="M588.88,111.92c.78-8.95,5.46-17.36,3.66-26.68-.07-.34.87-.88,1.34-1.32,3.29,10-.52,19-3.91,28Z"/><path class="cls-9" d="M523.88,217.92c3-.49,6-1.92,9.63-1.06-1.86,1.94-4.15.22-5.94,1.9l5.58.28C526.55,221,526.55,221,523.88,217.92Z"/><path class="cls-9" d="M536.27,216.72a20.44,20.44,0,0,1,9.65,4c-.1.62-.26,1.69-.92,1.39-3.16-1.44-6.22-3.1-9.3-4.7a1.09,1.09,0,0,1,.17-.43A1.79,1.79,0,0,1,536.27,216.72Z"/><path class="cls-9" d="M551.73,224h2.15c-1.52,2.84-3.94,1.83-7,1.91C548.7,224,550.36,224.38,551.73,224Z"/><path class="cls-12" d="M568,34.73l2,3.08c.4,1.09-.12,1.28-1,1.09l-2-3Z"/><path class="cls-13" d="M519.92,165c.25.93-.4,2.13.82,2.77-.06.89-.79,1.9-1.35,1.33C518.08,167.73,518.77,166.21,519.92,165Z"/><path class="cls-9" d="M533.66,222c.85-1.09,1.52-2.54,3.53-1.65-.61,1.85-2.24,1.38-3.47,1.68Z"/><path class="cls-4" d="M455.87,43l1.11-1c.57.12,1.48,0,1.15,1a2.29,2.29,0,0,1-1.31,1.27C455.87,44.45,456,43.53,455.87,43Z"/><path class="cls-9" d="M523.6,214.9c.71.14,1.61-.13,1.49.78-.06.46-.79.83-1.22,1.23l-1.14-1.42Z"/><path class="cls-4" d="M443.81,62.1l-3.09-.5L441.84,64c-2.29,1.5-3.43-.61-4.13-1.85-.56-1,.57-2.51,1.94-3C442.26,58.3,443.13,60.1,443.81,62.1Z"/><path class="cls-4" d="M440.87,76.92c-.29-.38-.8-.75-.82-1.15-.08-1.21-.74-2.65.84-3.44a1,1,0,0,1,.86.28c1.32,1.38-1.11,1.71-.83,2.86a5.43,5.43,0,0,1,0,1.46Z"/><path class="cls-4" d="M440.88,76.92c1.48,1.08.81,2.59,1.11,4.59-1.63-1.73-1.87-3.06-1.11-4.59Z"/><path class="cls-14" d="M511.8,112a3.21,3.21,0,0,1-.86-.11c-1.14-.45-1.5-.11-1.06,1,1,2.36,2,4.75,5.63,3-.75,2.84-3,2.61-4.38,3.47s-3,1.21-5.7,2.23c4.86,1.21,8.69.61,12.82.68-1.09,2.59-4.28,2.36-5.62,4.8l13.89,2.43c-2.51,4.56-6.35,7.69-7.73,12.28a4.21,4.21,0,0,1-3.88,4c2.38.33,3.24-1.94,4.89-2.87a15.27,15.27,0,0,1,8.78-6.77c1.7.68,2.33,2.23,3,3.73,1,3,2.11,6,4.52,8.2-.09,2.2-2.6.62-3.18,2-2.43,1.65-5.32,1.53-8.16,1.9,1,1.91,2.78,1.74,4.19,2.14a2.4,2.4,0,0,1-1.51,2.5c-8.73,4.63-17.45,9.32-27.74,9.45-3,0-4.31-2-6-3.79-1.69-3.28,2.28-4.06,2.8-6.36a7.25,7.25,0,0,1,.59-1.23c1.7-2.64,4.14,1.63,5.86-.65.45-3.7-3.69-3.92-4.83-6.38-.8-.82-1.71-1.57-1.84-2.83a3,3,0,0,1,.13-1c1.24-3.64,2-7-3.52-7.55a5.23,5.23,0,0,1-2.94-1.71c-1.27-1.45-2.55-2.45-4.73-1.53s-3.23-.39-2.78-2.46c.25-1.11-1.89-4.5,2.46-2.88,2,.75,3.45-1.44,3.6-3.74a5.79,5.79,0,0,0-1.62-5,6,6,0,0,1-.89-1.1c-.59-1.34-1-2.69-.2-4.1,3.65-4.59,10-4.62,14.69-8.31-3.09-2.25-6.31-2.62-9.27-3.3-4.82-1.11-5.11-3.38-2.69-7,1-1.48,1.83-3,3.22-5.37,1.5,3.87,2.89,6.78,5.13,9.14,3,.13.65-2.69,2-3.49.89-1,1.87-1.42,3.07-.52.93,1.22-1,3,.88,4.07s2.9,3.21,5.1,3.78c2.18,0,3.94-1.43,6-1.82l2.43-3.44c2,3.75,2.86,7.25-.64,9.92-2.33,1.78,0,2.34.26,3.44C515.21,113.63,513.35,112.24,511.8,112Z"/><path class="cls-15" d="M497.72,155.6c.69,3.43-4.42,3.41-4,6.69a5.54,5.54,0,0,1-4.57-4c-2-5.63-4.11-11.2-6.32-16.74-2.41-6-1.83-12,.15-18,1.07-3.25,1.89-6.58,2.82-9.87a30.57,30.57,0,0,1,.88,4.37c-.85,2.19,2.45,4.11-.34,6.18,2.83-2.08-.81-4.3.34-6.18,4.2,1.1,3.18,4.47,3,7.28-.15,3.11-3.49,3.13-5.26,4.69l-1-2.08c.38,1.57-2.94,6.45,3,3.09,1.81-1,3.3,1.25,4.42,2.81-.28.32-.57.63-.86.94-1.3,1.09-1.71,2.26-.32,3.59,2.54,2.8,5.36,5.34,7.67,8.34,2.24,2.7,5.26,4.78,6.54,8.24-1.91,3.58-4.22-1.51-6.21.28-1.16.18-2.18-.39-3.4-.67A7.09,7.09,0,0,0,497.72,155.6Z"/><path class="cls-16" d="M427.59,414.71c-1.33.07-2.65.2-4,.2H186.9c1.49-1.62,3.44-1,5.19-1q115.38,0,230.76,0C424.43,413.95,426.2,413.3,427.59,414.71Z"/><path class="cls-17" d="M469,81c2.73.61,3.74,2.9,3.79,5.11,0,1.9-2.46,1.75-3.85,2.42A8.65,8.65,0,0,0,464,93.67c.07,2-1,1.86-2.39,1.37-1.23.11-2.3,0-2.54-1.55-1.26-8.41,5.38-16.35,14.39-16.92-1.07,3-4.95,1.78-6.1,4.33.19.55-.14,1.09,0,1.64A3,3,0,0,1,469,81Z"/><path class="cls-18" d="M504.08,97.7c.07-4.37,2.62-5.39,6.29-4.4s4,3.4,2.36,6.44c-.59,2.35-2.26,3-4.43,2.81a2.41,2.41,0,0,1-1.52-3.12c-.07-1.45-.77,0-1.13-.21A1.58,1.58,0,0,1,504.08,97.7Z"/><path class="cls-19" d="M529.86,135.92l.89-1.2a3.77,3.77,0,0,1,3.12-.8c5.64.4,7,1.79,6.07,6.14-3.13,3.69-4.3,3.79-8.33.72a5.5,5.5,0,0,1-.27-1.31c.05-.55.63-.77.85-1.23a1.68,1.68,0,0,0-.86,0A2.42,2.42,0,0,1,529.86,135.92Z"/><path class="cls-20" d="M531.57,140c2.76,2.94,5.56,2.67,8.38.1l.75.81c.85,1.69-.63,2.09-1.49,3s.64.28.69.73a2,2,0,0,1,1,1.57c-.7,2-1.79,3-3.93,1.75q-.5.87-1.15.11c-4.37-1-4.1-5-5.28-8A.65.65,0,0,1,531.57,140Z"/><path class="cls-21" d="M461.66,95,464,93.67c.53.89.91,1.61,2.19.62,1.6-1.23,2.94-3,5.06-3.45,1.24,1.52-3.1,3,.44,4.63,1.08.5-.78,1.52-1.95,1.28C467.07,96.21,464.37,95.61,461.66,95Z"/><path class="cls-11" d="M542.06,101.86c-1.4-1.15-1.69-3.67-3.23-3.33,2.48,1.59,2-5.26,5.73-3.19.51.28,1.6-.72,1.75.73.12,1.15-.1,2-1.49,1.87A11,11,0,0,1,542.06,101.86Z"/><path class="cls-22" d="M527.82,109.19a16.6,16.6,0,0,1-8.21,2.84c-.66.07-1.77.23-1.83-.95-.05-1,.72-1.13,1.59-1.36A18.13,18.13,0,0,1,527.82,109.19Z"/><path class="cls-23" d="M519.8,142.9c-1.22,5.2-4.78,4.33-9.59,3.72,3.23-2.64,7.29-1.41,8.58-4.86Z"/><path class="cls-24" d="M508.21,99.09c-1.1.79-1.61,1.65-.29,2.71.56.52,1.25,1,.92,1.91-.26.69-.93.6-1.53.41-2.52-.83-3.68-2.85-4.51-5.15l1.28-1.27c.61.61,1,1.6,2.16,1.28A1.25,1.25,0,0,1,508.21,99.09Z"/><path class="cls-25" d="M539.89,144.87c-1.41.27-2.79,1.14-4.75.1,1.76-1.78,4.92-1.43,5.56-4.1.79-.48,1.1-2.07,2.2-1.57,1.38.63,0,1.63-.11,2.47-.56,1.14-.91,2.44-2.26,3Z"/><path class="cls-26" d="M542.06,101.86c-.42-2.25.66-3.44,2.76-3.91,1.29,1,2.64,2.13,1.38,3.93S543.44,102.73,542.06,101.86Z"/><path class="cls-27" d="M535.46,70.7c-1.84.16-2.62-1.15-3.4-2.46.95-1.31,1.72-3.26,3.82-1.71S536.5,69.39,535.46,70.7Z"/><path class="cls-28" d="M544.88,111.8c1.32.91,2.43,2,1.32,3.67a2.57,2.57,0,0,1-2.06,1c-1.74-.32-2.31-1.7-2.18-3.38Z"/><path class="cls-29" d="M554.88,104.85c1.34,1.23,2,2.71.78,4.27s-2.55.65-3.78-.2C551.54,106.57,552.26,105,554.88,104.85Z"/><path class="cls-25" d="M556.89,97.92c2.13.74,3.71,2.1,2,4.24s-3,.18-4-1.24C555,99.56,556,98.77,556.89,97.92Z"/><path class="cls-30" d="M574.7,122.84c-1.94.3-3.31-.3-3.32-2.45a1.85,1.85,0,0,1,1.91-1.88c2.25,0,2.66,1.46,2.38,3.35Z"/><path class="cls-31" d="M529,75.69c.06-2.1.8-3.84,3.22-3,2.14.75,1.59,2.52.63,4.08C531.3,77.29,530.11,76.61,529,75.69Z"/><path class="cls-32" d="M551.7,98.18c1.31,1.48,2.19,3.09,0,4.47a1.79,1.79,0,0,1-2.76-1.09c-.77-2.39.52-3.3,2.74-3.36Z"/><path class="cls-33" d="M549.88,89.91c-1-1.19-1.9-2.46-.46-3.88a2.19,2.19,0,0,1,1.73-.62c1.76.5,2.15,1.85,1.74,3.52Z"/><path class="cls-30" d="M530.7,68.22a4.41,4.41,0,0,1-2.79,2.59c-1.38-1.18-3.3-2.37-1-4.24C528.94,64.93,529.71,67,530.7,68.22Z"/><path class="cls-34" d="M567.89,127.9c.1-2.5,1.49-3.3,3.8-2.9.67,1.29,1.38,2.6-.12,3.8S569,128.74,567.89,127.9Z"/><path class="cls-35" d="M539.92,112.77c.68,2.46-.4,3.71-2.8,4-.85-1.13-2.2-2.22-1.06-3.79S538.57,111.94,539.92,112.77Z"/><path class="cls-11" d="M541.88,120.92l-1,3c-2.56-2.91-2.77.1-3.69,2-3-6.82,2.54-4.19,4.68-5.05Z"/><path class="cls-36" d="M577.9,121.86c-.33-3.1,1-4,3.84-2.89C582.53,122.68,581.48,124,577.9,121.86Z"/><path class="cls-33" d="M523.9,68.43a2.11,2.11,0,0,1-2.34,2,2,2,0,0,1-2-2.29,1.91,1.91,0,0,1,2.26-2A2.13,2.13,0,0,1,523.9,68.43Z"/><path class="cls-37" d="M501.92,94.9l-3.13,1q-.5.73-.8-.1c-.44-3.66,4.73-2.75,4.85-6A1.4,1.4,0,0,1,504,91Z"/><path class="cls-38" d="M559.06,92c1.73-.34,3.31-.32,3.67,1.91a1.88,1.88,0,0,1-1.08,2c-2.09,1-2.89-.46-3.65-2Z"/><path class="cls-39" d="M533.52,86.06l.22,2.81c-1.79.9-3.94.39-4-1.25C529.6,85.48,531.87,85.78,533.52,86.06Z"/><path class="cls-40" d="M544.53,64a2.12,2.12,0,0,1-2.34-2c-.18-1.5,1.15-1.8,2.19-2.08,1.22-.33,1.81.47,1.85,1.58S546,63.77,544.53,64Z"/><path class="cls-41" d="M555.65,92.11c.49,1.75,1.2,3.65-1.59,4a1.81,1.81,0,0,1-2-1.72c0-2.54,1.6-2.81,3.62-2.24Z"/><path class="cls-42" d="M526.78,73.15c.72,2.52-.14,3.84-2.85,3.75-.77-1-1.73-2.09-.66-3.44S525.55,72.6,526.78,73.15Z"/><path class="cls-43" d="M538.89,76.92c-2.54,0-3.73-1.05-2.87-3.69,1.23-.72,2.59-1,3.55.19S539.8,75.88,538.89,76.92Z"/><path class="cls-44" d="M561.69,125.87c1.42-1,2.94-1.73,4,.28.91,1.73-.9,2-1.82,2.77C562.05,128.69,561.26,127.72,561.69,125.87Z"/><path class="cls-25" d="M545.78,76.88a3.75,3.75,0,0,1-3.68-1c-.22-1.66.24-3.51,2-3.12A3.37,3.37,0,0,1,545.78,76.88Z"/><path class="cls-45" d="M541,70.85c-.13-.1-.26-.19-.38-.3-1.21-1.11-2.62-2.23-.8-3.91.4-.36,1.12-.37,1.69-.55-.72,1.51,2.13,3.46-.57,4.73Z"/><path class="cls-46" d="M517.18,68.36a1.91,1.91,0,0,1-1.78,2,2,2,0,0,1-2.27-2c-.06-1.49,1.24-1.19,2.09-1.32C516.23,66.84,517.23,66.91,517.18,68.36Z"/><path class="cls-47" d="M507.3,104.12c1.51-.43.82-1.44.61-2.32,2.31,1,3.26-1.25,4.82-2.06l1.16,1.19C512,102.55,510.56,105.25,507.3,104.12Z"/><path class="cls-21" d="M576.22,128.2c-.89.24-1.44,0-1.55-.81a2,2,0,0,1,1.87-2.42c.8-.13,1.9,0,1.88,1C578.42,127.34,577.06,127.67,576.22,128.2Z"/><path class="cls-48" d="M556.61,126.9c1.13-1.74,2.26-2.51,3.38,0-.58,1.33-1.14,2.93-3,2.45C555.66,129,556.63,127.76,556.61,126.9Z"/><path class="cls-49" d="M540.92,146.15c-.63-.2-1.13-.5-1-1.28l-.06.09A17.79,17.79,0,0,1,542.9,143c.89-.08,1.68-1.55,2.47-.68s-.32,1.68-1,2.28A5.42,5.42,0,0,1,540.92,146.15Z"/><path class="cls-50" d="M575.13,76a4.7,4.7,0,0,1,1-1.1c.85-.48.39-3,2.15-1.73,1.31.92.84,2.47-.41,3.34-.59.41-1.55.26-2.34.37A4.66,4.66,0,0,0,575.13,76Z"/><path class="cls-51" d="M581,115.57c-.12-1.68-.26-3.88,2.12-3.4s.32,2.36.38,3.62A2.31,2.31,0,0,1,581,115.57Z"/><path class="cls-52" d="M532.43,132c.86-1.5,2.49-2.8,3.64-1.39s-1.23,1.69-2.14,2.4C533,133.27,532.62,132.79,532.43,132Z"/><path class="cls-53" d="M469,81c-1.38,1.67-1.4,4.28-4,5.68-.34-2.69,1.59-4,2.37-5.79Z"/><path class="cls-54" d="M555.27,75.78c.54-1.69,2.22-1.43,3.44-1.94.07,0,.67.68.62,1-.29,1.84-1.61,2.15-3.2,2Z"/><path class="cls-55" d="M566.17,67.06c.94-.12,2.15-.52,1.85,1.15s-1.24,2.65-3.1,1.7C564.74,68.7,565.63,68,566.17,67.06Z"/><path class="cls-56" d="M565.24,134.76c.38-1.51.45-3.21,2.4-3.71C570.6,134.72,567.06,134.18,565.24,134.76Z"/><path class="cls-7" d="M538.19,102.58c-.9,0-1.6-.19-1.63-.9-.05-1.24,1.1-1.34,2-1.61.65-.2,1.3-.13,1.32.77C539.86,102.06,539,102.45,538.19,102.58Z"/><path class="cls-34" d="M570.83,73.92c-.59.89.1,3.16-1.74,2.54s-1.14-2.29-.22-3.57A2.09,2.09,0,0,1,570.83,73.92Z"/><path class="cls-11" d="M545.14,123.08c-.83,1.83-2,2.7-3.82,2.14-.2-.06-.44-.74-.38-.79A5.75,5.75,0,0,1,545.14,123.08Z"/><path class="cls-57" d="M532.43,132l1.5,1a1.64,1.64,0,0,0-.06.93c-.71,1.56-2,.66-3.12.8C530.78,133.48,530.7,132.17,532.43,132Z"/><path class="cls-58" d="M510.94,68.29c-.06.93-.38,1.47-1.15,1.57a1.88,1.88,0,0,1-2.24-1.44c0-.15,1-.72,1.54-.87C509.87,67.36,510.75,67.33,510.94,68.29Z"/><path class="cls-59" d="M531.57,140l-1,0-2-3.85,1.29-.21,1.87,1.77a.78.78,0,0,1,.15,1.26Z"/><path class="cls-60" d="M546.06,92l2.87-.09c.33.92,1.54,2.15-.6,2.33C546.87,94.36,545.26,94.31,546.06,92Z"/><path class="cls-61" d="M485.2,99.2c-.21.61-.37,1.25-1.27,1a1.46,1.46,0,0,1-1.19-1.79c.09-.58.38-1.33,1.26-1.12S485,98.43,485.2,99.2Z"/><path class="cls-62" d="M498,95.82a1.26,1.26,0,0,0,.8.1c.06,1.13.16,2.25.17,3.38,0,.63-.11,1.4-1,1.36-1.06-.05-1.14-.91-1.12-1.75C498.37,98.28,497.58,96.83,498,95.82Z"/><path class="cls-63" d="M504,91l-1.21-1.16c.76-1,1.88-2.37,2.92-1.14C506.6,89.72,504.9,90.41,504,91Z"/><path class="cls-64" d="M520.64,75c-.32.86-.76,1.5-1.69,1.56a.92.92,0,0,1-1-1.26,3.11,3.11,0,0,1,1.68-1.49C520.46,73.61,520.58,74.44,520.64,75Z"/><path class="cls-65" d="M539.83,91.9l2.87.09c.21,1,.45,2-1.12,2S539.45,93.4,539.83,91.9Z"/><path class="cls-66" d="M551.9,77c-1.1,0-2.58.19-2.65-1.34s1.38-1,2.19-1c2.23.23,1,1.37.48,2.28Z"/><path class="cls-67" d="M536.87,79.93q0,.48,0,1c-1.26.19-2.59.51-3.41-.85-.12-.2.18-.93.47-1.08C535.18,78.3,536,79.31,536.87,79.93Z"/><path class="cls-68" d="M549.8,106.94l-.92,3c-.71,0-1.95.48-1.89-.57A2.32,2.32,0,0,1,549.8,106.94Z"/><path class="cls-69" d="M530.13,115.68c.58-1.23,1.37-2,2.66-1.85a.68.68,0,0,1,.54,1.07C532.71,116.07,531.9,116.66,530.13,115.68Z"/><path class="cls-70" d="M511.8,112c1.29-.71,3.1.5,4.14-1.13C516.15,113.22,515.71,113.34,511.8,112Z"/><path class="cls-71" d="M542.9,143a3.52,3.52,0,0,1-3.06,1.94,7.28,7.28,0,0,1,3-3.19Z"/><path class="cls-72" d="M539.84,62.74a1.66,1.66,0,0,1-1.55,1.37c-.51,0-1.45,0-1.18-.9.15-.49.8-.91,1.33-1.17S539.71,61.65,539.84,62.74Z"/><path class="cls-73" d="M524.16,101.68l-1,1.1a6.81,6.81,0,0,1-1.19-1.33c-.09-.17.41-.66.65-1Z"/><path class="cls-30" d="M524.65,95.37a3.09,3.09,0,0,1-1.32.62,1.07,1.07,0,0,1-1.19-1.23c.06-.33.56-.72.94-.84C523.66,93.74,524.37,93.62,524.65,95.37Z"/><path class="cls-74" d="M568.91,38.9l1-1.09c.95.72,1.83,2.1,1,2.73C569.65,41.49,569.36,39.8,568.91,38.9Z"/><path class="cls-66" d="M535.85,148l1.15-.11c-.35,2.57-2.4,2-4,2.2C533.35,148.61,535.22,149.17,535.85,148Z"/><path class="cls-25" d="M547.89,118.92l1.76.1c.09,1.26-.26,2.36-1.74,1.85C546.82,120.5,547.8,119.59,547.89,118.92Z"/><path class="cls-75" d="M509.88,112.91c-1.23-.26-2.64-1.24-1.89-2.17,1.08-1.33,2.08.33,2.94,1.13Z"/><path class="cls-76" d="M560.37,110c-1.4-.42-2.29-1.27-2.08-2.82.17-1.21.84-2.31,2.15-2.27a2.28,2.28,0,0,1,2.34,2.57A2.35,2.35,0,0,1,560.37,110Z"/><path class="cls-77" d="M559.6,114a2.38,2.38,0,0,1-2,2.5c-1.63.25-2.5-.91-2.54-2.34a2.14,2.14,0,0,1,2.18-2.26C558.63,111.85,559.29,112.79,559.6,114Z"/><path class="cls-58" d="M575.81,107c0,1.88-.79,2.91-2.29,3s-2-1-2.2-2.19a2.29,2.29,0,0,1,2-2.86C574.89,104.75,575.49,106,575.81,107Z"/><path class="cls-78" d="M559.61,88.11c-.51,1.14-1.3,2-2.64,1.74a2.17,2.17,0,0,1-1.9-2.49c.22-1.39,1.11-2.49,2.79-2A2.51,2.51,0,0,1,559.61,88.11Z"/><path class="cls-79" d="M566,100.73c-.22,1.25-.73,2.24-2.18,2.24a2.35,2.35,0,0,1,.24-4.7C565.37,98.36,565.88,99.45,566,100.73Z"/><path class="cls-34" d="M568,100.77a2.33,2.33,0,0,1,2-2.5c1.69-.22,2.38,1,2.37,2.44a2.05,2.05,0,0,1-2.09,2.3C568.91,103,568.29,102,568,100.77Z"/><path class="cls-51" d="M570.51,116.61a2.51,2.51,0,0,1-2.41-2.1c-.28-1.63.79-2.47,2.23-2.55a2,2,0,0,1,2.12,2.2A2.46,2.46,0,0,1,570.51,116.61Z"/><path class="cls-35" d="M576.7,116.57a2.33,2.33,0,0,1-2.12-2.22A2.06,2.06,0,0,1,577,112a2,2,0,0,1,1.95,2.33A2.37,2.37,0,0,1,576.7,116.57Z"/><path class="cls-80" d="M575.75,94.05a2.06,2.06,0,0,1-2.08,2.17,2,2,0,0,1-2.33-1.92,2.07,2.07,0,0,1,2.27-2.49C574.94,91.85,575.56,92.77,575.75,94.05Z"/><path class="cls-81" d="M576.69,103a2.17,2.17,0,0,1-2.07-2.4,2.08,2.08,0,0,1,2-2.32c1.63,0,2.32,1.08,2.2,2.61A2.11,2.11,0,0,1,576.69,103Z"/><path class="cls-18" d="M569.19,107.34c0,1.45-.6,2.45-1.88,2.57-1.57.15-2.4-.87-2.41-2.4a2.18,2.18,0,0,1,1.91-2.44C568.41,104.91,569.06,106,569.19,107.34Z"/><path class="cls-82" d="M546.55,87.57a2.14,2.14,0,0,1-2.06,2.26,2,2,0,0,1-2.36-1.9,2.19,2.19,0,0,1,2.26-2.55A2.15,2.15,0,0,1,546.55,87.57Z"/><path class="cls-83" d="M570.44,85.23a2.4,2.4,0,0,1,2,2.41,2.09,2.09,0,0,1-2.11,2.25,2.12,2.12,0,0,1-2.24-2.55A2.51,2.51,0,0,1,570.44,85.23Z"/><path class="cls-50" d="M563.74,85.31a2.23,2.23,0,0,1,2.2,2.23,2.14,2.14,0,1,1-4.27.08A2.3,2.3,0,0,1,563.74,85.31Z"/><path class="cls-84" d="M576.93,89.9c-1.6-.18-2.38-1.06-2.34-2.3a2.21,2.21,0,0,1,2.19-2.25c1.38,0,2,1,2.07,2.28C578.92,89,577.89,89.57,576.93,89.9Z"/><path class="cls-85" d="M535.7,87.49c.22-1.3.91-2.19,2.29-2.08a2.07,2.07,0,0,1,2.07,2.31,2,2,0,0,1-2.25,2.06A2.13,2.13,0,0,1,535.7,87.49Z"/><path class="cls-86" d="M562.78,81.37c-.31,1.25-1,2-2.39,1.88A2.14,2.14,0,0,1,560.8,79,2.18,2.18,0,0,1,562.78,81.37Z"/><path class="cls-50" d="M564,116.47a2.24,2.24,0,0,1-2.26-2.11,2.1,2.1,0,1,1,4.18-.38A2.28,2.28,0,0,1,564,116.47Z"/><path class="cls-87" d="M548.05,83.31c-1.64,0-2.54-.68-2.6-2a2,2,0,0,1,2-2.3,2,2,0,0,1,2.28,2A2.3,2.3,0,0,1,548.05,83.31Z"/><path class="cls-87" d="M569.13,93.69c0,1.48-.52,2.4-1.91,2.47a1.92,1.92,0,0,1-2.28-1.92,2,2,0,0,1,1.92-2.34C568.26,91.74,568.84,92.67,569.13,93.69Z"/><path class="cls-50" d="M543.25,81c-.06,1.17-.59,2.22-1.62,2.17a2.57,2.57,0,0,1-2.5-2.47A1.74,1.74,0,0,1,541.06,79,2.11,2.11,0,0,1,543.25,81Z"/><path class="cls-88" d="M567,122.91c-1.3-.29-2.17-1-2.16-2.32a2,2,0,0,1,2.23-2.07,1.93,1.93,0,0,1,2.07,2.19A2.24,2.24,0,0,1,567,122.91Z"/><path class="cls-89" d="M579.84,105c1.44.08,1.72,1.06,1.54,2.06-.22,1.19-.18,2.94-2,2.85-1.34-.07-1.64-1.42-1.56-2.61A2.22,2.22,0,0,1,579.84,105Z"/><path class="cls-76" d="M550.81,111.93c1.61.33,2.24,1.23,2.17,2.51a1.51,1.51,0,0,1-2,1.55c-1.09-.23-2.42-.43-2.28-2A2.25,2.25,0,0,1,550.81,111.93Z"/><path class="cls-87" d="M556.16,81.38a2,2,0,0,1-2.45,1.84A2,2,0,0,1,552,81.14,2,2,0,0,1,554.18,79C555.58,79.09,556.12,80.06,556.16,81.38Z"/><path class="cls-90" d="M565.83,75a2,2,0,0,1-2.41,1.87,2.05,2.05,0,0,1-1.7-2.13,1.92,1.92,0,0,1,2.16-2.11C565.28,72.67,565.74,73.73,565.83,75Z"/><path class="cls-18" d="M567.19,79c1.3.34,2.12,1.11,1.93,2.48a2,2,0,0,1-2.54,1.72,1.83,1.83,0,0,1-1.66-2.11A2.09,2.09,0,0,1,567.19,79Z"/><path class="cls-91" d="M582,79.88l-.31,3c-1.48.5-2.93.82-3.71-1a2,2,0,0,1,.54-2.22C579.83,78.28,580.92,79.2,582,79.88Z"/><path class="cls-32" d="M577.85,92.84c1.09-.77,2.18-1.71,3.45-.32.67.74.34,1.52,0,2.29-.76,1.71-2,1.46-3.26.76Z"/><path class="cls-92" d="M583.82,85.09c-.12,1.88,1.55,5.1-2.84,3.8C580.64,86.66,581.47,85.31,583.82,85.09Z"/><path class="cls-93" d="M561.22,118.58a1.93,1.93,0,0,1,1.54,2.21c-.13,1.08-.62,2-1.78,2-1.47.05-1.37-1.09-1.26-2.09S559.81,118.67,561.22,118.58Z"/><path class="cls-40" d="M580.24,68.83c0,.79,0,1.49-1,1.35a1.81,1.81,0,0,1-1.53-2.08c0-.59,0-1.39,1-1.31C580,66.91,579.82,68.17,580.24,68.83Z"/><path class="cls-94" d="M575.75,81.55a1.24,1.24,0,0,1-1.29,1.21c-.87,0-.85-.84-.78-1.43s-.31-1.8,1-1.68C575.41,79.72,575.71,80.35,575.75,81.55Z"/><path class="cls-95" d="M582.73,74c0,.89.55,2.06-.77,2.43-.76.21-1.19-.55-1.21-1.19,0-1.48,1-1.36,2-1.21Z"/><path class="cls-96" d="M585,106c.36-.9,1.19-1.51,1.75-.63a2.55,2.55,0,0,1-.88,3.45C584.77,108.07,585.52,106.82,585,106Z"/><path class="cls-97" d="M581.86,98.84l1.27,1.08c-.39.7.11,2.41-1.17,2C580.17,101.28,581.3,99.91,581.86,98.84Z"/><path class="cls-98" d="M585,106c1.31.63.55,1.89.87,2.82C583.12,108.58,584.57,107.1,585,106Z"/><path class="cls-69" d="M489.62,134l1.25-.11a14.79,14.79,0,0,1,3.38,1.78c1.46,1.33,4.89-.34,4.59,1.31-.48,2.59.81,5.86-2,7.9-3.87-1-5.68-4.25-7.73-7.23A3.94,3.94,0,0,1,489.62,134Z"/><path class="cls-99" d="M503.91,155a36.51,36.51,0,0,1-7.31-8,1.52,1.52,0,0,1,2.24-.06c1.7,1.44,3.37,2.93,5.12,4.31S505.51,153.79,503.91,155Z"/><path class="cls-100" d="M498.84,146.93l-2.24.06c-3.3-2-5.5-5.08-7.81-8a1.66,1.66,0,0,1,1-.87l7.06,6.83Z"/><path class="cls-101" d="M497.72,155.6c-4.13,1.82-5.59.95-5.84-3.85l5.81,3.56Z"/><path class="cls-102" d="M509.19,142.89c-.33-.49-.84-.9-.8-1.24a.89.89,0,0,1,1.44-.64c.32.18.68.83.58,1.09S509.7,142.58,509.19,142.89Z"/><path class="cls-14" d="M486.4,117.9c.93,2.88,4.26,5.83,0,8.55Q486.4,122.18,486.4,117.9Z"/><path class="cls-103" d="M489.82,138.08l-1,.87c-2.83-2.17-2.08-3.72.83-4.91Z"/><path class="cls-104" d="M508.21,99.09l-2-.11c-.54-1.5-.41-2.82,1.55-2.4C509.1,96.86,509.55,98,508.21,99.09Z"/><path class="cls-105" d="M531.89,139l-.15-1.26c.66-.84,1.13-2.05,2.53-1.6.28.09.56.77.52,1.15C534.61,139.07,533.07,138.74,531.89,139Z"/></svg>