<?xml version="1.0" encoding="utf-8"?>
<!-- Generator: Adobe Illustrator 21.0.2, SVG Export Plug-In . SVG Version: 6.00 Build 0)  -->
<svg version="1.1" xmlns="http://www.w3.org/2000/svg" xmlns:xlink="http://www.w3.org/1999/xlink" x="0px" y="0px"
	 viewBox="0 0 1169.7 1301" style="enable-background:new 0 0 1169.7 1301;" xml:space="preserve">
<style type="text/css">
	.st0{fill:#FFFFFF;}
	.st1{opacity:0.95;}
	.st2{fill:#F7F5F5;stroke:#F9F7F7;stroke-width:3;stroke-miterlimit:10;}
</style>
<g id="图层_2">
</g>
<g id="图层_1">
	<rect x="433.4" y="611.5" transform="matrix(0.9834 -0.1812 0.1812 0.9834 -110.7134 116.5984)" width="298.8" height="105.4"/>
	<title>me</title>
	<path d="M634.8,474.1l7.9,17.8c1.9-2.9,2.7-4.8,4.1-6c1.2-1,3.4-2.1,4.6-1.6s2.8,2.9,2.5,4.1c-0.5,3-2,5.8-3.3,9.2l5.5,1.1
		c3.6-3.9,6-9,9.3-9.6c4.7-0.9,6.5,4.7,8.2,9.6c1-1.8,1.4-3.4,2.4-4.4c1.6-1.5,3.6-3.8,5.3-3.7c2,0.2,5,2.1,5.6,4
		c1.3,4.1,2,8.3,2.1,12.5c0.1,4.3-0.5,8.4,5.4,9.2c1,0.1,1.8,1.3,2.8,2c4.6-6.8,3-12-4.3-14.8c-1.4-0.6-2.4-1.8-2.8-3.3
		c-2.3-22.9-4.4-45.8-6.5-68.6c0-1.2,0.5-2.4,1.3-3.2c0.8,1.6,1.7,3.1,2.4,4.8c6.2,15.1,8,31.3,10.4,47.2
		c4.6,30.8,9.4,61.6,17.9,91.7c0.5,1.6,0.9,3.2,1.5,4.8c2.6,7.9,10.3,9.8,16.5,3.6c0.2,1.3,0.3,2.3,0.5,3.3
		c2.9,21.3,5.5,42.6,8.8,63.8c4.8,31.3,9.9,62.5,14.9,93.8c0.6,3.6,1.4,7.2,2.1,10.8c1.1,5.3,3.6,10.5-0.4,15.5
		c6,3.2,7,7.4,3.7,13.1c-0.2,0.3-0.3,0.6-0.5,0.9c-4.7,8.3-5.5,8.4-12.5,0.9c2.5-3,6.7-6.4,2.2-10.3s-6.8,1.2-9.7,4.1
		c-2.7-2.4-6.8-3-6.7-8.2c0-2.8-2.8-5-6.4-5c-6.5,0-12.1-1.6-16-7.6c-1.2-1.8-4.2-2.3-7.3-3.8c0.3-1.4,1.4-3.9,1.2-6.4
		c-0.2-2.2-1.5-5-3.2-5.9c-1.3-0.8-4.2,0.4-6,1.5c-2.5,1.4-4.4,3.7-6.8,5.2c-5,3-6.2,7.8-6,12.9c0.1,2.5,2.1,4.9,3.2,7.4l6.2-3.9
		c4.9,5.4,6.3,5.6,12.2,1.5l1,0.9c-1,1.1-1.9,2.7-3.1,3.2c-7.4,2.9-14.8,5.9-22.5,8.2c-3.6,1.1-7.6,0.4-11.4,1
		c-4.4,0.6-8.8,1.7-13,3.1c-3.8,1.4-5.7,4.6-4.5,8.8c1.1,3.7,4.9,5.4,9.4,4.4c5.6-1.2,5.6-1.2,7.6,1.5c-16.8,2.2-33.4,4.3-50,6.6
		s-33.3,4.9-50,7.3s-33.3,5-50,6.9c-16.5,1.9-33,2.9-49.5,4.4l0.2,2l23.9-2c34.4-2.8,68.8-5.3,103.1-8.5c28.2-2.6,56.3-6.1,84.5-9
		c7.3-0.8,14.8-2.3,20.8,0.3c-3.4,5.4-6.2,11.1-10.2,15.9c-3.5,4.3-8.2,7.5-12.6,11.4c-0.4-7.8-0.7-15.6,5-23.3
		c-52.2,3-102.8,9.2-153.5,16c7.5,2.1,15,1.1,22.6,0.6s15-3.8,22.1,0.3c-3.5,17.6-7.3,34.9-10.4,52.3c-1.6,9.5-2.6,19.2-3,28.8
		c-0.9,17.3-3.3,34.5-7.2,51.3c-5.1,21.4-8.7,43.1-13.4,64.6c-1.2,5.6-3.8,10.9-5.6,16.5c-0.8,2.7-1.3,5.4-1.9,8.2l1.4,0.4l2.2-5.3
		c-1.2,7.4,4.5,7.1,8.9,8.9l-7.2,0.6c1.9,8.2-3.7,14.2-6.4,21c-1.2,3-2.5,5.4-1.3,8.9c0.8,2.1-0.3,4.8-0.6,7.4
		c5.3,2.9,5.9,4.1,1.3,8.9c-7.5,7.9-12.8,18-22.9,23.3c-1,0.5-1.5,2-2.2,3.1c-1.7,2.6-2.9,5.7-5.1,7.9c-2.6,2.7-3.4,5.2-3.6,9
		c-0.1,2.9-2.6,6.5-5.1,8.2c-3.3,2.2-7.2,0.7-9.8-2.5c-1.9-2.3-3.6-4.8-5.1-7.4c-5.4-9.9-10-20.3-16-29.9
		c-5.3-8.5-12.1-16-18.3-23.9l-1.6,0.7c-0.3,2.7-0.7,5.4-1,8.2c-1.8,18.4-3.8,36.8-5.3,55.2c-1.2,14.6-8.6,21.5-23.3,21.2
		c-0.8-0.1-1.7,0-2.4,0.3c-6.1,3.4-12.4,4.5-19.7,2.2c-0.6,4.4-0.9,8.2-1.7,11.9c-1,5.2-1.8,10.6-3.7,15.5
		c-6.3,15.8-22.9,19.2-35.1,7.4c-0.5-0.4-1.1-0.9-1.7-1.3c-1.2,1.6-2.3,3-3.5,4.4c-3.3,3.8-7.2,6.4-12.6,5.7c-1.5-0.1-3-0.1-4.5,0
		c-12.1,0-19.2-5.6-21.2-17.7c-1.3-7.9-1.3-15.9-1.9-23.9c0-1.1-0.5-2.1-1.2-2.9c-0.4,1.9-0.9,3.9-1.3,5.8
		c-2.2,9.6-7.1,17.1-16.7,20.9c-1.4,0.7-2.5,1.9-3.2,3.3c-0.8,1.4-1.1,3.2-1.7,4.7c-3.7,8.9-5.2,9.9-14.8,9.8
		c-7.5-0.1-15,0-22.5-0.6c-13.4-0.9-21.6-11-19.6-24.2c1.4-9,3.8-17.9,5.7-26.9c1.4-6.7,3-13.3,4.2-20c0.1-1.7-0.6-3.3-1.9-4.3
		c-16.2-12.6-30.5-27.5-42.2-44.4c-2.3-3.2-4.6-5.5-8.5-6.2c-1.3-0.2-2.6-0.6-3.8-1.1c-6.7-2.8-12.5-2.9-18.3,3.1
		c-2.9,3-8,3.9-12.2,5.7l-1.9-1.1c-0.4-8.3-2.3-16.9-0.9-24.9c5.4-30.3,11.8-60.5,17.8-90.7c0.2-1.8,1.1-3.5,2.4-4.8
		c-1.6,7.8-3.6,15.5-4.8,23.3c-3,19.7-5.7,39.5-8.2,59.3c-0.5,3.8,0.5,8,1.5,11.8c0.9,3.9,4.4,6.7,8.4,6.7c4,0.4,7.8-2.1,8.9-6
		c4.2-14.2,8.7-28.4,11.5-42.9c1.4-7.1-0.4-14.9-0.9-22.4c-1.8-24.2-1.6-48.3,4-72.1c0.2-0.8,0.2-1.7,0.2-2.6
		c-6-1.6-11.7-2.2-16.5-4.6c-6.9-3.8-10.2-11.9-7.8-19.4c11.9-36.4,13.6-74.6,20.1-112c10.2-58.6,20.8-117.1,38.1-174.1
		c2.6-8.7,4.6-17.8,11.6-24.6c1.1-1.1,1.1-3.4,1.5-5.1c1.2-6.9,2-13.8,3.6-20.7c1.8-8.5,6.2-16.3,12.5-22.3c1.4-1.6,2.1-3.7,1.8-5.8
		c-1.7-9.3,1.4-16.7,8.4-22.7c3-2.6,6.7-4.5,9.4-7.4c2.7-2.8,4.9-6.1,6.5-9.7c1.6-3.6,0.4-6.6-3-9.5c-9.7-8.5-10.2-20.2-8.7-31.8
		c1.8-13.7,2.3-13.7-11.7-13.5c-37.5,0.5-75,1-112.5,1.5c-6.8,0.1-13.6,0.6-20.5,0.7c-1.9,0-3.8-0.8-5.7-1.3v-2
		c2.1-0.6,4.1-1.7,6.2-1.8c19.3-1,38.6-2.3,57.9-2.8c27-0.6,54-0.6,81-0.7c3.6,0,5.5-1.1,7.5-4.3c2-3.4,4.9-6.2,8.4-8.1
		c18-9,36.2-17.7,54.5-26.1c7.4-3.4,15.1-6.3,22.8-8.8c11.3-3.7,15.2-3.5,26.8-0.2c-2.7-5.1-4.4-11.3-8.3-15.1
		c-11.9-11.5-13.2-26.4-1.4-38.2c7.6-7.7,16-14.6,23.9-22c6.2-5.8,12.2-12,21.7-11.9c0.7,0,1.4-0.3,1.9-0.8c3.6-4,8.1-7.7,10.5-12.4
		c2.2-4.4,3.1-9.3,2.5-14.2c-0.9-6.3-3.8-12.2-5.8-18.2l-9.2,1.2l-0.3-1.3c1.2-0.6,2.5-1.1,3.7-1.8c3.1-1.8,4.9-3.9,3.8-8.1
		s-2.9-9.1,1.7-12.9c0.5-0.4,0.1-2.2-0.2-3.3c-2.4-7.8-1.8-15.4,0.5-23.1c0.6-2,0.4-4.2-0.4-6.1c-2.5-5.3-3.5-11.2-2.8-17
		c0.3-2.6-0.7-5.5-1.2-8.1l1.1,0.2c0.9-3.9,1.7-7.5,2.6-11.2c0.7-3,0.6-5.1-2.7-6.9c-2.6-1.4-4.3-4.5-5.7-7.5l9.9,6.7
		c1.3-12.7,8-23.5,1.4-34.9c-1.5-2.8-3.6-5.1-6.2-6.9c-2.9-1.8-3.5-3.7-2.5-6.6c1.9-5.3,3.7-10.6,5.7-15.9c1.5-3.7,3.5-7.2,5-10.9
		c6.2-15.5,16.6-25.8,33.8-28.3c2.4-0.4,4.5-2.7,6.7-4.1l-0.5-1.6c-3.6-0.2-7.2-0.8-10.7-0.5c-21.3,1.5-42.5,3.9-63.8,4.7
		c-37.5,1.4-74.9,2.4-112.4,2.5c-39,0.1-78-0.5-116.9,3c-2.6,0.2-5.3,0.2-8,0.2c-0.2,0-0.5-0.4-1.7-1.4c10.4-1.5,19.9-3.6,29.5-4.1
		c24.8-1.1,49.6-2.1,74.4-2.1c48.8,0,97.7,0.9,146.4-3.7c17.2-1.7,34.5-2.8,51.8-4.1c2-0.1,4.2-0.5,6,0.1
		c11.9,4.1,18.5-4.2,25.8-10.7s14.3-12.9,21.4-19.4c1-0.9,1.4-2.4,2-3.5c2.1-0.5,4.9-0.7,7.1-1.9c15.1-7.8,30.6-13.3,47.9-10.5
		c5.1,1,10,2.6,14.7,4.7c-14,0.9-26.1,6.2-38.1,13c0.6,0.7,1.1,1.5,1.6,2.3c2.7,5.7,6.3,5.9,12.3,4.4c7.5-1.8,14.9-3.5,22.3-5.8
		c5-1.5,10.9-0.2,16.4-0.4c4.3-0.1,8.5-0.6,12.7-1.4c5.6-1.3,10.9-1.1,15.9,1.9c7.3,4.3,14.5,8.6,21.7,13.1c3.5,2.1,6.7,4.6,10.2,7
		c2.3-9.8,8.6-12.4,17-7c4,2.6,7.1,6.5,10.9,9.4c1.9,1.5,4.4,3.1,6.7,3.2c46.6,1.7,93.3,1,139.9-2.1c24.8-1.6,49.6-1.5,74.4-2.5
		c9.6-0.4,19.2-2.2,28.8-2.2c17.3,0.1,34.6,1.2,51.8,1.7c6.6,0.2,13.3-0.4,19.9,0c2,0.1,5.2,2.1,5.6,3.7c0.8,3.3-2.5,3.2-4.8,3.1
		c-16.4-0.9-32.9-2.4-49.3-2.7c-13.1-0.2-26.2,0.9-39.3,1.5c-3.2,0.1-6.3,0.6-9.4,0.8c-33.1,1.2-66.2,2.8-99.4,3.5
		c-37.6,0.8-75.3,0.8-112.9,1.1c-1.6,0-3.2,0-5.6,0l15.7,29.4l-4.2-3.1l-1.2,1.2c10.7,10.4,23.8,18.8,29.2,33.7l1.3-0.6
		c0.4-3.3,0.7-6.7,1.4-9.9c0.3-1.3,1.3-3.2,2.3-3.4s2.9,1,3.5,2.1c1.8,3.3,3.2,6.8,5.1,11.2c0.9,0,2.8,0.2,4.8,0.2
		c50-0.6,100-1.2,150-1.9c14.7-0.2,29.4,0.3,44-0.5c16.9-0.9,33.8-3,50.7-4.4c8.3-0.7,16.7-1.1,25-1.7l0.1,1.4
		c-4.5,0.6-9,1.3-13.5,1.8c-16.4,1.6-32.8,3.1-49.2,4.5c-4,0.4-8,0.5-12,0.5c-65.5,0.9-131,1.7-196.5,2.5c-3.8,0-4.8,1.5-6,4.8
		c-5,13.3-4.4,27.2-5.7,40.9c-0.3,3.4-0.7,6.8-1,10.7c3.9-0.2,7.2-0.6,10.4-0.6c44.7-0.4,89.3-0.4,134-1.4c23.5-0.5,46.9-2.7,70.4-4
		c19.3-1.1,38.5-1.9,57.8-2.8c2.8-0.1,5.7-0.5,8.4,0c1.7,0.3,3.2,2,4.8,3.1c-1.6,1-3.2,2.8-4.9,2.9c-11.2,0.5-22.3,0.4-33.5,1
		c-22.4,1.2-44.8,3.1-67.2,4.2c-22.8,1.1-45.6,1.7-68.4,2.1c-33.5,0.5-67,0.6-100.5,1.1c-12.2,0.2-12,0.6-14.3,12.5
		c-1.9,9.6-4.7,19.1-6.9,28.6c-0.4,2.2-0.6,4.5-0.4,6.8c0.1,3,0.8,6,0.8,9c0,7.7,0.7,15.6-0.5,23.1s-4.4,14.9-6.8,22.7
		c4.2,0.9,3.9,4.4,4.1,8.1c0.9,17,11,27.6,25,35.4c1.7,0.8,3.5,1.1,5.3,0.9c14-0.6,21.2,6,21.5,19.8c0,0.8,0.2,1.6,0.4,2.8
		c6.1,0.5,9.8-3.4,14.2-7.3c9.1,11.9,5.6,22.9-1.5,34.3c4,2.7,8.1,5,11.5,8c6.3,5.3,13.2,10.4,18.1,16.9
		c7.2,9.6,16.9,15.9,25.7,23.5c0.8,0.6,1.6,1.2,2.3,1.9c7.4,9.4,17.2,10.2,28.5,9.7c41.3-1.8,82.6-2.7,123.9-3.9
		c3.8-0.1,7.7-0.4,11.4-0.9c1.8-0.3,3.4-1.9,5.2-2c3.3-0.2,6.9-0.7,9.7,0.6c2.5,1.1,1.3,4-1.2,4.7c-4,1.2-8,2.6-12.1,2.7
		c-40.3,1.5-80.6,2.9-120.9,4.1c-7.9,0.2-15.8,0-23.8,0l-0.5,1.9c2.4,1.9,4.7,3.8,6.9,6c5.9,6.3,12.1,12.4,17.2,19.3
		s5.2,14.9,0.8,22.6c-0.8,1.4-1.3,3-1.2,4.6c1.9,12.8,3.8,25.6,5.9,38.4c4,24.8,8.3,49.6,12.2,74.4c1,6.6,1.6,13.2,1.6,19.8
		c0.2,18.6,0.1,37.3,0.1,57.1l-19.8-30.5c-0.3,1.1-0.4,2.1-0.5,3.2c2.5,26.4,4.4,52.8,7.8,79.1c1.7,13.1,6.2,25.9,9,38.9
		c3.1,14.3,5.5,28.8,8.5,43.1c1.5,7.2,3.7,14.2,5.2,21.3c1.4,6.8,3.7,13.6-0.7,20.3c-0.7,1,0,2.9,0,4.4c-0.2,16.3,0.1,32.6-0.8,48.9
		c-0.5,10.6-5.7,19.7-9.9,29.4c-6.6,14.9-20.5,22.4-29.3,35.1c-5-3.5-6.9-7.9-8.2-12.8c-0.5-2-0.4-5.9-3.6-4.4
		c-2.3,1.1-3.9,4.5-4.8,7.2c-0.5,1.6,1,3.8,1.3,5.7c1.2,9.8-4.4,18.1-13.9,21c-1.2,0.4-2.5,0.8-3.9,1.2c0.8,3.1,0.9,6.5,2.5,8.7
		c1.4,1.9,4.5,2.8,7,3.4c1.7,0.1,3.3-0.7,4.3-2.1c6.6-12.7,27.3-15.1,38.6-3.7c2.5,2.4,5.3,4.4,8.4,6c7.4,4,10.5,10.8,11.3,18.4
		c2.2,22,4.7,44.1,5.7,66.2c1.9,39.3,5.9,78.4,10.8,117.4c0.3,2.4,0.4,4.9,0.6,7.6h-44.7c-0.4-3.3-0.8-6.6-1.2-9.8
		c-0.6-5.5-4.4-3.6-7.6-3.3c-3.6,0.3-4.5,2.1-3.2,5.4c1,2.4,1.5,5,2.4,7.8h-40.7c-2-5.6-2.4-11.3,0.3-16.4c2.6-4.8-1-7.2-2.9-10
		c-0.6-0.8-3.7,0.1-5.6,0.2c-9.3,0.3-17.8,2.6-26.5,6.1s-18.2-2.4-21.7-12.2c-2.4-6.7-6.9-9.4-12.7-12c-4.1-1.9-7.3-5.9-10.9-8.9
		c-1.6-1.2-3.3-2.3-5-3.3l-1.2,1.1c0.2,3.9,0.4,7.9,0.6,11.8c0.5,8.6-2.2,15.6-9.7,20.6c-1.3,0.9-2,3.6-1.9,5.4
		c0.5,5.8,1.4,11.5,2.3,17.7h-38.4l-2.3-15.1c-1.1,0.2-2.3,0.5-3.4,0.8c-7.3,2.7-14.9,5-22,8.2c-14,6.3-28.6,7.2-43.5,6.4
		c-1-0.1-2.7,0.1-2.8-0.3c-2.2-5.2-6.1-2.1-9.2-1.8c-7.8,0.6-15.5,1.9-23.3,2.1c-19,0.3-38,0.1-57.1-0.7c27.4-9.6,55.6-16.6,84.1-23
		c-0.5-0.1-1-0.2-1.5-0.3c-0.5,0-1,0-1.5,0.1c-24.3,3-48.6,6.1-72.9,9.1c-2,0.3-4,0.5-6,0.5c-4.6,0-7.8-2.2-8.6-6.7s1.8-7.7,6.1-9
		c3.8-1.2,7.7-1.8,11.4-3.4c-5.6,0.3-11.2,0.6-16.8,0.8c-2.3,0.1-4.7-0.1-6.9-0.5c-6.5-1.3-8.5-5-7-12.3
		c-12.4-6.9-13.7-11.8-5.4-19.3c-1-2-3.1-4.6-2.5-5.6c1.4-2.6,4-2,6.8-0.8c6.6,2.8,14,3.4,21,1.8c1.5-0.4,3-0.5,4.5-0.4
		c1.4,0.4,2.8,1,4.1,1.8c-0.7,1.2-1.5,2.3-2.4,3.4c-0.6,0.7-1.6,0.9-2.2,2.2c1.2,0,2.4,0.1,3.6,0c31-2.9,62-5.8,93-9
		c3.2-0.3,6.2-2.7,9.4-4c8.5-3.4,16.9-6.8,25.1-11c-8.5,2.2-16.8,4.6-25.4,6.4c-9.8,2-19.7,3.4-29.5,5c-1.3,0.3-2.7,0.3-4-0.1
		c-2.2-0.9-4.3-1.9-6.3-3.1c1.2-2,1.9-4.7,3.6-5.9c15.9-10.7,31.9-21.4,49.9-28.5c2.6-1,5.3-2.1,7.9-3.2c15-6.7,18.6-13.3,17.6-29.6
		c-1.6-24.9-2.8-49.9-4.2-74.9c-0.1-2-0.2-3.9-0.3-6l-103.3,54.6l-0.8-1.4c1-0.8,2-1.5,3.1-2.2c32.7-17.7,65.3-35.4,97.9-53.2
		c1.4-0.8,3-2.8,3-4.2c-1-29.5-2.3-58.9-3.5-88.4c-0.1-0.4-0.2-0.7-0.4-1.1c-3.8,0.6-7.7,1.6-11.6,1.6c-2.4,0-5.6-0.9-6.8-2.6
		c-0.8-1.1,1-4.4,2.1-6.6c0.8-1.5,2.2-2.6,3.8-3.1l-3.6,6.7c6.3-1,12.4,1.4,18.1-2.8c3.6-2.6,8.8-3,13.1-4.6
		c4.4-1.6,8.7-3.4,12.8-5.4c3.8-1.9,7.1-1.2,8.5,2.9c1.1,3.5,3.4,4.2,6.4,5.2c7.8,2.7,15.4,6,23.2,9.1c1.2,0.4,2.7,1.3,3.5,0.9
		c5.2-2.5,10.2-5.4,15.3-8.1c5.4,8.7,10.8,9.7,19.1,3.4c7.9-6,15.8-12,23.4-18.4c7.7-6.2,13.7-14.2,17.6-23.3
		c5.1-12.2,2.7-24.3-6.5-33c-1.4-1.2-3.2-2-5-2.3c10.3,20,2.3,36-10.3,51.8c2.1-8.6,3.9-16.4,5.8-24.2c0.9-3.7,2.1-7.4,2.9-11.1
		c0.8-3.9,0.8-8.2-3.1-10.2c-2.5-1.3-6-0.7-10.2-1c-5.3-12.4-17.4-17.1-31-18.5c-6.6-0.7-9.3-4.6-12.7-10.3c6.2,2.2,11.4,5,17.2,1.5
		c-3.6-16.2-7.7-32.6-10.9-49c-8.4-43-16.7-86-24.4-129.1c-1.5-8.7-1.6-17.5-0.3-26.2c1.5-9.6,7.4-16.7,18.4-17.2
		c-3.7-11.6,0-19.6,11.2-24.6c5.6-2.5,11.3-4.8,17.1-6.9c1.6-0.6,3.6,0.2,5.5,0.3c-0.2,1.9,0,3.9-0.7,5.5c-0.9,2.2-2.5,4.2-4.2,7.1
		c13.7-2.6,26.1-6.2,37.8-11.8c0.5-0.2,0.9-0.5,1.3-0.7c7.8-4,13.2-3.8,17.4,0.7c4.2,4.5,4.2,11.2-1,18.3
		c-6.7,9-13.8,17.6-20.7,26.3c-1.2,1.5-2.3,3.1-4.3,5.9c12.1-2.2,22.9-3.8,33.5-6.3c6.9-1.6,11.8-9.3,11.1-16.8
		c-1.4-13.9-3.5-27.7-5.3-41.6c0-0.2-0.5-0.4-1.5-1.3l-3.6,29.5l-0.9,0.4c-0.5-3.1-1.6-6.3-1.3-9.4c0.7-7.1,2-14.2,3.3-21.2
		c0.8-4.6,1.4-8.7-3.8-11.4c-2.1-1.1-3.5-3.5-5.2-5.3c-3.5-3.6-7.1-6.5-12.9-6.2c-5.4,0.3-9.5-3.3-13.1-7.3
		c-1.8-1.9-3.9-3.3-6.3-4.3c-6.3-2.6-12.8-4.8-19.1-7.2s-12.8-4.7-19.1-7.1c-1.6-0.6-3.2-1.3-4.8-2l0.3-1.4l6.3,0.3l1.1-1.3
		c-1-0.4-2-0.8-2.9-1.4c-6-3.8-11.9-7.7-17.8-11.6c-1.3-0.8-2.9-1.3-3.7-2.5c-6.8-9.3-18.9-13.8-23.5-25.3c-1.2-3.1-4.7-5.3-7.4-7.7
		c-0.5-0.5-2.1,0-3.1,0.4c-5.8,2.5-11.6,2.7-17.4-0.2c-1-0.5-2.2-0.9-3.3-1c-9.5-1-13.2-7-9.6-16c0.4-1,0.9-2,1.4-3l-1-0.9
		c-5.9,5.2-12.2,10.1-17.5,15.8c-1.9,2-1.3,6.3-2,9.5s-1.8,6.5-2.6,9.8c-0.3,1.3-0.2,2.7,0.2,4c4.2,11.9-0.9,22.9-12.9,27.3
		C646.8,469.9,641,471.9,634.8,474.1z M552.9,771.6c-2-0.9-4.5-3-6-2.5c-4.1,1.5-4.8,8.9-1.5,12c2.7,2.4,5.5,1.8,6.4-1.7
		c0.5-2.6,0.8-5.2,0.9-7.9c0.2,2.5,0.6,5,1.2,7.4c0.3,1.2,1.5,2.2,2.3,3.3c0.8-2.2,2.2-4.5,2.1-6.6s-1.9-4.2-2.9-6.3L552.9,771.6z
		 M659.5,134.5l11,10.6c-1-4.2-2.4-8.5-2.8-12.8c-0.4-4.5,2.1-6.1,5.8-3.5c3.4,2.4,6,6,8.9,9.1c2.1,2.3,4.2,4.6,6.2,6.9l2.1-1.1
		c-1.1-5.1-0.9-11.1-3.7-14.9s-8.7-5.6-12.5-7.9l6.2,0.8l0.4-1.1l-13.8-11.9l-18.8,14l3.8,4c-4.5-4.4-10.2-3.9-16.9-3.3l4.3-5.4
		c-2-0.3-3.4,0.4-4.9,0.8c-5,1.4-10.1,5-14.9,0.3c-2.4-2.3-4.1-1.9-6.9-1.1c-2.5,0.7-6.3,0.5-8.2-1.1s-3-5.3-2.6-7.9
		c1.1-8.5,1.2-8.8-7.6-9.4c-1.8-0.1-3.6,0-6,0c0.4,10.5-6,17.9-10.7,26.1c-0.9,1.5-2,4.2-1.4,5.3c3.7,6,7.8,11.7,12,17.8
		c7.2-8.8,13.1-17.7,21.7-24.1l1.4,0.8l-3.6,10.8c3.3,3.5,8.5,3.1,11.3,1.6c5.2-2.7,9.2-2.9,13.5,0.6c6.3-8.7,13.7-8.6,18.1,0.9
		c5.3,11.4,10.3,23.2,13.8,35.2c1.6,5.5,0.2,12.2,0.7,18.4c-0.1,0.8-0.3,1.6-0.7,2.4c-1.8,4.5-3.7,8.9-5.5,13.4
		c-0.4,1.2-0.8,2.5-1.1,3.7l1.3,0.7l4.9-5.4c3.9,11,1.7,21.7,2.9,32.2c2.5-7,3.5-14.7,10.4-20.4l2.5,15.5l0.7-7.1l1.2,0.1
		c0,4.2-0.6,8.6,0.1,12.7c1.3,6.6,0.7,13.3-1.6,19.6c-1.3,3.6-0.9,7.7-1.3,11.6l1.4,0.1l6.5-24.6h0.9l1.7,6.3l1.2-0.2l-2.1-24.2
		c1.4,1.8,2.4,3.8,3,6c2.3,9.3,1.5,18.4-1.3,27.5c-2.6,8.2-4.5,16.7-6.6,25.1l1.5,0.6c1.6-3.6,3.5-7.2,4.6-11
		c1.8-5.9,2.4-12.2,4.7-17.8c4.9-12.2,3-23.7-1.3-35.4c-1.5-4.1-1.8-8.3,1.6-12.3c3.7,4.2,4.7,10.8,11.5,11.1l3.4,4.9l1.4-0.7v-6.2
		l3.5,5.2l3.9-9.1c-4.4-1.2-8.6-1.7-11.9-3.5c-3.5-2.1-5.5-5.8-4.5-10.8l13.9,8.7c0.7-4.1,1.4-7.3,1.9-10.6s0.8-6.6,1.2-9.9
		l-1.3-0.2l-1.9,7.4c2.1-25.9-12.4-45.2-23.6-60.8c-0.8,4.3-3.8,8.2,2.1,11.1c2.4,1.3,4.5,3.1,6,5.4c6.6,10.1,10.3,21.9,10.6,34
		c0.2,4.3-0.7,8.6-1.1,12.9l-1-0.1l-2.4-14.1l-5.8,9.1c-0.2-1.4,0.1-2.7,0.8-3.9c3.1-5.3,3.2-11.7,0.3-17.1
		c-2.7-5.3-5-10.9-6.8-16.6c-1.6-5.3-5.6-7.6-8.8-10.8c-0.9,5.6-1.8,10.7-2.6,15.9c-0.2,1.3,0,2.6,0.6,3.8c1.3,2.6,3.1,5.1,4.4,7.7
		c4.9,9.8,5.5,19.8,0.2,29.6c-1.2,1.9-2.5,3.7-4,5.3c5.4-14,1.4-27-2.8-40.2l-3.8,6.2c-2.4-3.1-4.7-6.1-6.9-9.2
		c-5.4-7.2-11-14.2-16-21.7c-3.9-5.8-5-11.8-4.1-14.6l25.6,32.7c-0.5-3.7-1.8-7.3-3.8-10.5C668.9,146.6,664.1,140.6,659.5,134.5z
		 M655.8,266.3c-2.3,1.4-5.9,2.9-7.9-1.5c-1.3-3-1.2-6.5-1.9-10.8l-6.8,14.6l-6.8,6.5l11.8-1.3l0.1,1.2l-3.1,2.3l15.8,1.2l0.1,1
		l-4.6,1.9l-4.7,15.5c1.1,0.9,2.2,1.9,3.1,3c0.3,0.4-0.4,1.8-1,2.4c-1.6,1.6-3.4,3-5.5,4.7l-14.3,3.3c-0.8-1.6-1.4-4.2-3-5.3
		c-3.5-2.3-7.5-3.9-11.3-5.8c-2.2,0.5-4.3,2.7-6.5,4.8c-0.9,0.7-1.9,1.2-2.9,1.7l-1.5-2.6l-7.3,3.1l3.6-5.1l-7.9-0.8l-14.3,39.9
		c-3.3-3-3.4-3.2-3.4-17.4c-6.8,4.1-12.9,10.1-22.7,6.5l6.4-4.9c-1.3-0.6-2.6-1.4-3.8-2.3c-1.7-1.3-3.1-2.9-4.3-4.7
		c-1.5-3-2.8-6-4-9.1l-1.7,0.6l4.3,19c-3.9-4.7-3.3-13.1-11.4-12.9l-2-7.2c-1.9,4.1-2.6,7.5-4.6,9.5c-4.5,4.4-17,3.3-21.5-1.1
		c-1.2-1.2-2.9-2-5.8-3.8c0.5,5.8,0,10.2,1.5,13.8s5,6.5,7.7,9.7c-0.8-1.3-2.3-1.9-3.7-2.7s-2.8-1.5-4.9-2.7c0.2,3-0.1,5.3,0.5,7.5
		c0.6,1.6,1.4,3.1,2.4,4.4c-0.7,1.4-1.6,2.3-1.5,3.1c0.6,2.6,1.5,5,2.7,8.7L496,338.7c0.4,2.5,0.6,5,0.6,7.5
		c-0.2,4.8,1.4,8.1,5.3,11.4c5.2,4.3,11.1,8.3,13.5,14.6l-5.3-0.6c14.2,11.7,29.9,17.7,48.1,16.2l-3.2,0.9l0.1,0.5l20.8,1.1v1
		l-7.3,0.8c2.1,0.8,2.7,1,3.3,1.2c13.9,2.8,27.6,6.3,40.4,12.8c1.1,0.6,3.5,0,4.6-0.9c10.3-7.9,20.5-16,30.7-24
		c0.5-0.4,1.3-0.5,3.2-1.1l-19.4,28.4c10.5-1.5,10.4-1.5,15.7-7.5c2.3-2.6,4.8-5.1,7.4-7.5c8.5-8,17.1-15.8,25.7-23.8
		c7.1-6.7,14-13.9,25.6-11.8c-2.3-4.5-4.4-8.3-6.3-12.1s-1.4-9.2-7.6-10.4c-1.4-0.3-2.2-3.8-3.3-5.9c-0.5-0.9-1-1.8-1.6-3l-2.5,4.7
		l-2-5.3l-11.9,13l-1.9-1.1l5.9-20.9l-2-0.6c-1.9,4.8-4.6,9.4-5.6,14.4c-2.3,10.5-7.7,19.3-13.7,27.8l11.7-28.2l-1.7-0.8l-4.5,6.4
		c1.1-4,1.7-6.5,2.5-9s1.6-5,2.7-8.2l-7,0.8c1.9-4.5,3.4-9.5,5.9-14c3-5.4-1.6-9.3-2.7-13.8l1.2-0.5l2.7,4.5l1.8-0.8
		c0-2.3,0.7-4.9-0.1-6.8C662.7,280.9,659.2,273.8,655.8,266.3z M654.5,665.3c0.2,0.5,0.4,1.1,0.6,1.6c1.5,8.1,4,10,12.1,9.6
		c1-0.1,1.9,0.2,2.7,0.8c9.8,7.5,20.9,8.1,32.4,6.2c9.5-1.5,18.6-4.4,24.9-12.4c4.4-5.6,4.1-12-1.1-16.6c-3-2.7-6.4-4.7-10.2-6.1
		c-7.9-2.7-16-4.6-24-7c-2-0.6-4-1.5-6-2.2c2.7-5.1,6.3-6.4,11.2-5.9c4.5,0.3,9,0.3,13.5,0c5.8-0.3,11.7-0.9,17.5-1.4l0.3-2.1
		l-26.7-8l5.1-3.2l-0.7-1.6c-2.3,0.1-4.7,0.4-7,0.8c-7.4,1.7-14.7,3.5-22,5.5c-1.6,0.4-3,1.7-4.5,2.6c1,1.6,2,3.1,3.1,4.7
		c0.3,0.4,0.6,0.7,1,0.9l-3.2,11.5c-4.7-5.1-10.1-9.6-17-6.1c-5.7,2.9-10.8,7.2-15.5,10.5c-2-1.9-4.4-5.5-7.5-6.5
		c-3.4-1.1-7.5,0.4-9.9,0.6c-1.8-2.8-2.9-7-4.9-7.6c-7-1.8-6.4,6.1-9.8,9.1c-7.5-4.5-15.7-4.1-18.8,4.5c-10,0.1-12.1,1.7-15.4,10.7
		l-17-5.4c2.4-1.8,5.2-3.4,7.3-5.7c1.2-1.2,2.2-4.2,1.5-5.1c-1-1.4-3.5-1.9-5.4-2.3c-1.2-0.1-2.4,0.2-3.3,0.8
		c-6.5,4-12.9,8-19.3,12.1c-0.9,0.6-1.9,1.8-2.7,1.7c-7.8-1.3-14.2,1.9-20,6.3l-5.6-4.6l-2.2,5.6l-17.4-2.3c2.3-1.8,5.2-4,7.9-6.4
		c2.9-2.7,5.5-5.9,4-10s-5.8-4.7-9.7-4.5c-4.8,0.1-9.6,0.5-14.4,1.3c-15.7,2.6-31,6.4-44.8,14.8c-4.9,3-6.7,6.8-4.7,9.6
		c3.2,4.2,6.4,1.5,9.9-0.8c8.2,14.2,16.3,28.1,24.4,42c1.6,2.8,4.3,4.6,7,2.8c2.1-1.7,3.4-4.1,3.7-6.7c0.3-4-0.6-8-1-12.1l-3.2,3.5
		l-12.2-19.4l27.2-9.7c-1,1.2-2.2,2.4-3.1,3.8c-6.3,8.9-2.9,19.2,7.8,21c5.5,1,11.6,0,17.1-1.2c5-1.2,6.9-5.8,5.8-11.2h-4.1l2.3-4.6
		c2.2,2.5,3.9,4.5,5.7,6.5c2.3,2.6,4.9,5.1,8.5,2.6s2.8-5.7,0.9-8.8c-1.8-3-0.7-4.4,2.2-5.7c8.3-3.6,16.7-3.6,25.3-1.1
		c-2.3,0.1-4.6,0-6.8-0.2c-5-0.3-8.4,2.1-8.7,6.2c-0.3,3.8,2.3,7.2,7.2,7.1c6.5-0.1,12.9-1,19.2-2.5c6-1.5,11.2-4.7,12.2-12
		c8.2,6.9,15.1,6.3,29.2-2.7c4.3,4.1,8.2,2.2,12.2-1.1c3.7-3,7.6-5.6,11.7-8.7c0.4,1.6,0.7,2.1,0.6,2.5c-0.4,1.8-1.3,3.6-1.2,5.3
		c0.1,2,0.6,4.3,1.8,5.7c0.9,1,3.3,1.2,5,1c1.3-0.2,2.5-1.4,3.6-2.2C644.5,667.4,646.3,667.7,654.5,665.3L654.5,665.3z M553.4,601.5
		c0.8-4,1.2-7.4,2.2-10.7c1.5-5.1,3.4-10.1,4.9-15.2c3.1-10.3,7.6-20.2,3.3-31.5c-2.1-5.6-2-12.1-3.2-18.1c-0.4-1.4-1.5-2.6-2.9-3.2
		c-15-3-30-5.8-45.5-8.8c-0.1,1.8-0.2,3.4-0.4,5c-2.3,24.5-4.5,49-7.2,73.5c-0.3,3.1-2.1,7.3-4.6,8.8c-3.9,2.4-3.6,4.7-2.9,7.6
		L553.4,601.5z M656.5,541.1c-8.2-1.6-16.6-2.2-24.1-5.1c-10.5-4.1-21.2-5.2-32.1-7c-2.9-0.5-4.2,0.2-5,3.1
		c-1.8,7.1-3.9,14.1-5.8,21.2c-0.3,1.4-0.6,3.3,0.1,4.3c5.3,7.3,4.2,15.6,4.1,23.7c-0.1,5.1-0.4,10.1-0.6,15.1l66.8-2.5
		C655.1,575.9,657.2,558.2,656.5,541.1L656.5,541.1z M568.8,79.1c-1.8-2-3.8-3.4-4.6-5.2c-1.7-3.9-4.2-3.6-7.2-2.3
		c-10,4.5-21,5.9-29.8,14.1c-7.9,7.4-18.1,12.4-27.2,18.5c-1.9,1.4-3.7,2.8-5.4,4.4c-1.6,1.4-3.2,2.8-5.4,4.8l43-16.9l0.8,1.4
		c-0.2,0.5-0.3,1.3-0.8,1.6c-13.6,8.9-27.3,17.4-44.3,17.9c-2.4,0.1-4.6,1.1-6.3,2.8c-4.9,5.9-9.3,12.2-13.6,18
		c2.5-12,10.8-21.4,19.1-30.7c-18.4,8-30.8,21.8-30.5,38.5l6.3-14.3l0.7,0.3l-5.7,15.1l0.7,0.4l2.6-3.4l0.7,0.4l-4.4,11.7l2.8-1.2
		c-1.4,3.5-3.9,6-5.4,9s-2.2,6.6-2.9,10c-0.7,3.2-0.9,6.5-1.4,10.6l17.4-22.9l1.4,0.9c0,0.9-0.1,1.9-0.2,2.8c-2,8.2-4,16.5-6.2,24.7
		c-3.4,12.5-7,25-10.4,37.5c-0.6,2.1-0.3,4.4-0.4,6.6c2.9-7.4,4.2-15.1,6.5-22.5c5.6-17.9,11.3-35.8,17.5-53.5
		c2.1-6,6.2-7.8,10.8-6.5c4.4,1.2,6.9,5.9,5.9,11.7c-0.6,3.5,1.1,4.6,3.9,3.3c6.7-3.1,11.7-8.1,15.7-15.6l-5.4,2.7
		c-1.5-3.5-3.3-6.7-4.1-10.2c-1.9-8.1,3.1-14.5,6.5-21.3c-15.6,8.3-28.8,19.3-41.3,31.5c3.2-4.3,6.5-8.5,10.6-11.7
		c13.3-10.3,26.8-20.1,40.3-30.1c1.3-1,2.9-1.7,4.6-1.9c9.7-0.8,15.4-8.5,24.4-13.1l-6.7-0.6l-0.1-1.2l11.8-1.9l-21-8.7l0.6-1.2
		L568.8,79.1z M503,196.3c-0.3,7.7,2.9,10,9.4,6.9c2.8-1.3,5.3-3.5,7.9-5.2c5-3.2,9.6-7.2,15-9.3c5.2-2,8.6-5.2,10.6-9.8
		c1.9-4.5,3-9.3,4.3-14c1.1-4.2-1-7.1-4.2-9.3s-6-0.8-8.5,1.7c-1.2,1.1-2.2,2.4-2.8,3h-8.4l-1.2-1.2c1.2-0.6,2.6-0.9,3.5-1.8
		c5.7-5.4,11.4-10.7,16.8-16.3c1.3-1.4,1.6-3.7,2.4-5.6c-2,0.2-4.1,0-5.9,0.7c-15.6,5.9-27.4,16.7-38.1,29.1c-2.9,3.4-6.7,6-9.5,9.4
		c-1.2,1.9-1.4,4.2-0.7,6.2c0.5,1.2,3.5,1.3,5.5,1.7c0.9,0.2,2.2-0.6,2.7-0.3c3.1,2.2,5.2,0.2,6.9-1.7c2.9-3.1,5.5-6.5,8.7-10.3
		c-1.7,5.1-4.3,9.5-4.3,13.8c0,6.6-4.5,9.8-7.4,14.4L503,196.3z M307.7,479.3l65.2-15.8l0.1,0.5l-62,19.5l3,8.4l72.9-30.6l0.3,0.8
		l-4.6,3.8c11.1-1.4,16.9-9.1,23.7-15.2l-16.7,8.8l-0.8-1.4l14.5-8.8c-8,0.7-15.2,1.3-22.4,2c-5,0.5-10,0.8-14.8,2
		c-16.7,4-33.2,8.2-49.8,12.5c-1.2,0.4-2.3,1.2-3,2.3C311.4,471.5,309.9,474.8,307.7,479.3z M457.3,615.6v-1.1l-2.6-0.9
		c-5.2-1.8-7.4-6.1-6.2-11.4c1-4.3,1.7-8.7,2.1-13.2c1.3-18.4,2.1-36.9,3.8-55.3c1.7-17.5,4.3-35,6.7-52.4c0.5-3.5-0.6-5.4-5.6-6
		c-1.9,8.8-4.5,17.5-5.5,26.5c-3.6,34.8-6.7,69.6-10.1,104.4c-0.3,1.6-0.8,3.1-1.5,4.5c-2.2,5.9-9.5,9.7-7.2,17.6l-2.1,1.4l-3.4-6.3
		l-1.7,0.7c0.4,2.4,0,5.4,1.3,6.9c1.9,1.8,4.4,2.7,7,2.5c5.8-0.5,10.2-3.9,13.5-8.5c0.9-1.2,1.2-2.9,1.7-4.4l-3.9-1.4l-0.2-0.9
		L457.3,615.6z M623.9,1134.3c24.3-1.9,47.2-10.4,71.1-15.3l-2.1-24.6c-5.2,3.1-9.8,7-15,8.8C658,1110.3,641.1,1122.4,623.9,1134.3
		L623.9,1134.3z M516.2,267.1c10.1-0.5,18-6.1,25.7-11.8v13.4c1.1-10.6,5.9-18.8,12.7-27c9.4-11.3,16.7-24.4,24.8-36.7
		c2.1-3.2,4.1-6.4,6.2-9.6l1,0.4v9.2l2,0.2l8.3-38L596,167l-4.1,9.8l-3.8-5.2c-11.5,13.8-15.7,23-14.5,32.5c1.3-2.2,2.3-4.1,3.5-5.8
		s2.6-3.3,3.9-4.9l1.2,1l-26.7,39.4l-1.1-0.7l5.4-11.1l-1.1-0.8C549.1,240.9,538.2,259.3,516.2,267.1z M535.2,216.9l1.5,0.9
		l22.9-30.6l3.6,2.2c0-2.9-1-5.9,0.2-7.5c5.2-7.4,9.1-15.9,17-21.2c1-1,1.5-2.5,1.4-3.9c-0.8-3.2-1.8-6.4-3-9.5
		c-17.1,11.7-28.8,26.9-38,44.3l6.7-9.1L535.2,216.9z M789.3,910.9c0,7.8,0,14.5,0,21.2s2.2,11.4,6.3,12.4s8.7-2.1,11.2-8.7
		c3.2-8.3,5.9-16.8,8.4-25.4c5.5-19,10.8-38.1,16.2-57.1c0.4-1.4,0.6-2.9,0.8-4.4l-1-0.2l-24.4,69l-9.6-4.3l1.3-4.9
		C795.8,910.9,794.2,915.1,789.3,910.9L789.3,910.9z M871.1,641.1c0-7.4,0.1-14.9,0-22.5c-0.1-8.5-3.3-12.1-10.2-12.4
		c-2.6,3.7-4.9,7.3-7.6,10.6c-7.6,9.1-15.3,18-23.1,26.9c-2.6,2.8-3.4,6.8-1.8,10.3c3.5-8.8,7.3-17.5,17.6-19.3
		C854.8,633,864,635.3,871.1,641.1L871.1,641.1z M214.5,911.5c1.6-6.1,3.5-12.7,5.1-19.4c0.2-0.8-0.5-1.9-0.9-2.8
		c-3.5-6.9-4.1-15-1.6-22.3c0.6-2.1,0.9-4.2,1-6.4c1.5-21.1,3-42.2,4.5-63.3c0.2-2.7,0-5.4,0-8.1c-1,1.1-1.6,2.5-1.8,4
		c-4.1,27-8.1,54-12.1,81c-0.2,1.8-0.1,3.6,0.3,5.4C210.8,890.3,212.6,900.8,214.5,911.5z M517.1,826.3l-0.3-1.4
		c-1.1,0-2.3-0.1-3.4,0c-16.4,1.3-32.8,2.8-49.2,4c-5,0.4-10-0.4-14-4.6l14.8-1.3c-5.5-2.6-6.7-7.2-7.8-12.4
		c-1.4,6-3.6,10.9-10.8,10.5l2.2,9.7c23.5-5.9,33.8,6.9,38.2,27.7c1.3-4.6,2-9,3.2-13.3c2.9-10.5,9.6-15.7,20.4-16.7
		C512.6,828.3,514.9,827,517.1,826.3z M840.2,916.7c-0.8,0.3-2.7,0.5-3.8,1.5c-7.3,6.4-12.1,15.2-13.3,24.9c-0.5,4,1.9,6.7,5.7,7.7
		s7-0.5,8.8-3.9c3.4-6.2,6.6-12.5,9.7-18.9C849.9,922.6,846.6,916.8,840.2,916.7L840.2,916.7z M460.1,727.1c4.9,2.4,10,1.8,14.9,0.9
		c40.2-7.1,80.8-11.4,121.6-12.8c7.7-0.3,15.3-1.1,23-1.6C565.9,710.8,513,717,460.1,727.1z M439.5,380.5c3.5-4,6.5-7.6,9.7-11
		c2.5-2.7,5.8-4.7,7.8-7.7c5.7-8.5,13.4-10.6,22.7-8v-18.2c-4.9,0.6-3.4,3.3-3.2,5.7s0,4.8,0,7.8l-16.6-13.6c0.3,2.1,0,4.2,0.9,5.2
		c2.4,2.6,2.2,5.2,0.5,7.7c-1.7,2.6-3.8,5-6,7.2c-7,6.6-14.1,13.1-21.5,20L439.5,380.5z M450.1,747.8l-1.1-0.1l-1.6,13.5
		c47.6-5.7,96.7-6.5,144.7-16.3c-4.9,0-9.8,0.4-14.7,1.1c-5.6,0.8-8.2-1.3-9-6.9c-0.7-4.8-2-9.5-3-14.2l-1.6,0.3
		c-4.6,8.3-0.9,15,6,22.3L450.2,759L450.1,747.8z M510.7,792.6l-10.4-9.1c0.5-1.5,0.9-3,1.2-4.6c0.4-4.1-1.5-6.7-5.6-7.6
		c-4.6-1-14.5,3.2-16.6,7.4c-0.8,1.9-0.8,4-0.2,5.9c0.4,1.1,2.9,2.5,3.9,2.1c1.8-0.7,4.2-2.3,4.4-3.9c0.8-4.6,3.9-4.5,7.7-4.2
		c-1.8,3.4-4.1,6.5-6.8,9.2c-2.1,2.1-5.7,3.6-3.2,7.1s5.3,1.2,7.6-0.8c3.8-3.3,7.7-4,12.4-1.7C506.5,793.3,508.8,792.6,510.7,792.6
		L510.7,792.6z M281.2,940.7l-0.3-1.3c-1.7,0.3-3.4,0.7-5.1,1.2c-25.7,8.4-46,24.2-62.1,45.6c-2.7,3.6-4.3,8.2-5.9,12.5
		c-0.4,1.1,0.8,3,1.5,4.4c0.7,0.2,1.5,0.1,2.1-0.2c0.2-1.2,0.3-2.4,0.3-3.6c0.1-1,0.4-1.9,0.9-2.8c2.1-3.6,4-7.4,6.5-10.6
		c13.8-17,31.2-30.7,50.8-40.3C273.6,943.7,277.5,942.3,281.2,940.7z M884.8,693.3l0.9-0.3c-1.8-17.9-3.5-35.8-5.5-53.7
		c-0.3-3.1-2.1-6.1-3.2-9.1l-2.1,0.2c-0.1,5.2-0.7,10.4-0.3,15.5c0.5,6.8,2.2,13.4,2.4,20.2c0.2,14.9,4.8,28.8,8.6,42.9
		c0.1,0.3,0.5,0.5,1.3,1.4l-4-20l0.5-0.1L884.8,693.3z M605.1,770.7c2.6,1.5,5.4,2.9,8.2,4.1c1.4,0.2,2.7-0.3,3.6-1.3
		c2.6-3.7-2.2-15.3-6.5-16.2c-3.3-0.7-6.6-1.2-10-1.7c-3.7-0.5-5.5,1.6-3.8,5c1.7,3.2,1.2,5.9,0.1,9c-0.8,2-1.1,4.2-0.8,6.3
		c0.3,1.6,2.1,3.8,3.5,4c1.2,0.2,3.3-1.6,4.2-3C604.5,775.2,604.5,773,605.1,770.7z M864.6,943.4c0.1-7.2-3-11.3-7.3-11.8
		s-7.5,2.9-8.5,8.5c-0.4,2.4-1.1,4.8-1.7,7.2c-1,4.2,0,7.6,3.9,9.7c3.4,1.8,8.2,0.1,10.1-3.8C862.6,950.1,863.7,946.8,864.6,943.4z
		 M725.3,605.6c-5.1-2-9.4-3.2-13.3-5.3c-2.3-1.4-4.1-3.3-5.3-5.7c-1.9-3.7-3-7.8-4.5-11.7l-1.3,0.4c-0.3,3-5.3,6.7,1.7,8.5
		c-0.4,1.3-0.5,3.2-1.4,3.6c-2,0.9-4.2,1-7,1.6c1.2,1.5,1.7,2.5,2.5,2.9c4.9,2.4,7.2,6.6,9.1,11.6c1.5,4.1,6.3,4.1,9.4,0.7
		c1.2-1.2,2.6-2.2,4.1-3.1C721.1,607.9,722.9,607,725.3,605.6z M278.8,966c-17.1,6.7-32.5,15.6-44.1,29.9c-3.6,4.5-6.5,9.6-9.4,14.7
		c-0.7,1.2,0.1,3.2,0.2,4.9c1.4-0.6,2.7-1.4,4-2.2c3.8-3.1,7.4-6.5,11.3-9.5c4-3.1,8.3-6,12.5-8.9l-0.6-0.8l-18.9,10.4
		C245,987,261.2,975.7,278.8,966z M647.7,754.5c-3,3.4-5.6,6-7.6,9c-1.7,2.4-4.3,5.7-3.7,7.7c0.8,2.6,4.1,5.2,6.9,6.1
		c7,2.2,14.1-5.4,12.6-12.9c-0.2-1.1-1.1-2.7-0.7-3.2c2-2.5,0.1-3.7-1.4-4.6c-0.8-0.5-3.3-0.2-3.4,0.2c-0.5,1.9-0.7,3.9-0.8,5.8
		c-0.2,1.9,0.4,4.4-0.6,5.4s-3.6,0.9-6.2,1.3c2-5,3.7-8.7,4.8-12.4c0.3-1.1-0.7-3.2-1.8-3.8c-1.3-0.7-3.2-0.4-4.9-0.5l-0.1,1.9
		L647.7,754.5z M515.5,779.5l-5.7,2.9c1,1.3,1.9,3.5,2.8,3.6c2.9,0.1,6.8,0.3,8.5-1.4c2.2-2.1,3.9-2.2,6.4-2c2.5,0.3,5,0.2,7.4-0.3
		c1.7-0.4,3.2-2,4.7-3.1l-3.7-3.4c-0.2-1.9,0.4-4.4-0.7-5.5s-3.7-1.5-5.4-1.1s-3.1,2.1-4.7,3.2c-1,0.8-2.5,2.4-3,2.2
		C515.7,771.3,516.3,776.8,515.5,779.5z M736.2,704.5l-2-0.1c-0.3,3-1.1,6.1-0.9,9.2c1,17.5,2.1,34.9,3.3,52.3
		c0.1,1.2,1.3,2.4,2,3.6c1-1.1,2.9-2.1,3-3.2c0.2-4.5,0.2-9-0.3-13.4c-1.4-14.6-2.9-29.1-4.4-43.7
		C736.8,707.6,736.4,706.1,736.2,704.5z M488.5,739.4l-1.1,1.2c0.9,1.4,1.7,3.8,2.8,3.9c5.6,0.6,11.3,0.7,17,1
		c3.8,0.2,5.8-1.7,6.5-5.3c0.3-1.2,1.4-2.3,2.1-3.5c0.8,1,1.4,2.2,2.4,2.8c1.6,0.9,3.6,2.2,5,1.8c1.7-0.5,2.9-2.6,4.3-4
		c-1.2-1.2-2.3-3-3.8-3.3c-3.5-0.9-7.2-1.4-10.8-1.4c-3.9,0-7.5,1.7-8.3,5.8c-0.8,3.9-2.8,3.9-5.7,3.2
		C495.5,740.8,492,740.1,488.5,739.4z M621,69.4c-0.7,3.6-1.5,7.9-2.2,12.2c-0.1,1.1,0.3,2.2,1.1,3.1c5.1,5.7,6.9,7,17.7,1.8
		c-0.6-3.1-1.1-6.2-1.9-9.2c-0.4-1.2-1.2-2.2-2.2-2.8C629.4,72.6,625.1,71.1,621,69.4L621,69.4z M584.1,769.9l1.2,0.2
		c0.3-2.8,1.9-6.5,0.7-8.3s-5.4-1.8-8-1.2c-1.9,0.4-3.5,3-4.8,4.9c-0.8,1.2-1.1,2.6-0.8,4c0.7,1.1,1.9,1.7,3.2,1.7
		c4.6-0.6,5.6,2.1,5.5,5.2c-2.1,1.7-5,3.9-4.7,5.5c0.7,3.8,4.3,2.9,7,2c3.7-1.3,7.1-3.1,10.6-4.7l-0.5-1l-6,0.4L584.1,769.9z
		 M685,765.7c-4.7,0-2.6-3-3-5.2c-0.6-4-1.8-7.9-3.4-11.6c-1.2-2.7-3.8-3-6.1-0.7c-0.1,0.1-0.7-0.6-1.1-0.7c-1.3-0.4-2.6-0.7-3.9-1
		c-0.2,1.7-1,3.8-0.3,5.1c2.4,4.4,6,4.2,10.5,1.9c-1.1,3.1-2.9,5.4-4.4,7.9c-2,3.2-2.9,6.8,0.5,9.4c3,2.4,6.3,1.9,8.9-1
		C683.6,768.8,684,767.5,685,765.7L685,765.7z M607.2,181.5l-6.1-32.2c-6.5,8.9-6.3,14.5,0.3,17.4c3.3,1.5,3.2,3,2.9,5.6
		c-1.1,10.7-2,21.4-3,32l0.6,0.1l8.5-27.1l-1.4-0.4L607.2,181.5z M882.2,739.2c-0.1,0.6-0.1,1.3-0.1,1.9
		c3.9,18.9,7.7,37.8,11.8,56.7c0.5,2.5,2.1,4.8,3.8,8.5C897.6,781.8,886.8,761.4,882.2,739.2L882.2,739.2z M696.2,301.9
		c-6.4,5.7-12.3,10.8-17.8,16.2c-0.4,0.4,0.5,3.5,1.6,4.1c5,2.7,16.2-4.5,16.3-10.1C696.2,309.2,696.2,306.3,696.2,301.9
		L696.2,301.9z M588.8,82.8c7.5,3.9,13.2,7.4,14.1,14.3c2.4-3.5,4.8-6.6,6.8-10c0.8-1.4,0.9-3.1,0.5-4.6c-0.3-0.9-2.1-1.7-3.4-1.9
		c-4.3-0.8-8.7-1.4-13.8-2.1C596,82.1,593,82.3,588.8,82.8z M304.4,1038.8l-10.7-15.3c-5.5,7.7-6,12.6-1.9,16.4
		C295.1,1042.9,299.4,1042.7,304.4,1038.8L304.4,1038.8z M773.8,585.9l18.3-16.5l-24.6,5.9L773.8,585.9z M879.8,711.9l-1.2,0.3
		c0.5,4.9,0.9,9.9,1.5,14.8s0.6,9.8,6,12.7c1.9,1,2.6,4.5,3.8,6.8l1-0.5L879.8,711.9z M307.7,1046.9l-1.5-0.1
		c-1.3,3.5-3.2,6.9-3.6,10.6c-0.2,2.6,1.4,5.5,2.8,7.9c0.4,0.8,3,0.9,4.3,0.4c0.8-0.3,1.5-2.4,1.3-3.5
		C310,1057.1,308.8,1052,307.7,1046.9L307.7,1046.9z M600.3,171.3l-1.4-0.2l-4.4,38.3l1.5,0.2C599.8,197.1,601.2,184.2,600.3,171.3z
		 M642.6,96l2.2,4.9c2.9-1.7,4.8-3,4-7c-0.6-2.8,0.6-6.1,1-9.1l1.8-0.1l4,6.4c0-6-1.2-11.4-7.8-13.5C647.4,90.3,647,91.7,642.6,96
		L642.6,96z M533.3,730c-1.6,2.6-3.2,4.3-3.6,6.2c-0.1,2,0.4,4.1,1.5,5.8c0.2,0.4,3-0.6,4.6-0.9c1.2-0.2,2.7,0.2,3.6-0.4
		c1.1-0.9,1.9-2.2,2.3-3.6c0.3-0.9-0.4-2-0.6-3.1l-4.4,1.4L533.3,730z M642.9,118.3l-1.8-1.7l22.3-12.1l-4.5-6.2l1.2,2L642.9,118.3z
		 M566.7,799.7l-0.2-1.2l-60.7,7.4l0.1,1.2L566.7,799.7z M675.2,584.5l1,1.9l15.2-2l-4.9-7.7L675.2,584.5z M628.2,701.8l0.1,1.4
		l52.1-9.4l-0.2-1.1L628.2,701.8z M268.3,983.5c0.9,8.3,7.3,8.8,13.4,10.7C280.4,987.9,274.8,983.3,268.3,983.5z M717.3,236.8
		l-1.8-0.2c0,5,0.5,10-0.2,14.8c-0.5,3.8-2.2,7.4-3.6,11.1c-1,2.8-2.3,5.6-3.5,8.4C714.6,260.4,722.2,249.8,717.3,236.8L717.3,236.8
		z M624.9,598.5l-0.1-1.3c-9.9,0.6-19.8,1.2-29.7,1.9c-1,0.1-1.9,1.4-2.8,2.1l0.8,1.2L624.9,598.5z M638.2,300.5
		c5.6-4.3,8.4-10.5,10.7-17c0.1-0.2-0.3-0.5-0.6-0.9l-1.8,2.8c-5-1.8-6.5-0.6-6.7,4.6C639.7,293.4,638.8,296.8,638.2,300.5
		L638.2,300.5z M484.8,867.1l-9.1,32.2C483.2,889,484.8,878.3,484.8,867.1z M462.6,746.2l-7,3.9c2.2,1.4,4.2,3.7,6.5,3.9
		c1.7,0.2,3.7-2.2,5.6-3.5L462.6,746.2z M630,753.4l-1.9,0.2l-6.3,16.8c2.1-1.3,3.4-1.7,3.7-2.4c0.7-1.8,0.6-4.1,3.7-2.7
		c0.8-0.5,1.3-1.3,1.5-2.2C630.7,759.9,630.3,756.7,630,753.4L630,753.4z M693.8,332.8c5.2,2.5,5.3-4.1,9.2-4.8l-2.9-4.8
		C697.1,326.1,692,326.9,693.8,332.8L693.8,332.8z M277.9,595.5l4.8-15.2l-9.2,7L277.9,595.5z M300.7,534.6
		c-1.6,1.2-3.1,2.4-4.6,3.7c-1.2,1.4-2.3,2.9-3.3,4.5l10.1,0.8L300.7,534.6z M480.5,741.3c-1.3,0.8-2.3,1.9-3.4,2
		c-1.5,0.1-3-0.5-4.5-0.8l0.5,6.5c2.4-0.8,3.7-1.5,5-1.6C482.4,747,483,745.8,480.5,741.3z M500.1,337.6l1.5-0.2
		c0.3-11.3-0.2-13.2-5.2-17.4L500.1,337.6z M713.1,276.7l3,0.7l3.3-18.4l-1.6-0.3L713.1,276.7z M546.5,733l-1.5,1.2l4.6,6.3
		c1.1-1,3.2-1.8,3.3-2.9C553.2,733,549.3,733.7,546.5,733z M465.9,804.6c0.5,3.7,3.1,4,22.6,2.6L465.9,804.6z M634,194.3l-3-6.3
		l-7.8-5.6l8.7,14.1L634,194.3z M782.5,945.4L770,934.9l-1.1,1.3C773.8,939.1,774.8,946.3,782.5,945.4L782.5,945.4z M666.8,283.2
		l2-0.5l-5.1-19l-1.6,0.4L666.8,283.2z M703.3,231.1l-6.3-2l3.6,11.3L703.3,231.1z M685.4,1138.3c8.4,0.2,10.5-1,10.5-5.1
		L685.4,1138.3z M456.6,803.1l1.8,0.2l1.2-13.7l-1.4-0.1C458.7,794.1,454.3,798.3,456.6,803.1z M474.2,345.4l0.9-0.3
		c0-2.6-0.1-5.1-0.5-7.6c-0.2-0.9-2.1-1.5-3.2-2.2c-0.2,1.1-0.9,2.4-0.5,3.4C471.8,341,472.9,343.2,474.2,345.4z M429.4,731.4
		c-3.7,9.6-3.5,10.9,1.6,10.9L429.4,731.4z M824.5,982.9l-6.5-6.1l0.9,9L824.5,982.9z M455.8,152.9l-1.6-1l-6.5,9.1l1.4,1
		L455.8,152.9z M686.5,294.6l1.3,1l7.5-9.1l-1.2-1L686.5,294.6z M725.3,688.5l-0.1-2l-16.2,2.2l0.1,0.6L725.3,688.5z"/>
	<path d="M394.5,297.1c-0.1-0.2,0.2,0.7,0.6,1.6c1.7,4.1,0.6,6.1-3.8,6.2c-19.9,0.7-39.8,1.5-59.8,2.1
		c-66.8,1.9-133.5,3.7-200.3,5.5c-1.8,0-3.8,0.4-5.5-0.1c-1.9-0.6-3.5-2-5.2-3.1c1.7-1,3.3-2.6,5.1-2.7c10.3-0.5,20.6-0.7,31-1
		c52.4-1.4,104.9-2.8,157.3-4.2c16.5-0.4,33-0.4,49.5-1c7.3-0.3,14.5-1.6,21.8-2.4C388.1,297.6,390.9,297.4,394.5,297.1z"/>
	<path d="M862.1,304.8c-35.5,0-71-0.1-106.5,0.1c-6.1,0-12.3,1-18.4,1.1c-1.7,0-3.5-1.4-5.2-2.2c1.4-1.3,2.7-3.5,4.4-3.8
		c4.9-0.9,9.9-1.4,14.9-1.4c41.7,0.1,83.3,0.7,125,0.4c33-0.2,66-1.3,99-2.3c8.3-0.3,16.5-2,24.7-2.6c1.9-0.1,5.1,1.5,5.5,3
		c0.9,3.1-2.1,3.5-4.5,3.6c-31.9,1.5-63.9,3.1-95.8,4.3c-14.3,0.5-28.7,0.1-43,0.1L862.1,304.8z"/>
	<path d="M134.5,186.4c3.2-0.9,6.4-2.4,9.7-2.6c25.4-2,50.8-4.7,76.2-5.2c31.5-0.6,62.9,1.1,94.4,0.9c26.3-0.1,52.6-1.5,78.9-2.3
		c4-0.1,7.9-0.9,11.8-0.6c1.8,0.1,3.4,2.2,5.1,3.4c-1.7,1.2-3.4,3.4-5.1,3.5c-39.3,0.6-78.5,3.7-117.9,1.5c-48-2.7-95.9-0.4-143.7,4
		c-3,0.3-6,0-9.1,0L134.5,186.4z"/>
	<path d="M43.2,346.2c-2.5,1.2-5.4,3.7-7.4,3.2s-4.3-3.8-5.3-6.3c-1.4-3.7-1.7-7.7-2.7-12.4c-6.9,1.7-13.8,3.6-20.7,5
		c-2.2,0.4-4.7-0.6-7.1-1c1-2.2,1.5-5,3.2-6.6c7.4-6.9,15.2-13.5,22.9-20.1c1-0.8,2.2-1.5,3.4-1.9c4.1-1.5,5.5-0.4,5.2,4.1
		c-0.3,4.3-0.7,8.5-1,13.3c5-0.3,9.3-0.6,13.5-0.8c1.5-0.1,3.3-0.3,4.4,0.3c1.5,0.8,2.5,2.5,3.7,3.9c-1.7,1-3.3,2.8-5,2.8
		c-5,0.2-10-0.3-14.9-0.5c-1.8,10.6,1.4,16.9,7.1,15.7L43.2,346.2z M27.5,314.8c-2.8,2.4-5.1,4.3-7.3,6.2s-4.4,3.9-7.4,6.6
		C28.1,324.6,28.1,324.6,27.5,314.8L27.5,314.8z"/>
	<path d="M36.5,202.3l-15.9,7.7c6.4,2.7,16.6-1.4,19-7.2c1.9-4.5,0.9-6.2-4-6.4c-4-0.2-8,0.1-12,0.1c-9.3-0.1-12.1-4.2-8.8-12.8
		c3.1-8.3,6.3-10.5,15.1-10.8c3.8-0.3,7.6-0.3,11.5-0.1c1.4,0.1,2.7,1.9,4,2.9c-1.3,1-2.6,2.6-4,2.8c-3.8,0.5-7.6,0.3-11.5,0.5
		c-7.8,0.5-8.9,1.8-10.1,10.7c1.6,0.1,3.1,0.4,4.7,0.4c4,0,8-0.2,12,0c9.2,0.6,13,7.9,8.4,15.9c-4.6,8-17,13.2-25.6,10.5
		c-2.3-0.8-5.2-3.1-5.8-5.2c-0.4-1.7,1.8-5.5,3.6-6.1c6.2-2.1,12.6-3.1,19-4.6L36.5,202.3z"/>
	<path d="M43.3,31.3c-1.5,0.5-3.5,0.5-4.5,1.4c-6.7,6.5-10.9,14.5-14,22.7c5,1.1,9.8,1.6,14.1,3.3c9.4,3.8,10.5,13.2,2.8,19.9
		c-5.2,4.5-13.6,5.6-19.2,2.5c-6.2-3.4-7.5-9.2-6.6-15.5c2.1-14.2,8.4-26.5,18.1-37.1c1.1-1.2,2.5-2.5,4-2.9c2-0.4,4.7-0.6,6.3,0.4
		c1,0.6,0.5,3.6,0.6,5.5L43.3,31.3z M22.8,63.3c-2,5.7-1,10.8,3.1,12.7s10.8,0.3,13.4-3.8c0.8-1.5,1.1-3.3,0.7-5
		c-0.2-0.9-2.3-1.5-3.6-1.8C31.9,64.6,27.5,64,22.8,63.3z"/>
	<path d="M1055.9,36c1.5-1,2-1.3,2.5-1.6c6.3-3.9,11.2-3.2,14.3,1.8c2.9,4.8,0.2,14.2-5.1,17.7c-4.9,3.2-10.7,1.8-14.1-3.9
		c-4.4-7.5-4.3-15.7-2.6-23.8c1.4-5.8,3.1-11.5,5.4-17c0.8-1.8,2.2-3.3,3.9-4.3c1.1-0.7,3-0.1,4.5-0.1c-0.2,1.4,0,3.2-0.8,4.2
		C1057.5,16.5,1057.1,25.7,1055.9,36z M1056.7,45c2.5,1.7,5.1,4.4,6,3.9c2.3-1.3,3.9-4,5.7-6.1l-1.2-0.9L1056.7,45z"/>
	<path d="M1093.5,27.3c1.9,0.6,3.7,1.3,5.4,2.2c4,2.2,6.8,5.4,6.9,10.2c0,4.6-2.5,8.6-6.6,9.7c-6.1,1.7-12.6,2-19,2.5
		c-1,0.1-2.2-1.9-3.3-3c1.4-1,2.7-2.5,4.1-2.8c3.6-0.5,7.3-0.1,10.9-0.6s7.4-1.6,7.2-6.1s-4.2-5.5-8-5.7c-2-0.1-4,0.4-6,0.1
		c-1.5-0.2-2.9-1-3.8-2.2c-0.4-0.7,0.7-2.7,1.5-3.7c2-2.4,4.7-4.2,6.4-6.8c2.1-3,1.3-5.2-2.8-5.8c-1.4-0.2-2.6-1.8-3.8-2.8
		c1.4-1.1,2.8-2.9,4.4-3.1c6.4-0.6,10.9,5.3,9,11.5C1095.3,23.2,1094.4,25.2,1093.5,27.3z"/>
	<path d="M78.9,195c-0.2,9.9-11.8,21.5-19.8,21.6c-4.9,0.1-8.3-3.7-7.6-8.9c0.9-6.8,4.1-13.2,9.1-17.9c4.7-4.5,9.5-0.8,13.9,0.5
		C76.6,191,78,194.1,78.9,195z M72.7,195c-3.4,0.4-7.6-0.4-9.2,1.3c-3.5,3.6-6.6,8.1-5.5,13.9C65.1,209.4,70.9,203.6,72.7,195
		L72.7,195z"/>
	<path d="M56.2,64.8c0.7-6.9,3.5-13.4,8.1-18.6c3.4-3.8,7.5-3.3,10.4,0.9c0.6,1,1.3,1.9,2.1,2.7c6.6,6.6,6.3,14.4-1.2,19.8
		c-3.1,2.2-6.7,3.6-10.4,4.2C59.8,74.6,56.2,70.9,56.2,64.8z M66.8,51.6c-1.5,4.6-3.1,8.7-4.1,12.9c-0.2,0.8,1.9,3,2.9,3
		c4.1,0.1,9.6-4.5,9.7-8.1C75.5,54.4,71.2,53.7,66.8,51.6L66.8,51.6z"/>
	<path d="M66.5,326.9c-0.3-4.4-0.9-8.9-0.8-13.3c-0.1-2.8,2.1-5.2,5-5.3c0.5,0,1.1,0,1.6,0.2c3.2,0.7,6.1,2.4,8.3,4.8
		c4.7,5.5,5.9,13.1,3.1,19.7c-1.5,3.8-4,6.7-8.5,6.6c-4.7-0.1-7.1-3.3-8.5-7.3c-0.5-1.7-0.9-3.5-1.1-5.3L66.5,326.9z M76.4,318.3
		c-5.8,3.9-6,11.7-0.8,15C79.8,329.1,80,324.7,76.4,318.3L76.4,318.3z"/>
	<path d="M605.4,917.3c8.3,5,18.9,4.9,22.7,14.3c-6.4-3-12.9-5.8-19.2-9c-2.5-1.3-4.7-3.2-7-4.8c1.9-2.6,3.2-6,5.7-7.5
		c13.7-8.2,27.7-15.8,41.5-23.6c3.2,3.4,1.2,4.7-1.2,6c-10.6,6-21.1,11.9-31.7,18C612.8,912.5,609.5,914.7,605.4,917.3z"/>
	<path d="M316.3,123l-136.9,1.7C224.9,121,270.6,120.4,316.3,123z"/>
	<path d="M741.6,238.8c42.5-4.2,85.2-2,127.9,0H741.6z"/>
	<path d="M574.4,1080c-7,0.2-14.1,1-21,0.3c-7.5-0.8-9.1-4.8-4.8-10.9c3.3-4.8,7.8-8.9,11.8-13.3l1.1,1.1l-12.4,16.6l25.6,3.5
		L574.4,1080z"/>
	<path d="M158.2,54.7c-7.8,2.5-16.2,5.3-24.7,7.9c-1,0.3-2.2-0.5-3.4-0.8c0.4-1.2,0.4-2.6,1.1-3.5C136.8,52.3,151.8,50.7,158.2,54.7
		z"/>
	<path d="M145.7,247.8c27.5-3,54.8-9.1,81-6.3L145.7,247.8z"/>
	<path d="M406.2,237l-71.1,4l-0.1-1.2c23.7-1.5,47.4-4.7,71.2-4L406.2,237z"/>
	<path d="M649.2,1088.7l-70.1,2.6v-1.2l69.9-3.4L649.2,1088.7z"/>
	<path d="M667.6,963.8l-79.2-14.8l0.2-1.1l79.5,14.7L667.6,963.8z"/>
	<path d="M650,851.7c3.9-13.8,13.2-22.3,25-28.8L650,851.7z"/>
	<path d="M683.1,843.8c4.6,1.2,5,3.3,3.9,6.7c-1.9,6.1-4.8,12.4,1.2,18.5l-5.2,1.8L683.1,843.8z"/>
	<path d="M560.9,1115.4c-6.5,1-14-4-15.1-10.5c-0.8-5.2,0.7-7.5,6.3-8.4c-3.2,3.8-4.7,7.8-1,11.4
		C554.2,1110.8,557.8,1113,560.9,1115.4z"/>
	<path d="M1161,1299.5l7.5-1.3l-0.2-1.2c-0.6,0.1-1.2,0.1-1.7,0c-2.2-0.6-4.3-1.4-6.5-2.1c0.6-1,1.2-3,1.8-3
		c2.6,0.2,5.3,0.5,7.5,1.7c0.7,0.4,0.4,4.2-0.6,5.5C1166.7,1301.5,1163.8,1301.6,1161,1299.5z"/>
	<path d="M394.8,245.3l-36.9,1.8v-0.7l36.8-2.5L394.8,245.3z"/>
	<path d="M1156.2,1300.1l-9.8-2.5l8.9-7.5L1156.2,1300.1z"/>
	<path d="M662.8,856c-6.3,4.7-12.2,4.8-14.5,0H662.8z"/>
	<path d="M693.5,749l9.1,1.2l-8.2,5.8L693.5,749z"/>
	<path d="M618.2,1105.8c3.8-2.2,7.5-4.9,13.5-1.5l-13.2,2.8L618.2,1105.8z"/>
	<path d="M115.7,56.4l7.8-0.6l0.9,1.5c-1.4,1.1-2.7,3-4.2,3.2s-3.2-1.4-4.9-2.2L115.7,56.4z"/>
	<path class="st0" d="M655.8,266.3c3.4,7.6,6.9,14.7,9.8,22c0.8,2,0.1,4.5,0.1,6.8l-1.8,0.8l-2.7-4.5l-1.2,0.5
		c1.1,4.6,5.7,8.4,2.7,13.8c-2.4,4.5-4,9.4-5.9,14l7-0.8c-1,3.2-1.9,5.7-2.7,8.2s-1.4,5.1-2.5,9l4.5-6.4l1.7,0.8l-11.7,28.1
		c6-8.6,11.4-17.3,13.7-27.8c1.1-5,3.7-9.6,5.6-14.4l2,0.6l-5.9,20.9l1.9,1.1l11.9-13l2,5.3l2.5-4.7c0.7,1.2,1.2,2.1,1.6,3
		c1.1,2,1.9,5.6,3.3,5.9c6.2,1.2,5.6,6.6,7.6,10.4s4,7.6,6.3,12.1c-11.6-2-18.5,5.2-25.6,11.8c-8.5,8-17.1,15.8-25.7,23.8
		c-2.6,2.4-5,4.9-7.4,7.5c-5.3,6-5.2,6.1-15.7,7.5l19.4-28.4c-1.9,0.7-2.7,0.7-3.2,1.1c-10.2,8-20.4,16.1-30.7,24
		c-1.1,0.9-3.5,1.5-4.6,0.9c-12.8-6.4-26.5-9.9-40.4-12.8c-0.6-0.1-1.2-0.4-3.3-1.2l7.3-0.8v-1l-20.8-1.1l-0.1-0.5l3.2-0.9
		c-18.2,1.5-33.9-4.5-48.1-16.2l5.3,0.6c-2.4-6.3-8.3-10.3-13.5-14.6c-4-3.3-5.5-6.6-5.3-11.4c-0.1-2.5-0.3-5-0.6-7.5l12.8,15.5
		c-1.2-3.7-2.1-6.2-2.7-8.7c-0.2-0.8,0.8-1.8,1.5-3.1c-1-1.4-1.8-2.9-2.4-4.4c-0.6-2.1-0.3-4.5-0.5-7.5c2.1,1.2,3.5,2,4.9,2.7
		s3,1.4,3.7,2.7c-2.6-3.2-6.1-6-7.7-9.7s-1-8-1.5-13.8c2.8,1.8,4.5,2.5,5.8,3.8c4.5,4.4,16.9,5.5,21.5,1.1c2.1-2,2.7-5.4,4.6-9.5
		l2,7.2c8.2-0.2,7.6,8.2,11.4,12.9l-4.3-19l1.7-0.6c1.2,3.1,2.5,6.2,4,9.1c1.2,1.8,2.6,3.4,4.3,4.7c1.2,0.9,2.4,1.6,3.8,2.3
		l-6.4,4.9c9.8,3.5,16-2.4,22.7-6.5c0.1,14.2,0.1,14.4,3.4,17.4l14.4-39.9l7.9,0.8l-3.6,5.1l7.3-3.2l1.3,2.7c1-0.5,2-1,2.9-1.7
		c2.2-2.1,4.4-4.3,6.5-4.8c3.8,1.9,7.8,3.4,11.3,5.8c1.6,1.1,2.2,3.8,3,5.3l14.3-3.3c2.1-1.8,3.9-3.2,5.5-4.7c0.6-0.6,1.3-2,1-2.4
		c-0.9-1.1-1.9-2.1-3.1-3l4.7-15.5l4.6-1.9l-0.1-1l-15.8-1.2l3.1-2.3l-0.1-1.2l-11.7,1.3l6.8-6.5L646,254c0.7,4.2,0.6,7.8,1.9,10.8
		C649.9,269.2,653.5,267.7,655.8,266.3z M579.7,389.3c0.7,0.3,1.5,0.9,2.1,0.9c8.9-0.5,17.8-0.8,26.7-2c2.2-0.3,3.9-3.9,5.8-5.9
		l-1-1.1C603.5,389.6,591,386.7,579.7,389.3z M575.9,389.3l0.3-2.2l-10.6-1.6l6.7-1.4l-0.1-0.6h-12.7l-0.3,1.7L575.9,389.3z
		 M594,379c-2.2-1.2-3.5-2.4-4.1-2.2c-1.8,1.1-3.4,2.4-5,3.8c1,0.8,2.4,2.5,3.1,2.2C589.8,382.3,591.3,380.8,594,379L594,379z
		 M616.4,309.8l-0.5,0.9l10.4,2.6l0.3-3.7c-1.3,0.1-2.6,0.2-3.9,0.2C620.7,309.8,618.5,309.8,616.4,309.8L616.4,309.8z"/>
	<path class="st0" d="M659.5,134.5c4.6,6.1,9.4,12.1,13.7,18.4c2.1,3.2,3.4,6.7,3.8,10.5l-25.6-32.7c-0.9,2.8,0.2,8.8,4.1,14.6
		c5,7.4,10.6,14.5,16,21.7c2.2,3,4.5,6,6.9,9.2l3.8-6.2c4.2,13.1,8.2,26.1,2.8,40.2c1.5-1.7,2.8-3.5,4-5.3
		c5.3-9.9,4.8-19.8-0.2-29.6c-1.3-2.6-3.1-5.1-4.4-7.7c-0.5-1.2-0.7-2.5-0.6-3.8c0.7-5.2,1.7-10.3,2.6-15.9
		c3.1,3.1,7.2,5.5,8.8,10.8c1.8,5.7,4.1,11.3,6.8,16.6c2.9,5.4,2.8,11.8-0.3,17.1c-0.7,1.2-1,2.6-0.8,3.9l5.8-9.1l2.4,14.1l1,0.1
		c0.4-4.3,1.3-8.6,1.1-12.9c-0.4-12.1-4.1-23.8-10.7-33.9c-1.5-2.3-3.6-4.2-6-5.4c-5.9-2.9-2.9-6.9-2.1-11.1
		c11.2,15.6,25.7,34.9,23.6,60.8l1.9-7.4l1.3,0.2c-0.4,3.3-0.7,6.6-1.2,9.9s-1.2,6.5-1.9,10.6l-13.9-8.7c-1,5,1,8.7,4.5,10.8
		c3.3,1.9,7.4,2.3,11.9,3.5l-3.9,9.1l-3.5-5.2v6.2l-1.4,0.7l-3.4-4.9c-6.7-0.3-7.8-6.8-11.5-11.1c-3.3,4-3.1,8.1-1.6,12.3
		c4.4,11.7,6.2,23.2,1.3,35.4c-2.3,5.7-2.9,12-4.7,17.8c-1.1,3.8-3.1,7.3-4.6,11l-1.5-0.6c2.2-8.4,4-16.9,6.6-25.1
		c2.9-9.2,3.7-18.2,1.3-27.5c-0.6-2.2-1.6-4.2-3-6l2.1,24.2l-1.2,0.2l-1.7-6.3h-0.9l-6.5,24.5l-1.3-0.1c0.4-3.9,0-8,1.3-11.6
		c2.3-6.3,2.9-13,1.6-19.6c-0.8-4.1-0.1-8.5-0.1-12.7l-1.2-0.1l-0.7,7.1l-2.6-15.5c-6.9,5.7-7.8,13.4-10.4,20.4
		c-1.2-10.5,1-21.1-2.9-32.2l-4.9,5.4l-1.3-0.7c0.3-1.3,0.6-2.5,1.1-3.7c1.8-4.5,3.7-8.9,5.5-13.4c0.4-0.7,0.6-1.5,0.7-2.4
		c-0.5-6.1,0.9-12.8-0.7-18.4c-3.4-12.1-8.4-23.8-13.8-35.2c-4.4-9.5-11.8-9.6-18.1-0.9c-4.3-3.5-8.4-3.3-13.5-0.6
		c-2.9,1.5-8,1.9-11.3-1.6l3.6-10.8l-1.4-0.8c-8.6,6.4-14.6,15.3-21.7,24.1c-4.2-6.1-8.4-11.8-12-17.8c-0.7-1.1,0.5-3.7,1.4-5.3
		c4.8-8.1,11.1-15.5,10.7-26.1c2.4,0,4.2-0.1,6,0c8.8,0.5,8.7,0.9,7.6,9.4c-0.3,2.5,0.8,6.3,2.6,7.9s5.6,1.8,8.2,1.1
		c2.8-0.8,4.6-1.1,6.9,1.1c4.9,4.7,10,1,14.9-0.3c1.5-0.4,2.9-1.1,4.9-0.8l-4.3,5.4c6.7-0.6,12.5-1.1,16.9,3.3L659.5,134.5z"/>
	<path class="st0" d="M553.4,601.4l-56.1,7.4c-0.8-2.9-1-5.2,2.9-7.6c2.4-1.5,4.2-5.6,4.6-8.8c2.6-24.5,4.8-49,7.2-73.5
		c0.2-1.6,0.2-3.2,0.4-5c15.6,3,30.6,5.8,45.5,8.8c1.4,0.5,2.5,1.7,2.9,3.2c1.2,6,1,12.5,3.2,18.1c4.3,11.3-0.2,21.3-3.3,31.5
		c-1.5,5.1-3.5,10.1-4.9,15.2C554.7,594,554.2,597.4,553.4,601.4z"/>
	<path class="st0" d="M656.5,541c0.7,17.2-1.4,34.9,3.5,52.9l-66.8,2.5c0.2-4.9,0.6-10,0.6-15.1c0.1-8.1,1.2-16.4-4.1-23.7
		c-0.7-1-0.5-2.9-0.1-4.3c1.8-7.1,4-14.1,5.8-21.2c0.7-2.9,2.1-3.6,5-3.1c10.8,1.7,21.6,2.9,32.1,7
		C639.9,538.8,648.3,539.4,656.5,541z"/>
	<path class="st0" d="M568.8,79.1L532.8,83l-0.6,1.2l21.1,8.7l-11.8,1.9l0.1,1.2l6.7,0.6c-9,4.6-14.7,12.4-24.4,13.1
		c-1.7,0.2-3.2,0.9-4.6,1.9c-13.5,10-27.1,19.8-40.3,30.1c-4.1,3.2-7.4,7.5-10.6,11.7c12.4-12.2,25.7-23.2,41.3-31.5
		c-3.4,6.8-8.4,13.2-6.5,21.3c0.8,3.4,2.6,6.6,4.1,10.2l5.4-2.7c-4,7.5-9,12.5-15.7,15.6c-2.7,1.3-4.4,0.2-3.9-3.3
		c0.9-5.8-1.5-10.4-5.9-11.7c-4.6-1.3-8.7,0.5-10.8,6.5c-6.2,17.7-12,35.6-17.5,53.5c-2.3,7.4-3.6,15-6.5,22.5
		c0.1-2.2-0.2-4.5,0.4-6.6c3.4-12.5,7-25,10.4-37.5c2.2-8.2,4.2-16.5,6.2-24.7c0.1-0.9,0.2-1.9,0.2-2.8l-1.4-0.9l-17.3,22.9
		c0.5-4.1,0.7-7.4,1.4-10.6c0.7-3.4,1.4-6.9,2.9-10s4-5.5,5.4-9l-2.8,1.2l4.4-11.7l-0.7-0.4l-2.6,3.4l-0.7-0.4l5.7-15.1l-0.7-0.3
		l-6.3,14.3c-0.3-16.7,12.1-30.5,30.5-38.5c-8.3,9.3-16.6,18.7-19.1,30.7c4.3-5.8,8.7-12.1,13.6-18c1.7-1.7,3.9-2.7,6.3-2.8
		c17-0.6,30.7-9.1,44.3-17.9c0.4-0.3,0.5-1.1,0.8-1.6l-0.8-1.4l-43.1,16.9c2.2-1.9,3.8-3.4,5.4-4.8c1.7-1.6,3.5-3,5.4-4.4
		c9.1-6.1,19.3-11.1,27.2-18.5C536,77.5,547,76,557,71.6c3-1.4,5.5-1.6,7.2,2.3C565,75.8,567,77.1,568.8,79.1z"/>
	<path class="st0" d="M503,196.3l2.7,2c2.9-4.6,7.4-7.8,7.4-14.4c0-4.3,2.6-8.7,4.3-13.8c-3.2,3.9-5.8,7.2-8.7,10.3
		c-1.8,1.8-3.9,3.8-6.9,1.6c-0.5-0.4-1.8,0.4-2.7,0.3c-1.9-0.4-4.9-0.5-5.5-1.7c-0.8-2.1-0.5-4.4,0.7-6.2c2.8-3.5,6.6-6,9.5-9.4
		c10.7-12.4,22.5-23.2,38.1-29.1c1.8-0.7,3.9-0.5,5.9-0.7c-0.8,1.9-1.1,4.2-2.4,5.6c-5.4,5.6-11.1,11-16.8,16.3
		c-0.9,0.9-2.4,1.2-3.5,1.8l1.2,1.2h8.4c0.6-0.6,1.7-1.8,2.8-3c2.4-2.5,5.2-3.8,8.5-1.7s5.4,5.1,4.2,9.3c-1.3,4.7-2.4,9.6-4.3,14
		c-2,4.6-5.4,7.8-10.6,9.8c-5.4,2.1-10,6.1-15,9.3c-2.7,1.7-5.1,3.8-7.9,5.2C505.9,206.3,502.7,203.9,503,196.3z"/>
	<path class="st0" d="M307.7,479.3c2.2-4.5,3.7-7.8,5.5-10.9c0.7-1.1,1.8-1.9,3-2.3c16.6-4.3,33.2-8.5,49.8-12.5
		c4.8-1.2,9.9-1.5,14.8-2c7.2-0.7,14.5-1.3,22.4-2l-14.4,8.7l0.8,1.4l16.7-8.8c-6.8,6.1-12.6,13.7-23.7,15.2l4.6-3.8l-0.3-0.8
		L314,492l-3-8.4l62-19.5l-0.1-0.5L307.7,479.3z"/>
	<path class="st0" d="M457.3,615.6l-13.8,2.7l0.2,0.9l4,1.4c-0.6,1.5-0.8,3.2-1.7,4.4c-3.4,4.6-7.8,8-13.5,8.5
		c-2.6,0.1-5.1-0.8-7-2.5c-1.3-1.5-1-4.6-1.3-7l1.7-0.7l3.4,6.3l2.1-1.4c-2.2-7.9,5-11.7,7.2-17.6c0.7-1.4,1.2-2.9,1.5-4.5
		c3.3-34.8,6.4-69.6,10.1-104.4c0.9-9,3.6-17.7,5.5-26.5c5,0.6,6,2.5,5.6,6c-2.4,17.5-5,34.9-6.7,52.4c-1.8,18.4-2.5,36.8-3.8,55.3
		c-0.4,4.4-1.1,8.8-2.1,13.2c-1.2,5.3,0.9,9.6,6.2,11.4l2.6,0.9L457.3,615.6z M447.1,598.2l-1.3-0.4c-0.6,4.9-5.3,9-3,14.4l1.8,0.3
		L447.1,598.2z"/>
	<path class="st0" d="M623.9,1134.3c17.2-11.9,34.1-24,53.9-31.1c5.3-1.9,9.8-5.7,15-8.8l2.1,24.6
		C671.1,1123.9,648.2,1132.4,623.9,1134.3z"/>
	<path class="st0" d="M516.2,267.1c22.1-7.8,32.9-26.2,42.4-45.9l1.1,0.8l-5.4,11.1l1.1,0.7l26.7-39.4l-1.2-1
		c-1.3,1.6-2.7,3.2-3.9,4.9s-2.2,3.6-3.5,5.8c-1.2-9.5,2.9-18.7,14.5-32.5l3.8,5.2l4.1-9.8l0.8,0.3l-8.3,38l-2-0.2v-9.2l-1-0.4
		c-2.1,3.2-4.1,6.4-6.2,9.6c-8.2,12.3-15.4,25.4-24.8,36.7c-6.8,8.2-11.5,16.4-12.7,27v-13.4C534.2,261,526.3,266.5,516.2,267.1z"/>
	<path class="st0" d="M535.1,216.9l12.2-34.2l-6.7,9.1c9.1-17.5,20.9-32.7,38-44.3c1.2,3.1,2.2,6.3,3,9.5c0.2,1.4-0.3,2.9-1.4,3.9
		c-7.9,5.3-11.8,13.8-17,21.2c-1.1,1.5-0.2,4.6-0.2,7.5l-3.6-2.2l-22.9,30.6L535.1,216.9z"/>
	<path class="st0" d="M789.2,910.9c5,4.2,6.5-0.1,9.2-2.3l-1.3,4.9l9.6,4.3l24.4-69l1,0.2c-0.3,1.5-0.4,2.9-0.8,4.4
		c-5.3,19.1-10.6,38.1-16.2,57.1c-2.5,8.6-5.3,17.1-8.4,25.4c-2.5,6.6-7.1,9.7-11.2,8.7s-6.3-5.6-6.3-12.4S789.2,918.7,789.2,910.9z
		 M796.9,934.5l4.1-6.4l-6.7-2.7L796.9,934.5z"/>
	<path class="st0" d="M871.1,641.1c-7.1-5.8-16.3-8.1-25.2-6.4c-10.3,1.9-14.1,10.6-17.6,19.3c-1.5-3.5-0.8-7.6,1.8-10.3
		c7.8-8.9,15.5-17.8,23.1-26.9c2.8-3.3,5-7,7.6-10.6c7,0.3,10.2,4,10.2,12.4C871.1,626.2,871.1,633.7,871.1,641.1z"/>
	<path class="st0" d="M659.5,134.5l-7.1-7.8l-3.8-4l18.8-14l13.8,11.9l-0.4,1.1l-6.2-0.8c3.8,2.3,9.6,4,12.5,7.9s2.6,9.9,3.7,14.9
		l-2.1,1.1c-2.1-2.3-4.1-4.6-6.2-6.9c-2.9-3.1-5.5-6.7-8.9-9.1c-3.7-2.6-6.3-1-5.8,3.5c0.4,4.4,1.9,8.6,2.8,12.8L659.5,134.5z"/>
	<path class="st0" d="M214.5,911.5c-1.9-10.7-3.8-21.3-5.5-31.9c-0.4-1.8-0.5-3.6-0.3-5.4c4-27,8.1-54,12.1-81
		c0.2-1.5,0.8-2.9,1.8-4c0,2.7,0.2,5.4,0,8.1c-1.5,21.1-3,42.2-4.5,63.3c-0.1,2.2-0.4,4.3-1,6.4c-2.5,7.3-1.9,15.4,1.6,22.3
		c0.4,0.9,1.1,2,0.9,2.8C217.9,898.8,216.1,905.5,214.5,911.5z"/>
	<path class="st0" d="M517.1,826.3c-2.2,0.8-4.5,2-6.8,2.2c-10.8,1-17.5,6.2-20.4,16.7c-1.2,4.2-1.9,8.6-3.2,13.3
		c-4.5-20.9-14.8-33.7-38.2-27.7l-2.2-9.7c7.2,0.4,9.4-4.5,10.8-10.5c1.1,5.2,2.4,9.8,7.8,12.4l-14.8,1.3c4,4.2,9,5,14,4.6
		c16.4-1.2,32.8-2.7,49.2-4c1.1-0.1,2.3,0,3.4,0L517.1,826.3z"/>
	<path class="st0" d="M840.2,916.7c6.4,0.1,9.6,5.9,7,11.3c-3.1,6.4-6.3,12.7-9.7,18.9c-1.8,3.4-4.9,5-8.8,3.9s-6.2-3.8-5.7-7.7
		c1.3-9.6,6-18.5,13.3-24.9C837.6,917.2,839.4,917,840.2,916.7z"/>
	<path class="st0" d="M460.1,727.1c52.8-10.1,105.8-16.3,159.5-13.5c-7.7,0.6-15.3,1.3-23,1.6c-40.8,1.4-81.4,5.6-121.6,12.7
		C470.1,728.9,465,729.5,460.1,727.1z"/>
	<path class="st0" d="M439.5,380.5l-5.8-4.8c7.4-6.9,14.5-13.3,21.5-20c2.2-2.2,4.3-4.6,6-7.2c1.7-2.5,1.9-5.1-0.5-7.7
		c-0.9-1-0.6-3.2-0.9-5.2l16.7,13.6c0-3,0.2-5.5,0-7.8s-1.7-5.1,3.2-5.7v18.2c-9.2-2.5-16.9-0.5-22.7,8c-2,3-5.3,5-7.8,7.7
		C446,372.9,442.9,376.6,439.5,380.5z"/>
	<path class="st0" d="M450.1,747.8v11.2l119.7-11.4c-6.8-7.2-10.6-14-6-22.3l1.6-0.3c1,4.7,2.3,9.4,3,14.2c0.8,5.6,3.4,7.7,9,6.9
		c4.9-0.7,9.8-1.1,14.7-1.1c-48,9.8-97,10.5-144.7,16.3l1.6-13.5L450.1,747.8z"/>
	<path class="st0" d="M510.7,792.6c-1.9,0-4.1,0.6-5.7-0.1c-4.7-2.3-8.6-1.6-12.4,1.7c-2.3,2-5.1,4.4-7.6,0.8s1.1-5,3.2-7.1
		c2.7-2.7,5-5.8,6.8-9.2c-3.8-0.3-6.8-0.5-7.7,4.2c-0.3,1.6-2.7,3.3-4.4,3.9c-1,0.4-3.5-1-3.9-2.1c-0.7-1.9-0.6-4,0.2-5.9
		c2.1-4.2,12-8.3,16.6-7.4c4,0.8,5.9,3.5,5.6,7.6c-0.3,1.6-0.6,3.1-1.2,4.6L510.7,792.6z"/>
	<path class="st0" d="M281.2,940.7c-3.8,1.6-7.6,3-11.3,4.8c-19.7,9.6-37,23.3-50.8,40.3c-2.6,3.2-4.4,7-6.5,10.6
		c-0.5,0.9-0.8,1.8-0.9,2.8c0,1.2-0.2,2.4-0.3,3.6c-0.7,0.3-1.4,0.4-2.1,0.2c-0.7-1.4-1.9-3.2-1.5-4.4c1.6-4.3,3.2-8.9,5.9-12.5
		c16.1-21.4,36.5-37.2,62.1-45.6c1.7-0.5,3.4-0.9,5.1-1.2L281.2,940.7z"/>
	<path class="st0" d="M884.8,693.3l-1.5-2.9l-0.5,0.1l4,20c-0.8-0.9-1.2-1.1-1.3-1.4c-3.7-14.1-8.3-28-8.6-42.9
		c-0.1-6.7-1.9-13.4-2.4-20.2c-0.3-5.1,0.2-10.3,0.3-15.5l2.1-0.2c1.1,3,2.8,6,3.2,9.1c2,17.9,3.7,35.8,5.5,53.7L884.8,693.3z"/>
	<path class="st0" d="M605.1,770.7c-0.5,2.3-0.5,4.5-1.5,6.1c-0.9,1.4-3,3.2-4.2,3c-1.4-0.2-3.1-2.4-3.5-4c-0.3-2.1,0-4.3,0.8-6.3
		c1.1-3.1,1.6-5.8-0.1-9c-1.8-3.4,0-5.6,3.8-5c3.3,0.5,6.7,1,10,1.7c4.3,0.9,9.1,12.6,6.5,16.2c-0.9,1-2.3,1.5-3.6,1.3
		C610.5,773.6,607.7,772.2,605.1,770.7z"/>
	<path class="st0" d="M864.6,943.4c-0.9,3.4-2,6.7-3.4,9.9c-1.9,4-6.8,5.6-10.1,3.8c-3.9-2.1-4.9-5.5-3.9-9.7
		c0.6-2.4,1.3-4.8,1.7-7.2c0.9-5.7,4.1-9,8.5-8.5S864.7,936.2,864.6,943.4z"/>
	<path class="st0" d="M725.3,605.6c-2.4,1.4-4.2,2.4-6,3.5c-1.5,0.8-2.9,1.9-4.1,3.1c-3,3.4-7.8,3.4-9.4-0.7
		c-1.9-4.9-4.2-9.1-9.1-11.6c-0.8-0.4-1.3-1.4-2.5-2.9c2.7-0.6,5-0.7,7-1.6c0.8-0.4,1-2.4,1.4-3.6c-7-1.8-2.1-5.5-1.7-8.5l1.3-0.4
		c1.5,3.9,2.6,8,4.5,11.7c1.2,2.4,3,4.3,5.3,5.7C715.9,602.3,720.2,603.6,725.3,605.6z"/>
	<path class="st0" d="M278.8,966c-17.6,9.7-33.8,21-45,38.4l18.9-10.4l0.6,0.8c-4.2,3-8.5,5.8-12.5,8.9c-3.9,3-7.5,6.4-11.3,9.5
		c-1.3,0.9-2.6,1.6-4,2.2c-0.1-1.7-0.9-3.7-0.2-4.9c2.9-5,5.7-10.2,9.4-14.7C246.3,981.7,261.8,972.7,278.8,966z"/>
	<path class="st0" d="M647.6,754.5h-6.9l0.1-1.9c1.7,0.1,3.6-0.2,4.9,0.5c1,0.6,2.1,2.8,1.8,3.8c-1.1,3.8-2.8,7.4-4.8,12.4
		c2.5-0.5,5.1-0.2,6.2-1.3s0.4-3.6,0.6-5.4c0.1-2,0.3-3.9,0.8-5.8c0.1-0.4,2.5-0.7,3.4-0.2c1.5,0.9,3.5,2.1,1.4,4.6
		c-0.4,0.5,0.4,2.1,0.7,3.2c1.6,7.5-5.5,15.1-12.6,12.9c-2.8-0.9-6.1-3.5-6.9-6.1c-0.6-2,2-5.3,3.7-7.7
		C642.1,760.5,644.7,757.9,647.6,754.5z"/>
	<path class="st0" d="M515.5,779.5c0.8-2.8,0.2-8.2,6.8-5c0.5,0.2,2-1.4,3-2.2c1.5-1.1,3-2.8,4.7-3.2s4.4,0,5.4,1.1s0.5,3.7,0.7,5.5
		l3.7,3.4c-1.6,1.1-3,2.7-4.7,3.1c-2.4,0.5-4.9,0.6-7.4,0.3c-2.5-0.2-4.2-0.2-6.4,2c-1.7,1.7-5.6,1.5-8.5,1.4c-1,0-1.9-2.3-2.8-3.6
		L515.5,779.5z"/>
	<path class="st0" d="M736.2,704.5c0.2,1.5,0.5,3.1,0.7,4.6c1.5,14.6,3,29.1,4.4,43.7c0.4,4.5,0.5,9,0.3,13.4c-0.1,1.1-2,2.1-3,3.2
		c-0.7-1.2-1.9-2.3-2-3.6c-1.2-17.4-2.3-34.9-3.3-52.3c-0.2-3,0.6-6.1,0.9-9.2L736.2,704.5z"/>
	<path class="st0" d="M488.5,739.4c3.5,0.7,7,1.4,10.5,2.2c2.9,0.6,4.9,0.7,5.7-3.2c0.8-4.1,4.4-5.8,8.3-5.8
		c3.7,0.1,7.3,0.6,10.8,1.4c1.4,0.4,2.5,2.2,3.8,3.3c-1.4,1.4-2.7,3.5-4.3,4c-1.4,0.4-3.5-0.9-5-1.8c-1-0.6-1.6-1.8-2.4-2.8
		c-0.7,1.2-1.9,2.2-2.1,3.5c-0.8,3.7-2.7,5.5-6.5,5.3c-5.7-0.3-11.4-0.3-17-1c-1-0.1-1.8-2.6-2.8-3.9L488.5,739.4z"/>
	<path class="st0" d="M621,69.5c4.1,1.6,8.3,3.2,12.5,5.1c1.1,0.6,1.9,1.6,2.3,2.8c0.8,3,1.3,6.2,1.9,9.2
		c-10.7,5.2-12.5,3.9-17.7-1.8c-0.7-0.8-1.1-1.9-1.1-3.1C619.5,77.3,620.4,73,621,69.5z"/>
	<path class="st0" d="M584.1,770l3.4,8.6l6-0.4l0.5,1c-3.5,1.6-7,3.4-10.6,4.7c-2.6,0.9-6.3,1.8-7-2c-0.3-1.6,2.6-3.8,4.7-5.5
		c0.2-3.1-0.9-5.8-5.5-5.2c-1.3,0-2.5-0.7-3.2-1.7c-0.3-1.4,0-2.8,0.8-4c1.3-1.9,2.9-4.5,4.8-4.9c2.6-0.6,6.9-0.3,8,1.2
		s-0.3,5.4-0.7,8.3L584.1,770z"/>
	<path class="st0" d="M685,765.7c-1,1.8-1.4,3.1-2.3,4.1c-2.6,2.9-5.9,3.4-8.9,1c-3.4-2.7-2.5-6.2-0.5-9.4c1.5-2.5,3.3-4.8,4.4-7.9
		c-4.5,2.3-8.1,2.5-10.5-1.9c-0.7-1.3,0.2-3.3,0.3-5.1c1.3,0.3,2.6,0.6,3.9,1c0.4,0.1,1,0.7,1.1,0.7c2.4-2.3,4.9-2,6.1,0.7
		c1.6,3.7,2.7,7.6,3.4,11.6C682.4,762.7,680.3,765.7,685,765.7z"/>
	<path class="st0" d="M607.2,181.5l1.8-4.5l1.4,0.4l-8.5,27.1l-0.6-0.1c1-10.7,2-21.4,3-32c0.3-2.6,0.4-4.1-2.9-5.6
		c-6.7-2.9-6.8-8.5-0.3-17.4L607.2,181.5z"/>
	<path class="st0" d="M882.2,739.3c4.5,22.2,15.4,42.6,15.4,67c-1.6-3.6-3.2-5.9-3.8-8.5c-4-18.9-7.9-37.8-11.8-56.7
		C882.1,740.5,882.1,739.9,882.2,739.3z"/>
	<path class="st0" d="M696.2,301.9c0,4.3,0,7.3,0,10.2c0,5.6-11.3,12.7-16.3,10.1c-1-0.6-2-3.7-1.6-4.1
		C683.9,312.8,689.8,307.7,696.2,301.9z"/>
	<path class="st0" d="M588.8,82.8c4.3-0.4,7.3-0.7,4.3-4.4c5,0.8,9.4,1.3,13.8,2.1c1.3,0.2,3.1,1,3.4,1.9c0.4,1.6,0.2,3.2-0.5,4.6
		c-2,3.4-4.4,6.5-6.8,10C601.9,90.2,596.2,86.7,588.8,82.8z"/>
	<path class="st0" d="M304.4,1038.8c-5,4-9.2,4.2-12.6,1.1c-4.1-3.8-3.6-8.7,1.9-16.4L304.4,1038.8z"/>
	<path class="st0" d="M773.8,585.9l-6.3-10.6l24.5-5.9L773.8,585.9z"/>
	<path class="st0" d="M879.8,711.9L891,746l-1,0.5c-1.2-2.3-1.9-5.8-3.8-6.8c-5.5-2.9-5.4-7.9-6-12.7s-1-9.9-1.5-14.8L879.8,711.9z"
		/>
	<path class="st0" d="M307.7,1046.9c1.1,5.1,2.4,10.2,3.3,15.3c0.2,1.1-0.5,3.2-1.3,3.5c-1.2,0.5-3.8,0.4-4.3-0.4
		c-1.4-2.4-3-5.3-2.8-7.9c0.4-3.6,2.3-7,3.6-10.6L307.7,1046.9z"/>
	<path class="st0" d="M600.3,171.3c0.9,12.9-0.5,25.9-4.3,38.2l-1.5-0.2l4.4-38.3L600.3,171.3z"/>
	<path class="st0" d="M552.8,771.5c-0.1,2.6-0.4,5.3-0.9,7.9c-0.9,3.5-3.8,4.1-6.4,1.7c-3.3-3-2.7-10.5,1.5-12c1.5-0.5,4,1.6,6,2.5
		L552.8,771.5z"/>
	<path class="st0" d="M642.6,96c4.4-4.3,4.8-5.8,5.1-18.4c6.7,2.1,7.8,7.5,7.8,13.5l-4-6.4l-1.8,0.1c-0.4,3.1-1.6,6.3-1,9.1
		c0.9,4-1.1,5.3-4,7L642.6,96z"/>
	<path class="st0" d="M533.3,730l3.4,5.4l4.4-1.4c0.2,1.1,0.9,2.2,0.6,3.1c-0.4,1.4-1.2,2.7-2.3,3.6c-0.8,0.6-2.4,0.2-3.6,0.4
		c-1.6,0.3-4.3,1.3-4.6,0.9c-1.1-1.7-1.6-3.7-1.5-5.8C530.1,734.3,531.8,732.7,533.3,730z"/>
	<path class="st0" d="M642.9,118.3l17.2-18.1l-1.2-2l4.5,6.2l-22.3,12.1L642.9,118.3z"/>
	<path class="st0" d="M566.7,799.7l-60.7,7.4l-0.1-1.2l60.7-7.4L566.7,799.7z"/>
	<path class="st0" d="M675.2,584.5l11.3-7.8l4.9,7.7l-15.2,2L675.2,584.5z"/>
	<path class="st0" d="M628.2,701.8l52-9.1l0.2,1.1l-52.1,9.4L628.2,701.8z"/>
	<path class="st0" d="M268.3,983.5c6.5-0.2,12.1,4.3,13.4,10.7C275.6,992.4,269.2,991.8,268.3,983.5z"/>
	<path class="st0" d="M717.3,236.7c4.9,13.1-2.8,23.6-9,34.2c1.2-2.8,2.5-5.6,3.5-8.4c1.3-3.7,3.1-7.3,3.6-11.1
		c0.6-4.9,0.2-9.9,0.2-14.8L717.3,236.7z"/>
	<path class="st0" d="M624.9,598.5l-31.8,4l-0.8-1.2c0.9-0.7,1.8-2,2.8-2.1c9.9-0.8,19.8-1.3,29.7-1.9L624.9,598.5z"/>
	<path class="st0" d="M638.2,300.5c0.6-3.7,1.5-7.1,1.7-10.5c0.2-5.2,1.6-6.4,6.7-4.6l1.8-2.8c0.3,0.5,0.6,0.8,0.6,0.9
		C646.5,290.1,643.8,296.3,638.2,300.5z"/>
	<path class="st0" d="M484.8,867.1c0,11.2-1.6,21.9-9.1,32.2L484.8,867.1z"/>
	<path class="st0" d="M462.6,746.2l5.1,4.4c-1.9,1.2-3.9,3.7-5.6,3.5c-2.3-0.2-4.3-2.5-6.5-3.9L462.6,746.2z"/>
	<path class="st0" d="M630,753.4c0.2,3.2,0.6,6.5,0.7,9.7c-0.2,0.9-0.8,1.7-1.5,2.2c-3.1-1.4-3,0.9-3.7,2.7
		c-0.3,0.7-1.6,1.1-3.7,2.4l6.3-16.8L630,753.4z"/>
	<path class="st0" d="M552.9,771.6l2.6-2.3c1,2.1,2.8,4.1,2.9,6.3s-1.3,4.4-2.1,6.6c-0.8-1.1-2-2.1-2.3-3.3
		c-0.5-2.5-0.9-4.9-1.2-7.4L552.9,771.6z"/>
	<path class="st0" d="M693.8,332.8c-1.8-5.9,3.3-6.7,6.4-9.7l2.9,4.8C699.2,328.6,699,335.3,693.8,332.8z"/>
	<path class="st0" d="M277.9,595.5l-4.4-8.2l9.2-7.1L277.9,595.5z"/>
	<path class="st0" d="M300.7,534.6l2.3,9.1l-10.1-0.8c1-1.6,2.1-3.1,3.3-4.5C297.6,537,299.1,535.7,300.7,534.6z"/>
	<path class="st0" d="M480.5,741.3c2.5,4.6,1.9,5.8-2.3,6c-1.3,0.1-2.6,0.8-5,1.6l-0.5-6.5c1.5,0.3,3,0.9,4.5,0.8
		C478.2,743.1,479.2,742.1,480.5,741.3z"/>
	<path class="st0" d="M500.1,337.6l-3.8-17.6c5.1,4.2,5.5,6.1,5.2,17.4L500.1,337.6z"/>
	<path class="st0" d="M713.1,276.7l4.6-18l1.6,0.3l-3.3,18.4L713.1,276.7z"/>
	<path class="st0" d="M546.5,733c2.7,0.7,6.7,0.1,6.4,4.6c-0.1,1-2.1,1.9-3.3,2.9l-4.6-6.3L546.5,733z"/>
	<path class="st0" d="M465.9,804.6l22.6,2.6C469,808.6,466.4,808.3,465.9,804.6z"/>
	<path class="st0" d="M634,194.3l-2,2.2l-8.7-14.1l7.8,5.6L634,194.3z"/>
	<path class="st0" d="M782.5,945.4c-7.7,0.9-8.7-6.3-13.5-9.2l1.1-1.3L782.5,945.4z"/>
	<path class="st0" d="M666.8,283.2l-4.6-19.1l1.6-0.4l5.1,19L666.8,283.2z"/>
	<path class="st0" d="M703.4,231.1l-2.7,9.2l-3.6-11.3L703.4,231.1z"/>
	<path class="st0" d="M685.4,1138.3l10.5-5.1C695.9,1137.4,693.8,1138.5,685.4,1138.3z"/>
	<path d="M456.6,803.1c-2.3-4.8,2-9,1.7-13.6l1.4,0.1l-1.2,13.7L456.6,803.1z"/>
	<path d="M474.2,345.4c-1.2-2.2-2.3-4.5-3.3-6.8c-0.3-0.9,0.3-2.2,0.5-3.4c1.1,0.7,3,1.3,3.2,2.2c0.4,2.5,0.6,5.1,0.5,7.6
		L474.2,345.4z"/>
	<path class="st0" d="M429.4,731.3l1.6,10.9C426,742.3,425.8,741,429.4,731.3z"/>
	<path class="st0" d="M824.5,982.8l-5.6,2.8l-0.9-9L824.5,982.8z"/>
	<path class="st0" d="M455.8,152.9L449,162l-1.4-1l6.5-9.1L455.8,152.9z"/>
	<path class="st0" d="M686.5,294.6l7.6-9.1l1.2,1l-7.5,9L686.5,294.6z"/>
	<path class="st0" d="M725.3,688.5l-16.2,0.9l-0.1-0.6l16.2-2.2L725.3,688.5z"/>
	<path d="M579.7,389.3c11.4-2.6,23.8,0.3,33.6-8.2l1,1.1c-1.9,2.1-3.7,5.6-5.8,5.9c-8.8,1.2-17.8,1.5-26.7,2
		C581.1,390.2,580.4,389.6,579.7,389.3z"/>
	<path d="M575.9,389.3l-16.7-4l0.3-1.7h12.7l0.1,0.6l-6.7,1.4l10.6,1.6L575.9,389.3z"/>
	<path d="M594,379c-2.7,1.8-4.2,3.3-6,3.8c-0.7,0.2-2-1.4-3.1-2.2c1.6-1.4,3.2-2.7,5-3.8C590.5,376.5,591.8,377.8,594,379z"/>
	<path d="M616.4,309.8c2.1,0,4.2,0,6.4,0c1.3,0,2.6-0.1,3.9-0.2l-0.3,3.7l-10.4-2.6L616.4,309.8z"/>
	<path d="M667.5,660l10.1-13c12.5,8.2,29.4,6,41.8,15.6c-5.9,10.7-30.9,14.3-42.4,5.7h31.5C701,657.1,681.3,653.6,667.5,660z"/>
	<path d="M446.7,657.3l43.8-12.6l0.7,1.5c-0.3,0.5-0.5,1.2-0.9,1.3c-11.7,5.1-23.4,10.1-35.2,15.1
		C451,664.3,449.5,661.3,446.7,657.3z"/>
	<path d="M651.2,652.8l10.4-6.9l1.2,1.8l-10.5,6.7L651.2,652.8z"/>
	<path d="M491.7,671.5l9.3-5.7l1.2,2l-9.4,5.4L491.7,671.5z"/>
	<path d="M447.1,598.2l-2.6,14.4l-1.8-0.3c-2.3-5.4,2.4-9.5,3-14.4L447.1,598.2z"/>
	<path d="M796.9,934.5l-2.5-9.1l6.7,2.7L796.9,934.5z"/>
	<g class="st1">
		<path class="st2" d="M533.8,688.4c-1.7,0.5-4.2-0.4-5.2-1.2c-3.3-2.8-6.3-7.8-8.6-12.5c0.8,4.9,1.7,9.9,1,14.9
			c-0.4,2.8-1.1,5.6-2.6,8.2c-1,1.8-3.6,2.8-5.5,2.5c-2.3-0.8-3.9-2.6-4.9-4.7c-1.5-3-2.7-6-4-8.9c-1.8-4.3-3.7-8.5-6.3-12.6
			c0.7-1.4,2.3-0.8,3-0.2c2.4,3.8,4.2,7.8,5.8,11.8c1.5,3.4,2.9,6.9,4.9,10.1c0.8,1,2,1.9,3.4,1.6c1.4-0.6,2.3-1.8,2.8-3.3
			c0.3-0.9,0.5-2,0.7-3c0.1-1,0.2-2.1,0.4-3c0.4-2.9,0.1-5.9-0.3-8.9c-0.4-3.8-1.4-7.6-2.1-11.5c0-0.1,0-0.3,0-0.4
			c0-0.5,0-1,0.5-1.3c0.6-0.5,1.4-0.2,1.7,0.2c1.6,3.3,3.4,7.2,5.3,10.6c1.8,3.4,3.9,6.4,5.6,7.9c1.4,1.2,2.8,2,4.6,2.2
			c0.4,0.1,0.4,0.5,0.4,0.7C534.3,688,534.1,688.3,533.8,688.4z"/>
		<path class="st2" d="M553.7,686.7c-0.2-0.7-0.2-1.6-0.2-2.4c0-0.2-0.1-0.5-0.2-0.7c-0.3-7.2-1.3-15-2.9-22.1
			c-0.1-0.5-0.3-0.9-0.5-1.3c-0.2-0.4-0.4-0.8-0.8-1c-0.8-0.7-1.7-0.5-2.6,0.1c-1,0.8-1.8,2.3-2.5,3.4c-2.6,4.2-4.2,8.8-5.3,13.6
			c-0.9,3.9-1.3,7.9-1.4,11.9c-0.2,0.9-1.9,1.3-2.3,0.2c-0.2-1.5-0.6-4.4-0.7-5.9c-0.8-5.4-2.3-12.5-3-16.7c-0.4-2.3-0.8-4.7-2-6.7
			c-0.1-0.4-0.1-1.3,0.7-1.6c1.1,0,1.8,0.8,2.3,1.7l0.5,0.8c1.4,5.7,2.4,11.5,3.6,17.2c0.9-3.5,1.9-7.1,3.3-10.5
			c1.4-3.2,3-6.4,5.5-9.3c0.8-0.6,1.6-1.3,2.9-1.3c1.2,0,2.1,0.4,3.1,1c1.3,1.7,2.1,3.6,2.6,5.7c0.9,3.4,1,7.1,1.5,10.6
			c0.4,3.3,0.7,6.7,0.8,10c1.1-1,1.9-2.1,2.8-3.3l2.6-4.3c0.4-0.5,1,0.2,1,0.6c-1.3,4-3.3,7.7-6.4,11
			C555.3,688.2,554,687.4,553.7,686.7z"/>
		<path class="st2" d="M562.2,684c-0.8-0.9-1.6-2.1-1.6-3.3c0.1-1,1.1-2.7,1.6-3.4c0.5-0.6,1.1-1.1,1.9-1.3c0.3-0.1,0.5,0.1,0.7,0.1
			c0.3,0.2,0.3,0.5,0.3,0.7c-0.4,0.9-1.3,1.9-1.7,2.9c-0.3,0.8-0.4,1.5,0.3,2c1.2,1.1,2.7,1.5,4.2,1.9c4,1,7.9,1.2,11.9,0
			c0.5-0.2,0.9-0.7,0.9-1.2c-0.4-1.2-1.6-1.8-2.5-2.6c-1.9-1.5-4-2.7-6-4c-1.6-1-3.1-2.1-4.1-3.6c-1-1.7-0.6-3.7,0.6-5.3
			c2.7-2.7,6.6-5.9,10.7-7.1c2.1-0.6,4.4-0.9,6.6-0.3c1,0.4,1.7,1.1,2.3,2c0.6,0.9,0.8,2.5,0.4,3.6c-0.2,0.5-0.8,0.7-1.5,0.7
			c-0.2-0.5-0.3-1-0.4-1.5c-0.2-0.4-0.3-0.9-0.6-1.3c-0.2-0.5-0.7-1-1.3-1.1c-0.8-0.3-1.5-0.3-2.3-0.1c-2.7,0.6-5.7,2.1-7.9,3.7
			c-1.4,1-2.7,2.1-3.7,3.4c-0.5,0.4-0.6,1.1-0.3,1.6c0.3,0.8,1,1.3,1.6,1.8l5.1,3.3c1.7,1.1,3.3,2.2,4.8,3.6c0.9,0.7,1.5,2,1.6,3.4
			c-0.1,0.9-0.4,2.1-1.3,2.6c-2.9,1.8-6.7,2-9.8,1.8C568.9,686.9,565.3,686,562.2,684z"/>
		<path class="st2" d="M611.2,666.4c-0.5-1.8-0.8-3.6-1.1-5.5c-2.6,5.5-5.9,11.1-11.3,15c-1.7,1.2-4.3,1.6-6.1,0.3
			c-2-1.4-2.8-3.4-3-5.7c-0.2-2.8,0.5-6,1.3-8.4c2-6.2,5.8-11.8,11.5-16c0.8-0.4,1.5-0.7,2.3-0.9c0.8-0.2,1.7-0.2,2.5,0.3
			c1.9,1,3.2,2.8,3.9,4.9c0.8,1.2,0.7,2.9,0.7,4.4c0.3,0.6,0.4,1.1,0.6,1.9c0.2,3,0.7,5.7,1.3,8.5c1.2,4.5,1.8,7.9,5,11.4
			c0,1.1-1.3,0.8-2,0.6C613.3,674.3,612.4,670.5,611.2,666.4z M606.5,648.2c-0.8-0.3-1.5-0.1-2.2,0.3c-2.7,1.6-5.2,4.6-6.8,7.1
			c-2,3.2-3.5,6.7-4.4,10.4c-0.2,1.2-0.4,2.6-0.4,3.8c0,1.2,0.3,2.3,0.9,3.3c0.7,0.8,2,1,3,0.8c6.1-4.2,9.9-10.3,12.4-16.6
			c0.2-0.9,0.4-1.9,1-2.7c-0.2-0.8-0.7-2.4-1.1-3.3C608.3,650,607.5,648.8,606.5,648.2z"/>
		<path class="st2" d="M641.7,665.3c-0.8-2.9-1.1-6.1-1.8-9.2c-1.4,6.6-3.3,13.1-6.6,19.1c-1.2,2.3-3.3,4.5-5.9,4.6
			c-1.8,0-3.6-0.9-4.8-2.5c-1.6-3.5-2.2-7.1-2-10.7c0.2-4.6,1.6-9.2,3.5-13.1c1.4-3,3.9-6,7.4-6.2c2-0.1,4.1,0.7,5.5,2.1
			c0.8,0.8,1.2,1.6,1.5,2.6c0.4-1.6,0.5-3.5,0.4-5.3c-0.1-2.6-0.4-5.2-0.4-7.8c0.1-2.6,0.1-5.2,0.2-7.7c0.1-2.5,0.2-5,0.7-7.5
			c0.8-1.5,2.4-0.3,2.4,0.6c-0.1,7.1-0.8,14-0.2,21.2c0.6,7.6,1.4,15.3,3.7,22.5c0.3,0.9,0.8,1.6,1.3,2.4c0.1,0.2,0.3,0.5,0.4,1
			c-0.9,0.6-1.8,0.2-2.2-0.2C643.1,669.4,642.3,667.4,641.7,665.3z M635.3,651.8c-0.6-0.9-1.7-1.5-2.8-1.7c-1.1-0.3-2.3,0.1-3.2,0.8
			c-1.4,1.6-2.5,3.2-3.3,4.9c-1.7,3.9-2.4,8-2.7,12.3c0.1,1.1,0.2,2.2,0.3,3.4c0.1,1.2,0.4,2.3,0.9,3.2c0.4,1,1.1,1.8,2.2,2.2
			c1.6,0.3,2.8-0.7,3.8-2.3c3.3-5.2,5.1-11.1,6.6-17c-0.4-0.1-0.8-0.8-0.8-1.1C636.1,655,636.1,653.2,635.3,651.8z"/>
	</g>
</g>
</svg>
