<svg id="图层_1" data-name="图层 1" xmlns="http://www.w3.org/2000/svg" viewBox="0 0 1169.68 1301"><defs><style>.cls-1{fill:#fff;}</style></defs><title>me</title><rect x="433.39" y="611.54" width="298.82" height="105.41" transform="translate(-110.7 116.61) rotate(-10.44)"/><path d="M839.06,1215.47c-2-5.56-2.41-11.34.33-16.41,2.62-4.85-1-7.17-2.94-10-.58-.83-3.65.14-5.58.2-9.26.26-17.78,2.63-26.53,6.1s-18.2-2.38-21.66-12.19c-2.37-6.7-6.86-9.36-12.74-12-4.14-1.86-7.26-5.95-10.93-8.92a56.43,56.43,0,0,0-5-3.26l-1.16,1.09.62,11.83c.45,8.61-2.22,15.62-9.73,20.61-1.3.87-2,3.63-1.9,5.43.45,5.78,4.17,11.77,2.27,17.69-2.71,8.44-36.26,5.82-38.43,0-1.34-3.58-2.35-15.11-2.35-15.11a33,33,0,0,0-3.36.83c-7.35,2.69-14.88,5-22,8.22-14,6.31-28.56,7.17-43.48,6.41-1-.05-2.66.09-2.85-.35-2.23-5.24-6.08-2.06-9.23-1.82-7.77.6-15.52,1.94-23.3,2.07-19,.31-38,.1-57.1-.67,27.44-9.58,55.56-16.57,84.06-23a10.53,10.53,0,0,0-1.46-.26,8.81,8.81,0,0,0-1.49.13l-72.9,9.1a52.72,52.72,0,0,1-6,.51c-4.6,0-7.79-2.15-8.59-6.72s1.84-7.69,6.1-9c3.75-1.16,7.67-1.77,11.4-3.41-5.61.28-11.22.64-16.83.8a30.3,30.3,0,0,1-6.94-.5c-6.54-1.35-8.55-5-7-12.28-12.44-6.89-13.69-11.82-5.42-19.31-1-2-3.12-4.56-2.55-5.62,1.43-2.61,4-2,6.82-.82a34.94,34.94,0,0,0,21,1.81,12,12,0,0,1,4.55-.37,18.16,18.16,0,0,1,4.08,1.82,28.35,28.35,0,0,1-2.39,3.36c-.61.65-1.59.95-2.25,2.21,1.21,0,2.43.1,3.63,0,31-2.94,62-5.81,93-9,3.25-.34,6.25-2.74,9.43-4,8.45-3.44,16.93-6.79,25.13-11-8.45,2.15-16.84,4.61-25.38,6.36-9.76,2-19.65,3.42-29.5,5a8.29,8.29,0,0,1-4-.06,58.49,58.49,0,0,1-6.28-3.09c1.19-2,1.89-4.74,3.64-5.91,15.89-10.74,31.89-21.36,49.89-28.49,2.63-1,5.28-2.06,7.86-3.22,15-6.73,18.62-13.34,17.57-29.58-1.61-24.94-2.85-49.91-4.25-74.86-.11-2-.22-3.91-.34-6l-103.29,54.57-.85-1.42a30.83,30.83,0,0,1,3.11-2.21q49-26.57,97.88-53.18c1.39-.76,3-2.83,3-4.23-1-29.46-2.27-58.91-3.49-88.36a4.41,4.41,0,0,0-.38-1.08c-3.84.59-7.7,1.61-11.57,1.63-2.37,0-5.61-.88-6.83-2.56-.82-1.12,1-4.42,2.06-6.56a6.82,6.82,0,0,1,3.84-3.11L666.49,890c6.29-1,12.43,1.4,18.13-2.79,3.57-2.62,8.76-3,13.13-4.59a130.27,130.27,0,0,0,12.85-5.38c3.77-1.87,7.14-1.22,8.48,2.94,1.12,3.46,3.37,4.2,6.38,5.23,7.83,2.7,15.44,6,23.16,9.06,1.15.45,2.7,1.31,3.54.9,5.19-2.54,10.22-5.38,15.3-8.12,5.42,8.66,10.79,9.71,19.12,3.42,7.92-6,15.79-12,23.41-18.38a61.16,61.16,0,0,0,17.61-23.33c5.12-12.15,2.74-24.34-6.52-33a10.92,10.92,0,0,0-5-2.34c10.29,20,2.33,36-10.32,51.8,2.06-8.58,3.9-16.41,5.81-24.22.91-3.72,2.11-7.37,2.92-11.11.85-3.93.78-8.22-3.1-10.22-2.5-1.29-6-.67-10.16-1-5.33-12.39-17.4-17.12-31-18.5-6.6-.67-9.29-4.56-12.7-10.34,6.16,2.25,11.39,5,17.25,1.47-3.63-16.25-7.67-32.56-10.89-49-8.4-43-16.68-86-24.43-129.1a80.69,80.69,0,0,1-.32-26.21c1.5-9.62,7.42-16.66,18.41-17.15-3.67-11.58,0-19.56,11.23-24.58,5.63-2.51,11.34-4.85,17.14-6.91,1.59-.56,3.64.16,5.48.3-.21,1.86,0,3.87-.72,5.54-.9,2.23-2.46,4.2-4.25,7.13,13.71-2.64,26.1-6.18,37.85-11.83.45-.22.88-.48,1.32-.71,7.82-4,13.2-3.8,17.41.74s4.23,11.24-1,18.26c-6.66,9-13.79,17.55-20.7,26.32-1.2,1.53-2.31,3.13-4.32,5.87,12.09-2.21,22.92-3.78,33.52-6.29,6.89-1.63,11.84-9.26,11.07-16.76-1.42-13.91-3.49-27.74-5.32-41.61,0-.23-.45-.41-1.46-1.28l-3.59,29.47-.87.37c-.48-3.13-1.63-6.32-1.31-9.37.73-7.11,2-14.16,3.33-21.2.85-4.61,1.37-8.71-3.85-11.42-2.1-1.09-3.51-3.5-5.25-5.29-3.53-3.64-7.12-6.5-12.9-6.19-5.44.29-9.48-3.32-13.09-7.31a17.93,17.93,0,0,0-6.33-4.26c-6.3-2.6-12.75-4.85-19.14-7.23s-12.75-4.71-19.12-7.08c-1.61-.6-3.18-1.29-4.77-2l.27-1.4,6.31.29,1.13-1.3a23.12,23.12,0,0,1-2.94-1.37c-6-3.84-11.87-7.73-17.8-11.6-1.26-.82-2.9-1.34-3.73-2.47-6.84-9.34-18.87-13.76-23.54-25.32-1.25-3.09-4.73-5.34-7.39-7.73-.5-.45-2.11,0-3.06.42-5.85,2.45-11.62,2.67-17.41-.16a9.93,9.93,0,0,0-3.3-1c-9.55-1-13.2-7-9.56-16,.41-1,.93-2,1.39-3l-1-.88c-5.89,5.21-12.17,10.07-17.47,15.83-1.89,2-1.3,6.3-2,9.5s-1.85,6.52-2.57,9.82a7.67,7.67,0,0,0,.16,4c4.24,11.9-.92,22.93-12.92,27.33-5.72,2.17-11.46,4.21-17.72,6.46L642.7,492c1.91-2.94,2.68-4.84,4.06-6,1.19-1,3.38-2.07,4.56-1.62s2.77,2.87,2.54,4.14c-.53,3-2,5.8-3.33,9.23l5.53,1.1c3.56-3.88,6-9,9.35-9.59,4.72-.87,6.46,4.67,8.19,9.58,1-1.83,1.37-3.43,2.38-4.42,1.57-1.54,3.62-3.8,5.32-3.67,2,.15,5,2.12,5.59,4A43.21,43.21,0,0,1,689,507.28c.14,4.26-.5,8.38,5.36,9.22,1,.14,1.83,1.33,2.75,2,4.64-6.84,3-12-4.28-14.8a5,5,0,0,1-2.78-3.28c-2.3-22.86-4.42-45.75-6.54-68.63a4.19,4.19,0,0,1,1.35-3.19c.81,1.59,1.73,3.13,2.4,4.77,6.21,15.13,8,31.26,10.43,47.21,4.64,30.82,9.38,61.6,17.87,91.66.45,1.6.93,3.2,1.45,4.78,2.6,7.86,10.3,9.77,16.52,3.58.19,1.35.33,2.35.46,3.35,2.9,21.28,5.55,42.59,8.78,63.82,4.76,31.29,9.91,62.53,14.94,93.78.58,3.61,1.39,7.19,2.14,10.78,1.09,5.26,3.61,10.51-.4,15.53,6,3.25,7,7.42,3.69,13.1-.17.29-.35.56-.52.86-4.65,8.33-5.51,8.41-12.51.91,2.5-3,6.69-6.44,2.2-10.28s-6.85,1.23-9.73,4.07c-2.7-2.42-6.76-3-6.67-8.25,0-2.83-2.8-5-6.41-5-6.5,0-12.11-1.59-16-7.61-1.16-1.79-4.25-2.33-7.27-3.85.29-1.36,1.42-3.94,1.17-6.38-.22-2.15-1.51-5-3.21-5.94-1.32-.77-4.23.43-6,1.46-2.47,1.41-4.39,3.74-6.83,5.22-5,3-6.16,7.83-6,12.89.1,2.49,2.06,4.91,3.17,7.36l6.16-3.86c4.93,5.39,6.34,5.63,12.22,1.47l1,.88c-1,1.1-1.87,2.71-3.14,3.21-7.42,2.93-14.84,5.91-22.46,8.21-3.57,1.08-7.62.41-11.37,1a71.2,71.2,0,0,0-13,3.11c-3.8,1.39-5.74,4.59-4.48,8.84,1.11,3.72,4.91,5.42,9.37,4.43,5.63-1.25,5.63-1.25,7.56,1.46-16.78,2.22-33.39,4.32-50,6.64s-33.29,4.93-50,7.32-33.29,5-50,6.86c-16.45,1.86-33,2.95-49.49,4.38l.2,2,23.87-2c34.37-2.8,68.78-5.3,103.11-8.48,28.2-2.61,56.31-6.09,84.48-9,7.31-.77,14.75-2.3,20.77.31-3.37,5.38-6.24,11.11-10.2,15.93-3.5,4.26-8.22,7.51-12.64,11.41-.43-7.79-.74-15.58,5-23.28-52.16,3-102.84,9.16-153.51,16,7.45,2.12,15,1.12,22.58.6s15-3.84,22.11.35c-3.53,17.6-7.33,34.9-10.38,52.33a251.3,251.3,0,0,0-3,28.82,291.61,291.61,0,0,1-7.18,51.31c-5.11,21.38-8.74,43.1-13.36,64.6-1.21,5.63-3.8,10.94-5.57,16.46-.85,2.65-1.26,5.45-1.86,8.18l1.44.38,2.16-5.35c-1.17,7.44,4.49,7.07,8.91,8.9l-7.17.63c1.91,8.25-3.72,14.19-6.37,21-1.16,3-2.55,5.38-1.28,8.87.76,2.09-.3,4.83-.56,7.45,5.26,2.93,5.86,4.12,1.32,8.88-7.5,7.89-12.81,18-22.94,23.31-1,.53-1.52,2-2.21,3.13-1.67,2.64-2.92,5.69-5.06,7.86-2.62,2.66-3.44,5.21-3.58,9-.11,2.86-2.58,6.53-5.08,8.2-3.29,2.19-7.17.68-9.75-2.5a48,48,0,0,1-5.11-7.37c-5.37-9.94-10-20.33-16-29.86-5.33-8.46-12.13-16-18.29-23.95l-1.59.7c-.34,2.72-.74,5.43-1,8.16-1.81,18.4-3.76,36.8-5.32,55.22-1.24,14.59-8.59,21.52-23.27,21.21a5.07,5.07,0,0,0-2.44.27c-6.06,3.38-12.44,4.51-19.69,2.19-.61,4.42-.93,8.2-1.68,11.9-1,5.2-1.8,10.59-3.74,15.47-6.28,15.81-22.89,19.15-35.14,7.38a19.18,19.18,0,0,0-1.65-1.26c-1.25,1.57-2.33,3-3.52,4.4-3.31,3.81-7.18,6.4-12.58,5.7a35.85,35.85,0,0,0-4.5,0c-12.11,0-19.25-5.59-21.19-17.69-1.26-7.86-1.28-15.92-1.88-23.89a4.28,4.28,0,0,0-1.25-2.91c-.44,1.94-.86,3.89-1.31,5.83-2.23,9.64-7.08,17.13-16.74,20.88a7.71,7.71,0,0,0-3.24,3.27c-.84,1.4-1.06,3.15-1.7,4.68-3.67,8.87-5.16,9.91-14.8,9.83-7.49-.06-15,0-22.47-.56-13.39-.92-21.64-11-19.57-24.23,1.41-9,3.75-17.92,5.68-26.87,1.44-6.67,3-13.32,4.23-20a5.48,5.48,0,0,0-1.86-4.35,200.78,200.78,0,0,1-42.16-44.42c-2.26-3.22-4.61-5.51-8.46-6.23a19.75,19.75,0,0,1-3.83-1.12c-6.73-2.76-12.54-2.94-18.27,3.07-2.88,3-8,3.87-12.18,5.71l-1.85-1.06c-.38-8.32-2.29-16.91-.87-24.91,5.36-30.34,11.79-60.48,17.84-90.7a8.27,8.27,0,0,1,2.4-4.79c-1.63,7.78-3.63,15.5-4.81,23.35q-4.46,29.6-8.18,59.31c-.47,3.81.52,8,1.52,11.77a8.65,8.65,0,0,0,8.4,6.69,8.37,8.37,0,0,0,8.88-6c4.2-14.2,8.67-28.4,11.53-42.89,1.41-7.12-.36-14.91-.91-22.37-1.79-24.2-1.56-48.28,4-72.07a10.08,10.08,0,0,0,.18-2.58c-6-1.6-11.7-2.18-16.46-4.64a16.4,16.4,0,0,1-7.78-19.42c11.86-36.42,13.61-74.63,20.11-112,10.19-58.61,20.83-117.1,38.08-174.14,2.62-8.67,4.59-17.79,11.58-24.56,1.11-1.08,1.14-3.37,1.45-5.14,1.21-6.88,2-13.85,3.56-20.66a43,43,0,0,1,12.51-22.35,7.44,7.44,0,0,0,1.8-5.83c-1.73-9.34,1.35-16.72,8.39-22.66,3-2.57,6.72-4.51,9.43-7.37A35.15,35.15,0,0,0,276,502.1c1.6-3.59.38-6.63-3-9.55-9.73-8.55-10.25-20.22-8.7-31.84,1.83-13.68,2.26-13.66-11.67-13.48q-56.24.73-112.47,1.54c-6.83.1-13.65.62-20.47.7-1.89,0-3.78-.85-5.68-1.32v-2c2.08-.61,4.14-1.65,6.25-1.76,19.29-1,38.58-2.35,57.89-2.78,27-.6,54-.56,81-.66,3.57,0,5.53-1.1,7.46-4.34a21.84,21.84,0,0,1,8.4-8.12q27-13.5,54.5-26.12a216.72,216.72,0,0,1,22.82-8.81c11.31-3.74,15.18-3.47,26.75-.23-2.72-5.1-4.39-11.29-8.35-15.11-11.92-11.51-13.15-26.39-1.43-38.22,7.61-7.68,16-14.61,23.89-22,6.24-5.83,12.21-12,21.7-11.88a2.65,2.65,0,0,0,1.85-.84c3.63-4,8.09-7.69,10.51-12.38a25.19,25.19,0,0,0,2.49-14.16c-.87-6.27-3.77-12.25-5.76-18.23l-9.24,1.25-.27-1.35c1.25-.58,2.55-1.07,3.74-1.76,3.11-1.79,4.89-3.87,3.85-8.09s-2.86-9.09,1.71-12.94c.51-.43.14-2.24-.19-3.29-2.44-7.77-1.85-15.41.45-23.12a9.5,9.5,0,0,0-.38-6.11,31.25,31.25,0,0,1-2.85-17c.32-2.65-.74-5.45-1.16-8.08l1.1.18c.89-3.86,1.68-7.55,2.59-11.2.73-3,.62-5.06-2.7-6.89-2.61-1.43-4.31-4.51-5.66-7.48l9.87,6.71c1.34-12.71,8-23.51,1.39-34.91a20.29,20.29,0,0,0-6.18-6.93c-2.86-1.83-3.49-3.68-2.47-6.57,1.88-5.3,3.65-10.65,5.71-15.89,1.46-3.71,3.51-7.19,5-10.89,6.19-15.51,16.59-25.77,33.77-28.28,2.38-.35,4.47-2.72,6.7-4.15l-.52-1.6c-3.58-.2-7.18-.79-10.73-.54-21.27,1.52-42.5,3.93-63.79,4.72-37.45,1.39-74.94,2.37-112.42,2.51-39,.14-78-.5-116.9,3-2.65.24-5.32.17-8,.2-.23,0-.47-.37-1.66-1.38,10.38-1.48,19.91-3.62,29.51-4.06,24.79-1.14,49.61-2.1,74.42-2.12,48.83,0,97.66.94,146.37-3.74C422.3,49,439.6,47.93,456.87,46.6c2-.15,4.17-.51,6,.11,11.86,4.08,18.48-4.23,25.83-10.72S503,23.13,510.08,16.59c1-.9,1.38-2.42,2-3.48,2.12-.54,4.86-.72,7.09-1.88C534.23,3.42,549.8-2.08,567.1.74a62.26,62.26,0,0,1,14.66,4.74c-14,.91-26.1,6.22-38.12,13a21.82,21.82,0,0,1,1.56,2.28c2.65,5.72,6.32,5.87,12.35,4.4,7.48-1.83,14.92-3.51,22.33-5.76,5-1.53,10.89-.18,16.37-.42a71.17,71.17,0,0,0,12.69-1.4c5.64-1.29,10.92-1.09,15.92,1.87,7.27,4.3,14.53,8.63,21.71,13.08,3.45,2.14,6.71,4.57,10.24,7,2.33-9.84,8.6-12.41,17-7,4,2.58,7.12,6.46,10.9,9.41,1.94,1.51,4.43,3.12,6.73,3.21a1339.77,1339.77,0,0,0,139.88-2.08c24.75-1.63,49.6-1.54,74.4-2.51,9.62-.38,19.2-2.23,28.8-2.19,17.28.08,34.55,1.18,51.83,1.68,6.63.19,13.28-.41,19.89,0,2,.13,5.24,2.08,5.62,3.74.77,3.3-2.53,3.24-4.81,3.12-16.45-.9-32.88-2.39-49.34-2.69-13.08-.24-26.18.92-39.27,1.51-3.15.14-6.28.64-9.43.76-33.12,1.22-66.24,2.79-99.37,3.48-37.63.79-75.28.8-112.93,1.14h-5.64l15.65,29.38-4.22-3.08-1.17,1.16C712,89,725.09,97.35,730.58,112.25l1.31-.62c.42-3.31.68-6.66,1.36-9.91.27-1.3,1.3-3.17,2.3-3.4s2.92,1,3.51,2.08c1.8,3.29,3.15,6.82,5.08,11.17.9,0,2.83.22,4.77.2l150-1.86c14.66-.18,29.36.3,44-.49,16.94-.91,33.82-3,50.74-4.38,8.33-.7,16.68-1.12,25-1.67l.14,1.43c-4.49.59-9,1.32-13.49,1.75q-24.61,2.34-49.24,4.5c-4,.35-8,.45-12,.5q-98.22,1.3-196.45,2.46c-3.81,0-4.8,1.54-6,4.8-5,13.26-4.39,27.19-5.68,40.9-.32,3.41-.66,6.82-1,10.73,3.89-.24,7.16-.6,10.44-.63,44.66-.42,89.33-.41,134-1.35,23.47-.49,46.9-2.71,70.35-4,19.26-1.06,38.53-1.91,57.79-2.83,2.8-.13,5.69-.54,8.39,0,1.72.31,3.19,2,4.77,3.12-1.64,1-3.25,2.8-4.93,2.87-11.15.52-22.32.37-33.46,1-22.42,1.24-44.81,3.13-67.25,4.19-22.79,1.07-45.62,1.72-68.43,2.1-33.49.55-67,.57-100.48,1.09-12.25.19-12,.61-14.28,12.47-1.89,9.62-4.69,19.06-6.92,28.61a25.73,25.73,0,0,0-.38,6.76c.12,3,.76,6,.77,9,0,7.72.67,15.58-.54,23.12s-4.4,14.94-6.83,22.73c4.18.86,3.89,4.39,4.1,8.12.93,17,11,27.61,25,35.36a10.47,10.47,0,0,0,5.31.9q21-.95,21.55,19.85a24.45,24.45,0,0,0,.36,2.76c6.11.55,9.81-3.42,14.23-7.31,9.09,11.86,5.6,22.88-1.46,34.26,4,2.74,8.07,5,11.55,8,6.28,5.35,13.21,10.36,18.06,16.86,7.17,9.62,16.92,15.94,25.7,23.52a16.64,16.64,0,0,1,2.33,1.88c7.44,9.36,17.2,10.19,28.47,9.7,41.28-1.8,82.61-2.65,123.91-3.9a101.12,101.12,0,0,0,11.45-.9c1.8-.26,3.44-1.89,5.22-2,3.26-.23,6.95-.67,9.74.59,2.51,1.13,1.29,4-1.25,4.74-4,1.2-8,2.56-12.09,2.72q-60.44,2.28-120.9,4.11c-7.92.25-15.85,0-23.77,0l-.47,1.86a80,80,0,0,1,6.91,6C877.73,452,884,458,889.06,465s5.2,14.87.85,22.64a7.94,7.94,0,0,0-1.18,4.58q2.78,19.25,5.92,38.44c4,24.82,8.3,49.6,12.22,74.44a137.91,137.91,0,0,1,1.62,19.85c.21,18.64.07,37.29.07,57.14l-19.84-30.55a17.09,17.09,0,0,0-.46,3.23c2.49,26.37,4.43,52.82,7.79,79.08,1.68,13.13,6.25,25.87,9,38.88,3.08,14.32,5.52,28.77,8.47,43.12,1.47,7.17,3.66,14.19,5.15,21.35,1.41,6.77,3.67,13.64-.71,20.34-.67,1,0,2.91,0,4.4-.19,16.3.05,32.62-.76,48.89-.53,10.55-5.65,19.74-9.93,29.42-6.61,14.95-20.47,22.43-29.29,35.12-5-3.49-6.92-7.89-8.21-12.77-.54-2-.41-5.89-3.64-4.36-2.27,1.08-3.86,4.47-4.79,7.16-.54,1.57,1,3.77,1.27,5.74,1.17,9.75-4.43,18.08-13.93,21-1.23.37-2.45.78-3.91,1.25.8,3.13.86,6.5,2.48,8.72,1.37,1.87,4.46,2.84,7,3.39a5,5,0,0,0,4.26-2.1c6.57-12.65,30.24-17.42,38.64-3.67,29.11,47.69,72,165,44.69,208.9C929.7,1228.12,839.06,1215.47,839.06,1215.47ZM552.89,771.61c-2-.91-4.46-3-6-2.51-4.14,1.46-4.77,8.92-1.45,12,2.65,2.42,5.52,1.78,6.4-1.7a58.22,58.22,0,0,0,.93-7.87,64.87,64.87,0,0,0,1.15,7.44c.32,1.22,1.52,2.21,2.32,3.31.77-2.21,2.24-4.47,2.1-6.62s-1.88-4.18-2.91-6.26ZM659.55,134.47l11,10.64c-1-4.22-2.43-8.48-2.84-12.83-.43-4.51,2.12-6.12,5.85-3.5,3.42,2.39,6,6,8.9,9.1,2.11,2.26,4.15,4.58,6.22,6.88l2.12-1.11c-1.11-5.07-.89-11.1-3.69-14.94s-8.66-5.63-12.48-7.91l6.25.83.4-1.11-13.81-11.9-18.84,14,3.81,4c-4.45-4.35-10.2-3.91-16.93-3.29l4.32-5.36c-2-.34-3.43.39-4.92.8-5,1.36-10.07,5-14.94.31-2.36-2.28-4.12-1.89-6.94-1.12-2.53.69-6.34.45-8.17-1.08s-3-5.3-2.63-7.85c1.11-8.5,1.16-8.8-7.6-9.35-1.78-.11-3.58,0-6,0,.39,10.54-6,17.94-10.72,26.08-.91,1.55-2,4.17-1.36,5.27,3.65,6,7.84,11.69,12,17.78,7.16-8.8,13.14-17.68,21.72-24.06l1.42.81-3.59,10.78c3.32,3.47,8.49,3.1,11.34,1.62,5.16-2.67,9.23-2.85,13.55.61,6.3-8.73,13.65-8.6,18.09.91,5.33,11.43,10.33,23.17,13.76,35.25,1.57,5.53.2,12.21.66,18.36a5.79,5.79,0,0,1-.71,2.38c-1.83,4.47-3.72,8.91-5.51,13.39a36.21,36.21,0,0,0-1.07,3.73l1.35.72,4.9-5.38c3.93,11,1.71,21.71,2.89,32.18,2.53-7,3.51-14.69,10.37-20.37l2.54,15.55.65-7.11,1.24.1c0,4.24-.63,8.61.14,12.71a36.36,36.36,0,0,1-1.61,19.58c-1.27,3.57-.92,7.71-1.3,11.59l1.38.12,6.52-24.61h.91l1.74,6.27,1.2-.25L689,229.52a17.36,17.36,0,0,1,3,6c2.3,9.3,1.54,18.4-1.35,27.55-2.6,8.25-4.45,16.74-6.64,25.13l1.45.61c1.57-3.64,3.49-7.18,4.63-11,1.78-5.88,2.37-12.18,4.65-17.84,4.89-12.16,3-23.74-1.35-35.41-1.55-4.14-1.78-8.26,1.57-12.27,3.72,4.23,4.73,10.81,11.48,11.07l3.44,4.87,1.39-.71v-6.21l3.53,5.18,3.88-9.07c-4.44-1.25-8.6-1.65-11.88-3.55-3.55-2.06-5.51-5.82-4.5-10.8l13.88,8.67c.74-4.09,1.42-7.34,1.91-10.61s.8-6.57,1.18-9.86l-1.31-.18-1.89,7.43c2.13-25.9-12.37-45.23-23.59-60.84-.77,4.26-3.76,8.23,2.12,11.15a16.22,16.22,0,0,1,6,5.44,65.74,65.74,0,0,1,10.65,34c.18,4.28-.68,8.61-1.07,12.92l-1-.13L706.76,187,701,196.06a5.83,5.83,0,0,1,.81-3.92,17.48,17.48,0,0,0,.31-17.08,108.89,108.89,0,0,1-6.83-16.61c-1.56-5.28-5.63-7.62-8.77-10.76-.93,5.6-1.85,10.74-2.58,15.9a6.86,6.86,0,0,0,.56,3.78c1.31,2.65,3.06,5.07,4.38,7.71,4.9,9.82,5.49,19.75.15,29.61a45.42,45.42,0,0,1-4,5.34c5.42-14,1.41-27-2.82-40.16L678.41,176c-2.37-3.15-4.66-6.15-6.91-9.17-5.36-7.2-11-14.24-16-21.67-3.91-5.79-5-11.8-4.06-14.58l25.62,32.72a25.16,25.16,0,0,0-3.85-10.47C668.92,146.59,664.14,140.59,659.55,134.47Zm-3.79,131.81c-2.29,1.43-5.89,2.93-7.86-1.5-1.31-3-1.2-6.53-1.89-10.78l-6.84,14.57-6.83,6.53,11.76-1.34.13,1.24-3.12,2.35,15.83,1.19.1,1-4.59,1.86-4.69,15.52a18.89,18.89,0,0,1,3.07,3c.27.4-.43,1.8-1,2.38-1.62,1.58-3.42,3-5.52,4.72L630,310.31c-.84-1.56-1.4-4.22-3-5.31-3.49-2.35-7.52-3.9-11.33-5.77-2.16.48-4.29,2.71-6.54,4.79a15,15,0,0,1-2.89,1.69l-1.47-2.63-7.34,3.07L601,301l-7.9-.85-14.33,39.9c-3.31-3-3.36-3.2-3.42-17.4-6.77,4.12-12.94,10.07-22.73,6.53l6.4-4.86a24,24,0,0,1-3.76-2.26,20.22,20.22,0,0,1-4.33-4.71,91.88,91.88,0,0,1-4-9.13l-1.73.64,4.27,19c-3.86-4.71-3.27-13.11-11.42-12.92l-2-7.24c-1.92,4.1-2.58,7.52-4.64,9.5-4.54,4.36-17,3.27-21.47-1.11-1.24-1.21-2.94-2-5.76-3.77.52,5.75,0,10.17,1.5,13.76s5,6.51,7.65,9.72c-.77-1.28-2.28-1.94-3.74-2.69s-2.82-1.55-4.92-2.71c.16,3-.06,5.33.51,7.47a17.67,17.67,0,0,0,2.37,4.44c-.67,1.36-1.62,2.35-1.45,3.1.56,2.57,1.52,5,2.7,8.74L496,338.69a63.16,63.16,0,0,1,.64,7.51c-.18,4.79,1.36,8.14,5.33,11.4,5.2,4.26,11.13,8.3,13.51,14.56l-5.31-.56c14.2,11.71,29.91,17.7,48.12,16.16l-3.21.9.1.54L576,390.33v1l-7.26.83c2.09.75,2.67,1,3.29,1.17,13.91,2.82,27.59,6.32,40.39,12.75,1.13.57,3.47,0,4.61-.89,10.3-7.91,20.45-16,30.67-24,.51-.4,1.29-.46,3.23-1.12l-19.44,28.36c10.46-1.45,10.4-1.5,15.66-7.52a104.12,104.12,0,0,1,7.36-7.46c8.52-8,17.12-15.83,25.65-23.78,7.14-6.66,14-13.86,25.62-11.83-2.35-4.48-4.38-8.28-6.35-12.11s-1.41-9.23-7.59-10.4c-1.41-.27-2.2-3.83-3.28-5.87-.47-.89-1-1.77-1.64-3l-2.51,4.72-2-5.26-11.89,13-1.88-1.09L674.55,317l-2-.63c-1.93,4.8-4.56,9.44-5.64,14.42-2.28,10.51-7.69,19.28-13.72,27.85l11.73-28.18-1.65-.75L658.72,336c1.07-4,1.71-6.51,2.46-9s1.61-5,2.65-8.2l-7,.79c1.87-4.55,3.42-9.5,5.86-14,3-5.41-1.56-9.29-2.7-13.85l1.16-.54,2.7,4.51,1.84-.76c0-2.3.68-4.87-.12-6.85C662.65,280.94,659.21,273.83,655.76,266.28Zm-1.21,399a12,12,0,0,1,.61,1.64c1.54,8.06,4,10,12.08,9.58a4.4,4.4,0,0,1,2.71.76c9.77,7.51,20.94,8.06,32.39,6.2,9.48-1.54,18.6-4.36,24.89-12.38,4.38-5.58,4.08-12-1.11-16.58a30.93,30.93,0,0,0-10.18-6.08c-7.86-2.7-16-4.63-24-7-2-.59-4-1.5-6-2.25,2.7-5.13,6.32-6.4,11.19-5.9a88.51,88.51,0,0,0,13.48,0c5.83-.3,11.65-.92,17.47-1.4l.29-2.13-26.67-8,5.14-3.16-.72-1.61a55.32,55.32,0,0,0-7,.75c-7.37,1.71-14.72,3.54-22,5.53-1.61.44-3,1.73-4.47,2.62,1,1.56,2,3.14,3.11,4.65a4.13,4.13,0,0,0,1,.91L673.57,643c-4.73-5.06-10.1-9.59-17-6.13-5.74,2.89-10.77,7.18-15.54,10.46-2-1.88-4.36-5.51-7.51-6.5-3.37-1.06-7.52.38-9.86.59-1.75-2.84-2.86-7-4.91-7.55-7-1.77-6.41,6.1-9.8,9.14-7.52-4.5-15.71-4.09-18.79,4.51-10,0-12.14,1.65-15.36,10.72l-17-5.44c2.42-1.82,5.18-3.44,7.29-5.67,1.16-1.23,2.2-4.18,1.53-5.12-1-1.39-3.47-1.91-5.42-2.35a5.07,5.07,0,0,0-3.33.85c-6.49,4-12.91,8-19.35,12.1-.92.58-1.91,1.83-2.7,1.7-7.81-1.27-14.2,1.93-20,6.32l-5.64-4.6L508,661.58l-17.39-2.3c2.28-1.84,5.24-4,7.91-6.44,2.89-2.66,5.54-5.87,4-10s-5.8-4.68-9.7-4.54a112.09,112.09,0,0,0-14.41,1.26c-15.67,2.63-31,6.44-44.79,14.76-4.9,3-6.72,6.83-4.66,9.59,3.16,4.23,6.38,1.53,9.87-.77,8.24,14.17,16.32,28.1,24.42,42,1.61,2.76,4.28,4.61,7,2.77a10.05,10.05,0,0,0,3.72-6.74c.33-4-.58-8-1-12.09l-3.19,3.46-12.15-19.38,27.24-9.68c-1,1.22-2.16,2.42-3.12,3.76-6.35,8.92-2.92,19.16,7.81,21,5.49,1,11.57,0,17.11-1.25,5-1.15,6.86-5.76,5.83-11.24h-4.14l2.32-4.58c2.17,2.5,3.89,4.52,5.65,6.5,2.31,2.61,4.87,5.08,8.53,2.58s2.84-5.69.92-8.82c-1.8-3-.67-4.41,2.21-5.67,8.3-3.63,16.72-3.6,25.29-1.11a62.47,62.47,0,0,1-6.84-.15c-5-.26-8.36,2.11-8.73,6.16-.35,3.83,2.31,7.2,7.25,7.1a88.56,88.56,0,0,0,19.15-2.48c6-1.48,11.25-4.69,12.23-12,8.2,7,15.06,6.27,29.15-2.7,4.32,4.11,8.23,2.18,12.22-1.07,3.65-3,7.56-5.63,11.72-8.7.37,1.55.67,2.06.57,2.49-.37,1.77-1.29,3.55-1.2,5.28.1,2,.57,4.34,1.79,5.74.9,1,3.32,1.15,5,1,1.3-.16,2.47-1.42,3.63-2.15,5.33,4.25,7.07,4.49,15.36,2Zm-101.13-63.8c.79-4,1.21-7.44,2.15-10.71,1.47-5.11,3.39-10.09,4.93-15.19,3.1-10.27,7.61-20.2,3.3-31.54-2.14-5.63-2-12.11-3.19-18.14a4.75,4.75,0,0,0-2.86-3.16c-15-3-30-5.81-45.53-8.77-.13,1.78-.21,3.38-.36,5-2.32,24.51-4.53,49-7.15,73.5-.34,3.14-2.12,7.26-4.57,8.76-3.87,2.38-3.64,4.72-2.86,7.63ZM656.5,541.07c-8.25-1.64-16.64-2.15-24.09-5-10.45-4.07-21.25-5.24-32.07-7-2.88-.46-4.23.19-5,3.13-1.77,7.11-3.92,14.12-5.76,21.21-.35,1.36-.58,3.33.12,4.3,5.28,7.26,4.16,15.55,4.07,23.65-.06,5.07-.42,10.13-.64,15.07l66.77-2.48c-4.76-18-2.66-35.71-3.38-52.91Zm-87.74-462c-1.79-2-3.77-3.36-4.57-5.23-1.66-3.9-4.18-3.62-7.2-2.26-10,4.48-21,5.92-29.78,14.07-7.93,7.38-18.08,12.37-27.2,18.49a64.34,64.34,0,0,0-5.44,4.39c-1.63,1.38-3.22,2.82-5.42,4.76l43-16.9.76,1.38c-.25.55-.34,1.33-.77,1.6-13.6,8.86-27.32,17.35-44.33,17.93a9.42,9.42,0,0,0-6.29,2.82c-4.9,5.92-9.3,12.25-13.62,18,2.54-12,10.84-21.38,19.14-30.72-18.44,8-30.8,21.81-30.5,38.51l6.31-14.26.73.33-5.68,15.14.73.37,2.63-3.37.69.37-4.4,11.66,2.83-1.22c-1.42,3.53-3.94,6-5.42,9a42.16,42.16,0,0,0-2.86,10c-.66,3.21-.87,6.51-1.39,10.64l17.39-22.94,1.44.89a16.28,16.28,0,0,1-.21,2.79c-2,8.24-4,16.49-6.25,24.68-3.4,12.53-7,25-10.41,37.53-.56,2.07-.29,4.36-.41,6.56,2.91-7.43,4.22-15.11,6.51-22.48,5.56-17.94,11.34-35.82,17.54-53.55,2.1-6,6.18-7.78,10.76-6.49,4.39,1.24,6.86,5.92,5.92,11.68-.58,3.51,1.13,4.58,3.87,3.3,6.69-3.12,11.74-8.08,15.72-15.63l-5.42,2.67c-1.46-3.54-3.3-6.73-4.09-10.17-1.88-8.15,3.11-14.5,6.52-21.34-15.59,8.29-28.84,19.3-41.26,31.47,3.22-4.26,6.47-8.55,10.58-11.73,13.26-10.27,26.82-20.15,40.32-30.1a9.48,9.48,0,0,1,4.56-1.94c9.72-.75,15.39-8.5,24.42-13.14l-6.68-.64-.07-1.23L553.31,93l-21-8.71.61-1.18ZM503,196.28c-.28,7.66,2.89,10,9.36,6.91,2.82-1.34,5.26-3.45,7.91-5.16,5-3.2,9.6-7.23,15-9.3,5.19-2,8.59-5.16,10.57-9.8,1.92-4.48,3-9.31,4.33-14,1.13-4.16-1-7.15-4.25-9.28s-6-.78-8.48,1.67c-1.15,1.15-2.22,2.37-2.79,3h-8.42L525,159.09c1.2-.59,2.62-.93,3.55-1.81,5.69-5.35,11.38-10.72,16.81-16.34,1.32-1.37,1.63-3.72,2.4-5.62-2,.2-4.11,0-5.9.66-15.57,5.9-27.41,16.72-38.11,29.07-2.91,3.36-6.73,6-9.5,9.41a7.11,7.11,0,0,0-.66,6.24c.53,1.17,3.53,1.31,5.47,1.69.87.17,2.16-.65,2.71-.26,3.07,2.21,5.15.23,6.93-1.68,2.89-3.09,5.46-6.48,8.66-10.34-1.71,5.13-4.35,9.47-4.32,13.79,0,6.61-4.49,9.83-7.39,14.39Zm-195.26,283,65.18-15.79.12.55-62,19.53,3,8.42,72.91-30.59.33.83L382.63,466c11.11-1.43,16.89-9.07,23.73-15.16l-16.73,8.82-.75-1.4,14.45-8.75c-8,.71-15.21,1.28-22.42,2-5,.51-10,.83-14.84,2-16.66,4-33.25,8.22-49.84,12.48a5.44,5.44,0,0,0-3,2.31C311.41,471.47,309.93,474.78,307.7,479.28ZM457.28,615.63v-1.06l-2.57-.89c-5.24-1.8-7.37-6.07-6.17-11.42a91,91,0,0,0,2.08-13.15c1.35-18.42,2.08-36.89,3.84-55.26,1.69-17.53,4.32-35,6.69-52.44.48-3.51-.58-5.37-5.58-6-1.86,8.78-4.53,17.54-5.46,26.49-3.63,34.77-6.7,69.6-10.06,104.4a18.41,18.41,0,0,1-1.55,4.48c-2.25,5.93-9.45,9.68-7.21,17.6l-2.09,1.39-3.44-6.29-1.69.67c.37,2.38,0,5.45,1.33,7a9.49,9.49,0,0,0,7,2.53c5.77-.47,10.17-3.91,13.55-8.49.91-1.23,1.18-2.93,1.74-4.42l-3.93-1.44-.24-.94ZM623.9,1134.34c24.34-1.93,47.18-10.42,71.07-15.26l-2.09-24.62c-5.2,3.12-9.77,7-15,8.82-19.92,7-36.76,19.16-54,31.07ZM516.15,267.08c10.14-.54,18-6.11,25.67-11.8v13.43c1.14-10.58,5.86-18.76,12.68-27,9.37-11.33,16.65-24.39,24.8-36.72,2.1-3.18,4.13-6.4,6.19-9.6l1,.37V205l2,.24,8.3-38L596,167l-4.13,9.81L588,171.61c-11.55,13.78-15.74,23-14.49,32.47,1.28-2.18,2.26-4.07,3.46-5.81s2.59-3.28,3.91-4.91l1.18,1L555.3,233.72l-1.12-.66,5.41-11.12-1.07-.78C549.08,240.88,538.22,259.28,516.15,267.08Zm19-50.2,1.45.92,22.87-30.59,3.63,2.19c0-2.89-1-5.91.16-7.47,5.25-7.36,9.14-15.86,17-21.18a4.61,4.61,0,0,0,1.36-3.9,89.06,89.06,0,0,0-3-9.46c-17.11,11.66-28.85,26.87-38,44.33l6.68-9.08ZM789.26,910.94v21.24c0,6.74,2.23,11.36,6.26,12.36s8.73-2.09,11.23-8.7c3.15-8.34,5.93-16.84,8.43-25.41,5.54-19,10.82-38.08,16.17-57.14.4-1.42.56-2.91.83-4.37l-1-.18-24.37,69-9.6-4.29,1.27-4.86c-2.72,2.3-4.27,6.52-9.23,2.35Zm81.81-269.85c0-7.38.07-14.93,0-22.47-.1-8.46-3.3-12.13-10.25-12.43-2.6,3.66-4.88,7.35-7.63,10.64-7.59,9.06-15.34,18-23.13,26.89A9.44,9.44,0,0,0,828.22,654c3.49-8.77,7.33-17.46,17.63-19.33a30.71,30.71,0,0,1,25.22,6.38ZM214.48,911.54c1.62-6.09,3.45-12.74,5.1-19.43.2-.81-.45-1.9-.89-2.78A28.55,28.55,0,0,1,217.08,867a27.92,27.92,0,0,0,1-6.37q2.31-31.63,4.5-63.28c.19-2.7,0-5.42,0-8.13a7.83,7.83,0,0,0-1.78,4q-6.13,40.5-12.15,81a17.64,17.64,0,0,0,.29,5.41C210.76,890.28,212.6,900.84,214.48,911.54ZM517.1,826.28l-.3-1.43c-1.13,0-2.27-.08-3.39,0-16.4,1.33-32.8,2.8-49.21,4-5,.36-10-.43-14-4.63l14.75-1.31c-5.45-2.57-6.74-7.25-7.81-12.41-1.41,6-3.6,10.91-10.8,10.52l2.23,9.68c23.46-5.94,33.76,6.86,38.24,27.73,1.31-4.64,2-9,3.19-13.27,2.92-10.46,9.61-15.68,20.39-16.68C512.64,828.28,514.85,827,517.1,826.28ZM840.22,916.7c-.79.3-2.65.51-3.79,1.52a39.94,39.94,0,0,0-13.35,24.87c-.55,4,1.91,6.67,5.65,7.74s7-.54,8.8-3.93q5.07-9.32,9.69-18.89c2.63-5.44-.62-11.19-7-11.3ZM460.11,727.13c4.88,2.37,10,1.8,14.94.92a861.71,861.71,0,0,1,121.58-12.77c7.66-.28,15.31-1.07,23-1.62C565.88,710.79,512.95,717,460.11,727.13ZM439.45,380.5c3.48-4,6.51-7.56,9.73-11,2.5-2.66,5.78-4.73,7.77-7.7,5.72-8.51,13.41-10.58,22.65-8V335.58c-4.89.59-3.42,3.31-3.23,5.65s0,4.8,0,7.85L459.76,335.5c.29,2.07,0,4.24.87,5.24,2.42,2.62,2.25,5.17.54,7.69a45.28,45.28,0,0,1-6,7.25c-7,6.64-14.07,13.1-21.49,20Zm10.66,367.25-1.08-.07-1.63,13.48C495,755.43,544,754.7,592.09,744.9A110.21,110.21,0,0,0,577.42,746c-5.63.76-8.2-1.34-9-6.91-.73-4.78-2-9.48-3-14.22l-1.6.34c-4.6,8.26-.88,15,6,22.28L450.17,759Zm60.57,44.89-10.44-9.06a28.14,28.14,0,0,0,1.15-4.61c.36-4.06-1.52-6.74-5.57-7.58-4.64-1-14.5,3.23-16.6,7.4a8.43,8.43,0,0,0-.18,5.94c.37,1.09,2.93,2.47,3.9,2.1,1.78-.67,4.16-2.34,4.44-3.93.81-4.61,3.86-4.49,7.65-4.15a40,40,0,0,1-6.82,9.23c-2.12,2.08-5.67,3.6-3.18,7.09s5.27,1.19,7.58-.85c3.77-3.34,7.7-4,12.37-1.71,1.57.77,3.78.13,5.71.13ZM281.25,940.69l-.29-1.35a52.15,52.15,0,0,0-5.13,1.15c-25.66,8.45-46,24.23-62.12,45.61-2.73,3.62-4.28,8.2-5.91,12.52-.43,1.14.77,3,1.46,4.37a3.06,3.06,0,0,0,2.14-.23,35,35,0,0,0,.32-3.6,8,8,0,0,1,.91-2.77c2.11-3.57,4-7.38,6.54-10.57A150.86,150.86,0,0,1,270,945.54C273.64,943.73,277.49,942.28,281.25,940.69ZM884.82,693.28l.86-.3c-1.79-17.89-3.47-35.79-5.48-53.65-.35-3.12-2.08-6.09-3.18-9.13l-2.12.24c-.14,5.17-.66,10.36-.31,15.5.47,6.75,2.25,13.44,2.36,20.17.25,14.88,4.84,28.79,8.56,42.92.08.31.47.54,1.27,1.43l-4-20,.54-.1ZM605.06,770.66a70.59,70.59,0,0,0,8.22,4.06,4.13,4.13,0,0,0,3.63-1.35c2.58-3.65-2.18-15.31-6.5-16.22-3.29-.69-6.62-1.22-10-1.7-3.74-.54-5.55,1.58-3.78,5,1.65,3.21,1.17,5.92.07,9a12.34,12.34,0,0,0-.85,6.32c.34,1.59,2.07,3.76,3.47,4,1.24.22,3.35-1.59,4.21-3C604.54,775.17,604.55,773,605.06,770.66ZM864.61,943.43c.08-7.23-3-11.31-7.27-11.76s-7.54,2.86-8.46,8.52c-.39,2.44-1.08,4.83-1.67,7.23-1,4.19,0,7.63,3.92,9.71,3.36,1.77,8.21.14,10.11-3.84A72.33,72.33,0,0,0,864.61,943.43ZM725.3,605.56c-5.08-2-9.41-3.23-13.3-5.32a13.81,13.81,0,0,1-5.31-5.7c-1.89-3.71-3-7.81-4.49-11.74l-1.27.44c-.34,3-5.28,6.72,1.74,8.53-.44,1.26-.55,3.23-1.4,3.62-2,.9-4.25,1-7,1.59,1.21,1.46,1.68,2.51,2.47,2.91,4.9,2.43,7.24,6.62,9.1,11.55,1.54,4.07,6.33,4.12,9.39.7a19.4,19.4,0,0,1,4.08-3.06C721.08,607.94,722.91,607,725.3,605.56ZM278.85,966c-17.06,6.68-32.5,15.64-44.12,29.9-3.64,4.47-6.49,9.61-9.35,14.65-.69,1.21.08,3.25.17,4.91a26.4,26.4,0,0,0,4-2.24c3.82-3.11,7.43-6.49,11.32-9.5s8.33-6,12.51-8.93l-.59-.76-18.92,10.42C245,987,261.23,975.7,278.85,966Zm368.8-211.55c-3,3.45-5.58,6-7.64,9-1.67,2.38-4.29,5.68-3.66,7.7.79,2.55,4.14,5.17,6.93,6.07,7,2.25,14.13-5.36,12.56-12.89-.23-1.11-1.11-2.69-.67-3.23,2-2.47.11-3.69-1.44-4.61-.85-.51-3.26-.22-3.4.2a28.2,28.2,0,0,0-.79,5.84c-.17,1.87.4,4.41-.61,5.44s-3.64.88-6.19,1.35c2-5,3.69-8.65,4.79-12.44.31-1.07-.74-3.23-1.78-3.82-1.3-.74-3.23-.38-4.89-.5l-.07,1.93Zm-132.2,25.06-5.7,2.86c1,1.26,1.86,3.54,2.85,3.57,2.88.1,6.75.27,8.47-1.4,2.2-2.13,3.93-2.17,6.43-2a23.37,23.37,0,0,0,7.41-.31c1.73-.44,3.16-2,4.72-3.13l-3.68-3.38c-.15-1.88.37-4.37-.65-5.54s-3.67-1.5-5.36-1.12-3.14,2.09-4.68,3.24c-1,.76-2.46,2.43-3,2.18C515.7,771.28,516.26,776.75,515.45,779.53Zm220.74-75-2-.08c-.33,3-1.07,6.12-.91,9.15q1.5,26.18,3.3,52.33c.09,1.23,1.27,2.39,2,3.59,1-1.07,2.94-2.09,3-3.21a92,92,0,0,0-.26-13.43c-1.36-14.58-2.91-29.13-4.42-43.7C736.76,707.61,736.42,706.07,736.19,704.53ZM488.5,739.41l-1.13,1.25c.91,1.38,1.7,3.83,2.76,3.95,5.63.64,11.33.66,17,1,3.84.2,5.77-1.66,6.53-5.34.26-1.25,1.4-2.31,2.14-3.46.78,1,1.39,2.21,2.39,2.79,1.56.9,3.63,2.18,5,1.76,1.69-.5,2.91-2.59,4.34-4-1.24-1.15-2.32-3-3.75-3.32A47.38,47.38,0,0,0,513,732.59c-3.9,0-7.49,1.69-8.28,5.78-.76,3.9-2.79,3.89-5.7,3.25C495.52,740.81,492,740.13,488.5,739.41ZM621,69.41c-.65,3.58-1.53,7.89-2.15,12.23A4.34,4.34,0,0,0,620,84.71c5.11,5.66,6.91,7,17.65,1.78-.6-3.06-1.07-6.19-1.89-9.22a4.73,4.73,0,0,0-2.24-2.8c-4.12-1.82-8.37-3.39-12.46-5ZM584.13,769.95l1.15.16c.35-2.84,1.92-6.53.7-8.26s-5.42-1.83-8-1.24c-1.9.43-3.47,3-4.8,4.92a5.12,5.12,0,0,0-.8,4,3.76,3.76,0,0,0,3.16,1.73c4.56-.57,5.63,2.11,5.48,5.18-2.09,1.69-5,3.89-4.66,5.49.71,3.77,4.35,2.94,7,2,3.65-1.27,7.1-3.09,10.64-4.67l-.45-1-6,.37ZM685,765.68c-4.74,0-2.58-3-3-5.24a48.16,48.16,0,0,0-3.38-11.6c-1.22-2.73-3.76-3-6.12-.7-.08.07-.7-.55-1.11-.67-1.28-.37-2.58-.66-3.87-1-.15,1.71-1,3.79-.33,5.05,2.36,4.43,6,4.19,10.49,1.89-1.14,3.07-2.9,5.4-4.42,7.88-2,3.22-2.86,6.76.53,9.45,3,2.37,6.3,1.88,8.92-1,.87-.89,1.3-2.22,2.28-4ZM607.25,181.52l-6.12-32.17c-6.45,8.87-6.33,14.52.33,17.42,3.33,1.45,3.15,3,2.89,5.57-1.08,10.67-2,21.35-3,32l.58.15,8.5-27.08-1.38-.42Zm275,557.73a7.63,7.63,0,0,0-.08,1.88c3.88,18.89,7.73,37.8,11.78,56.66.54,2.53,2.11,4.84,3.75,8.46-.11-24.42-10.94-44.81-15.5-67Zm-186-437.3c-6.43,5.74-12.28,10.82-17.85,16.18-.44.42.55,3.54,1.59,4.1,5,2.68,16.23-4.45,16.27-10.06-.05-3-.06-5.89-.06-10.22ZM588.76,82.75c7.51,3.92,13.16,7.43,14.08,14.33,2.43-3.49,4.85-6.63,6.85-10a6.33,6.33,0,0,0,.52-4.65c-.3-.93-2.13-1.68-3.39-1.92-4.34-.81-8.73-1.36-13.76-2.11C596,82.08,593,82.28,588.76,82.75Zm-284.36,956-10.71-15.31c-5.47,7.73-6,12.64-1.91,16.39,3.36,3.11,7.6,2.9,12.61-1.07ZM773.76,585.9l18.33-16.49-24.59,5.87Zm106,126-1.15.3c.49,4.94.89,9.89,1.51,14.81s.59,9.79,6,12.72c1.93,1,2.57,4.48,3.81,6.83l1-.48Zm-572.09,335-1.52-.06c-1.28,3.51-3.25,6.95-3.61,10.55-.25,2.56,1.39,5.49,2.79,7.91.44.77,3,.88,4.27.39.81-.32,1.53-2.37,1.33-3.47-.88-5.16-2.12-10.24-3.24-15.33ZM600.31,171.28l-1.37-.23-4.42,38.29,1.5.16A105.32,105.32,0,0,0,600.31,171.28ZM642.58,96l2.18,4.91c2.88-1.69,4.85-3,4-7-.63-2.83.57-6.08,1-9.14l1.82-.11,4,6.39c0-6-1.16-11.38-7.82-13.5-.35,12.71-.74,14.16-5.13,18.47ZM533.34,730c-1.58,2.64-3.25,4.33-3.56,6.25a9.55,9.55,0,0,0,1.47,5.77c.24.42,3-.64,4.57-.91,1.2-.2,2.73.21,3.57-.4a7.29,7.29,0,0,0,2.33-3.59c.27-.87-.37-2-.61-3.12l-4.38,1.44ZM642.88,118.28l-1.75-1.74,22.34-12.15L659,98.2l1.15,2Zm-76.21,681.4-.15-1.24-60.69,7.45.14,1.19ZM675.25,584.52l1,1.89,15.2-2-4.92-7.73Zm-47,117.27.09,1.4,52.13-9.39-.2-1.14Zm-360,281.75c.88,8.31,7.31,8.83,13.36,10.67A13.16,13.16,0,0,0,268.28,983.54Zm449-746.79-1.79-.17c0,5,.47,10-.15,14.84-.48,3.79-2.23,7.44-3.57,11.09-1,2.85-2.32,5.62-3.5,8.43,6.3-10.57,13.94-21.11,9.06-34.19ZM624.85,598.54l-.09-1.26c-9.9.61-19.8,1.16-29.69,1.91-1,.07-1.87,1.36-2.8,2.09l.8,1.25Zm13.33-298c5.58-4.27,8.36-10.49,10.73-17,.06-.16-.28-.46-.58-.94l-1.83,2.77c-5-1.77-6.47-.58-6.66,4.64-.13,3.43-1.08,6.81-1.66,10.53ZM484.76,867.09l-9.1,32.17C483.2,889,484.76,878.28,484.76,867.09ZM462.6,746.18l-7,3.93c2.15,1.4,4.21,3.68,6.49,3.92,1.72.19,3.73-2.21,5.61-3.46ZM630,753.44l-1.9.24-6.33,16.76c2.11-1.34,3.39-1.68,3.67-2.42.7-1.78.6-4.13,3.67-2.68a3.9,3.9,0,0,0,1.54-2.2c0-3.24-.38-6.47-.63-9.7ZM693.8,332.76c5.23,2.47,5.33-4.13,9.24-4.83l-2.87-4.83c-3.09,3-8.16,3.79-6.35,9.66ZM277.91,595.47l4.79-15.19-9.15,7Zm22.77-60.89a51.12,51.12,0,0,0-4.56,3.74,43.2,43.2,0,0,0-3.28,4.5l10.12.85Zm179.86,206.7c-1.3.8-2.29,1.87-3.38,2-1.46.13-3-.5-4.47-.8l.52,6.46c2.37-.79,3.67-1.52,5-1.6C482.4,747,483,745.82,480.54,741.28Zm19.6-403.67,1.48-.22c.3-11.27-.18-13.18-5.25-17.39ZM713.07,276.7l3,.7,3.26-18.4-1.62-.32ZM546.55,733,545,734.19l4.64,6.29c1.14-1,3.19-1.85,3.26-2.88C553.21,733,549.29,733.7,546.55,733Zm-80.66,71.61c.54,3.71,3.09,4,22.59,2.62ZM634,194.28,631,188l-7.79-5.58,8.71,14.11Zm148.49,751.1L770,934.94,769,936.21c4.78,2.84,5.78,10.07,13.47,9.18ZM666.76,283.2l2-.5-5.06-19-1.58.39Zm36.58-52.08-6.26-2,3.57,11.3Zm-18,907.16c8.41.21,10.54-1,10.47-5.11ZM456.61,803.13l1.84.19,1.18-13.69-1.36-.14C458.66,794.14,454.31,798.28,456.61,803.13Zm17.55-457.68.9-.32a44.74,44.74,0,0,0-.51-7.63c-.21-.93-2.07-1.49-3.17-2.23-.21,1.13-.88,2.43-.54,3.36A66.3,66.3,0,0,0,474.16,345.45ZM429.43,731.36c-3.68,9.6-3.46,10.88,1.57,10.92ZM824.5,982.86,818,976.72l.87,9ZM455.76,152.94l-1.62-1L447.65,161l1.39,1ZM686.48,294.63l1.28,1,7.54-9.08-1.2-1Zm38.8,393.86-.11-2-16.22,2.17.07.64Z" transform="translate(0.01 0.01)"/><path d="M394.54,297.07c-.07-.18.25.74.64,1.63,1.73,4.06.6,6.06-3.76,6.22-19.92.73-39.83,1.5-59.75,2.06q-100.15,2.83-200.29,5.51c-1.83,0-3.8.43-5.46-.09-1.88-.59-3.49-2-5.22-3.12,1.68-1,3.33-2.63,5.06-2.72,10.31-.54,20.64-.72,31-1q78.66-2.14,157.33-4.24c16.48-.43,33-.38,49.45-1,7.3-.26,14.55-1.59,21.83-2.4C388.12,297.64,390.93,297.41,394.54,297.07Z" transform="translate(0.01 0.01)"/><path d="M862.11,304.77c-35.5,0-71-.06-106.49.06-6.14,0-12.28,1-18.42,1.14-1.72,0-3.47-1.39-5.21-2.15,1.44-1.32,2.73-3.49,4.36-3.79a83.38,83.38,0,0,1,14.89-1.4c41.66.1,83.33.7,125,.44,33-.21,66-1.27,99-2.29,8.26-.26,16.46-2,24.72-2.61,1.86-.13,5.13,1.52,5.54,3,.88,3.11-2.09,3.46-4.54,3.57-31.93,1.45-63.86,3.11-95.8,4.28-14.31.53-28.66.09-43,.09Z" transform="translate(0.01 0.01)"/><path d="M134.48,186.35c3.24-.91,6.43-2.38,9.72-2.63,25.39-2,50.77-4.67,76.2-5.18,31.45-.63,62.94,1.08,94.4.93,26.29-.13,52.57-1.46,78.86-2.3,4-.13,7.92-.93,11.82-.62,1.78.14,3.41,2.23,5.11,3.44-1.7,1.2-3.39,3.44-5.11,3.46C366.2,184,327,187.18,287.63,185c-48-2.66-95.89-.35-143.72,4-3,.27-6,0-9.07,0Z" transform="translate(0.01 0.01)"/><path d="M43.23,346.16c-2.51,1.2-5.36,3.74-7.45,3.22s-4.33-3.76-5.3-6.27c-1.4-3.65-1.72-7.71-2.67-12.43-6.94,1.71-13.77,3.61-20.7,5-2.22.43-4.74-.63-7.12-1,1-2.23,1.5-5,3.16-6.58C10.59,321.19,18.34,314.62,26,308a10.9,10.9,0,0,1,3.45-1.9c4.14-1.46,5.48-.41,5.19,4.07-.27,4.26-.66,8.51-1,13.33,5-.33,9.29-.64,13.54-.85,1.49-.07,3.26-.35,4.42.31,1.49.85,2.49,2.54,3.7,3.87-1.66,1-3.3,2.78-5,2.84-5,.19-10-.31-14.93-.53-1.75,10.64,1.36,16.9,7.1,15.66ZM27.46,314.83c-2.84,2.43-5.07,4.31-7.27,6.24s-4.37,3.91-7.35,6.58c15.29-3.06,15.29-3.06,14.63-12.82Z" transform="translate(0.01 0.01)"/><path d="M36.47,202.34l-15.91,7.71c6.39,2.71,16.55-1.41,19-7.23,1.86-4.45.88-6.21-4-6.42-4-.18-8,.14-12,.11-9.3-.06-12.12-4.17-8.84-12.77C17.87,175.48,21,173.22,29.79,173a99.19,99.19,0,0,1,11.47-.1c1.41.13,2.68,1.9,4,2.92-1.33,1-2.56,2.64-4,2.84-3.78.51-7.65.29-11.47.54-7.75.5-8.94,1.75-10.06,10.72,1.57.15,3.12.41,4.67.43,4,0,8-.25,12,0,9.25.64,13,7.91,8.41,15.9s-17,13.23-25.59,10.46c-2.34-.76-5.17-3.08-5.76-5.23-.45-1.66,1.82-5.47,3.63-6.08,6.16-2.07,12.65-3.15,19-4.61Z" transform="translate(0.01 0.01)"/><path d="M43.35,31.28c-1.52.45-3.48.45-4.49,1.43-6.68,6.48-10.85,14.52-14,22.71,5,1.13,9.83,1.57,14.12,3.34C48.34,62.6,49.5,72,41.82,78.64c-5.16,4.45-13.56,5.64-19.2,2.54-6.19-3.4-7.47-9.24-6.57-15.48,2.06-14.24,8.36-26.55,18.11-37.08,1.11-1.2,2.53-2.54,4-2.85,2-.43,4.68-.59,6.29.4,1,.6.47,3.59.62,5.5Zm-20.53,32C20.82,69,21.82,74,25.9,76s10.8.31,13.35-3.8a7,7,0,0,0,.68-5c-.23-.86-2.29-1.5-3.62-1.75C31.91,64.62,27.46,64,22.82,63.28Z" transform="translate(0.01 0.01)"/><path d="M1055.95,36c1.51-1,2-1.3,2.52-1.61,6.34-3.85,11.22-3.25,14.32,1.76,2.94,4.76.22,14.22-5.1,17.69-4.89,3.19-10.74,1.76-14.06-3.89-4.38-7.45-4.29-15.68-2.62-23.77a117.16,117.16,0,0,1,5.36-17,9.42,9.42,0,0,1,3.9-4.34c1.13-.67,3-.11,4.52-.09-.23,1.42,0,3.25-.77,4.19C1057.54,16.51,1057.12,25.72,1055.95,36Zm.79,9c2.46,1.68,5.14,4.39,6,3.91,2.32-1.31,3.88-4,5.73-6.13l-1.18-.92Z" transform="translate(0.01 0.01)"/><path d="M1093.48,27.28a47,47,0,0,1,5.44,2.17c4,2.21,6.85,5.36,6.88,10.19,0,4.65-2.51,8.56-6.57,9.67-6.11,1.67-12.6,2-19,2.54-1,.08-2.2-1.93-3.3-3,1.37-1,2.66-2.54,4.14-2.75,3.59-.51,7.32-.08,10.91-.59s7.45-1.65,7.22-6.09-4.19-5.51-8-5.73c-2-.11-4,.44-6,.13a5.79,5.79,0,0,1-3.83-2.19c-.41-.72.67-2.68,1.53-3.69,2-2.36,4.68-4.25,6.44-6.78,2.09-3,1.35-5.2-2.8-5.81-1.39-.2-2.57-1.81-3.84-2.77,1.45-1.07,2.82-2.92,4.36-3.07,6.43-.64,10.93,5.29,9,11.54A66.32,66.32,0,0,1,1093.48,27.28Z" transform="translate(0.01 0.01)"/><path d="M78.88,195c-.16,9.88-11.77,21.52-19.82,21.64-4.88.08-8.31-3.66-7.61-8.92a29.55,29.55,0,0,1,9.11-17.86c4.73-4.51,9.5-.8,13.95.5C76.63,191,78,194.06,78.88,195Zm-6.19,0c-3.41.39-7.56-.37-9.22,1.32-3.49,3.57-6.56,8.12-5.54,13.95,7.19-.91,13-6.67,14.76-15.24Z" transform="translate(0.01 0.01)"/><path d="M56.23,64.79a33.68,33.68,0,0,1,8.06-18.64c3.4-3.81,7.5-3.31,10.43.85a20.61,20.61,0,0,0,2.05,2.74c6.56,6.61,6.32,14.35-1.23,19.82a25.37,25.37,0,0,1-10.42,4.18C59.76,74.63,56.23,70.93,56.23,64.79Zm10.6-13.17c-1.52,4.56-3.07,8.66-4.07,12.89-.19.77,1.86,3,2.9,3,4.15.06,9.55-4.46,9.7-8.07.16-5-4.13-5.71-8.53-7.81Z" transform="translate(0.01 0.01)"/><path d="M66.55,326.91c-.28-4.44-.88-8.9-.76-13.33a5.14,5.14,0,0,1,6.55-5.12,15.59,15.59,0,0,1,8.27,4.8A18.94,18.94,0,0,1,83.67,333c-1.47,3.75-4,6.7-8.49,6.6-4.7-.1-7.08-3.27-8.52-7.26A38.24,38.24,0,0,1,65.52,327Zm9.85-8.61c-5.79,3.91-6,11.74-.75,15,4.11-4.18,4.39-8.64.75-15Z" transform="translate(0.01 0.01)"/><path d="M605.41,917.28c8.33,5,18.93,4.86,22.67,14.28-6.41-3-12.89-5.85-19.21-9-2.53-1.27-4.71-3.21-7-4.85,1.86-2.56,3.17-6,5.66-7.53,13.69-8.15,27.67-15.81,41.55-23.63,3.21,3.37,1.17,4.7-1.16,6-10.56,6-21.13,11.92-31.65,18C612.76,912.49,609.51,914.71,605.41,917.28Z" transform="translate(0.01 0.01)"/><path d="M316.26,123l-136.92,1.72A972.8,972.8,0,0,1,316.26,123Z" transform="translate(0.01 0.01)"/><path d="M741.56,238.82c42.5-4.15,85.22-2,127.94,0Z" transform="translate(0.01 0.01)"/><path d="M574.38,1080c-7,.15-14.09,1-21,.26-7.47-.82-9.1-4.76-4.83-10.95,3.34-4.84,7.79-8.91,11.75-13.32l1.13,1.06L549,1073.65l25.61,3.47Z" transform="translate(0.01 0.01)"/><path d="M158.18,54.73c-7.8,2.53-16.2,5.32-24.66,7.92-1,.3-2.25-.48-3.39-.76.36-1.17.39-2.64,1.13-3.46C136.76,52.28,151.76,50.69,158.18,54.73Z" transform="translate(0.01 0.01)"/><path d="M145.71,247.82c27.46-3,54.76-9.07,81-6.32Z" transform="translate(0.01 0.01)"/><path d="M406.2,237l-71.13,4-.06-1.22c23.73-1.53,47.38-4.68,71.23-4Z" transform="translate(0.01 0.01)"/><path d="M649.23,1088.68l-70.13,2.6v-1.19l69.93-3.41Z" transform="translate(0.01 0.01)"/><path d="M667.61,963.77l-79.2-14.84.21-1.13,79.46,14.72Z" transform="translate(0.01 0.01)"/><path d="M650,851.73c3.92-13.79,13.2-22.26,25-28.75Z" transform="translate(0.01 0.01)"/><path d="M683.09,843.76c4.57,1.23,5,3.31,3.91,6.67-1.92,6.09-4.8,12.38,1.24,18.49l-5.15,1.84Z" transform="translate(0.01 0.01)"/><path d="M560.88,1115.38c-6.53,1-14-4-15.06-10.51-.83-5.19.74-7.5,6.31-8.44-3.15,3.83-4.67,7.82-1,11.41C554.17,1110.75,557.76,1113,560.88,1115.38Z" transform="translate(0.01 0.01)"/><path d="M1161,1299.49l7.47-1.34-.18-1.24a6.45,6.45,0,0,1-1.74,0c-2.18-.64-4.34-1.36-6.5-2.05.59-1,1.25-3,1.77-3,2.56.18,5.31.47,7.48,1.65.67.37.44,4.25-.6,5.51C1166.65,1301.5,1163.76,1301.61,1161,1299.49Z" transform="translate(0.01 0.01)"/><path d="M394.76,245.28,357.84,247v-.73l36.81-2.55Z" transform="translate(0.01 0.01)"/><path d="M1156.16,1300.06l-9.82-2.48,8.95-7.49Z" transform="translate(0.01 0.01)"/><path d="M662.76,856c-6.29,4.69-12.17,4.77-14.53,0Z" transform="translate(0.01 0.01)"/><path d="M693.55,749l9.08,1.19L694.46,756Z" transform="translate(0.01 0.01)"/><path d="M618.23,1105.84c3.82-2.18,7.55-4.93,13.54-1.47l-13.22,2.83Z" transform="translate(0.01 0.01)"/><path d="M115.66,56.38l7.78-.59.87,1.54c-1.41,1.12-2.74,3-4.25,3.16s-3.25-1.4-4.89-2.2Z" transform="translate(0.01 0.01)"/><path class="cls-1" d="M655.76,266.28c3.43,7.58,6.87,14.69,9.82,22,.8,2,.12,4.55.12,6.85l-1.84.76-2.7-4.51-1.16.54c1.14,4.56,5.66,8.44,2.7,13.85-2.44,4.46-4,9.41-5.86,14l7-.79c-1,3.2-1.9,5.68-2.65,8.2s-1.39,5.09-2.46,9l4.55-6.38,1.65.75-11.73,28.13c6-8.57,11.44-17.34,13.72-27.85,1.08-5,3.71-9.62,5.64-14.42l2,.63-5.91,20.87,1.88,1.09,11.89-13,2,5.26,2.51-4.72c.67,1.22,1.17,2.1,1.64,3,1.08,2,1.87,5.6,3.28,5.87,6.17,1.17,5.63,6.57,7.59,10.4s4,7.63,6.35,12.11c-11.62-2-18.47,5.18-25.62,11.83-8.53,8-17.13,15.82-25.65,23.78a104.12,104.12,0,0,0-7.36,7.46c-5.26,6-5.2,6.07-15.66,7.52l19.44-28.36c-1.94.66-2.72.72-3.23,1.12-10.22,8-20.37,16.12-30.67,24-1.14.88-3.48,1.46-4.61.89-12.79-6.43-26.47-9.92-40.39-12.75-.61-.12-1.2-.42-3.29-1.17l7.26-.83v-1l-20.75-1.13-.1-.54,3.21-.9c-18.22,1.55-33.92-4.45-48.12-16.16l5.31.56c-2.38-6.26-8.32-10.3-13.51-14.56-4-3.26-5.51-6.61-5.33-11.4a63.16,63.16,0,0,0-.64-7.51l12.81,15.47c-1.18-3.69-2.14-6.17-2.7-8.74-.16-.75.78-1.75,1.45-3.1a17.67,17.67,0,0,1-2.37-4.44c-.57-2.14-.35-4.5-.51-7.47,2.1,1.16,3.49,2,4.92,2.71s3,1.41,3.74,2.69c-2.63-3.21-6.12-6-7.65-9.72s-1-8-1.5-13.76c2.82,1.81,4.52,2.55,5.76,3.77,4.47,4.38,16.94,5.47,21.47,1.11,2.06-2,2.72-5.41,4.64-9.5l2,7.24c8.15-.19,7.56,8.2,11.42,12.92l-4.27-19,1.73-.64a91.88,91.88,0,0,0,4,9.13,20.22,20.22,0,0,0,4.33,4.71,24,24,0,0,0,3.76,2.26l-6.4,4.86c9.79,3.54,16-2.41,22.73-6.53.06,14.2.11,14.38,3.42,17.4l14.38-39.9,7.9.85-3.57,5.14,7.29-3.15,1.35,2.65A15,15,0,0,0,609,304c2.25-2.09,4.38-4.31,6.54-4.79,3.81,1.87,7.84,3.42,11.33,5.77,1.62,1.09,2.18,3.75,3,5.31L644.19,307c2.09-1.76,3.9-3.15,5.52-4.72.6-.59,1.3-2,1-2.38a18.89,18.89,0,0,0-3.07-3l4.74-15.51,4.59-1.86-.1-1L641,277.38l3.12-2.35-.13-1.24-11.67,1.29,6.83-6.53L646,254c.68,4.25.58,7.83,1.89,10.78C649.88,269.17,653.48,267.68,655.76,266.28Zm-76.08,123c.72.31,1.45.92,2.14.88,8.9-.54,17.85-.8,26.67-2,2.19-.31,3.92-3.86,5.85-5.92l-1-1.12C603.48,389.57,591,386.71,579.68,389.28Zm-3.77,0,.26-2.15-10.56-1.57,6.7-1.38-.08-.56H559.57l-.33,1.71ZM594,379c-2.2-1.21-3.53-2.43-4.06-2.15a35.79,35.79,0,0,0-5,3.76c1,.8,2.38,2.46,3.1,2.23,1.73-.53,3.26-2,6-3.84Zm22.42-69.15-.46.88,10.43,2.58.34-3.65c-1.31.06-2.62.16-3.94.18-2.12,0-4.24,0-6.36,0Z" transform="translate(0.01 0.01)"/><path class="cls-1" d="M659.55,134.47c4.59,6.12,9.37,12.12,13.68,18.43a25.16,25.16,0,0,1,3.85,10.47l-25.62-32.72c-.92,2.78.15,8.79,4.06,14.58,5,7.43,10.62,14.47,16,21.67,2.25,3,4.53,6,6.91,9.17l3.77-6.18C686.43,183,690.44,196,685,210.05a45.42,45.42,0,0,0,4-5.34c5.33-9.86,4.75-19.79-.15-29.61-1.32-2.64-3.07-5.06-4.38-7.71a6.86,6.86,0,0,1-.56-3.78c.73-5.17,1.65-10.31,2.58-15.9,3.14,3.14,7.21,5.47,8.77,10.76a108.89,108.89,0,0,0,6.83,16.61,17.48,17.48,0,0,1-.31,17.08,5.83,5.83,0,0,0-.81,3.92l5.77-9.1,2.4,14.08,1,.13c.39-4.31,1.26-8.64,1.07-12.92a65.74,65.74,0,0,0-10.69-33.87,16.22,16.22,0,0,0-6-5.44c-5.88-2.92-2.89-6.89-2.12-11.15,11.22,15.61,25.72,34.93,23.59,60.84l1.89-7.43,1.31.18c-.39,3.29-.69,6.59-1.18,9.86s-1.16,6.52-1.91,10.61l-13.88-8.67c-1,5,1,8.74,4.5,10.8,3.28,1.91,7.44,2.3,11.88,3.55l-3.86,9.06-3.53-5.18v6.21l-1.39.71-3.44-4.87c-6.74-.26-7.75-6.84-11.48-11.07-3.34,4-3.12,8.14-1.57,12.27,4.38,11.67,6.24,23.25,1.35,35.41-2.27,5.65-2.87,12-4.65,17.84-1.14,3.77-3.06,7.31-4.63,11l-1.45-.61c2.18-8.39,4-16.88,6.64-25.13,2.89-9.15,3.65-18.25,1.35-27.55a17.36,17.36,0,0,0-3-6l2.14,24.17-1.2.25-1.74-6.27h-.91l-6.49,24.54-1.32-.09c.38-3.88,0-8,1.3-11.59A36.36,36.36,0,0,0,682.35,241c-.77-4.1-.14-8.46-.14-12.71l-1.24-.1-.65,7.11-2.56-15.52c-6.86,5.69-7.84,13.36-10.37,20.37-1.17-10.47,1-21.14-2.89-32.18l-4.9,5.38-1.35-.72a36.21,36.21,0,0,1,1.07-3.73c1.8-4.48,3.69-8.92,5.51-13.39a5.79,5.79,0,0,0,.71-2.38c-.46-6.15.91-12.83-.66-18.36-3.43-12.09-8.43-23.82-13.76-35.25-4.43-9.51-11.79-9.64-18.09-.91-4.33-3.46-8.4-3.28-13.55-.61-2.86,1.48-8,1.86-11.34-1.62l3.62-10.78-1.42-.81c-8.57,6.38-14.56,15.26-21.72,24.06-4.2-6.09-8.38-11.78-12-17.78-.67-1.1.45-3.71,1.36-5.27,4.77-8.13,11.11-15.54,10.72-26.08,2.42,0,4.21-.1,6,0,8.76.55,8.71.85,7.6,9.35-.33,2.55.78,6.31,2.63,7.85s5.64,1.77,8.17,1.08c2.82-.77,4.58-1.15,6.94,1.12,4.87,4.7,10,1,14.94-.31,1.48-.41,2.88-1.14,4.92-.8l-4.32,5.36c6.74-.62,12.48-1.06,16.93,3.29Z" transform="translate(0.01 0.01)"/><path class="cls-1" d="M553.43,601.4l-56.13,7.36c-.78-2.91-1-5.25,2.86-7.63,2.44-1.5,4.23-5.63,4.57-8.76,2.62-24.48,4.83-49,7.15-73.5.15-1.59.23-3.18.36-5,15.57,3,30.57,5.75,45.53,8.77a4.75,4.75,0,0,1,2.86,3.16c1.19,6,1,12.51,3.19,18.14,4.32,11.34-.2,21.27-3.3,31.54-1.54,5.1-3.46,10.08-4.93,15.19C554.65,594,554.22,597.38,553.43,601.4Z" transform="translate(0.01 0.01)"/><path class="cls-1" d="M656.52,541c.72,17.2-1.38,34.93,3.45,52.86l-66.77,2.48c.22-4.94.58-10,.64-15.07.09-8.1,1.21-16.39-4.07-23.65-.71-1-.47-2.94-.12-4.3,1.84-7.09,4-14.11,5.76-21.21.73-2.94,2.08-3.59,5-3.13,10.82,1.73,21.62,2.9,32.07,7C639.88,538.85,648.26,539.36,656.52,541Z" transform="translate(0.01 0.01)"/><path class="cls-1" d="M568.76,79.11,532.84,83l-.61,1.18,21.09,8.72-11.8,1.91.07,1.23,6.68.64c-9,4.64-14.69,12.4-24.42,13.14a9.48,9.48,0,0,0-4.56,1.94c-13.5,10-27.06,19.84-40.32,30.1-4.11,3.18-7.36,7.47-10.58,11.73,12.42-12.18,25.67-23.18,41.26-31.47-3.41,6.83-8.4,13.19-6.52,21.34.79,3.44,2.63,6.64,4.09,10.17l5.42-2.67c-4,7.55-9,12.51-15.72,15.63-2.74,1.28-4.44.21-3.87-3.3.94-5.75-1.53-10.44-5.92-11.68-4.58-1.29-8.66.47-10.76,6.49-6.2,17.73-12,35.61-17.54,53.55-2.29,7.37-3.6,15-6.51,22.48.12-2.19-.15-4.48.41-6.56,3.37-12.54,7-25,10.41-37.53,2.22-8.19,4.21-16.45,6.25-24.68a16.28,16.28,0,0,0,.21-2.79l-1.44-.89-17.34,22.95c.52-4.14.73-7.44,1.39-10.64a41.9,41.9,0,0,1,2.86-10c1.5-3.08,4-5.52,5.42-9l-2.83,1.22,4.4-11.66-.69-.37-2.61,3.39-.73-.37,5.68-15.14-.73-.33L456.67,146c-.29-16.7,12.07-30.54,30.5-38.51-8.31,9.34-16.6,18.68-19.14,30.72,4.32-5.81,8.72-12.14,13.62-18a9.42,9.42,0,0,1,6.29-2.82c17-.58,30.73-9.08,44.33-17.93.42-.28.52-1.06.77-1.6l-.76-1.38L489.2,113.28c2.2-1.94,3.78-3.38,5.42-4.76a64.34,64.34,0,0,1,5.44-4.39C509.18,98,519.33,93,527.26,85.64,536,77.49,547,76,557,71.57c3-1.35,5.54-1.64,7.2,2.26C565,75.75,567,77.12,568.76,79.11Z" transform="translate(0.01 0.01)"/><path class="cls-1" d="M503,196.28l2.66,2c2.9-4.57,7.44-7.78,7.39-14.39,0-4.32,2.61-8.66,4.32-13.79-3.2,3.86-5.78,7.25-8.66,10.34-1.8,1.84-3.91,3.84-6.91,1.62-.55-.4-1.85.43-2.71.26-1.94-.38-4.94-.52-5.47-1.69a7.11,7.11,0,0,1,.66-6.24c2.77-3.45,6.59-6,9.5-9.41,10.7-12.36,22.54-23.17,38.11-29.07,1.79-.68,3.93-.46,5.9-.66-.77,1.9-1.08,4.25-2.4,5.62-5.42,5.62-11.11,11-16.81,16.34-.93.87-2.36,1.22-3.55,1.81l1.22,1.23h8.42c.57-.61,1.65-1.83,2.79-3,2.44-2.46,5.25-3.77,8.48-1.67s5.38,5.12,4.25,9.28c-1.28,4.73-2.41,9.56-4.33,14-2,4.64-5.38,7.8-10.57,9.8-5.39,2.08-10,6.1-15,9.3-2.65,1.71-5.09,3.82-7.91,5.16C505.85,206.28,502.68,203.92,503,196.28Z" transform="translate(0.01 0.01)"/><path class="cls-1" d="M307.7,479.28c2.23-4.51,3.71-7.81,5.51-10.93a5.44,5.44,0,0,1,3-2.31c16.59-4.26,33.18-8.52,49.84-12.48,4.83-1.15,9.87-1.47,14.84-2,7.22-.74,14.45-1.31,22.42-2l-14.41,8.72.75,1.4,16.73-8.82c-6.84,6.09-12.62,13.73-23.73,15.16l4.56-3.81-.33-.83L314,492l-3-8.42L373,464l-.12-.55Z" transform="translate(0.01 0.01)"/><path class="cls-1" d="M457.28,615.63l-13.77,2.71.24.94,4,1.43c-.56,1.49-.83,3.19-1.74,4.42-3.38,4.57-7.78,8-13.55,8.49a9.49,9.49,0,0,1-7-2.53c-1.35-1.5-1-4.57-1.33-7l1.69-.67,3.38,6.31,2.09-1.39c-2.25-7.93,5-11.67,7.21-17.6a18.41,18.41,0,0,0,1.55-4.48c3.35-34.8,6.42-69.63,10.06-104.4.94-9,3.6-17.71,5.46-26.49,5,.62,6,2.47,5.58,6-2.37,17.46-5,34.91-6.69,52.44-1.77,18.37-2.49,36.85-3.84,55.26a91,91,0,0,1-2.11,13.16c-1.2,5.35.94,9.62,6.17,11.42l2.57.89Zm-10.16-17.42-1.35-.36c-.59,4.88-5.27,9-3,14.43l1.76.33Z" transform="translate(0.01 0.01)"/><path class="cls-1" d="M623.9,1134.35c17.21-11.91,34.06-24,53.94-31.06,5.27-1.86,9.84-5.7,15-8.82l2.09,24.62C671.09,1123.92,648.24,1132.41,623.9,1134.35Z" transform="translate(0.01 0.01)"/><path class="cls-1" d="M516.15,267.08c22.07-7.84,32.94-26.21,42.39-45.93l1.07.78-5.41,11.12,1.12.66,26.74-39.36-1.18-1c-1.31,1.63-2.72,3.19-3.91,4.91s-2.17,3.63-3.46,5.81c-1.25-9.45,2.93-18.69,14.49-32.47l3.85,5.17L596,167l.83.26-8.3,38-2-.24v-9.23l-1-.37c-2.06,3.2-4.09,6.42-6.19,9.6-8.16,12.33-15.43,25.4-24.8,36.72-6.81,8.23-11.53,16.41-12.68,27V255.28C534.2,261,526.29,266.54,516.15,267.08Z" transform="translate(0.01 0.01)"/><path class="cls-1" d="M535.14,216.88l12.21-34.24-6.68,9.08c9.14-17.46,20.88-32.67,38-44.33a89.06,89.06,0,0,1,3,9.46,4.61,4.61,0,0,1-1.36,3.9c-7.87,5.32-11.76,13.83-17,21.18-1.11,1.55-.16,4.58-.16,7.47l-3.63-2.19L536.65,217.8Z" transform="translate(0.01 0.01)"/><path class="cls-1" d="M789.25,910.94c5,4.17,6.48-.05,9.17-2.31l-1.27,4.86,9.6,4.29,24.38-69,1,.18c-.27,1.46-.43,2.95-.83,4.37-5.35,19.06-10.63,38.14-16.17,57.14-2.5,8.56-5.27,17.07-8.43,25.41-2.5,6.61-7.08,9.73-11.23,8.7s-6.3-5.56-6.26-12.36S789.25,918.71,789.25,910.94Zm7.62,23.55,4.12-6.38-6.65-2.69Z" transform="translate(0.01 0.01)"/><path class="cls-1" d="M871.07,641.09a30.71,30.71,0,0,0-25.24-6.38c-10.3,1.86-14.14,10.55-17.63,19.33A9.44,9.44,0,0,1,830,643.72c7.79-8.89,15.54-17.83,23.13-26.89,2.75-3.29,5-7,7.63-10.64,7,.3,10.16,4,10.25,12.43C871.13,626.16,871.07,633.7,871.07,641.09Z" transform="translate(0.01 0.01)"/><path class="cls-1" d="M659.55,134.47l-7.13-7.78-3.81-4,18.84-14,13.81,11.9-.4,1.11-6.25-.83c3.82,2.27,9.64,4,12.48,7.91s2.58,9.87,3.69,14.94l-2.12,1.11c-2.07-2.3-4.11-4.62-6.22-6.88-2.9-3.11-5.48-6.71-8.9-9.1-3.73-2.61-6.29-1-5.85,3.5s1.87,8.61,2.84,12.83Z" transform="translate(0.01 0.01)"/><path class="cls-1" d="M214.48,911.54c-1.87-10.7-3.75-21.27-5.55-31.86a17.64,17.64,0,0,1-.29-5.41q6-40.52,12.15-81a7.83,7.83,0,0,1,1.78-4c0,2.71.16,5.43,0,8.13q-2.19,31.64-4.5,63.28a27.92,27.92,0,0,1-1,6.37,28.55,28.55,0,0,0,1.61,22.31c.44.87,1.09,2,.89,2.78C217.93,898.81,216.1,905.45,214.48,911.54Z" transform="translate(0.01 0.01)"/><path class="cls-1" d="M517.1,826.28c-2.25.76-4.45,2-6.75,2.19-10.78,1-17.47,6.22-20.39,16.68-1.19,4.25-1.88,8.64-3.19,13.27-4.48-20.87-14.79-33.66-38.24-27.73L446.3,821c7.2.4,9.39-4.47,10.8-10.52,1.08,5.16,2.36,9.84,7.81,12.41l-14.75,1.31c4,4.2,9,5,14,4.63,16.41-1.18,32.81-2.65,49.21-4,1.12-.09,2.26,0,3.39,0Z" transform="translate(0.01 0.01)"/><path class="cls-1" d="M840.22,916.71c6.38.11,9.63,5.86,7,11.32q-4.61,9.56-9.69,18.89c-1.84,3.39-4.93,5-8.8,3.93s-6.21-3.79-5.65-7.74a39.94,39.94,0,0,1,13.35-24.87C837.57,917.21,839.42,917,840.22,916.71Z" transform="translate(0.01 0.01)"/><path class="cls-1" d="M460.11,727.13C512.95,717,565.89,710.79,619.6,713.68c-7.65.55-15.3,1.35-23,1.62A861.72,861.72,0,0,0,475,728C470.14,728.93,465,729.5,460.11,727.13Z" transform="translate(0.01 0.01)"/><path class="cls-1" d="M439.45,380.5l-5.81-4.85c7.42-6.87,14.54-13.33,21.49-20a45.28,45.28,0,0,0,6-7.25c1.72-2.52,1.89-5.08-.54-7.69-.92-1-.58-3.17-.87-5.24l16.65,13.58c0-3,.15-5.46,0-7.85s-1.66-5.06,3.23-5.65v18.2c-9.24-2.55-16.92-.48-22.65,8-2,3-5.27,5-7.77,7.7C446,372.94,442.94,376.55,439.45,380.5Z" transform="translate(0.01 0.01)"/><path class="cls-1" d="M450.11,747.75v11.19l119.65-11.43c-6.85-7.23-10.56-14-6-22.28l1.6-.34c1,4.74,2.26,9.44,3,14.22.85,5.57,3.42,7.67,9,6.91A110.21,110.21,0,0,1,592,744.89c-48,9.81-97,10.53-144.69,16.26L449,747.67Z" transform="translate(0.01 0.01)"/><path class="cls-1" d="M510.69,792.64c-1.91,0-4.14.64-5.69-.12-4.67-2.27-8.6-1.63-12.37,1.71-2.31,2-5.09,4.37-7.58.85s1.07-5,3.18-7.09a40,40,0,0,0,6.82-9.23c-3.79-.33-6.84-.46-7.65,4.15-.28,1.58-2.66,3.26-4.44,3.93-1,.36-3.53-1-3.9-2.1a8.43,8.43,0,0,1,.18-5.94c2.09-4.17,12-8.35,16.6-7.4,4,.83,5.92,3.51,5.57,7.58a28.14,28.14,0,0,1-1.15,4.61Z" transform="translate(0.01 0.01)"/><path class="cls-1" d="M281.25,940.69c-3.76,1.61-7.61,3-11.26,4.85a150.86,150.86,0,0,0-50.83,40.28c-2.59,3.19-4.43,7-6.54,10.57a8,8,0,0,0-.91,2.77,35,35,0,0,1-.32,3.6,3.06,3.06,0,0,1-2.14.23c-.7-1.39-1.89-3.23-1.46-4.37,1.63-4.31,3.18-8.9,5.91-12.52,16.11-21.38,36.46-37.16,62.12-45.61a52.15,52.15,0,0,1,5.13-1.15Z" transform="translate(0.01 0.01)"/><path class="cls-1" d="M884.82,693.28l-1.5-2.89-.54.1,4,20c-.8-.89-1.18-1.12-1.27-1.43-3.71-14.13-8.31-28-8.56-42.92-.11-6.73-1.89-13.42-2.36-20.17-.35-5.13.17-10.33.31-15.5l2.12-.24c1.09,3,2.82,6,3.18,9.13,2,17.86,3.69,35.77,5.48,53.65Z" transform="translate(0.01 0.01)"/><path class="cls-1" d="M605.06,770.66c-.51,2.32-.52,4.51-1.5,6.12-.87,1.43-3,3.24-4.21,3-1.4-.24-3.14-2.41-3.47-4a12.34,12.34,0,0,1,.85-6.32c1.11-3.09,1.59-5.8-.07-9-1.77-3.44,0-5.55,3.78-5,3.33.48,6.66,1,10,1.7,4.33.91,9.09,12.57,6.5,16.22a4.13,4.13,0,0,1-3.63,1.35A70.57,70.57,0,0,1,605.06,770.66Z" transform="translate(0.01 0.01)"/><path class="cls-1" d="M864.61,943.43a72.33,72.33,0,0,1-3.38,9.87c-1.9,4-6.75,5.61-10.11,3.84-3.94-2.08-4.94-5.52-3.92-9.71.59-2.4,1.28-4.79,1.67-7.23.92-5.67,4.11-9,8.46-8.52S864.69,936.21,864.61,943.43Z" transform="translate(0.01 0.01)"/><path class="cls-1" d="M725.3,605.56c-2.39,1.39-4.22,2.38-6,3.51a19.4,19.4,0,0,0-4.08,3.06c-3,3.42-7.85,3.37-9.39-.7-1.86-4.93-4.19-9.13-9.1-11.55-.8-.39-1.26-1.45-2.47-2.91,2.73-.56,5-.69,7-1.59.84-.39,1-2.36,1.4-3.62-7-1.81-2.08-5.54-1.74-8.53l1.27-.44c1.46,3.93,2.6,8,4.49,11.74a13.81,13.81,0,0,0,5.31,5.7C715.89,602.33,720.22,603.59,725.3,605.56Z" transform="translate(0.01 0.01)"/><path class="cls-1" d="M278.85,966c-17.62,9.68-33.85,21-45,38.44L252.76,994l.59.76c-4.18,3-8.46,5.79-12.51,8.93-3.89,3-7.5,6.4-11.32,9.5a26.4,26.4,0,0,1-4,2.24c-.1-1.66-.86-3.69-.17-4.91,2.85-5,5.71-10.18,9.35-14.65C246.35,981.66,261.76,972.7,278.85,966Z" transform="translate(0.01 0.01)"/><path class="cls-1" d="M647.64,754.47h-6.88l.07-1.93c1.66.12,3.59-.24,4.89.5,1,.59,2.09,2.75,1.78,3.82-1.1,3.79-2.79,7.4-4.79,12.44,2.55-.47,5.08-.22,6.19-1.35s.44-3.57.61-5.44a28.2,28.2,0,0,1,.79-5.84c.13-.42,2.54-.71,3.4-.2,1.55.92,3.45,2.14,1.44,4.61-.44.54.44,2.12.67,3.23,1.57,7.52-5.54,15.13-12.56,12.89-2.79-.89-6.14-3.51-6.93-6.07-.63-2,2-5.32,3.66-7.7C642.07,760.49,644.65,757.92,647.64,754.47Z" transform="translate(0.01 0.01)"/><path class="cls-1" d="M515.45,779.53c.81-2.78.25-8.25,6.84-5,.51.25,2-1.42,3-2.18,1.54-1.14,3-2.85,4.68-3.24s4.38,0,5.36,1.12.5,3.66.65,5.54l3.68,3.38c-1.56,1.08-3,2.69-4.72,3.13a23.37,23.37,0,0,1-7.41.31c-2.5-.2-4.24-.16-6.43,2-1.72,1.67-5.58,1.5-8.47,1.4-1,0-1.9-2.32-2.85-3.57Z" transform="translate(0.01 0.01)"/><path class="cls-1" d="M736.19,704.53c.24,1.55.54,3.09.7,4.64,1.5,14.56,3,29.12,4.42,43.7a92,92,0,0,1,.26,13.43c-.06,1.12-2,2.14-3,3.21-.68-1.19-1.86-2.35-2-3.59q-1.82-26.16-3.3-52.33c-.17-3,.58-6.1.91-9.15Z" transform="translate(0.01 0.01)"/><path class="cls-1" d="M488.5,739.41c3.51.72,7,1.4,10.52,2.17,2.91.64,4.94.66,5.7-3.25.79-4.1,4.38-5.82,8.28-5.78A47.38,47.38,0,0,1,523.82,734c1.44.36,2.51,2.17,3.75,3.32-1.43,1.4-2.65,3.5-4.34,4-1.4.41-3.47-.86-5-1.76-1-.58-1.61-1.84-2.39-2.79-.74,1.15-1.88,2.21-2.14,3.46-.76,3.67-2.69,5.54-6.53,5.34-5.67-.3-11.37-.32-17-1-1-.12-1.84-2.57-2.76-3.95Z" transform="translate(0.01 0.01)"/><path class="cls-1" d="M621,69.45c4.08,1.63,8.34,3.2,12.46,5.06a4.73,4.73,0,0,1,2.26,2.77c.82,3,1.29,6.16,1.89,9.22-10.74,5.19-12.53,3.88-17.65-1.78a4.34,4.34,0,0,1-1.08-3.07C619.51,77.33,620.39,73,621,69.45Z" transform="translate(0.01 0.01)"/><path class="cls-1" d="M584.12,770l3.4,8.63,6-.37.45,1c-3.54,1.58-7,3.39-10.64,4.67-2.63.92-6.27,1.75-7-2-.3-1.6,2.57-3.81,4.66-5.49.15-3.07-.92-5.75-5.48-5.18a3.76,3.76,0,0,1-3.16-1.73,5.12,5.12,0,0,1,.8-4c1.33-1.9,2.9-4.48,4.8-4.92,2.57-.59,6.86-.35,8,1.24s-.35,5.42-.7,8.26Z" transform="translate(0.01 0.01)"/><path class="cls-1" d="M685,765.72c-1,1.8-1.41,3.13-2.27,4.08-2.62,2.89-5.93,3.39-8.92,1-3.39-2.69-2.49-6.23-.53-9.45,1.52-2.48,3.28-4.81,4.42-7.88-4.46,2.3-8.13,2.53-10.49-1.89-.67-1.27.18-3.35.33-5.05,1.29.32,2.59.6,3.87,1,.42.12,1,.74,1.11.67,2.36-2.29,4.9-2,6.12.7A48.16,48.16,0,0,1,682,760.5C682.42,762.74,680.26,765.71,685,765.72Z" transform="translate(0.01 0.01)"/><path class="cls-1" d="M607.25,181.52,609,177l1.38.42-8.5,27.08-.58-.15c1-10.68,2-21.36,3-32,.26-2.62.44-4.12-2.89-5.57-6.65-2.9-6.78-8.55-.33-17.42Z" transform="translate(0.01 0.01)"/><path class="cls-1" d="M882.2,739.28c4.51,22.19,15.39,42.57,15.45,67-1.64-3.61-3.21-5.92-3.75-8.46q-6-28.29-11.78-56.66A7.63,7.63,0,0,1,882.2,739.28Z" transform="translate(0.01 0.01)"/><path class="cls-1" d="M696.2,301.95v10.22c0,5.62-11.3,12.74-16.27,10.06-1-.56-2-3.68-1.59-4.1C683.92,312.77,689.76,307.69,696.2,301.95Z" transform="translate(0.01 0.01)"/><path class="cls-1" d="M588.76,82.75c4.28-.44,7.26-.67,4.31-4.38,5,.75,9.42,1.3,13.76,2.11,1.26.24,3.09,1,3.39,1.92A6.33,6.33,0,0,1,609.7,87c-2,3.4-4.42,6.54-6.85,10C601.9,90.18,596.25,86.67,588.76,82.75Z" transform="translate(0.01 0.01)"/><path class="cls-1" d="M304.39,1038.76c-5,4-9.25,4.19-12.62,1.08-4.06-3.75-3.56-8.66,1.91-16.39Z" transform="translate(0.01 0.01)"/><path class="cls-1" d="M773.76,585.9l-6.26-10.62L792,569.42Z" transform="translate(0.01 0.01)"/><path class="cls-1" d="M879.76,711.86,891,746l-1,.48c-1.23-2.35-1.87-5.79-3.81-6.83-5.45-2.93-5.42-7.89-6-12.72s-1-9.87-1.51-14.81Z" transform="translate(0.01 0.01)"/><path class="cls-1" d="M307.69,1046.89c1.12,5.09,2.36,10.17,3.27,15.3.2,1.11-.52,3.15-1.33,3.47-1.25.49-3.82.38-4.27-.39-1.4-2.42-3-5.35-2.79-7.91.36-3.6,2.33-7,3.61-10.55Z" transform="translate(0.01 0.01)"/><path class="cls-1" d="M600.31,171.28A105.32,105.32,0,0,1,596,209.5l-1.5-.16L598.93,171Z" transform="translate(0.01 0.01)"/><path class="cls-1" d="M552.76,771.49a58.37,58.37,0,0,1-.93,7.87c-.87,3.48-3.75,4.12-6.4,1.7-3.32-3-2.69-10.49,1.45-12,1.5-.53,4,1.6,6,2.51Z" transform="translate(0.01 0.01)"/><path class="cls-1" d="M642.58,96c4.39-4.31,4.79-5.79,5.12-18.44,6.66,2.12,7.8,7.45,7.82,13.5l-4-6.39-1.82.11c-.38,3.06-1.58,6.3-1,9.14.89,4-1.08,5.31-4,7Z" transform="translate(0.01 0.01)"/><path class="cls-1" d="M533.33,730l3.39,5.45L541.1,734c.24,1.09.89,2.25.61,3.12a7.29,7.29,0,0,1-2.33,3.59c-.84.61-2.37.2-3.57.4-1.6.26-4.33,1.33-4.57.91a9.55,9.55,0,0,1-1.48-5.77C530.09,734.35,531.76,732.65,533.33,730Z" transform="translate(0.01 0.01)"/><path class="cls-1" d="M642.88,118.28l17.25-18.07-1.15-2,4.49,6.19-22.34,12.15Z" transform="translate(0.01 0.01)"/><path class="cls-1" d="M566.67,799.7,506,807.1l-.14-1.19,60.69-7.45Z" transform="translate(0.01 0.01)"/><path class="cls-1" d="M675.25,584.52l11.27-7.8,4.92,7.73-15.2,2Z" transform="translate(0.01 0.01)"/><path class="cls-1" d="M628.23,701.79l52-9.14.2,1.14-52.13,9.39Z" transform="translate(0.01 0.01)"/><path class="cls-1" d="M268.28,983.54a13.16,13.16,0,0,1,13.36,10.67C275.59,992.37,269.17,991.85,268.28,983.54Z" transform="translate(0.01 0.01)"/><path class="cls-1" d="M717.33,236.75c4.88,13.08-2.75,23.62-9,34.2,1.17-2.81,2.45-5.58,3.5-8.43,1.34-3.66,3.09-7.3,3.57-11.09.62-4.87.15-9.89.15-14.84Z" transform="translate(0.01 0.01)"/><path class="cls-1" d="M624.85,598.54l-31.82,4-.8-1.25c.93-.73,1.82-2,2.8-2.09,9.89-.75,19.79-1.3,29.69-1.91Z" transform="translate(0.01 0.01)"/><path class="cls-1" d="M638.18,300.54c.61-3.72,1.53-7.1,1.66-10.51.2-5.22,1.61-6.41,6.66-4.64l1.83-2.77c.31.47.64.78.58.94C646.54,290.05,643.76,296.28,638.18,300.54Z" transform="translate(0.01 0.01)"/><path class="cls-1" d="M484.76,867.09c0,11.19-1.58,21.95-9.1,32.17Z" transform="translate(0.01 0.01)"/><path class="cls-1" d="M462.62,746.19l5.11,4.39c-1.88,1.25-3.89,3.65-5.61,3.46-2.28-.25-4.33-2.52-6.49-3.92Z" transform="translate(0.01 0.01)"/><path class="cls-1" d="M630,753.44c.25,3.23.61,6.46.66,9.7a3.9,3.9,0,0,1-1.54,2.2c-3.07-1.45-3,.9-3.67,2.68-.29.73-1.56,1.08-3.67,2.42l6.33-16.76Z" transform="translate(0.01 0.01)"/><path class="cls-1" d="M552.89,771.62l2.57-2.26c1,2.08,2.78,4.12,2.91,6.26s-1.34,4.41-2.1,6.62c-.8-1.1-2-2.09-2.32-3.31a64.77,64.77,0,0,1-1.15-7.44Z" transform="translate(0.01 0.01)"/><path class="cls-1" d="M693.82,332.76c-1.82-5.87,3.26-6.68,6.37-9.67l2.87,4.83C699.15,328.64,699,335.28,693.82,332.76Z" transform="translate(0.01 0.01)"/><path class="cls-1" d="M277.91,595.47l-4.36-8.19,9.15-7.09Z" transform="translate(0.01 0.01)"/><path class="cls-1" d="M300.67,534.58l2.29,9.09-10.12-.85a43.2,43.2,0,0,1,3.28-4.5A51.12,51.12,0,0,1,300.67,534.58Z" transform="translate(0.01 0.01)"/><path class="cls-1" d="M480.54,741.28c2.45,4.55,1.86,5.77-2.32,6-1.34.08-2.64.82-5,1.6l-.52-6.46c1.49.3,3,.93,4.47.8C478.24,743.14,479.24,742.07,480.54,741.28Z" transform="translate(0.01 0.01)"/><path class="cls-1" d="M500.14,337.6,496.37,320c5.06,4.21,5.54,6.12,5.25,17.39Z" transform="translate(0.01 0.01)"/><path class="cls-1" d="M713.07,276.69l4.64-18,1.62.32-3.26,18.4Z" transform="translate(0.01 0.01)"/><path class="cls-1" d="M546.55,733c2.74.74,6.67.06,6.37,4.63-.07,1-2.12,1.92-3.26,2.88L545,734.18Z" transform="translate(0.01 0.01)"/><path class="cls-1" d="M465.89,804.57l22.59,2.62C469,808.61,466.43,808.28,465.89,804.57Z" transform="translate(0.01 0.01)"/><path class="cls-1" d="M634,194.28l-2,2.2-8.71-14.11L631,188Z" transform="translate(0.01 0.01)"/><path class="cls-1" d="M782.45,945.39c-7.71.86-8.73-6.34-13.47-9.17l1.06-1.27Z" transform="translate(0.01 0.01)"/><path class="cls-1" d="M666.76,283.2l-4.59-19.07,1.58-.39,5.06,19Z" transform="translate(0.01 0.01)"/><path class="cls-1" d="M703.37,231.12l-2.69,9.25-3.57-11.3Z" transform="translate(0.01 0.01)"/><path class="cls-1" d="M685.36,1138.28l10.47-5.11C695.9,1137.37,693.76,1138.54,685.36,1138.28Z" transform="translate(0.01 0.01)"/><path d="M456.61,803.13c-2.31-4.85,2-9,1.66-13.64l1.36.14-1.18,13.65Z" transform="translate(0.01 0.01)"/><path d="M474.16,345.45a66.3,66.3,0,0,1-3.32-6.8c-.34-.93.33-2.23.54-3.36,1.11.73,3,1.29,3.17,2.23a44.74,44.74,0,0,1,.51,7.63Z" transform="translate(0.01 0.01)"/><path class="cls-1" d="M429.43,731.35,431,742.27C426,742.28,425.76,741,429.43,731.35Z" transform="translate(0.01 0.01)"/><path class="cls-1" d="M824.5,982.85l-5.58,2.81-.87-9Z" transform="translate(0.01 0.01)"/><path class="cls-1" d="M455.76,152.94,449,162l-1.39-1,6.49-9.07Z" transform="translate(0.01 0.01)"/><path class="cls-1" d="M686.48,294.63l7.61-9.06,1.2,1-7.53,9Z" transform="translate(0.01 0.01)"/><path class="cls-1" d="M725.29,688.49l-16.25.87-.07-.64,16.22-2.17Z" transform="translate(0.01 0.01)"/><path d="M579.68,389.28c11.36-2.57,23.79.3,33.63-8.21l1,1.12c-1.94,2.06-3.67,5.62-5.85,5.92-8.81,1.24-17.76,1.5-26.67,2C581.13,390.19,580.4,389.58,579.68,389.28Z" transform="translate(0.01 0.01)"/><path d="M575.91,389.28l-16.67-4,.33-1.71h12.67l.08.56-6.7,1.38,10.56,1.57Z" transform="translate(0.01 0.01)"/><path d="M594,379c-2.7,1.83-4.2,3.27-6,3.84-.72.23-2-1.43-3.1-2.23a35.79,35.79,0,0,1,5-3.76C590.47,376.53,591.76,377.76,594,379Z" transform="translate(0.01 0.01)"/><path d="M616.42,309.82h6.36c1.31,0,2.62-.12,3.94-.18l-.34,3.65L616,310.71Z" transform="translate(0.01 0.01)"/><path d="M667.46,660l10.11-13c12.52,8.19,29.4,6,41.76,15.6-5.93,10.66-30.89,14.34-42.41,5.7h31.53C701,657.12,681.26,653.57,667.46,660Z" transform="translate(0.01 0.01)"/><path d="M446.66,657.28l43.85-12.58.65,1.45c-.29.46-.47,1.17-.88,1.35q-17.52,7.58-35.18,15.09C451,664.34,449.52,661.28,446.66,657.28Z" transform="translate(0.01 0.01)"/><path d="M651.19,652.78l10.38-6.9,1.16,1.79-10.5,6.71Z" transform="translate(0.01 0.01)"/><path d="M491.69,671.49l9.27-5.66,1.18,2-9.38,5.45Z" transform="translate(0.01 0.01)"/><path d="M447.13,598.21l-2.58,14.39-1.79-.32c-2.29-5.42,2.39-9.54,3-14.43Z" transform="translate(0.01 0.01)"/><path d="M796.88,934.49l-2.53-9.07,6.65,2.69Z" transform="translate(0.01 0.01)"/><path class="cls-1" d="M473.33,662.78l1.23.28,1.22-.47,2.29,3.08,0,.43-.27,1.66.44.36.07.42q-.75,1.31-1.46,17.39l.44.36,0,.43q-.75.72-.77,5.79l1.39,1.55.8-.08q11.23-13.71,10.73-19.4.88-12.39,5.24-13.1l.26,0,2.07-.18,3.13,3q-1.85,1.54-2.74,17.12l-.36.44-.27,1.66.44.36.08.8-.32,1.67,1,2.42-.36.44v.38l0,.1q.25,1.52,3.5,2.93l2.42-1,1.3.7h.38l1.15-.89,1.3.7-.61,2.53q.51,1.16,2.54,1l.07.42q-.86,2.3-4,2.81a5.27,5.27,0,0,1-.75.07q-8.36.67-11-4.07l-3.51-3q-7,9.83-9.38,10.22l-.1,0q-7.88.65-11.13-5.67l-.26-2.87q1.17-30.29,3.64-30.69Z" transform="translate(0.01 0.01)"/><path class="cls-1" d="M507.13,661.7l1.48-.51q1.11-.13,4.31,2.58l1.65-.16,0-.11q-.22-1.31,6.41-6.61l2.53,0,.24-.52.72-.23a1,1,0,0,1,.31-.1q2-.34,7.92,2.91l3.45,4.93-.36.11.47.25q.83,3.42,1.31,6.31,1.14,6.93.18,10.65l-.49.94.52.24.11.36.05.31a18,18,0,0,1-.61,5.17,10.78,10.78,0,0,1,.53,1.91q.56,3.41-2.4,4.44l-.4.17-.4-1.12-.24.52-1.48.51a14.92,14.92,0,0,1-5.3-3v-.05q-.35-2.15,2-5.94a6.29,6.29,0,0,1-.3-1.19,35.53,35.53,0,0,1,.16-8.55q.46-2.13-.66-9l-.28-1.68L527.46,662l-1.28-1.19q-7.5,2.58-10.12,11.64l-.51,10.33.52.24.11.36a19.44,19.44,0,0,0-.65,6.2,2.14,2.14,0,0,0,.14.52q-.77.23-.46,3.42-.9,2.74-2.18,3.16a10.71,10.71,0,0,1-7.59-2.21l-.11-.36q-.25-4.16,2.6-19.63Q506.31,662.27,507.13,661.7Zm28,24,.29.76.35-.17-.28-.71Zm.48-7.9.4,1.12.4-.17-.39-1.07Z" transform="translate(0.01 0.01)"/><path class="cls-1" d="M556.82,646q5-.83,5.49,1.9l2.26,1.25a93.51,93.51,0,0,0-10.29,10.91l-5.39,8.54.06.37.92.66,16.1-7.07,2.86.34.3-.48.42-.07q2.52-.41,7,3.7a12.37,12.37,0,0,1-3.73,11.45q0,1.73-3.73,4.23a11.55,11.55,0,0,1-3.8,3.81,20.33,20.33,0,0,1-9.28,7.19q-7.93,1.3-11.16-4.58l-.88-2.71.36-.44.37-.06q.83,1.48,1.41,1.39l1.68-2.27q2.27,2.32,3.55,2.22,3-.5,13.38-11.47,4.28-3.51,3.83-6.24-3.62.6-20.07,10.15l-2.67.82q-6.41.08-6.76-2.07-2.14-.89-2.39-2.41l5.73-11.41Q553,649.48,556.82,646Z" transform="translate(0.01 0.01)"/><path class="cls-1" d="M600.57,646.73h2l.89-.47q1.73-.28,5.27,3.18l-10,7.35a30.24,30.24,0,0,0-9.4,12.71,23.23,23.23,0,0,0-2.49,9.15l7.75-5,12.61-16.47,3.58.76q2.62-.16,4.53,2.92-.54,9.2,2.68,10.4,4.42,0,6.7-4.5l2.11.36q.48,1.59,1.9,1.36l.22,1.31q-4.06,7.79-5.74,8.06-4,.39-4.1,0l-.26.37-.63.1q-7.74-3.8-8.23-6.74l-1-3.89-.22-1.31-.32.05q-.58.09-7.67,11.08-7.44,6.94-11.22,7.56l-2,.33q-5.15.85-10.17-4.43-1.11-6.77,7.43-20.42Q592.59,650,600.57,646.73Z" transform="translate(0.01 0.01)"/><path class="cls-1" d="M661.88,601.61a13.61,13.61,0,0,0,3.7,3.81l.07.42a17.05,17.05,0,0,0-2.13,11.35q-1.52.25-1,9.93-.84.14-.28,3.55l.07,3.06-.75,1,.28,1.73q1.6,1.52,2.23,5.35-2.46,4.72-1.56,12.18l-.42.07.77,2.08.07.42.22,4q2.75,3.27,3,4.79.87,6.92-1.44,7.3-4.73.78-10.16-5.4l-.07-3.06-.42-2.57-.42.07-8.67,8.92q-4.15,4.62-8,5.25-8.77.47-9.31-2.84-1.08,0-3.49-2.55-1.31-8,7.95-18.94a38,38,0,0,1,9.7-10.87l5.63-3.14,3.89-.64q1.73-.28,2-22.87,1.88-10.88,5.61-11.49l.54.34.42-.07Zm-28.33,66.9.42-.07q8.22-4.15,18.31-20.21l-.24-4.38-.47.08q-7,2.39-17.42,20.07Z" transform="translate(0.01 0.01)"/></svg>