<?xml version="1.0" encoding="utf-8"?>
<!-- Generator: Adobe Illustrator 21.0.2, SVG Export Plug-In . SVG Version: 6.00 Build 0)  -->
<svg version="1.1" id="图层_1" xmlns="http://www.w3.org/2000/svg" xmlns:xlink="http://www.w3.org/1999/xlink" x="0px" y="0px"
	 viewBox="0 0 545.2 420" style="enable-background:new 0 0 545.2 420;" xml:space="preserve">
<style type="text/css">
	.st0{fill:#F40416;}
	.st1{fill:#FAFAFA;}
	.st2{fill:#FAFAF9;}
	.st3{fill:#FDFDFC;}
	.st4{fill:#100D0D;}
	.st5{fill:#0D0C0D;}
	.st6{fill:#F20517;}
	.st7{fill:#111011;}
	.st8{fill:#0F0F10;}
	.st9{fill:#130F11;}
	.st10{fill:#0D0D0C;}
	.st11{fill:#AD4A3E;}
	.st12{fill:#B54437;}
	.st13{fill:#F1C596;}
	.st14{fill:#9A121A;}
	.st15{fill:#392F2D;}
	.st16{fill:#372E2B;}
	.st17{fill:#100F10;}
	.st18{fill:#120F11;}
	.st19{fill:#0D0C0C;}
	.st20{fill:#0F0E0D;}
	.st21{fill:#140A0A;}
	.st22{fill:#121011;}
	.st23{fill:#121013;}
	.st24{fill:#CD3332;}
	.st25{fill:#101012;}
	.st26{fill:#0B0B0C;}
	.st27{fill:#0F0D0E;}
	.st28{fill:#1F1E1D;}
	.st29{fill:#171414;}
	.st30{fill:#FEFEFE;}
	.st31{fill:#FF0000;}
	.st32{fill:#100F11;}
	.st33{fill:#040404;}
	.st34{fill:#161515;}
	.st35{fill:#161214;}
	.st36{fill:#EDEBEB;}
	.st37{fill:#191717;}
	.st38{fill:#EFEFEF;}
	.st39{fill:#141414;}
	.st40{fill:#0B090A;}
	.st41{fill:#141111;}
	.st42{fill:#F5F5F5;}
	.st43{fill:#F6F5F6;}
	.st44{fill:#121012;}
	.st45{fill:#F6F7F6;}
	.st46{fill:#1A1819;}
	.st47{fill:#FCFCFC;}
	.st48{fill:#F4F4F3;}
	.st49{fill:#0D0B0B;}
	.st50{fill:#FDFDFD;}
	.st51{fill:#0E0B0C;}
	.st52{fill:#F6F6F6;}
	.st53{fill:#0F0E0E;}
	.st54{fill:#0E0D0C;}
	.st55{fill:#F4F4F2;}
	.st56{fill:#0C0B0C;}
	.st57{fill:#F7F6F3;}
	.st58{fill:#F1F0F0;}
	.st59{fill:#F3F3F2;}
	.st60{fill:#D4D3D5;}
	.st61{fill:#111112;}
	.st62{fill:#0D0B06;}
	.st63{fill:#AD453D;}
	.st64{fill:#8A453D;}
	.st65{fill:#EAE8EA;}
	.st66{fill:#C6C4C5;}
	.st67{fill:#B6B6B6;}
	.st68{fill:#BABABA;}
	.st69{fill:#C7C7C8;}
	.st70{fill:#1B1211;}
	.st71{fill:#C7C6C7;}
	.st72{fill:#DFDFE1;}
	.st73{fill:#CACACA;}
	.st74{fill:#D6D6D6;}
	.st75{fill:#D5D3D4;}
	.st76{fill:#D5D5D5;}
	.st77{fill:#CDCDCD;}
	.st78{fill:#DEDEDF;}
	.st79{fill:#CECDCE;}
	.st80{fill:#C7C8C7;}
	.st81{fill:#D4D4D3;}
	.st82{fill:#BBBDBD;}
	.st83{fill:#D9D9D9;}
	.st84{fill:#E2E1E3;}
	.st85{fill:#E1E1E1;}
	.st86{fill:#E1E0E0;}
	.st87{fill:#C03D42;}
	.st88{fill:#5D5C5E;}
	.st89{fill:#B6B5B5;}
	.st90{fill:#C3C2C3;}
	.st91{fill:#676769;}
	.st92{fill:#F0EFED;}
	.st93{fill:#CFCECF;}
	.st94{fill:#C0C1C1;}
	.st95{fill:#B4B4B4;}
	.st96{fill:#F7F6F8;}
	.st97{fill:#1B1919;}
	.st98{fill:#F7F7F8;}
	.st99{fill:#B5B4B6;}
	.st100{fill:#E9E9EA;}
	.st101{fill:#262627;}
	.st102{fill:#CFCDCE;}
	.st103{fill:#E1333F;}
	.st104{fill:#B5B3B4;}
	.st105{fill:#A9A8A8;}
	.st106{fill:#3B3A3C;}
	.st107{fill:#464443;}
	.st108{fill:#939294;}
	.st109{fill:#585859;}
	.st110{fill:#BEBEBF;}
	.st111{fill:#E6E4E0;}
	.st112{fill:#DFDFDF;}
	.st113{fill:#CDCACB;}
	.st114{fill:#E3E2E4;}
	.st115{fill:#141214;}
	.st116{fill:#FAF9F7;}
	.st117{fill:#F8F7F5;}
	.st118{fill:#060505;}
	.st119{fill:#0F0D0C;}
	.st120{fill:#252321;}
	.st121{fill:#99918F;}
	.st122{fill:#BFBBB6;}
	.st123{fill:#D5D8D5;}
	.st124{fill:#EA0413;}
	.st125{fill:#ED0422;}
	.st126{fill:#E70518;}
	.st127{fill:#251713;}
	.st128{fill:#DA121E;}
	.st129{fill:#DCDCD7;}
	.st130{fill:#D11E24;}
	.st131{fill:#B8B8B8;}
	.st132{fill:#CDCCCC;}
	.st133{fill:#C6C5C6;}
	.st134{fill:#CECECE;}
	.st135{fill:#CFCFD0;}
	.st136{fill:#D4D2D3;}
	.st137{fill:#D8D7D7;}
	.st138{fill:#B6B6B8;}
	.st139{fill:#D9D5D7;}
	.st140{fill:#EAE9EA;}
	.st141{fill:#D7D7D8;}
	.st142{fill:#E3E3E3;}
	.st143{fill:#E6E5E6;}
	.st144{fill:#131213;}
	.st145{fill:#B1B0B0;}
	.st146{fill:#F4F2F3;}
	.st147{fill:#CCCECE;}
	.st148{fill:#DEDDDD;}
	.st149{fill:#F0EEEF;}
	.st150{fill:#181818;}
	.st151{fill:#BDBDBD;}
	.st152{fill:#BDBABB;}
	.st153{fill:#D4D3D1;}
	.st154{fill:#C4C5C5;}
	.st155{fill:#CCCBCC;}
	.st156{fill:#BAB9B9;}
	.st157{fill:#B7B7B7;}
	.st158{fill:#BEBCBD;}
	.st159{fill:#D2D1D2;}
	.st160{fill:#BCBBBB;}
	.st161{fill:#BEBEBE;}
	.st162{fill:#CDCECE;}
	.st163{fill:#BBBABA;}
	.st164{fill:#C3C5C4;}
	.st165{fill:#D7D7D7;}
	.st166{fill:#D5D3D3;}
	.st167{fill:#D7D6D6;}
	.st168{fill:#C8C8C8;}
	.st169{fill:#B9B6B7;}
	.st170{fill:#D1D0D0;}
	.st171{fill:#CACCCC;}
	.st172{fill:#C0C0C0;}
	.st173{fill:#C2C3C2;}
	.st174{fill:#C8C9C8;}
	.st175{fill:#BEBFBE;}
	.st176{fill:#CFD0CF;}
	.st177{fill:#C7C6C6;}
	.st178{fill:#C5C5C5;}
	.st179{fill:#D3D3D3;}
	.st180{fill:#CBCACB;}
	.st181{fill:#D2D2D2;}
	.st182{fill:#D5D4D4;}
	.st183{fill:#D6D5D6;}
	.st184{fill:#C8C7C8;}
	.st185{fill:#DBDBDB;}
	.st186{fill:#D5D6D6;}
	.st187{fill:#C6C6C6;}
	.st188{fill:#D7D8D8;}
	.st189{fill:#D6D4D5;}
	.st190{fill:#C7C7C7;}
	.st191{fill:#DCDCDC;}
	.st192{fill:#D7D5D6;}
	.st193{fill:#D0CECF;}
	.st194{fill:#C4C6C6;}
	.st195{fill:#E4E3E4;}
	.st196{fill:#D2D1D1;}
	.st197{fill:#D3D5D4;}
	.st198{fill:#C9C9C9;}
	.st199{fill:#DADADA;}
	.st200{fill:#E6E6E6;}
	.st201{fill:#DDDDDD;}
	.st202{fill:#E5E3E4;}
	.st203{fill:#E0E0E0;}
	.st204{fill:#E6E5E5;}
	.st205{fill:#E4E3E3;}
	.st206{fill:#C7C6C5;}
	.st207{fill:#D7D5D7;}
	.st208{fill:#D4D6D6;}
	.st209{fill:#E0DFDF;}
	.st210{fill:#DFDEDF;}
	.st211{fill:#D1D2D2;}
	.st212{fill:#30302F;}
	.st213{fill:#E5E5E5;}
	.st214{fill:#DADAD8;}
	.st215{fill:#BBBCBC;}
	.st216{fill:#BEBABC;}
	.st217{fill:#BBBBBB;}
	.st218{fill:#CECDCD;}
	.st219{fill:#C9C8C8;}
	.st220{fill:#BBBBBC;}
	.st221{fill:#DAD8D9;}
	.st222{fill:#C9C9CA;}
	.st223{fill:#C8CCCB;}
	.st224{fill:#C8C8C7;}
	.st225{fill:#CCCCCC;}
	.st226{fill:#CAC9C9;}
	.st227{fill:#D8D8D8;}
	.st228{fill:#D2D3D3;}
	.st229{fill:#D9D7D7;}
	.st230{fill:#DDDBDB;}
	.st231{fill:#D8D6D7;}
	.st232{fill:#DCDBDB;}
	.st233{fill:#DFE1E1;}
	.st234{fill:#E1DEDF;}
	.st235{fill:#B7B4B8;}
</style>
<title>未标题-1</title>
<path class="st0" d="M47.2,416.5c1.7,0,3.3-0.1,5-0.1c0.6-0.5,1.3-0.5,2-0.1c0.3,0.3,0.3,0.9,0,1.2"/>
<path class="st1" d="M374,151.5l-5.7-1.2c6.6,12.1-5.8,21.4-2.9,32.8c-0.6-0.1-1.2-0.2-1.8-0.4c-2-1-1.6-5.4-4.9-4.2
	c-3.1,1.1-5.6,8.1-4.6,11c0.7,2,0.8,4.5,2.8,5.7c5.1,3.1,5,7.9,5.1,13c0.1,7.3-1,14.6,0.8,21.9c0.7,3.3,3,6,6.2,7.1
	c12.2,5.2,12.2,5.3,13.3,18.3c0.7,8.5,0.7,8.5,9.1,9.1c2.7,0.2,5.3,0.4,8,0.7c0.8,0.1,2.3,0.3,2.3,0.5c0.6,7,5.7,3.3,8.2,2.8
	c5.5-1.1,8.1,0.7,10.1,5.7c4.4,10.9,10.6,20.6,20.5,27.6c5.5,4,8.9,9.5,10.9,16.2c2.9,9.6,7.5,18.1,17.7,22.1c2.9,1.1,4,3.9,5.3,6.4
	c7.1,14.8,18,26.1,31.7,34.9c4.2,2.7,8.1,5.9,11.4,9.6c-0.3,2,3,3.6,1.2,5.2c-2.2,1.9-3.8-1-5.6-1.9c-2.2-1-3.5-3.9-6.6-3
	c-0.4,0.1-1.2-0.6-1.1-0.9c1-2.6-2.6-3.2-2.4-5.6c0.2-2-1.5-2.6-3-1.7c-3.3,2.1-6.6,2.8-10.3,1.2c-1.2-0.2-2.2-0.9-2.8-1.9
	c-16.8-20.9-33.2-42.2-49.1-63.8c-0.6-0.8-1-1.7-1.4-2.6c-0.3-1.2-0.9-2.3-1.8-3.2c-1-0.8-2.4-0.1-3.5-0.9c-4.6-4.8-9-9.3-9.9-16.7
	c-0.7-5.8-5.8-9.8-9.7-14c-0.9-0.8-2.2-1-3.3-0.7c-4.2,1.1-7.4-0.5-10.4-3.2c-2.2-1.8-4.9-2.9-7.7-3.2c-5-0.9-9.3-3.6-13.5-6.3
	c-2.6-1.7-3.2-4.8-3.4-7.5c-0.6-10.6-6.9-16.8-15.4-21.7c-1.6-1.2-2.7-3-3-4.9c-1.4-6.4-3.4-12.7-6-18.8c-2.2-5.1-1.2-10.7-2-16.1
	c-0.5-4.2-0.5-8.6-1-12.8c0-1.1-0.2-2.6,0.5-3.3c4.5-4.4,3.2-10.3,4.4-15.6c0.3-1.4,0-3.3,1.5-3.9c1.8-0.8,3,0.9,4.2,2
	c1.4,1.2,2.7,2.5,3.7,3.9c-0.4-1.7-1.8-3.7,1.3-4.4c2.5-2,1.1-4.4,0.7-6.7c-0.1-0.5-0.2-0.9-0.3-1.4c-0.3-2.4,0.1-4.8-0.6-7.1
	c-0.8-3.9-0.2-6.8,4.9-6.5c-3.5-2.6-6-5.2-2.4-9.4c2.6-3.1-1.3-4.1-2.3-6c-0.6-1.6-0.8-3.4-0.6-5.2c0.5-3.4,2.3-6.3,3.8-9.3
	c0.2-0.4,0.6-0.7,0.7-1.2c-0.3,0-0.6,0.1-0.8,0.3c-2.4,1.2-4.6,3.9-7.2,0.4c-0.8-3-2.9-5.7-1.8-9c2.1-1.8,2.9-1,3,1.2
	c0.6-0.7-1-3.2,1.7-2.9c1.5,3,4.3,1.9,6.6,2c1.8,0.1,3.6,0,5.9,0c-0.5,5.3-2.7,9.8-4.3,14.3c-1.3,3.5-0.9,5.6,2.3,7.8
	c5.8,4,5.6,4.2,1.2,9.6c-1.4,2.4-1.4,4.7,0.7,6.8c1.3,1.3,1.6,3.2,2.4,4.9l1.2,2.5C376.3,152.2,375.3,152.1,374,151.5z"/>
<path class="st2" d="M279.2,43c1.8,2.4,4.3,4,6.9,5.5l0,0c3.1,1,6.2,1.8,9,3.5c-0.5-1.5-1.7-2.7-1.6-4.5c0.3-1.4,1.3-1.9,2.6-1.8
	c0.4,0.1,0.9,0.3,1.3,0.4c0.8,0.2,1.6,0.5,2.3,0.9c0.4,0.2,0.7,0.1,0.6-0.3s-0.4-0.5-0.6-0.8c-1-1.9-2.5-3.5-2.6-5.7
	c0.3-0.9,0.3-2.2,1.8-1.6c4.2,3.5,9.2,6.1,13.9,8.5c9.6,5,16.1,13.2,23.8,20.2c2.5,2.2,2.8,5.6,4.1,8.4c0.8,1.8,1,3.9,3.2,4.7
	c1.3,1.2,3,1.9,3.8,3.5c1.9,1.8,3.7,3.9,5.8,5.3c4.7,3.2,6.3,7.7,6.5,13.1c-0.7,1.2-2.1,2-4.3,2.3c-3.5-0.2-4-4.4-6.9-5.1
	c-0.5,3,0.5,6,1.8,8.9c0.8,1.9,2.2,4.4-0.8,5.5s-4.1-1.2-5-3.5c-0.7-1.7-1.2-3.4-1.9-5.2c-3.9-7.3-5.7-15.5-9-23
	c-2.6-5.9-5.1-12.2-9.7-17.1c-2.1-4.5-6.6-6.4-10.4-9.5c1.3,3.5,4.3,6.1,3.6,10c-0.4,0.9-1.4,1.4-2.4,1.1c-1.9-1-2.8-3.3-4.8-4.4
	c-0.8,1.9-1.1,4.1-3.7,4c-7.5-2.4-14.7-5.4-21.8-8.8c-1.2-0.8-2.5-1.3-3.6-2.1c-2.3-0.9-4.6-1.9-6.9-2.7c-2.1-0.2-4.2-0.1-6.3,0.3
	c-1,0-2.3-0.3-2.3-1.4c0-4.4-3.3-4.9-6.4-5.6c-4.7-1-9.5-1.4-14.2-2.3c-1.7-0.3-3.1-0.4-4,1.7s-2.9,2.7-5.1,1.8
	c-2.3-0.7-3.8-2.9-3.6-5.3c0.2-5.1,3.1-9.4,4.2-14.2c-0.6-0.6,1.6-2-0.7-2.1c-0.4,0.1-0.8,0.2-1.2,0.1c-3.1-0.5-5.1-2-4.9-5.4
	c0.1-2.3-1.1-3.1-3.2-3.3c-1.3,0-2.6-0.3-3.8-0.8c-1.6-0.8-2.7-2.1-3.2-3.8c-0.1-0.5-0.1-1,0-1.4c0.8-2.6,3.1-4.4,5.8-4.5
	c1.8,0.3,3.3-0.4,4.9-0.9c0.9-0.1,1.8,0.2,2.4,0.9c0.7,1.1,1.8,1.9,3,2.3c1.4,0.8,2,0.2,2.4-1.2s0.2-2.9,1.1-4.2
	c2.2-0.7,3.2,0.5,4.2,2.4c3.3,5.9,5.4,12,4.2,18.9c-0.3,2.1-0.4,4.3-0.3,6.4c0,1.6,0.6,2.6,2.4,2.2c3,1,6.5,0,9.3,2l0.2,0.2l0.3-0.2
	"/>
<path class="st3" d="M545.1,417.5c-7.5,0.8-14.9,0.5-22.4,0.3c-6-1.5-9.2-6.9-13.7-10.4c-7.2-5.6-12-13.6-18.3-20.2
	c-0.8-0.6-1.1-1.8-0.5-2.7c4.4,1.4,7.6-2.2,11.4-2.6c4.2-0.5,2.2,3.6,3,6l1.7-2.9c1.2,1.2,0.3,2.3,0.3,3.3c0,0.8-1.5,1.5-0.3,2.6
	s1.8,0.1,2.6-0.5c2.2-1.6,2-0.3,2.9,1.5c1,2.2,4.6,2.2,6.1,4.9c-0.1-2.1-3.2-3.5-0.4-5.4"/>
<path class="st4" d="M105.3,1.5c4.2-1.2,8.7-1.3,12.9-0.2c0.4-0.3,0.7-0.2,0.7,0.3C126,9.7,127.3,20,129.2,30
	c0.9,5,1.4,10.1,2.1,15.1c0.4,1.1,0.9,2.6-0.2,3.1c-1.7,0.7-2.5-1.4-2.4-2.3c0.2-4.4-2.6-8-3-12.2c0-0.3,0.1-0.6,0.3-0.9l0.7-1.1
	c-0.4,0.4-0.5,1-0.9,1.5c0.2,4.6,1.8,9,3.2,13.1c2,6.1,1.7,12.4,3.4,18.4c0.4,1.5,0.2,3.4-2,4c-2.2-0.8-2.7-2.9-3.2-4.8
	c-3.5-12.4-5.9-24.9-6.4-37.8c-0.1-3.8-0.6-7.7-1.6-11.4c-1-3.9-3.2-7.2-7.6-7.5s-6.3,3-7.7,6.6c-1.1,3-1.8,6.1-2.3,9.2
	c-0.3,1.5,0.1,3.6-2.5,3.5c-0.5-0.5-0.7-1.3-0.6-2c-0.1,4,0.2,8.9,0.1,13.8c-0.1,3.2-0.1,6.3-2.1,9c-1.4,0.6-1.6-0.3-1.8-1.4
	c-0.9-5.9-2.5-11.7-2.8-17.6c-0.4-7,3.2-13.3,5.9-19.7C99.2,5.2,101.6,2.6,105.3,1.5z"/>
<path class="st5" d="M159.1,99.5c1-5.2-3-9.7-2.2-15c0.4-2.7-0.8-6.2,4.2-3.4c2.1,1.2,4.8,0.6,7-0.9c6.3-4.2,12.7-8.2,19-12.3
	c0.9-1,1.2-2.3,2.1-3.3l0,0c0.7-3.6,1.8-7.1,3.1-10.5c2.4-1.5,4.4-2.1,4.3,2.2c0.5-5.7,3.7-10.4,4.8-15.6c0.1-0.4,0.2-0.9,0.3-1.3
	c0.5-0.9,0.7-2,0.7-3.1c0-0.4,0.1-0.9,0.2-1.3c0.5-1.3,1.6-2.3,3-2.7c1.3,0.2,2.2,1.4,2.2,2.7c-3.1,10.2-6,20.3-10,30.2
	c-1.4,3.6-3.4,6.3-7,8c-5.3,2.5-10,5.9-14.8,9.2c-4.1,2.8-8.5,5.1-13.5,5.9c-0.6,0.1,0.2,1.1-0.1,0.4c-0.1-0.2,0-0.4,0.3-0.4
	c3.1-0.2,6.5,0.1,7.8,3.1c1.5,3.5,0.1,7.5-2,10.4c-1.7,2.5-2.8-0.2-3.5-1.8c-0.5-2.2,0.9-4.2,0.7-6.4c-0.1-0.6-0.3-1.2-1-1.2
	c0.6,0.7-0.3,1.3-0.2,1.5c1.1,4-0.8,7.9-0.2,11.9c0.5,2.9-0.3,6,0.7,8.9c0.2,0.7,0.3,1.5,0.4,2.2c0.1,2.1,0.1,4.2,0,6.2
	c0,0.8-0.2,1.5-0.4,2.3c-0.5,1.7-0.8,3.4-0.9,5.2c-0.5,2.9-1.2,5.8-2.1,8.7c-0.7,1.6-0.7,3.3-1.2,4.9c-0.6,1.9-1.9,3.6-3.6,4.7
	c-0.7,0.3-1.6,0.2-2.2-0.3c-0.2-0.5-0.3-1-0.1-1.5c4.9-11.8,6.4-24.2,5.8-37.9c-0.3,3,0.7,4.9,0.4,6.9c-0.2,2.3-1.2,4.5-2.9,6.2
	C156.7,114,159,106.7,159.1,99.5z"/>
<path class="st6" d="M545,416.9"/>
<path class="st7" d="M130.1,68.5c0.8-0.6,1.2-1.7,0.9-2.7c-2.2-6.5-1.7-13.5-3.7-20.2c-1.1-3.8-4.4-8.5-1.3-13.2l0,0
	c1,5.2,4,9.7,3.5,15.3l1.3-0.3l0.2-2.3c2.6,17.9,10.5,34.4,14.2,52c0.2,1.1,0.4,2.3,0.5,3.4c-0.7,0.9,0.3,2.6-1.2,2.9
	s-2.1-1.3-2.5-2.5s-0.6-2.4-0.4-3.7c-0.4,0.7,0.1,2-1.1,2.4c-1.3-0.5-2.2-1.6-2.3-3c-1.7-7.7-5.3-14.7-8-22
	C129.7,72.7,128.6,70.6,130.1,68.5z"/>
<path class="st7" d="M159.1,99.5c0.9,7-1.6,13.8-0.8,21.2c3.6-4.1,0.3-9,2.6-13.5c1.6,11.7,1.7,22.6-2.4,33.5
	c-1,2.7-1.3,5.6-3.4,7.9c-0.3,0.1-0.6,0.2-0.9,0.2c-3,0.5-0.2-3.8-3.6-4c-2.5-0.1-2.7-3.7-2.3-6.3c0.1-0.5,0-1.1,0.2-1.4
	c3.2-4.1,2.2-8.4,0.9-12.7c-0.1-0.7,0.1-1.4,0.7-1.8c1.4,1.2,1.9,3.9,4.5,3.1c2.4-0.7,1.5-3,1.8-4.7
	C157.8,113.8,157,106.5,159.1,99.5z"/>
<path class="st8" d="M150.1,122.5c-1.6,2.5,2.2,3.4,1.6,6.7c-0.6,3.5-2.2,6.9-2.3,10.5c-0.1,2.5-0.1,2.3,3.1,3.8
	c0.8,0.3,2.1,1.8,1.3,2.8c-1.7,2.2,1,1.4,1.3,2.2l0,0c-0.4,2.7-2.5,2-4.2,2.2c-4.8-1.1-6.1-5-6.6-9c-1.1-8.9-2.6-17.8-2.6-26.8
	c0-3,0.6-6-0.6-8.9c-0.8-2.1-1.7-4.2,0-6.3l0.3-2.5c2.3,1.3,1.5,4,3.2,5.4l1.5-2.1c0.2,0.2,0.3,0.6,0.2,0.9c1,1.6-0.2,3.5,0.9,5.1
	c0.2,0.3,0.2,0.6,0.1,0.9c0.7,1.8,0.6,3.9-0.3,5.6c-1.8-1.9-1.1-4.2-2.1-5.3c1.7,8.4,5,17.4,2.6,25.6c-0.7-2.4,1.1-5.8,1.1-9.4
	c-0.1-0.7,0.4-1.3,1.1-1.3C149.8,122.4,150,122.4,150.1,122.5z"/>
<path class="st9" d="M239.2,3.7c2.4,3.2-1.3,5.3-0.8,7.9c-2.3,0.2-1.9-2.1-3.2-2.3c-1.2-0.4-2.2-1.1-2.9-2.2c-0.4-0.7-1.3-1-2.1-0.7
	c-1.2,0.7-2.7,0.9-4.1,0.8c-2.9,0-4.1,2.5-6,4.1c-2.7,0.8-4.6-0.2-6-2.5L214,8.1C220.9-0.7,231.3-2.5,239.2,3.7z"/>
<path class="st10" d="M203.1,35.5v1c0,1.1-0.3,2.1-1,3l0,0c-1.8,3.1-2.6,6.6-4.4,9.7c-0.8,1.5-1.4,3.5-3.9,2.3
	c-0.4-7.1,3.8-12.8,5.9-19c1.1-3.2,1.8-6.7,4.7-9l0.8-1.9c0.8-1.6,0.6-3.8,2.8-4.6c2.1,0.4,2.6,1.9,2.7,3.7
	c-0.1,0.5-0.4,0.9-0.7,1.2C207.2,26.1,204.8,30.7,203.1,35.5z"/>
<path class="st7" d="M150.1,122.5c-1.8,4.1-1.9,8.6-2.6,13c0.6-10.2-3-19.9-2.8-30.1l1.8,6.2c1.1-1.4,0.3-2.9,0.6-4.2
	C149.2,112.2,148.7,117.5,150.1,122.5z"/>
<path class="st9" d="M210.1,21.5c0-1.7-0.9-3.2-2.3-4.1c0.4-3.9,3.2-6.3,5.5-9c0.2-0.1,0.4-0.1,0.7-0.1l0.3,0.3
	C216.8,14,214.8,20.1,210.1,21.5z"/>
<path class="st11" d="M213.3,8.3l-5.5,9l-2.6,4.2"/>
<path class="st12" d="M187.1,67.8"/>
<path class="st13" d="M374,151.5c0.8-0.3,1.9-0.3,2.3-1.3"/>
<path class="st7" d="M147.1,106.5c-1.6-1.5-0.8-3.3-0.9-5.1C147.1,102.9,147.4,104.7,147.1,106.5z"/>
<path class="st14" d="M538.7,417.5c2.1-0.2,4.3-0.1,6.4-0.2"/>
<path class="st15" d="M496.1,419.5h4"/>
<path class="st16" d="M483.1,419.5h4c0,0.2,0,0.3,0,0.5"/>
<path class="st17" d="M98.8,129.6c1,1.3,2.2,2,3.9,1.2c2-1,1.4-2.8,1.5-4.4c0.2-18.5-0.8-36.8-4.5-54.9c-0.3-1.6-0.4-3.3-0.6-4.9
	c0.2-0.4,0.3-0.9,0.2-1.4c-0.1-1.3-0.4-3.1,1.1-3.5s1.7,1.6,2.1,2.8c3.2,8.4,4.5,17.3,6.8,26c3.4,13.1,1.9,26.3,2.6,39.5
	c0.2,4,0.6,7.9,0.6,11.9c0,1.9-0.4,3.7-2.3,4.7s-3.1,0.5-3.7-1.6c-2.7,1-4.4-1.9-6.9-1.8c-4.3-0.5-4.9-4.6-7.1-7.2
	c-3.9-5.9-7.3-12.1-11-18.2C76.4,108.6,71.9,99,63.7,92c-4.8-6.1-9.8-12-14.4-18.3c-0.3-0.4-0.5-0.7-0.8-1.1c-0.5-1-0.9-2.1-1-3.2
	c-0.2-2-1.4-3.6-2.1-5.4s-0.8-3.2,1.7-3.4l18.5,20.9c2.2,2.4,5.1,4.3,6.4,7.4l12.7,18.6c1.6,0.9,1.6,2.7,2.3,4.1
	C90.9,117.6,94.3,123.9,98.8,129.6z"/>
<path class="st4" d="M47.1,60.5c-2.1,1.3-0.2,2.7-0.2,4c0,1.8,3.6,2.9,0.9,5c-0.5,0.2-1,0.2-1.4-0.1c-4.1-4.4-6.6-10-10.6-14.5
	c-2.9-3.4-5.7-7-9.9-8.9c-2.3-1-4.8-1.9-7.1-0.1s-2.3,4.6-1.7,7.3c3.2,13.1,9.4,24.8,17.4,35.6c0.7,1,1.4,1.9,2.2,2.8
	c2.7,3.5,5.5,7,8.4,10.4c4.3,5.3,7.1,11.5,9.9,17.7c0.7,1.6,1.5,3.4,0.5,5.2c-3.3,1.2-2.7-2.4-4.4-3.4c-0.5,1.2,0.1,3.3-2.3,3.3
	c-3.2-5.4-5.2-11.4-8.7-16.8C33.8,96.6,26.2,86,19,75.1c-5.4-8.2-10-16.3-9.1-26.7c0.8-9.5,6.8-13.2,15.4-8.6
	C34.4,44.8,40.9,52.5,47.1,60.5z"/>
<path class="st18" d="M12.7,306.4c0.4-3.4,2.2-6.1,4.5-8.6c7.8-8.2,15.3-16.6,23-24.8c1.8-1.7,2.6-4.1,2.2-6.6
	c-0.8-5.2-0.9-10.5-1.2-15.8c2.6-0.2,2.1,1.9,2.5,3.3c1.5,5.5,0.8,11.4,2.9,16.8c0.9,1.9,0,3.6-1,5.1C37.8,287.4,30,299,22.2,310.5
	c-0.6,1-1.5,1.8-2.6,2.2c-2.4-0.6-2.5,1.7-3.5,2.8c-0.7,1-2.1,1.2-3.1,0.5c-1.2-0.7-0.9-1.5-0.9-2.8C12.1,310.9,15,308.8,12.7,306.4
	z"/>
<path class="st19" d="M12.7,306.4c0.7-0.4,1.5-1.1,2-1c0.8,0.2,1.3,1.6,0.7,2c-2.3,1.6-0.5,4.7-2.5,6.4c-0.7,0.6-0.6,1.1,0.4,1.2
	c0.8,0.1,1.6,1.5,2.2-0.3c0.4-1.1,0.9-2.1,1.5-3.1c0.8-1.5,0.8-1.4,2.1,0.8c-1.6,4.7-2.8,9.7-8,12.1c-1.6-2.5,1-3.8,1.6-5.7
	c-2.1,4.1-2.1,4.1-0.7,6.9c1,3.1,0.6,6.3,0.4,9.4c-1.1,13.9,0,27.9,3.3,41.5c0.8,3.4,2.7,6.4,3.4,9.9c-0.2,5.4-0.2,5.4-3.4,4.5
	c-4.4-10.1-7.8-20.5-11.9-30.8c-1.1-2.5-2-5.2-2.7-7.9c-2.6-5.1,0.2-9.4,1.9-13.8c1.6-1.6,0-5,3.1-5.9c1.5,3.3,0.2,6.4-0.7,9.6
	s-4.1,7.2,1.7,9.5c0.8,0.3,0.7,1.9,0.4,2.8c-0.6,2-0.5,4.2,0.3,6.1c-0.8-7.4-1.2-14.9-1.1-22.3c0-2,1.2-4.3-1-6
	c-0.3-1.2-0.2-2.5,0.4-3.6v-0.1c2.2-0.5-0.2-2.3,0.9-3.1C8.5,318.9,10.4,312.6,12.7,306.4z"/>
<path class="st20" d="M46.1,271.5c-3.6-2.6-2.3-6.7-2.9-10.1c-0.5-3.6-0.7-7.3-2.2-10.8c-2.6-7.3-0.4-14.3,1.7-21.3
	c1.2-4.1,2.3-8.3,3.4-12.4c0.9-1.4,0-3.4,1.6-4.5c5,1.4,5,1.4,2.2,5.6c-0.4,0.7-0.6,1.5-0.8,2.3c-1.1,1.2-1.1,2.9-2.1,4.1
	c-1.1,1.5,0.1,3.6-0.5,4.2c0.5-0.5-0.2-2.3,0.3-3.9c1.1-1.3,1.3-3.1,2.3-4.4c0.6-1.6,0.7-3.8,3.4-2.3c1,5.4-2.4,10-2.5,15.2
	c-1.1,7.9-0.2,15.9-0.5,23.8c-0.1,2.5,0.1,5-0.2,7.5C48.6,267,48.6,269.8,46.1,271.5z"/>
<path class="st21" d="M54.1,416.6l-1.9-0.3l-14-6.9c0-2.4,1.8-1.6,3.2-1.9c-0.1-1.6-4.2-2.2-1.3-4.7c2.9-0.6,4.8,1.5,7,2.6
	c0.8,0.4,1.5,0.9,2.3,1.3c1.7,0.9,3.2,2.1,5,2.9c1,0.4,2,0.8,3.1,1.1c1.1,0.3,2.3,0.5,3.5,0.5c0.8,0.1,1.6,0.2,2.4,0.5
	c13.8,1.8,27.5,2.1,41.2-0.5c1.8-0.3,4.2-1.2,5.2,1.4c0.8,1.9,0,3.6-2,4.6c-14.4,0.6-28.9,0.1-43.3,0.3
	C61,417.4,57.5,417.8,54.1,416.6z"/>
<path class="st22" d="M40.6,403.2c-1.4,1-0.5,1.5,0.3,2.1c1.4,1,2.7,2,4.3,3.1c-2.7,1.8-5.1-1.5-7,0.9c-1.6,0.1-3.1-0.6-4-1.9
	c0-0.4,1-0.4,0.7-0.7s-1.2,0-1.8,0.3c-1.3,0.2-2.5-0.4-3.2-1.5c-1.4-2.2-3.8-2.4-6.1-2.6c-6-0.8-5-6.8-7.7-10.1
	c-0.6-0.5-0.8-1.4-0.3-2c0.1-0.1,0.2-0.2,0.3-0.3c3.4,0.5,0.1-3,2-3.4c6.8,2.7,12,8,18.2,11.5C38.1,399.9,40.4,400.7,40.6,403.2z"/>
<path class="st21" d="M23.9,402.9c3.3-2.4,5,1,7.3,2l-1.2,0.6C27.9,405,25.6,404.5,23.9,402.9z"/>
<path class="st23" d="M6.1,332.5c-1.8,1.5-1,4.5-3.1,5.9c0.3-3.5,1.3-6.8,3.1-9.8V332.5z"/>
<path class="st21" d="M33.1,407c1.4-2.9,2.7-0.1,4,0.4h-2.9L33.1,407z"/>
<path class="st23" d="M7,325.3c-0.6,1.8,2.9,1.4,1.8,3.2c-0.6,0.9-1.8-0.2-2.7-0.1C5.8,327.3,6.2,326.1,7,325.3z"/>
<path class="st24" d="M87.1,111.6c-1.2-1.1-2-2.6-2.3-4.1C86.9,108.1,87.3,109.7,87.1,111.6z"/>
<path class="st25" d="M521.6,416.3c-37.5,0.1-75,0.1-112.5,0.1c-77,0-154,0-231,0c-1.7,0-3.3,0.1-5,0.1c-0.4,0.2-0.9,0.2-1.3,0
	c-2.8-2-3.8-5.3-5.5-8.1c-1.3-2.1-2.5-4.4-5.4-4.5c-6.1-0.4-12.3-3-17.8-2.7c-5.3,0.3-10.7-0.5-16.1,0.3c-3.3,0.5-6.7,0.4-9.6,2.1
	c-3.2,1.8-3-0.4-2.9-2.3c0.1-2.7,1.5-5.1,2.6-7.5c3.9-8.5,5.5-17.7,8.5-26.5c0.4-1.2,0.6-2.9,2.1-3.1c1.5-0.2,1.6,1.5,2.1,2.4
	c-3-5.4-0.9-10.5,1.9-15c1.6-2.5-0.7-2.6-1.1-3.8c-0.4-3.8,1.1-7.1,2.4-10.5c2-5.4,2.8-11.2,5.4-16.4c0.5-0.7,1.1-1.2,1.7-1.7
	c5.1-2.7,10.6-0.6,15.8-1.6c0.5-0.2,1-0.3,1.4-0.4c2.1-0.4,4.3-0.1,6.4-0.8c0.4-0.1,0.9-0.2,1.3-0.3c1.8-0.3,3.5-0.8,5.1-1.7
	c0.6-0.3,1.3-0.5,2-0.7c4-1.7,8.3-2.6,12.2-4.6c3.3-1.5,6.6-3.1,9.8-5c5.8-3.2,12.2-5.3,18.8-6c7.1-1,13.7-4.1,20.8-4.8
	c3.6-0.3,7,0.1,10.8-1.3c4.2-1.5,9.4-0.2,14.1,0.8c0.6,0.1,0.1-0.8,0.1-0.1c0,0.1-0.2,0.1-0.5,0c-1-0.2-2.7,0.3-1.7-1.8
	c5.5-2.2,11.2-0.8,16.8-1.2c13.1-0.9,26.4,1,38.7-1.9c-0.2,0-1.3,0.6-2.3,0c-1.3-2.5,0.9-2.6,2.3-3c3.5-0.9,7-1.9,10.5-3
	c5.2-1.7,9.8-5,13.2-9.4c4.6-5.8,4.2-9.3-1.6-17.3c-0.9-2.4-3.1-1.6-4.7-1.6c-6.8,0.3-13.6-0.6-20.4-1.1c-1.4-0.1-3.5,0-3.6-1.8
	c0-1.7,1.9-1.9,3.4-1.9c-2.1-0.5-4.3-1.7-5.2-3.1c-2.1-3.5-4.6-2.8-7.4-1.7c-1.7,0-3.5-0.3-5.1-0.9c-2.1-0.9-4.5-0.3-6.6-1
	c-0.7-0.2-1.2-0.8-1.4-1.6c0.4-1.1,1.3-1.4,2.3-1.5c-3.1,0.2-6.5-0.1-8.9-1.7c-6.4-4.4-14.1-3.1-20.9-5.2c-2.2-0.7-4.6-2.2-7.2-1.2
	c-1.3,0.2-2.4-0.5-3.5-0.9c-0.5-0.4,0.4-0.3-0.2-0.1c-0.4,0.1-0.3,0.3,0.1,0.2c1.8,0.9,3.8,1.4,5.5,2.3c0.8,0.4,1.6,0.7,2.3,1.1
	c0.6,0.3,0.9,0.9,1,1.5c3.4,4.9,9.1,5.4,13.8,7.6c4.4,2.1,9.3,2.7,13.4,5.6c0.5,0.2,1,0.4,1.5,0.5c5.3,0,10.5-0.2,15.8,0.1
	c1.2,0,2.3,0,3.5,0.2c1.4,0.3,3.3,0.5,2.9,2.5c-0.3,1.7-1.9,1.3-3.3,1.3c-5.4-0.3-10.9-0.1-16.4-0.1c-1.8-0.2-3.6,0-5.4,0.5
	c-5.8,0.8-11.3-0.5-16.9-1.6c-1.3-0.4-2.6-1-3.9-1.4c-6-1.2-12-2.6-18.2-2.6c-5,0-9.2-2.6-13.3-5.1c-1.8-1.1-3.3-3-1.9-5.5
	c1.9-1.9,6.6-0.1,6.6-4c-0.1-2.9-4-2.2-5.9-3.6c-3.1-2.3-5.7-5.1-8.7-7.5c-3-2.6-2.5-6-2.1-9.3c0.7-6.4,3.7-12,6.5-17.7
	c2.3-4.6,4.7-9.2,7.3-13.6c2.8-4.7,5.5-9.5,9.5-13.3c2.8-3.1,5.9-5.8,8.9-8.7l0.6-0.4c0.4-0.2,0.9-0.3,1.3-0.4
	c4.6-1.8,6.8-5.8,9.3-9.6c0.6-2.2,2.6-3.5,3.8-5.4c0.6-0.9,1.5-1.7,2.5-2.2c3-1.2,4.7-3.8,6.9-5.9c4.4-4.5,9.1-8.7,13.1-13.6
	c1.2-1.5,2.6-3.1,4.8-3.2c1.9,0.2,3.8,0.3,3.1-2.6c0.1-1.7,1.5-3,3.2-3.1c0.7,0.2,1.3,0.6,1.6,1.2c0.4,0.8,0.5,1.8,0.2,2.6
	c-0.7,0.8-0.2,1.9-0.6,2.8c-0.9,1.1-1.8,2.3-2.6,3.5c-1,0.8-1.9-0.1-2.8-0.1c-1,0.3-1,1.2-1.3,1.9c-1.9,2.2,0.1,5.2-1.5,7.4
	c-0.3,1-0.6,2-1,3c-0.3,1,0.7,1.9,0.4,3c-0.9,0.9-2.2,1.4-3.5,1.4c-1-0.1-2.1,0-3.1,0.2c-1.3,0.3-2.1,1.5-3.4,1.5
	c-0.5-0.2-0.7-0.7-0.7-1.2c-0.6,0.3-0.3,0.8-0.1,1.2s0.5,0.6,0.7,1c0.6,0.9,1.3,1.6,1,2.8s-1.1,2.2,0.1,3.2c2,0.9,4,1.6,5.2,3.6
	c0.3,0.6,0.3,1.3,0.1,1.9c-1.3,0.9-2,2.3-1.9,3.9c0.8,3.7,2-0.7,3,0.1c1.9,1,1.6,2.6,1.5,4.2c-0.5,1.4,0,3,1.2,3.9
	c0.7,0.4,1.5,0.5,2.3,0.5c1.5,0.1,2.9-0.2,4.2-0.8c0.4-0.1,0.8-0.2,1.2-0.2c1.2,0.2,2.4-0.2,3-1.2c0.7-1.2,1-2.6,1.8-3.8
	c0.4-0.9,0.7-1.8,0.7-2.8c-0.4-0.9-0.8-1.8-1.2-2.7c-0.1-0.6,0.1-1.2,0.4-1.8c0.6-0.5,1.4-0.7,2.2-0.6c1.5-0.7-0.5-1.4,0-2.1
	c3.9-1.9,6.4-0.9,7.8,2.6c0.7,1.7,0,4.3,2.6,4.9c0.9,1.1,1.4,2.4,1.5,3.8c0,0.9-0.4,1.8-1.1,2.4c-1.5,1-1.1,2.6-1.1,4
	c0.8,4.2-3.8,7.1-3,11.3c0.3,0.3,0.6,0.6,0.9,0.9c2.4,0.3,4.8,0.2,7.1-0.2c1.6-1.9-0.6-3.1-0.8-4.6c0.6-1.3,1.6-1.4,2.8-0.9
	c0.8,0.7,1.8,1.2,2,2.5c0-1.2-0.9-1.6-1.6-2.2c-0.2-0.2-0.3-0.5-0.3-0.8s0.1-0.4,0.2-0.4c1-0.9,2.4-1.3,3.7-1.2c0.4,0,1.2,0.7,1-0.6
	s-0.9-2.4-1-3.7c0.6-1.5,2-2.4,2.8-3.7c0.6-0.7,1.4-1,2.3-0.9c0.8,0.4,1,1.7,2.3,1.5c3.3-0.9-0.2-3.2,0.9-4.5
	c1.7-0.8,2.2-2.6,3.1-4.1c1-0.6,2.2-0.8,3.3-0.3c1.8,1.3,1.4,3.4,2,5.2c-0.5,1.7,1.6,1.5,1.9,2.5c0.9,2.1,1.6,0.2,2.4-0.1
	c2.1-0.9-0.5-1.8,0-2.8c1-1.5,2.5-2.5,3-4.3c1.9-2.8-2-2.4-2.3-4c-0.5-0.4-0.8-1.1-0.6-1.8c0.7-0.4,2.6-0.3,0.9-1.9
	c0.9-1.2,1.9-2.4,2.9-3.5c0.6-0.7,1.6-1,2.5-0.7c0.8,0.5,1,1.9,2.1,1.6c0.8-0.3,0.2-1.4,0.2-2.1c-0.1-2.9-1.5-5.5-1.6-8.4
	c0.9-1.1,2.1-2.1,2.3-3.6c0.2-2.8-3.4-5.6-0.1-8.4c2.7,0.5,3.1,5.2,6.9,3.7c0.4,0.1,0.9,0.2,1.3,0.2c5.6,2.8,5.8,3,1.9,7
	c-2,2.1-1.9,3.4,0.3,5c1.5,1.1,2.7,2.4,4.2,3.7c-1.7,2.4-9-2.1-6.6,5.2c1.1,2.7-0.5,5.6,1,8.3l0.2,0.3l-0.2,0.3
	c-0.1,2.8,1.9,5.9-1.1,8.3c-0.6,0-1.8-1.3-1.4,0.5c0.5,1.8,1.2,3.7,2,5.4l-8.6-9.7l-2.1,1.3c-0.2,3.8-0.1,7.6-0.6,11.4
	c-0.3,2,1.9,5.7-2.9,5.8c-0.5,0-0.9,2.9-1.3,4.5c-0.5,0.8-1.5-0.6-1.4-0.1c0.3,2.2-1.7,2.4-2.6,3.6c-2.2,2.7-5.3,2.1-8.2,2.1
	c-0.7-0.2-1.2-0.7-1.4-1.4c0.6-1.8-0.2-2.1-1.8-1.7c-0.7-0.2-1.2-0.8-1.2-1.5c-0.1-1.2,1.3-1.8,1.3-3.1c-0.5,2-2.3,2.8-3.4,4.2
	c-0.5,0.7-1,1.4-1.5,2c-0.7,0.5-0.6,1.4-0.9,2.1c-2.3,1-4.6,2-4.6,5.1c-0.5,3.7-4.2,5.5-5.1,9.2c-0.5,2-3.2,0.9-3.8-0.7
	c-2.1-5.5-4.5-4.1-7.5-0.8c-1,1.1-2.8,2.4-3.6-0.5c-0.8-0.9,1.9-2.7-0.8-3.1c-1.6,1.9-2.4,4.5-5.2,5.1c-3.5-0.9-2.3-3.9-2.9-6.1
	c0.8-1.2,0.5-2.9-0.9-2.9c-2.7-0.1-3.4-1.4-3.7-3.8c-0.5-3-1.9-2.4-3.6-0.6c-3.7,3.8-3.8,3.7-6-0.3c-2,1,0.4,1.9,0.1,2.8
	c-0.7,1.5-3.5,2.9,0.1,4.5c1.5,0.7,1.9,2.5,0.7,4.2c-1.7-0.2-3.3,0.8-3.7,2.4c-1.2,3.1-3.5,5.1-7.6,6.5c3.3-0.9,5.6-1.7,8-2.3
	c1.3-0.3,2.7-0.8,3.4,0.8c0.5,1.3-0.4,2.1-1.2,3s-2.2,0.8-2.6,2.4c13.4,2,26.1,6.4,39.2,9c1.5,0.6,2.9,1.4,4.4,2.1
	c1.9,1.1,4,2.1,6,3c1,0.4,2.1,0.8,3.1,1.1c3.1,1.1,6.1,2.2,9.4,1.7c3.4-1.5,2.9-4.9,3.5-7.7c0.8-3.7,0.6-7.6,2.2-11.1
	c0.6-1.4,1.5-3,3-3.1c1.8,0,1.1,2.1,1.8,3.1c4,6,5.7,12.9,7,19.9c0.4,1.9,0.7,4.5,3.9,4c7.9,4.5,13.8,10,15,19.9
	c1,8.3,7.9,14.6,16.2,15c4.5,0.3,7.2,3,10.3,5c2.1,1.3,3.5,2,5.7,1.2c3.9-1.3,6.7,0,8.8,3.5c1.6,2.5,3.4,4.9,5.3,7.2
	c0.7,0.9,2,2,1.9,2.8c-0.8,8.6,5.8,13.3,9.9,19.3c1,0.6,2.1,1.1,3.2,1.5c0.9,0.2,1.2,1,1.7,1.6c0.2,0.5,0.4,0.9,0.6,1.4
	c16.7,22.7,33.9,45,51.6,67c0.2,0.2,0.5,0.4,0.8,0.5C499.7,395.9,509.6,407.2,521.6,416.3z"/>
<path class="st26" d="M359.1,238.5c-1.4,1.5-2.3,2.3-3.4-0.5c-2.4-6.1-3-12.8-5.7-18.8c-1-2.2-5.4-2.9-2.6-7
	c-3.8,3.4-4.1,4.3-4.8,12.6c-0.3,3-1,5.9-2.1,8.6c-0.5,1.2-1.2,2.8-2.7,0.7c-0.9-2.3,0.2-4.2,1.1-6.2c1.2-1.6,0.8-3.6,1.1-5.4
	c0.1-0.5,0.2-1,0.3-1.4c0.5-2,0.6-4,0.4-6c0.1-3-0.2-6,0.5-8.9c0.2-0.8,0.5-1.5,0.9-2.2c1.6-4.8,0.2-9.7,0.8-14.5l0.1-0.8
	c-0.4-2.3,3.9-2.8,2.4-5.7l1.8,2.6c0.2,3.4,0.6,6.9,0.7,10.4c0.4,9.6,1.4,19.2,5.6,28c1.5,3.3,2.5,6.8,2.7,10.4
	C356.4,236.4,357.9,237.2,359.1,238.5z"/>
<path class="st27" d="M344.2,105.3c0.9,2.3,1.7,4.6,2.6,6.9c0.3,1.3,1.6,2,2.9,1.7c0.1,0,0.2-0.1,0.3-0.1c2.2-0.7,0.8-2.1,0.3-3.1
	c-2.2-4.4-2.6-9.2-3.7-14.5c4.3,2,6.7,5.5,9.4,8.5c0.2,2.9,2.4,5.3,2.2,8.4c0.3,1.2,0.9,2.7-1.4,2.3s-1.1,1.2-1.3,2
	c0,0.4-0.1,0.9-0.2,1.2c-0.7,0.7-1.7,1.1-2.4,1.9c-0.5,0.9-1.2,1.7-2.1,2.3c-0.6,0.2-1.3,0.2-1.9-0.1c-1.8-1.8-2.8,0.1-4,0.9
	c-2.6-1-2.4-3.6-3.2-5.6c0.3-1.4,0.8-2.8-0.3-4.1c-0.5-0.7-0.7-1.6-0.7-2.5c0.2-0.6,0.4-1.3,0.7-1.8
	C342.4,108.2,342.5,106.2,344.2,105.3z"/>
<path class="st25" d="M355.1,118.5c-0.4-0.9-0.8-1.8-1.3-2.6c-0.5-0.9-0.2-2,0.6-2.6c1-0.9,1.7-0.1,2.4,0.7c1.5,1.6,1.1-0.2,1.4-0.8
	c2.9,2.2,4.2-2.1,6.6-1.7c1.8-0.2,1.9,0.7,1.2,2l-4,9.1c-0.3,0.3-0.7,0.6-1.1,0.8c-1.1,0.3-2.3,0.3-3.4-0.1c-0.4-0.2-0.8-0.5-1-0.9
	C358.4,120.1,355.2,119.9,355.1,118.5z"/>
<path class="st3" d="M493.7,383.1c-1.7-1.4-3-2.5-4.4-3.6c-0.9-0.7-2.3-1.1-1.4-2.6c0.5-0.8,2.1-1.6,2.4-1c0.7,1.2,3.6,0.8,2.6,2.6
	C491.7,380.5,494,381,493.7,383.1z"/>
<path class="st28" d="M362.2,166.5c1.9-2.6,0.3-5.6,1.1-8.3c1,2.6,0.4,5.4,0.6,8.1C363.9,167.7,362.9,167.6,362.2,166.5z"/>
<path class="st28" d="M363.2,157.5c-2-2.6-0.8-5.5-1-8.3C363.3,151.8,363.7,154.7,363.2,157.5z"/>
<path class="st29" d="M361.1,122.5h1l0.2,5.8l-0.4,0.3C358.9,126.9,359.7,124.7,361.1,122.5z"/>
<path class="st29" d="M366.1,113.3c0-0.9-0.5-1.7-1.2-2c0.5-0.7,1.2-1.9,2.1-0.8c0.6,0.9,0.3,2-0.5,2.6
	C366.3,113.2,366.2,113.3,366.1,113.3z"/>
<path class="st30" d="M139.1,321.5l-8,27c1,3.9-1.4,7.1-2.5,10.4c-5,15.7-10,31.4-15.5,47c-0.5,1.4-1.2,2.7-2.2,3.9
	c-1,1.2-2.6,1.4-4,1.9s-3.3-0.1-3.4-1.2c-0.3-7.2-5.5-2.5-7.9-4.3c-0.7,1.4-0.2,1.4,0.3,1.5c1.5,0.2,3.9-0.6,3.9,1.6
	c-0.1,1.9-1.4,3.5-3.2,3.9c-7.2,1.7-14.5,0.3-21.7,0.8c-1.1,0-2-0.8-2-2c0-0.2,0-0.3,0-0.5c0.3-2.4,2.2-1.1,3.4-1.4
	c-3.8-0.2-7.4-1.9-10-4.6c-1.8-1.9-3.4-2.6-6-2s-5.5-1.5-8.3-0.1c-4.2-0.3-8.8,0.5-12.1-3.2c0.9-2,2.7-1.4,3.9-2
	c-2.7-0.6-5,1.6-7.8,1.3c-6.2-3.7-12.1-7.8-17.6-12.4c-8.1-16.2-7.9-33.6-7.6-51c0.1-3.8,0.4-7.6,0.6-11.4l0,0
	c3.5-3.5,4.8-8.5,7.8-12.4c9.3-13.4,18.9-26.6,27-40.8l2-6.2c1.2-9,0.2-18,0.5-27c0.1-1.9-0.6-3.9,0.5-5.8
	c-0.1-5.2,2.9-9.7,3.1-14.8l-0.2-0.8c-0.5-3.4,1.5-6,2.5-8.9c2.2-6.4,4.4-12.9,5.3-19.7c1.1-7.9,3.1-15.7,5.8-23.2
	c1.6-4.6,1.3-9.6-0.8-14c-2.5-5.8-4.5-11.8-7.4-17.4c-1.4-2.3-2.2-4.9-2.4-7.5l0.1-0.8c-0.9-7.6-5.4-13.6-9.3-19.9
	c-0.6-1-1.3-1.9-1.9-2.9c-1-1.9,3.2-2.1,1.3-4.9c-1-1.5-0.6-3.2-3.3-3.3c-3.5-0.1-3.2-3.1-3.6-5.5c-0.1-0.8,0.8-2.2-0.9-2.4
	c-0.3,0-0.7,0.1-0.9,0.4c-1.1,1.3,0.7,1.3,1,2c0.9,1.9,1.1,3.4-1.6,3.8c-9.8-10.6-15.6-23.4-19.8-37c-1.2-3.9-2.6-8.7,2.3-11.1
	c4.5-2.2,8.9-0.1,12.2,3.2c6.4,6.5,11.8,13.9,16.2,21.8c0,1.5,1.3,2,2.2,2.9l0,0c0.5,1.3-0.7,1.6-1.4,2.3c3.9,1.3,2.4,6.7,6.2,8.1
	c2.7,1,5,2.2,5.2,6c0.1,1.7,2.4,3.5,5,2.6c8.6,6.9,13.6,16.3,18.1,26c1.2,5.5,2.7,11,3.7,16.9c2.7-2.5,4.9-0.6,7.1,1.2l5.7,7.4
	c2.8,0.3,4.4,2.7,7.1,3.5c4.1,1.1,6.1,0.1,6.1-4.2c0-11.3-0.3-22.5-0.7-33.8c-0.5-17.1-6.2-33-10.6-49.3C98,49,98,38.7,98.3,28.4
	c0.1-0.7,0.4-1.3,1-1.7c1.3-5.3,1.6-10.8,4.3-15.7c1.8-3.3,4.1-5.7,8.1-5.4c3.8,0.2,7.1,2.7,8.2,6.3c1.8,4.9,2.1,10.1,2.3,15.2
	c0.6,13.3,2.9,26.6,6.9,39.3c0.3,0.7,0.6,1.5,1,2.1c2.7,10.7,8.2,20.5,10.8,31.3c0,2-0.4,4,1.1,5.7c1.3,3-0.2,6.3,0.9,9.4
	c0.4,9.4,1.4,18.8,3.1,28c0.5,2.7,0.8,6,4.5,6.8c2.3,0.7,4.5,0.7,6.4-1.1l3.1-4.3c1.3-1.4-0.2-3.4,1.1-4.7l2.1-8.7
	c1-1.7-0.2-3.7,0.9-5.3v-1.4c0.7-2.7,0.7-5.5,0-8.2v-1.4c-1.1-5.1-0.3-10.2-0.5-15.3c0-0.8,0.1-1.8,1.2-1.5c0.9,0.2,0.7,1.4,1.1,2.1
	c0.1,1,0.1,2.2,1.3,2.4s0.9-1.1,1.1-1.8c2.3-8.6,2.3-8.6-8.7-12.7c13.6-2.4,22.1-12.6,33.6-17.4c1.9-0.8,2.1-2.5,2.6-4
	c3.8-10.5,7.6-20.9,11.4-31.4c0.3-5.1,2.5-9.8,6.2-13.4c1.4-0.2,2.3-1,2.1-2.5c0.1-0.4,0.4-0.8,0.7-1.1c2.5-0.2,4.6-1.5,6.9-2.3
	c0.9,0.3,1.9,0.5,2.8,0.5c4.8-0.9,5.8,1.6,5.1,5.6c-0.6,3.4,3.3,2,4,3.9c1.7,2.1,0.5,4.1-0.1,6.1c-8.5,27.3-17.6,54.4-26.2,81.7
	c-4.7,15.1-9.3,30.2-15.2,44.8c-0.2,0.5-0.5,0.9-0.9,1.2c-3.5,1.6-3.5,1.6-6.3-0.7c-0.3,5.7,0.6,11.3-0.4,17.1
	c-1,5.4-3.5,9.8-6.4,14c-1.6,2.4-1.9-0.4-2.6-1.3c3.7,6,2.1,11.7-0.6,17.4c-2.3,1.5-2.9,3.9-3.6,6.3c-0.3,1.2-0.2,3-2.2,2.7
	c-1.6-0.3-1-1.9-1.1-2.9c0-0.5-0.2-1-0.4-1.5c3.3,7.1,0.7,14-0.4,21c-0.1,0.5-0.3,0.9-0.6,1.3c-2.3-0.7-5.6,2.2-7-1.9
	c0.7,2.3,0.4,4.8,0.7,7.3c0.1,1.8-0.1,3.4,1.2,5.3c1.5,2.2,0.2,5.5-1.9,7.7c-5.1,5.4-8.1,11.3-6.5,19c0.4,1.9-1.5,3.6-1.5,5.9
	c-0.1,3-2.9,3.5-5.7,3.3c-2-0.2-1.3,1.5-1.2,2.5c0.2,3.1,0,5.9-2.9,8c-1.4,1-1.1,2.2,0,3.4s2.3,1.9,3,3.3c-0.1,2.5-0.6,4.9-1.4,7.2
	c-1,2.7-2.1,5.9-6.1,5.4c-0.1,0,0.1-0.3-0.2-0.3c1.4,3.4-3,4.4-3.1,7.4c-0.2,0.5,0.8,0.4,0.2,0.1c-0.2-0.1-0.1-0.2-0.1-0.5
	c0.8-2.8,2.2-2,3.4-0.4C140.7,317.3,139.9,319.4,139.1,321.5z"/>
<path class="st31" d="M192.5,158.6l0.4,0.3c3.7,0.4,6.6-1,9.4-3.4c7.6-6.6,15.5-12.8,23.1-19.4c1.1-1,2.1-2.1,3.8-2.1
	c1.3,0.4,1.6,1.2,0.8,2.2c-1.2,1.6-2.2,3.2-2.7,4c0.6-5.5,6.9-4.5,10.9-6.6c1.9-1,1.1,1.6,1.1,3c0.4-1.4,1.1-2.5,0.2-3.4
	s-1.7,0.3-2.5,0.8c-2.6,1.7-4.6,0.5-6.3-1.6c1-4.2,4.5-5.7,7.9-7.4c0.9,0.3,1.7,0.3,1.3-1.1c0.2-0.6,0.8-1.1,1.4-1.1
	c0.5,0,0.9,0.1,1.3,0.3c1.2,1.2,3.6,1.7,3,3.8c-2.6-5.4,1.6-7.4,5.4-9.7c0.3-0.2,0.6-0.4,0.8-0.6c-0.5-0.6-1.1,0.2-1.7-0.1
	c-0.3-0.3-0.5-0.8-0.6-1.2c1.6-4.9,6.1-7.1,9.5-10.3c1.3-1.2,3-2.1,4.4-3.2c2-1.5,4.2-2.6,5.8-4.6c0.8-1,1.6-2,2.3-3.1
	c0.5-0.7,1.2-1.2,1.9-1.7c1.2-0.8,2.3-1.8,3.3-2.9c1.6-1.6,3.1-3.2,4.8-4.8c1.2-0.9,2.4-1.9,3.5-3c1.6-2,5-1.8,6-4.7
	c1-0.9,2.1-1.6,3.4-2.1c1.9-1.5,4.2-2.5,5.4-4.8c0.7-0.8,1.8-1.3,2.9-1.4c1.4,0.2,2.4-0.8,3.4-1.5c1-0.6,2.1-1,3.3-1.2
	c1.9-0.5,3.8-1.2,5.7,0l2.5-0.1c4.5,0.5,5.9,3.8,6.5,7.6c0.4,3.2,0,6.4-1,9.4c-1.2,4-4.3,6.9-6.5,10.4c-1.1,1.1-2.2,2.3-3.1,3.7
	c-6,5.3-10.3,12.4-17.5,16.4c-1.3,0.6-2.4,1.7-2.9,3c-0.4,1.5-1.6,2.6-3.1,2.9c-5.7,3.1-8.8,8.9-13.7,12.9c-1.5,1.2-2.9,2.7-4.3,4
	c-2.6,1.8-4.6,4.4-7.2,6.1l-1.9,2c-2.3,1.7-4.4,3.7-6.1,6c-0.3,0.3-0.6,0.6-1,0.9c-2.9,2.4-4.6,6-7.7,8.2v-0.1
	c-3.7,2.7-7,5.9-9.8,9.5c-3.9,3.3-6.8,7.7-8.3,12.7c-4.7,9.9-11.6,18.9-13.6,30c-0.6,3.2-1.5,6.6,1.2,9.4c2.4,5.4,5.8,10.3,8.4,15.6
	c0,0.1-0.1,0.3-0.2,0.3c-0.2,0-0.3,0.1-0.5,0.1c0,2.8,1.4,4.5,3.9,5.6c4.7,2,9.2,4.1,14.6,3.9c5.1-0.2,10.1,1.4,15,2.7
	c-0.9,0.9-2,0.4-3.1,0.6c-2.2-0.1-4.4,0.3-6.5-0.2c2.1,0.5,4.2,0.1,6.3,0.2c2.1-0.3,4.3,0.1,6.1,1.1c0.8,1.1,0.2,1.9-0.6,2.6
	c-1,0.4-2.1,0.4-3.2,0.1c1.1,0.1,2.6,0.8,4.3,0c5.5-2.7,11.1-1.1,16.5,0.2c2.1,0.5,4.2,1.1,6.3,0.9c14.1-1.6,28.2-0.3,42.3-0.9
	c4.8-0.2,7.4,2.4,9.8,5.7c2.7,3.7,1.9,5.7-3,7.7c3.3,2.9,1.9,5.4-0.7,7.8s-5.3,5-8.9,6.2c-5.3,2-10.6,4.1-16.5,4.5
	c-3.5,0.8-7,1.4-10.5,2c-14.1,2.2-28.2-1.4-42.2,0.1c-4.3,0.5-8.3-1.7-12.3-2.7c2.2,0.7,5.7,0.3,3,4.5c-1.1,1.1-2.6,1.5-3.9,2.3
	c-2.8,0.4-5.2,2.5-8.3,2.2c-16.8,4.9-34.5,6.8-49.8,16.3c-4.1,1.5-8.8,1.8-12.3,4.8l-1.9,0.1c-1.7,0.8-3.5,1.4-5.3,1.9L164,317
	l-0.3,0.1c-2.2,1.3-4.8-0.2-7,1l0,0c-5.1,1.2-10.2,0.3-15.4,0.5c-3.1-2.5-1.4-5,0.2-7.4c2.8,0.2,4.4-0.2,3.6-3.9
	c-0.4-1.5-0.9-5,3.1-4.6c1,0.1,0.3-0.7,0.2-1c-0.3-1.3-1-2.5-1.9-3.4c-0.6-0.9-0.2-1.8-0.3-2.7c0.1-0.5,0.5-0.8,0.9-1
	c0.5,0,0.9,0,1.4,0.2c0.5-0.1,1.8,1.6,1.6-0.1c-0.6-4.8,3.4-8.1,3.3-12.6c2.9,0,2.3,2.9,4.6,3.7c-6.4-9.6,1.2-17.4,2.8-25.9
	c2.6,0.2,1.2,3.2,2.7,3.9c-2-3.7-0.9-7.8-0.5-11.7c0.6-2,3.8-2.1,3.5-5.1c-0.1-1.4,1.8-1.2,2.8-0.5c2.1,1.4,3.6,0.9,5.2-0.8
	c2-2.2,5.6-0.7,7.5-2.9c0-0.7-0.1-1.1-0.4-1.1c-8-1.4-10.4-6.9-5.5-13.5c1.2-1.6,1.6-5.4,4.7-4c2.7,1.2,0.4,4.2,0.7,6
	c-0.1,1,1,0.3,0.3,0.4c-0.1-3.2-0.1-6.4,3.9-7.4c1.2-0.3,2.7-0.1,3.8-0.9c0.3-1.3-0.7-1.4-1.4-1.6c-3.7-1.1-8-5.3-7.2-8.5
	c0.9-3.5-0.1-6.1-0.9-9.1c1.4-2,1.6-4.7,0.5-6.9c0-0.4,0-0.9,0.2-1.3c1.1-2.2,2.6-4.2,1.6-6.9c2.3-8.3,4.8-16.4,7.3-24.6
	C190.1,161.8,190.7,159.8,192.5,158.6z"/>
<path class="st32" d="M240.8,123.3l-0.6,1.1c0.4,1.1,0,1.2-1,0.9c-3,1.9-5.7,4.4-8,7.2c-0.3,0.9-1,1.6-1.9,1.9
	c-9.4,7.9-18.8,15.7-28.3,23.6c-2.5,2.1-5,4.3-8.1,0.9c-1.2-3.6,1.8-5.9,2.7-8.8c3.7-12.1,7.8-24,11.6-36
	c8.1-25.2,16.1-50.3,24.1-75.5c1.4-4.3,2.6-8.8,3.8-13.1c0.2-0.1,0.4-0.1,0.7-0.1c2.1-0.8,1.4,1.6,2.4,2.2
	c-0.2,5.2-3.8,9.4-4.4,14.5c-0.2,1.4-0.9,2.5,0.7,3.3s2.9,2.3,5,1.3c3.9-1.8-1.4-2.9,0-4.9c8.5,2,17.7,1.3,26,5.5
	c1.6,0.8,4.6,1.5,1.1,4.1c-0.9,0.7,0.8,0.8,1.4,1c0.7-0.4,1.1-0.1,1.4,0.5c-0.3,1.1,1,1.5,1.1,2.5c1.2,2,3.6,1.7,5.4,2.7
	c3,1.6,3.1,2.9,0.6,4.9c-1.6,0.4-3.3,0.6-5,1c-1-0.2-1.9-0.8-2.9-0.9c-0.8-0.2-1.5-0.8-1.8-1.5c0-0.8,0.2-1.8-1.1-1.7
	c-1.1-0.6-2.4-0.6-3.4,0c-0.9,0.1-1.8-0.1-2.5-0.5c-1.4-0.6-2.8-1-4.3-1.3c-0.3-0.5-0.9-0.7-1.4-0.4c-0.1,0.1-0.2,0.2-0.3,0.3
	c-1.5-0.2-3-0.7-4.5-0.9c-0.8,0.6-1.3-3-2.2-0.1c-1.1,0.2-2.3-0.2-3.1-0.9c-0.6-0.7-1-1.5-1.2-2.3c-1-3.4-1.6,0.1-2.4,0.2
	c-1.9-0.9-3.6-1.3-2.6,1.9c-0.1,0.7-0.4,1.3-0.9,1.8c-1.4,1.2-2.5,2.7-3.3,4.3c-0.7,1.6-1.2,3.2,0.5,4.4s2.6-0.5,3.6-1.6
	c0.8-0.9,1-2.7,2.9-1.9c0.7,0.9,0.9,2.2,0.4,3.3c-1,0.8-0.4,1.8-0.5,2.8c-0.9,1.5-1,3.2-1.7,4.8c-1,0.9-2.6,1.2-2.6,2.9
	c0.5,1.1,2.1,0.4,2.5,1.6c-0.9,5-4.4,1.2-6.6,2c0.5,0,1,0,1.5,0.1c0.5,0.2,0.8,0.5,1,1c-0.5,1.8-2.6,2-3.4,3.6
	c-0.6,1.1,0.7,2,0.2,3.1c-1.5,1.1-2.9,2.5-4,4c-1.1,0.5-1.1-0.9-1.9-1c0,1.4-2,2.5-0.7,4.1c0.4,0.8,0.4,1.7,0,2.5
	c-1.3,1-2.9,1.9-2.4,4c1.2,1.8,1.8,0.3,2.5-0.5c2.3-2.9,4.9-3.9,8-1.2c2.1,1.8,1.3-2.7,3.1-1.3c0.4,0.1,0.7,0.4,0.9,0.8
	c0.2,0.3,0,0.9,0.4,1.2c0.1-0.4,0.1-0.9,0-1.3c-0.3-1-1.3-1.6-1.6-2.6c-0.1-1.8-2.1-3-1.5-5c1.1-1,2.5-1.4,3.9-1.1
	c0.9,0.4,1.5,1.2,1.6,2.1c-0.2,1.8,1,2.7,2.3,3.5c0.5,1.7,1.5,0.1,2.2,0.3c1.1,0.1,2.1,0.4,2.9,1.1c0.7,0.9,0.2,2,0.6,2.9
	c0,1.3-0.4,2.6-1.3,3.5c-3.4,0.9,1.6,2,0,2.9c-1.1,1.2-2.1,2.6-3,4c-0.9,0.2-1.5-0.1-1.5-1.1c-0.8,0.5-0.1,1.1,0,1.6
	c0.1,1.2,0.4,2.5,1.5,3c3,1.3,2.5,3.5,1.5,5.8C244.3,121.7,242.7,123.1,240.8,123.3z"/>
<path class="st33" d="M316,93.1c1.2-3.8,4.6-6.1,6.2-9.6c1.9-3.9,1.6-8,1.1-12.1c-0.1-0.8-0.7-1.7,0.4-2.1c0.8-0.3,1.7,0,2,0.8
	c0.1,0.2,0.1,0.4,0.1,0.6c-0.8,3.9,2.3,6.4,3.3,9.7c-0.2,0.9-1.4,1.4-1.2,2.5c1-0.2,0.8-1.2,1.2-1.8c0.3-4.8-2.6-8.6-4.3-12.8
	c-0.5-1.3-3.1-2.8,0.3-3.9c1.1,1.2,2.5,2.3,3.1,3.7c4.1,8.3,9.1,16.2,10.9,25.6c0.8,4.2,4.4,7.2,4.9,11.6c-0.5,1.8-0.7,3.6-1.9,5.1
	c-1.3-0.6-1.3-2.2-2.2-3.2c-0.8-0.8-2.5-1.4-1.9-2.6c2.8-5.6-1.8-9.3-3.6-13.6c-0.9-2.1-2.8-3.5-0.8-6.1c-0.3-0.5-1.2-0.5-0.6-0.4
	c0,0-0.1,0.2,0,0.4c0.6,1.8-1,2.2-1.8,3.1c-0.8,0.6-0.9,1.7-0.4,2.6c0.9,1,3.4,0.7,2.9,2.6c-0.3,1.7-1.8,2.8-3.5,2.7
	c-0.7-0.1-1.4-0.2-2.1-0.1c0.8,0.9,1.7,0.1,2.4,0.4c1.7,0.6,3.5,1.1,4.8,2.6c0.8,0.9,1.1,2.1,0.8,3.3c-0.6,1.6-1.9,0.9-3,0.6
	c-0.7-0.1-1.2-1.2-1.9-0.2c-0.1,0.2,0.7,0.6,1.1,0.7c3.2-0.3,4.9,1.6,6.4,4.1c0.2,0.6,0.4,1.2,0.6,1.9c0.2,1.1,1.3,1.7,1.6,2.7
	l1.1,1.9c-0.3,1.3,0.9,2.6,0,3.9l3,6c1.2-0.7,2.6-1.1,4.1-1h1.8l0.6,0.2c0.8,0.3,1.5,0.8,2.1,1.3l0.4,0.5c-1.6,2.9,1.5,5.3,0.8,8.1
	c-1.2,1.1-2.1,2.4-2.8,3.9c1.9,2.4,2.8,5,1.9,8c-0.5,0.9-1.7,1.4-2.7,1l-2,0.9c-2.3-0.2-3.3,0.9-3.2,3.1c0.4,0.5,1.2,1.1,1.1,1.4
	c-0.3,0.9-1.3,0.4-2,0.5c-0.5,0.6-1.5,1.3-1.1,1.8s1.4-0.3,2-0.7c2.3-0.5,1.6,2.8,3.9,3c0.9,0.1-1.5,1.3-2.2,2.1
	c-0.8,1.4-1.7,2.7-2.8,3.9c0.7,1.2,3.5,1.1,2.4,3.3c-0.6,1.2-1.6-0.3-2.5-0.2c-1.1,0.7-2.1,0-3.1-0.1c-0.9-0.4-2.9,0-1.6-2.1
	c1.3-1.9,0.5-3.5-1-4.8h-4.2c-0.8,1.3-1.7,2.6-2.8,3.7c1.6,2.2,4.5,4.7-1.1,5.4c-0.7-0.7-0.9-1.8-2-2.1l-2.1,1
	c-1.9,0.1-3.7,0.5-3,3.1c2,1,1.9,2.8,1.8,4.6c-0.1,1-0.1,1-1.9,0c-1.9-1.2-3-0.5-3.8,1.4c0,0.3,0,0.6,0,0.9l0,0
	c-1.1,0-2.3-0.2-3,1.1c0.6,1.5,0.6,3.2,1,4.8c-3,0.9-6,1.8-9,0.1c0.5-0.5,1-0.9,1.6-1.1c0.5-0.3,1.2-0.5,1.3-1.2s-0.5-0.7-1-0.6
	c-0.9,0.8-0.9,2.2-1.9,2.9c-2-2.4-2.2-5,0.6-6.7s-0.1-4.9,2.4-6.3c0.4-1.3,0.1-2.9,1-4.1l1.1-2.3c1.6-1.9,0.5-2.8-1.2-3.6l-2.2,3.2
	c-0.2-4.7-0.2-9-4.7-11c-0.9-0.6-2.2-0.3-2.8,0.7c-0.1,0.1-0.1,0.2-0.2,0.3c0.7,0.7,0.8,1.9,0.1,2.7l-2.1-0.9
	c-1.8-0.4-2.8,0.1-2.6,2.2c-0.1,0.9-0.5,1.7-1.2,2.3c-2.9,2.3-0.7,2.6,1.1,3.1c2,1.5,0.7,2.7-0.4,3.9c-0.6,0.7-1.3,1.2-2.2,1.6h-0.8
	c-2-1.2-3.7-0.7-5.1,1c-0.6,0.9-1.2,1.2-1.9,0.1c-0.3-1.6-1.5-2.7-2.1-4.1c-0.3-1.7,0.7-3.6-0.9-5c-1.3,0.9-2.2,0.1-3-0.9
	c-0.1-1.5-1.1-3.5,1.9-3.1c0.6-0.5,1.9-0.3,1.9-1s-1.3-0.5-1.9-1l-6.2-3.2l0.5-0.5c1-0.4,2.1-0.7,3.2-0.7c0.6-0.2,1.4-0.2,1.2-1.1
	s-1-0.6-1.6-0.7c-0.6,0-1.3-0.1-1.9-0.4l-0.5-0.4c-0.4-1.1-2.3-1.6-1.6-3.2c2.5,0.6,3.2-1.6,4.6-2.8c0.8-1.1,1.5-0.9,2.1,0.1
	c1.7,1.5,2.9,1.2,3.8-0.9c0.7-1.3-4.8-1.3-0.7-3.4c1.7-0.5,3-1.1,1-2.9c0.3-2.9-0.5-6,1.7-8.5c0.1-1.2,1.1-1.8,2-2.5l2.3,1.9
	c1.3-1,2.3-2.3,2.9-3.9c-0.1-0.7-1-1.6,0.2-2.2c0.7-0.9,2.8-1.6,0.2-2.7l-1.3-1.1L313,96.5c2.1,0,4.1-0.9,6.1-1.3
	c0.8,0.2,1.4,0.9,2.7,0.6c-1.1-0.8-2.4-1.1-3.7-0.7C316.8,95.1,315.6,95,316,93.1z"/>
<path class="st34" d="M309.1,67.4l-2.9,1.1c-1.8,1.1-3.9-0.7-5.6,0.7c-0.7,0.5-1.6,0.8-2.4,1c-1.5-0.2-2.9,0.6-3.5,2
	c-0.3,0.3-0.7,0.5-1.2,0.5c-2-2.1-2.5-5.5-5.6-6.6c-0.8-1-2-1.8-3.2-2.1c-1.3-0.2-1,2.5-2.7,1.6c-1.1-1-2.3-2-3.7-2.7
	c-1.3-3.6,3.5-2.5,3.8-5c0.7-1.5,1.6-2.3,3.4-1.5l21.7,9.3C307.8,66.3,309.6,65.5,309.1,67.4z"/>
<path class="st35" d="M325.2,64.5c-0.1,4.2,2.7,7.5,4.3,11c1,2,1.1,4.3,0.4,6.4c-1.1,0.3-1.9,0-2.1-1.2c0.9-1.7-0.6-2.2-1.5-3.1
	l-0.6,1.9H325v-9.4c-1.7,4.5,0.8,9.4-2.9,13.4c0.3-2.1,0.6-4.2,0.9-6.3c0.9-4.5-1.3-9-5.3-11.1l-6.2-12.4
	C316.8,56.3,322.3,58.8,325.2,64.5z"/>
<path class="st10" d="M214.2,21.5c-3.4,3.9-4.5,9-7,13.3c-0.3-1.1-1.1-1.9-2.1-2.3c-0.8,0.2-1.5-0.4-1-0.9c3.1-2.7,3.5-7,6-10.1
	c5.4-3,3.2-8.4,4.1-12.9l5.9,2.8l-0.1,1c0,2.8-2.6,4-3.9,6l0,0C215.3,19.4,215.8,21.1,214.2,21.5z"/>
<path class="st36" d="M270.5,55.3c0-0.9-2-0.4-1.3-1.8c0.4-0.5,1.1-0.8,1.8-0.7c1.1,0,2.1,1.1,3.2,0c0.2-0.5,0.5-0.9,0.9-1.3l7.1,3
	c-1,0.7-1,1.3-0.3,2.3c0.9,1.2,0.2,2.1-1.1,2.5C276.8,59.2,273.6,57.5,270.5,55.3z"/>
<path class="st37" d="M309.1,67.4l-2-1.8c4.1-1.3-0.3-4.4,1.4-6.4c2.6,2,5.3,3.9,6.7,7L309.1,67.4z"/>
<path class="st38" d="M216.1,18.5c0.7-2.3,2.1-4.4,3.9-6l3.1,3C220.7,18,218.5,19,216.1,18.5z"/>
<path class="st30" d="M223.8,10c2.9,1.7,4.7,2.4,6.2,0.3c0.4-0.6,1.2-0.2,1.7,0.3c1.1,1.2-0.4,1.2-0.8,1.6
	C228,14.6,226.5,14.3,223.8,10z"/>
<path class="st37" d="M281.1,58.5c1.5-3.1-2.4-1.8-2.7-3.7c0.9-1.4,2.4-0.3,3.7-0.3l3.3,1.9c-2,0.1-2.3,1.4-2.2,3.1
	C282,60.1,281.1,60.3,281.1,58.5z"/>
<path class="st30" d="M232,11.2c2.1,0.9,2.9,1.9,2.6,3.5c-0.1,0.2-1,0.6-1.2,0.5C232.2,14.3,232.5,12.8,232,11.2z"/>
<path class="st39" d="M238.1,27.5l-2.4-2.2c0.4-1.2,0.3-2.6,1.7-3.8C238.8,23.5,238.3,25.5,238.1,27.5z"/>
<path class="st30" d="M232.2,7.1c1.3,0.1,2.5,1,2.9,2.2C232.2,11.3,233.1,8,232.2,7.1z"/>
<path class="st30" d="M226.1,7.3c1.1-1.1,2.7-1.4,4.1-0.8C228.9,7.5,227.9,9.3,226.1,7.3z"/>
<path class="st40" d="M99.2,26.7c-1,16.2,2.3,31.7,7,47c5.1,16.5,7.4,33.8,6.8,51.1c-0.2,5.6,0.1,11.3,0.1,16.9s-2.7,7.6-8,5.4
	c-2.3-0.9-5.1-1.5-6.2-4.3c0.9-1.3,2.6-2.8,3.4-1.1c1.2,2.5,2.5,2.5,4.6,1.8c0.3-0.1,1.1,0.2,1.2,0.4c0.2,0.7-2,2.5,0.9,2
	c1.2-0.2,2.2-1.2,2.2-2.5c0-0.8,0.1-1.7,0-2.5c-0.3-13.9,0.5-27.9-1.4-41.6c-1.5-10.7-3.7-21.6-7.6-31.9c-0.7-1.6-1.1-3.3-1-5.1
	c-1.8,1.2-0.3,3.4-2.1,4.1l-3-18.8c2.4-8.9-0.3-18.2,2.9-27.1L99.2,26.7z"/>
<path class="st7" d="M126.1,32.5c-0.1-0.2-0.1-0.3-0.1-0.5c0.3-1.2-2.5-1.7-0.9-3.2c0.3-0.1,0.6-0.1,0.9,0
	C127.7,29.9,127.3,31.2,126.1,32.5L126.1,32.5z"/>
<path class="st7" d="M124.7,19.3c0.7,1,0.6,2.3-0.1,3.3C123.9,21.6,123.9,20.3,124.7,19.3z"/>
<path class="st41" d="M192.8,54.4l1.2-2.9c3.6-1.6,3.7-5.4,5-8.4c0.8-1.7,0.9-3.5,3.2-3.6c1.9,3.1-1.2,5.1-1.8,7.7
	c-0.8,3.9-3.5,7.2-3.4,11.5C194.5,57.8,198.1,52,192.8,54.4z"/>
<path class="st7" d="M166,99.7c-0.4-0.5-0.8-1.4-1.2-1.4c-1.6-0.2-1,1.2-1,2c0.1,4.8,0.2,9.5,0.4,14.2c-2-2.1-0.7-4.8-1-7.1
	c-0.4-3.4,0.9-7-0.9-10.2c-0.6-1.1-0.3-1.5,0.9-1.2c0.5,0,0.9,0,1.4-0.1c-1.1-1.2-1.7-2.7-1.8-4.3c2.9-0.2,5.7-0.2,3.5,4.7
	C165.8,97.2,166.1,98.5,166,99.7z"/>
<path class="st9" d="M210.1,21.5c0.3,4.6-3.5,7.3-5,11c0.1,1.5-1.4,2-2,3c-1.7-1.6-0.2-3.3,0.4-4.4c1.6-2.6,2.9-5.4,3.7-8.4
	C207.6,21,208.7,20.7,210.1,21.5z"/>
<path class="st7" d="M157,148.5c-1.7,2.7-4.1,1.7-6.4,1.1c1.5-0.3,3.3,0.4,4.5-1.1H157z"/>
<path class="st7" d="M164.2,115.9c0.9,2.6,0.9,5.5,0,8.2C164.2,121.3,164.2,118.6,164.2,115.9z"/>
<path class="st41" d="M202.1,39.5c0-1.1-0.2-2.3,1-3C204.9,38.1,203.2,38.7,202.1,39.5z"/>
<path class="st7" d="M161.2,139.5c0.3,1.7-0.1,3.4-1.1,4.7C160.3,142.6,159.5,140.7,161.2,139.5z"/>
<path class="st7" d="M164.1,125.5c0.3,1.8,0,3.7-0.9,5.3C163.3,129,162.5,127,164.1,125.5z"/>
<path class="st7" d="M143,114.8c-0.9-3-1.2-6.2-0.9-9.4C144.1,108.5,142.8,111.7,143,114.8z"/>
<path class="st42" d="M64.3,91.4c-4.3,2.5-6.2,1.9-6.3-2.8c0-2.8-1.1-3.8-3.4-4.1c-2.4-0.4-4.2-2.2-4.6-4.6
	c-0.2-3.2-1.7-4.2-4.2-4.8c0.5-2.1,2.8-1.3,3.5-2.8L64.3,91.4z"/>
<path class="st43" d="M93.2,135.5c-2.9-0.4-5.7-1.6-8.4,0.8c-0.6,0.5-1.9-0.7-1.5-1.3c3.6-4.5-2.6-8.2-1-12.3c0.7-1.9-1.9-3.5,0-5.2
	L93.2,135.5z"/>
<path class="st42" d="M49.3,72.4c-1.2-0.6-3.3-0.5-2.2-2.9c0.2,0.1,0.5,0.1,0.7,0.1L49.3,72.4z"/>
<path class="st44" d="M58,147.7l-1.6-2.5l-7.7-20.6c2.2-4.8,2.2-4.8,6.1,0.4c0.1,0.1,0.3,0.1,0.5,0.2l0,0c0.7,4.2,1.8,8.2,4.3,11.9
	c2.2,3.1,3.4,6.9,3.3,10.7c0,1.1,0,2.6-1.5,2.6c-1.3,0-1.8-1.2-2.2-2.4s0.4-2.6,0-3.9c0.1-0.7-0.8,0.2-0.1,0.1
	c0.2,0,0.2,0.1,0.2,0.5C59.2,145.9,59.2,147,58,147.7z"/>
<path class="st45" d="M36.1,92.5c0.9-0.9,2.1-1.7,0.6-3.2c-1.2-1.3-2.3-2.8-3.3-4.3c5.5-1,7,1.3,6.6,6c-0.2,2.4,1.7,2.6,3.9,2.1
	c2.5-0.5,5.1-0.6,2.6,3.2c-0.2,0.3-0.6,0.8-0.5,1.2c0.8,3.2,0.8,3.4-1.9,5C41.1,99.4,38.4,96.1,36.1,92.5z"/>
<path class="st44" d="M42.5,105.9c2.2,0.3,2.2,1.9,2.2,3.4C43.7,108.5,41.8,108.3,42.5,105.9z"/>
<path class="st44" d="M48.9,113.9c-0.3,0.5-0.5,1.3-1,1.5s-0.7-0.5-0.6-0.8c0.3-0.5,0.7-1,1.1-1.5L48.9,113.9z"/>
<path class="st23" d="M6.1,332.5c0.9,0.2,2.5-0.3,2.4,1c-0.8,7-0.2,14-0.5,21c-0.1,3.3,1,6.5,0.8,9.8c-0.8-3.5-4.5-6.5-1.9-10.7
	c0.4-0.6-0.1-1.5-1.2-1.7c-3.1-0.6-3.7-2-3.1-5.5C3.4,341.6,6.8,337.6,6.1,332.5z"/>
<path class="st18" d="M11.3,324.7c-1.2-2.8-1.2-2.8,1.4-7.4C14.2,320.2,10.1,321.9,11.3,324.7L11.3,324.7z"/>
<path class="st18" d="M48.2,212.5c2.3-11,6-21.5,9.2-32.2c0.8-2.7,1.8-5.3,2.7-7.9c4.3,4.1,1.4,8.8,0.7,13.1
	c-1.3,8.9-3.3,17.8-7.5,25.9c-1,1.9-0.5,4.2-1,6.3l0,0c-1.8,0.1-1.9,2.1-3.2,2.8c-0.7-1.3-0.9-2.3,0.4-3.5
	C52.2,214.7,50.5,213.5,48.2,212.5z"/>
<path class="st18" d="M45,234.2c2,4.2,0.9,8.4,1.1,12.4c0.1,0.9-0.5,1.6-1.4,1.7l0,0c-1.2,0.1-1.3-1.2-1.2-1.7
	c0.2-2.2-4.1-5,0.8-6.9C45.1,239.5,41.7,236.2,45,234.2z"/>
<path class="st46" d="M49.2,232.5c-0.1,10.2-0.2,20.4-0.3,30.6c0,0.8,0,1.7-0.7,2.2c0-9.4,0-18.8,0-28.2
	C48.1,235.5,47.6,233.7,49.2,232.5z"/>
<path class="st18" d="M43.2,248.1c5.2,4.5,1.3,9.1,2.5,13.4l-1.4,0.1L43.2,248.1z"/>
<path class="st18" d="M47.1,224.5c0.3,2.7,0.9,5.5-2.1,7.7C44.9,229.2,45.4,226.7,47.1,224.5L47.1,224.5z"/>
<path class="st18" d="M47.1,224.5c-0.1-1.7,0.2-3.2,2-4C49.2,222.2,48.9,223.7,47.1,224.5z"/>
<path class="st47" d="M172.1,416.3c-17.8,0.1-35.6,0.2-53.4,0.3c-3.5,0-7-0.2-10.5-0.3l1.3-4.5c-16.3,3.3-32,4-47.8,0.8
	c1.2-0.8,2.3-1.9,4-1.4c1.4,1.4,3.3,0.2,4.2,0.7c-1.1,0-2.2,0-3.4-0.1c-2.3-1.8-4.3,0.5-6.5,0.6c-1.2,0.3-2.4,0-3.3-0.8
	c0.3-0.5,0.9-0.9,1.5-1.1c-0.5-0.3-0.9,0.1-1.3,0.1c-1,0-1.9-0.2-2.8-0.2c-2-0.4-3.8-1.4-5.3-2.8c0.5-0.8,0.8-1.7,0.8-2.6
	c0.2-0.4,0.5-0.7,0.9-0.8c1.1,0.7,2.6,0.5,3.3-0.6l0,0c0.3-0.4,0.9,0.1,1.3-0.2c-0.6-0.2-1.3-0.3-2-0.2c-0.4-0.1-0.8-0.4-1.1-0.7
	c1.5-1.2,3-2,4.9-0.7c0.3,0.2,0.7,0.5,0.9,0.5c7.1-2.6,10.6,3.9,15.5,6.5c2,1,4-0.5,6,1.2c-1.7,1.4-3.9-0.2-5.4,1.2
	c0.1,2.8,2.2,2.4,4,2.4c4.6,0,9.1-1,13.7-0.1c3.3,0.6,5.9-1.5,7.5-4.5c-0.9-0.6-1.9-0.2-2.8,0.1c-1.5,0.4-3.5,1.6-4-1
	c-0.3-2,2.1-3.2,3.3-3c3.6,0.8,7.9-1.2,10.9,2.3c0.5,2.1-3.7,0.3-2.4,2.5c1.9,3.2,4,0.2,6-0.3c4.1-3.5,8.8-6.2,13.9-7.9
	c2.6-0.1,5.2,0,7.8-0.1c0.8,0,1.6,0,2.4,0.1c3.7,1.3,7.5,0.5,11.2,0.8c0.5,0,1.1,0.1,1.6,0.2c4.3,1.6,8.8,0.5,13.2,0.9h0.8
	c1.7-0.9,3-1.3,4.2,1C167.4,408.5,169.8,412.4,172.1,416.3z"/>
<path class="st48" d="M52.1,402.5h1c0.5,2.9-2.4,0.8-3,2v1c-0.8,1-2,1-3.1,1.1l-6.5-3.4l-4.5-3.8c2.5-2,5.6-2.3,8.6-2.9
	c1.2-0.2,3-0.6,3.1,1.4c0.1,1.6-1.5,1.4-2.6,1.5c-1.3,0-2.6,0-5.2,0C43.8,401.2,47.9,402.2,52.1,402.5z"/>
<path class="st30" d="M54.1,410.5l7.1-1.5l0.3,1.1l-4.7,1.6C55.8,411.8,54.7,411.3,54.1,410.5z"/>
<path class="st30" d="M47.1,406.6c0.7-1.3,1.9-1.1,3.1-1.1c0.7,1.4,0.2,2.1-1.3,2.1L47.1,406.6z"/>
<path class="st30" d="M60.1,412.5c1.9-1,3.6-2.9,6-1l-4.3,1.2L60.1,412.5z"/>
<path class="st49" d="M52.3,217.7c-1.5-7,3.3-12.5,4.6-18.8c1.7-8.7,5.3-17.3,3.2-26.5l1.2-5.9l2-3c1.1-3.2,2.1-6.5,0.3-9.8
	c-0.7,0.7-0.7,2.6-2.5,1.9c-1.6-2.4-2.1-5.2-3-7.9c1-2,0-4.1,0.3-6.4c2.6,2.5,1,6.1,3.5,9.8c-0.2-6.6-1.1-11.3-4.8-15.5
	c-2.4-2.7-2.9-6.5-1.8-10.3c5.4,10.1,9.3,20.7,13,31.5c0.4,1.4,0.3,3-0.2,4.4c-5.6,15.2-6.1,31.6-11.8,46.7
	C55,211.1,53.6,214.4,52.3,217.7z"/>
<path class="st44" d="M61,155.6l2.5-4.1c3.3,4.9,3.2,7-0.2,12"/>
<path class="st50" d="M342.3,205.8l-0.2,9.3c-1.1,2,0.4,4.4-1,6.3l-0.2,0.2l0.2,0.2c-1.2,2,0.7,4.6-1.3,6.4l-1.8,5.7
	c-3.6,1.9-6.7,0-9.9-1.3c-0.7-2,2.3-2.4,1.8-4.3c-2.3,0-2.2,3.8-5,3.2c-2.3-0.2-4.1-1.6-5.9-2.9c-0.5-2.2,1.5-1.4,2.4-2.1
	c1.4-0.9,2-2.7,1.6-4.3c-0.3-1.3-1.3-0.3-2-0.4c-0.7-0.1-1.2-0.6-1.4-1.2c-0.1-0.8,0.1-1.5,0.4-2.2c-0.9,0.5-1.6,1.4-1.9,2.4
	c0,0.4,0,0.9-0.1,1.3c-0.4,1.9,1,5.2-3.2,4.4c-14.1-2.5-27.7-7.4-43.1-9.5c3.1-2.8,6.4-3.3,7.5-6.6c-5,1.1-9.4,4.5-14.6,1.9
	c5.8-1.2,10.1-3.6,10.3-10.2c0-0.9,0.2-1.7,1.4-1.6c2,0.1,1.9,2,2.6,3.2c2.1,2.7,5.1,2,7.9,2c1.2,0.3,2.5,1.1,2.8-1
	c0.5-1.3,0.8-2.7,2.5-2.9c1.3,0.2,1.3,1.1,1.5,2.1c0.2,1.6,0.8,2.5,2.4,1.1l4.2-5.6c4.4-0.7,1.8,2.2,2,3.8c-0.4,1.6-0.7,3.4,1.5,1.1
	s4-4.8,6.6-8.2c1.4,4,2,6.2,2.9,8.3c0.4,0.9,1.1,1.9,2.2,1.8c1.4-0.1,1.4-1.5,1.2-2.3c-1-3.7,4.3-4.3,3.7-7.7c1-2.7,2.5-4.8,5.8-4.9
	c0.6,0-0.2,0,0.3-0.4c0.2-0.2,0-0.5-0.4-0.7c-1.4-0.8-0.1-1.1,0.3-1.6c0.6,0,1.2-0.2,1.9-0.2c1.5,0.1,2.4,1.6,3.8,1.9
	c1.3,0.1,2.5,0.2,3.7,0.5c1.5,0.4,2.6,3,4.8,0.3c1.1-1.4,2.8,0.4,2.7,2.1C343,197.6,343.8,201.8,342.3,205.8z"/>
<path class="st31" d="M261.1,253.5l1-2c-0.3-0.3-0.4-0.5-0.3-0.6s0.3-0.2,0.4-0.2l16.7,2l0.9-0.1c5.1-0.1,10.2,0,15.3-0.1
	c5.7,0.3,11.5,0,17.2,0.1c5,1.5,10.2,0.6,15.3,0.9c2,0.1,4-0.3,5.9,0.5l0.6,0.6c6.8,5.5,7.6,11.6,2.6,18.7
	c-5.2,7.3-12.9,10.1-21,12.3c-2.2,0.6-4.5,1.2-6.7,1.9c-1.8,1.9-4.3,1.4-6.5,1.7c-6.7,0.8-13.4,1.6-20.1,0.8
	c-10.1,0-20.3-0.4-30.4,0.5c-0.6,0.2-1.2,0.3-1.8,0.4c-1.8,0.1-3.6,0.3-5.1-1.2c1-1.1,2.5-2.5-0.4-2.9c-2.2-0.2-4.4-0.2-6.6,0
	c2.6-1.6,4.7-2.7,6.9-1.8c6.6,2.6,13.4,1.7,20.1,1.8c5.8,0.1,11.5-0.1,17.4,0.8c7.4,1.2,15-0.2,22.2-1.4c3.2-0.5,6-3.9,9.6-2.6
	c5-2.9,11.3-2.6,16.1-6.2c2.1-1.6,1.7-4.9,4.9-5.4c0.8-0.1-0.8-1.7-1.7-2.3c-1.2-0.8-2-2-1.5-3.4c0.6-2,1.7-1.2,3-0.5
	c0.3,0.2,4,0.1,2.4-2.6c-2.1-3.7-3.9-7.6-9.5-7.4c-11.2,0.4-22.5,0-33.8,0.1c-6.7,0.1-13.2,1.8-19.9-1.7c-3.5-1.8-8.4-0.7-12.4,1.6
	C261.6,254.9,260.5,254.6,261.1,253.5z"/>
<path class="st51" d="M311.9,253.6c-5.6,0.6-11.2,0.1-16.8-0.2c-5.3-1.1-10.7,0.4-16-0.8l-0.1,0.1c7.4-2.4,15-0.8,22.5-0.9
	c0.7,0,1.5,0.8,2.8-1.5c-5.7,0-10.8,0-15.9,0c-2.7,0-5.6,1.1-8.1-0.8c1.2-1.4,2.7-0.6,4.1-0.5c-1.4-0.2-2.9-1-4.2,0.5
	c-5.9-2.3-11.7-4.8-17.6-6.9c-3.9-1.4-7.6-3.6-10.6-6.5c0-0.2,0.1-0.3,0.2-0.4c0.3-0.1,0.7-0.2,1-0.2c2.2-1.5,3.7,0.4,5.4,1.2
	c6.8,3.6,33.1,10.4,41.2,10.4c-1.4-1.4-3.4-1.8-3.6-3.7c5.8-5.5,7.3,3,11.3,3.8c0.5,0.1,2.1,1,3.8,0.9c-1.6,2-4.1,0.9-5.1,3
	c8.6,1.1,17.3,1.6,26,1.4c2.8-0.1,2.8,0.1,2,2.1v-0.1c-5.4-1.3-10.9-0.2-16.3-0.6C315.8,253.8,313.8,254.3,311.9,253.6z"/>
<path class="st19" d="M123.1,402.5c-4.4,2.1-8.2,5.5-13,6.9c7.5-18.1,12.8-37,18.9-55.6c0.6-1.8,0.7-3.9,2.1-5.4
	c0.5,1.1,3.9-0.4,2.2,2.4c-3.6,5.5-4.7,12.3-3.1,18.7c-3.1-0.6-0.2-3.6-2.7-4.5c-3.7,13-7.2,25.9-12.4,38.6c1.2-2.4,3.3-2,5.1-2.4
	c5.4-1.4,10.9-0.9,16.3-0.6c4,0.2,8.3-1.6,11.9,0.3c4.1,2.1,8.8,0.3,12.7,2.6l0,0c-4.8,0.7-9.7,0.8-14.5,0.1l-0.3,0.2l-0.2-0.2
	c-4.1-1.5-8.4,0.2-12.6-1h-1.4C129.2,401.6,126.1,401.6,123.1,402.5z"/>
<path class="st52" d="M296.1,243.4c2.3,2.1,5.8,2.1,7.6,5.3c-17.6-1.6-34.7-5-50.6-13.2l-1-1c-0.2-1,0.4-1.5,1.2-1.8
	c10.3,0.3,20.4,3,29.4,8l1.4,0.8c2.3,1.1,4.8,0.7,7.2,0.8L296.1,243.4z"/>
<path class="st53" d="M287.1,206.4c-2.3,1.1-5,1.3-7.4,0.4c-2.2-0.6-1.2-1.8-0.8-3c0.9-4.3-2.3-4.3-5.1-4.6c-0.1-3.1,3.2-3.1,4.2-5
	c-0.7-0.7-0.7-1.8,0-2.5c0.1-0.1,0.2-0.1,0.3-0.2c0.7,0,0.9-2,1.7-0.8c0.8,1.4,0.9,3.1,0.2,4.5c3.1-1.7,3-6.4,7.1-5.5
	c3.6,0.8,1.3,4.2,2.2,6c1.6,1,0.9-3.6,2.4-0.9c1.3,2.4,1.4,3.4,2.5,0.1c0.5,0.1,0.9,0.2,1.3,0.4c0.7,0.3,0.9,0.8,0.3,1.4
	c-0.9,0.9-1.8,1.9-2.7,2.9c0,1.1,0,2.2-1.1,2.8c-1.7,0.4-0.5,2.6-1.9,3.2C289.3,206.6,288.5,207.6,287.1,206.4z"/>
<path class="st54" d="M282.4,289.4l26.6-2c2.7,0.9,5.6-1.6,9.4,0.3c-21.2,5.7-41.8,2.7-62.2,3.8l-0.4-0.9c0.1-1.3,0.9-1.6,2-1.6
	C266,289.2,274.2,288.5,282.4,289.4z"/>
<path class="st55" d="M225.5,237.2c-3.2-5-7.3-9.6-7.7-16c4.9,3,7.9,9,14.5,9.4c1.7,0.1,1.2,1.5,1,2.7c-0.2,1.8,0,3.7-2.5,4.1
	C229,237.8,227.2,237.7,225.5,237.2z"/>
<path class="st56" d="M282.8,240.6c-9.8-2.6-19.2-6.9-29.6-7.2c-0.9-0.6-2.1,0.2-3-0.5c-0.9-0.5-2.1-0.7-2.1-2.1
	c3.8-2.6,7.2,0.6,10.8,0.9c4.8,0.5,9.4,2.3,14.5,1.6c1-0.2,1.1,3.3,3.4,3.4c3.6,0.2,6.8,2.2,11,1.8
	C286.3,239.6,284.6,240.4,282.8,240.6z"/>
<path class="st57" d="M143,311.1c-1.2,2.3-1.9,4.8-2.1,7.4c0,0.7-0.3,1.4-0.7,1.9l-1,1c-1.1-2,1.2-5.1-2.1-6.5c-1.3,1.6,1.6,4-1,5.2
	c-0.5,0.1-0.9,0-1.3-0.4c-1.4-2.2-0.2-5,0.8-6c2.6-2.6,2.9-5.2,1.5-8.6c2,0.7,1.6,2.5,2.4,3.3c5.6-2.2,4-8.2,6.6-12
	c-0.1-1,0.2-1.4,1.2-0.8l-0.1,2.8C147.1,303,145.6,307.4,143,311.1z"/>
<path class="st54" d="M234.1,294.3c2.6-1,4.8-3.1,7.9-2.9c4.7-1.7,9.4-0.6,14.2,0.1l0,0c0.9,1.5,2.7,0.7,5.2,1.9
	c-6,0-10.8,1-15.2-0.6c-2.9-1.1-1.2,2.2-2.9,2.2C240.1,294.8,237,295.5,234.1,294.3z"/>
<path class="st27" d="M361.1,122.5c0.2,2-0.7,4.2,0.9,6.1c-4.8,2.8-6.4-0.4-7.9-4.1l0,0c-0.5-0.4-0.7-1-0.7-1.6
	c0-0.4,0.1-0.8,0.2-1.2c0.4-1.1,0.4-2.4,1.4-3.2l0,0c2.1,0.6,2.7,2,1.9,4.2c-0.1,0.2-0.2,0.4-0.3,0.6c0.1,0.2,0.2,0.1,0.4-0.1
	c-0.3-0.2-0.3-0.4,0-0.7c-0.1,0-0.1,0.1-0.1,0.2C358.3,122.5,359.7,122.4,361.1,122.5z"/>
<path class="st58" d="M342.3,205.8c0-3.3,0-6.6-0.2-9.9c-0.1-1.4,0.9-3.6-1-3.9c-2.6-0.4-0.8,2.7-2.3,4c0-2.8-3.3-2.3-3.8-4.7
	c-0.3-0.4-0.2-0.7,0.3-0.9c2.4-1.6,5.5,0.1,7.8-1.9v-0.1c1,5.3,1.1,10.7,0,16L342.3,205.8z"/>
<path class="st59" d="M320.7,221.6c1,0.1,1.2-2.4,2.8-0.8c1,1,2.2,2,1.1,3.4s-1,4-3.6,3.7c-1-0.1-1.6,0-2,0.8l-4.2-2.1
	c3.9-0.3,0.9-3.7,2.3-5.1C318.4,220.6,319.4,223.7,320.7,221.6z"/>
<path class="st60" d="M261.7,206.3c3.8,0.7,6.8,0.5,7.3-4.2c0.1-0.6,0.4-1.4,1.2-1.2c0.9,0.2,1.4,1,1.4,1.8c0.3,2.4-1,4.7-3.2,5.7
	C265.5,210.1,263.5,208.7,261.7,206.3z"/>
<path class="st61" d="M297.1,157.5l1-1.9c0.6-0.9,1.9-1.1,2.8-0.6l2.1,2.7c-1,1-2.5,1.8-1,3.5c-1.4,1-0.5,3.3-2.3,4.1
	c-0.9-0.2-2,0.1-2.6-1c0.1-1,3.2-1.2,0.9-2.9C296.9,160.4,296.5,158.8,297.1,157.5z"/>
<path class="st59" d="M324.9,231.6c2.4-1.5,2.5-6.6,7.5-4.8c-1.2,2.1-1.3,5-4.3,5.9C326.8,232.8,325.7,232.4,324.9,231.6z"/>
<path class="st62" d="M258.8,149.3c-1,5.2-4.8,8.1-8.8,10.9c-0.1,0.1-0.5-0.3-0.8-0.4c2-3.3,4.3-6.4,7-9.2l0,0
	C256.7,149.7,257.7,149.2,258.8,149.3z"/>
<path class="st61" d="M305.1,162.5c1.4-2.8,3.1-0.7,3.2,0.3c0.1,1.6,1.4,4-0.7,4.8c-1.8,0.7-3.4-1.1-4.1-2.8
	C303,163.7,302.1,161.5,305.1,162.5c0.5,0.5,0.9,1,1.2,1.5C306,163.4,305.6,162.9,305.1,162.5z"/>
<path class="st63" d="M249.1,159.7c-0.3,0-0.6,0-0.9-0.1"/>
<path class="st63" d="M256.1,150.5"/>
<path class="st58" d="M331.5,192.2l-3.6-2.9c0.6-2.8,3-1,4.5-1.7c1.5-0.3,1.9-2.4,3.6-2.3c1.2,2.2-1.1,2.8-1.8,4.1
	C333.7,190.8,331.9,190.8,331.5,192.2z"/>
<path class="st64" d="M238.2,168.5c0.4-0.5,0.8-0.5,1.2,0.1c-3.6,4-6.7,8.5-9.3,13.2"/>
<path class="st65" d="M245.1,212.3c1.7,1.9,5.9,0.1,5.9,3.5c0,2-2.8,0.9-4.2,0.9C243.4,216.6,245.3,214,245.1,212.3z"/>
<path class="st66" d="M290.1,167.5c-0.3-1.6-0.3-2.9,1.7-3.4c2.2-0.6,3,0.7,3.4,2.4C294,168.9,292.1,168.5,290.1,167.5z"/>
<path class="st63" d="M239.4,168.6l-1.2-0.1"/>
<path class="st63" d="M248.2,159.5"/>
<path class="st67" d="M324.1,168.6c-1.5-1.1-2.6-2.4-1-4s2.9-0.4,4,0.9C327.2,167.2,325.9,168.5,324.1,168.6
	C324.2,168.6,324.2,168.6,324.1,168.6z"/>
<path class="st68" d="M339.3,157.5c1.6-0.3,3.2-0.1,3.5,1.8s-0.8,2.7-2.5,3.1C338.5,161.1,337.4,159.6,339.3,157.5z"/>
<path class="st69" d="M351.3,145.5l2.7-1c0.9,1.1,2.2,2.1,1.1,3.8c-0.4,0.9-1.5,1.3-2.5,0.9C351.1,148.5,350.9,147.1,351.3,145.5z"
	/>
<path class="st70" d="M140.1,320.5c-0.2-0.7,0.1-1.5,0.8-1.9l16.2-0.2c-2.4,2.1-5.3,0.8-7.9,1.1C146.1,319.8,143,318.8,140.1,320.5z
	"/>
<path class="st71" d="M288,138.8c1.3,1.9,1.1,3.7-1.2,4.2s-2.6-1.5-2.5-3.3C285.1,138.5,286.7,138.1,288,138.8z"/>
<path class="st72" d="M327.3,187.1c0.8-2.5,5.2-2.8,3.8-6.5c0.4-0.1,0.9-0.5,1.2-0.4c0.4,0.2,0.7,0.6,0.9,1c0.5,2.2-0.7,3.7-2,5.2
	C330.1,187.8,328.9,188.9,327.3,187.1z"/>
<path class="st73" d="M346.1,149.6c-1.3-1.2-2.2-2.6-0.6-4.1s2.8-0.5,3.8,1c0,1.7-1.3,3-2.9,3.1
	C346.3,149.6,346.2,149.6,346.1,149.6z"/>
<path class="st74" d="M318.1,181.3c-2.3-1.2-2.6-2.8-1-4.8c1.6,0,3,0.2,3.3,2.1C320.6,180.3,319.3,180.7,318.1,181.3z"/>
<path class="st75" d="M288.3,132.5c1.3,0,2.7-0.5,3.5,1.2c0.4,0.8,0.2,1.7-0.5,2.2c-1.5,1.2-2.8,0.5-3.9-0.5L288.3,132.5z"/>
<path class="st76" d="M284.2,152.5c1.3-1.3,2.7-2,4.1-0.2c0.7,0.8,0.5,2-0.3,2.7c-1.4,1.4-2.6,0.4-3.8-0.5
	C284.2,153.8,284.2,153.1,284.2,152.5z"/>
<path class="st77" d="M346.1,152.5c-0.1,1.8-0.5,3.4-2.7,3.2c-1.1,0-2-1-1.9-2.1c0-0.1,0-0.2,0-0.3c0.4-2.1,2-2.3,3.8-1.8
	L346.1,152.5z"/>
<path class="st78" d="M300.9,155l-2.8,0.6c-1.1-1.4-1.9-3,0.1-4.1c1.8-1,2.6,0.3,3,2L300.9,155z"/>
<path class="st31" d="M172,315.3c3.2-4,7.9-4.1,12.3-4.8C180.5,313,175.9,313.4,172,315.3z"/>
<path class="st79" d="M282.1,139.5c0.6,4.6-2.1,3.6-4.6,2.8l0,0c-0.3-0.2-0.6-0.4-0.5-0.6c0.2-0.5,0.6-0.5,1.1-0.5
	C278.9,139.5,279.7,137.5,282.1,139.5z"/>
<path class="st80" d="M320.1,174.5c-1.1-1.5-1.5-3.1,0.4-4c2.4-1.1,3,0.8,3.4,2.6C322.9,174.2,321.8,175.1,320.1,174.5z"/>
<path class="st81" d="M313.1,158.5c1.5-1,3.1-1.6,3.9,0.5s-0.5,3.3-2.7,3.2C313.2,161.2,312.7,159.8,313.1,158.5z"/>
<path class="st82" d="M297.5,114.6c0.9-0.6,1.8-1.9,2.9-0.7c0.5,0.6,0.7,1.5,0.5,2.2c-0.6,2.1-2.3,1.4-3.7,1.2
	C297,116.5,297,115.5,297.5,114.6z"/>
<path class="st83" d="M282.3,157.5c1.1-0.2,2.2,0.1,3,0.9c0.2,1.6,0.2,3.1-1.7,3.5c-0.8,0-1.6-0.4-2.1-1
	C280.5,159.6,281.5,158.6,282.3,157.5z"/>
<path class="st84" d="M352.1,136.5c-2.1-3.5-0.9-4.6,2.8-3.9C355.9,135.2,355.3,136.8,352.1,136.5z"/>
<path class="st33" d="M290.2,119.5l3.1-2.9c1.6,0.2,2,1,0.9,2.3S291.9,121.3,290.2,119.5z"/>
<path class="st85" d="M297.1,119.6c2.2,3.7,0.9,4.6-2.9,3.9C293.6,120.9,294.1,119.4,297.1,119.6z"/>
<path class="st58" d="M325.9,190.5c1.5,0.8,1.1,1.6-0.1,1.9c-2.4,0.6-4,2.3-5.5,4C320,192.5,322.8,191.3,325.9,190.5z"/>
<path class="st86" d="M332.3,161.2c-0.7-2.5,0.3-3.6,2.8-3.7c1,1,1.7,2.3,0.8,3.6S333.5,161.8,332.3,161.2z"/>
<path class="st87" d="M272.2,136.4"/>
<path class="st63" d="M258.8,149.3l-2.6,1.1"/>
<path class="st88" d="M248,230.8l2.1,1.5c0.3,0.3,0.4,0.8,0.1,1.2c-0.1,0.1-0.2,0.1-0.3,0.2l-6.8-3.2c-0.2-0.9,0.1-1.4,1.1-1.3
	L248,230.8z"/>
<path class="st89" d="M341.9,164.5c1.1-1.4,2.1-0.3,3.1,0.1c-0.1,1.6-0.9,3.3-2.4,3.1C340.7,167.5,341.7,165.6,341.9,164.5z"/>
<path class="st90" d="M279.7,168c-0.8,0.1-1.6-0.5-1.6-1.4v-0.1c-0.2-1.3,0.3-2.3,1.7-2.4c1-0.1,2.1,0.2,2,1.5
	C281.6,166.7,280.8,167.6,279.7,168z"/>
<path class="st91" d="M141.3,373.6"/>
<path class="st92" d="M292,202.4c0.3-1,0.1-2.2,1.1-2.8c1.8,0.8,1.3,2.4,1.2,3.8s0.1,2.3,1.8,1.9C291.6,208.7,294.1,202.2,292,202.4
	z"/>
<path class="st61" d="M286.1,163.5c1.4,1,4.4,1.2,2.1,4.1C285.7,167.1,285.7,165.4,286.1,163.5z"/>
<path class="st93" d="M313.1,164.4c1.2,1.7,1.1,3.2-1,4.1C310.6,166.6,309.3,164.8,313.1,164.4z"/>
<path class="st94" d="M345.1,161.5c-0.5-2.3-0.1-4,2.8-3.9C349.7,160.8,347.7,161.4,345.1,161.5z"/>
<path class="st95" d="M291.3,242.3c-2.6,2-4.9,0.7-7.2-0.8C286.5,242,289.1,240.5,291.3,242.3z"/>
<path class="st96" d="M297.1,164.3c0.9,0.1,2.3-0.9,2.6,1c-0.9,1.4-1.6,3.4-3.7,1.1L297.1,164.3z"/>
<path class="st89" d="M278.3,191.5l-0.3,2.7c-0.9,0.1-2.1,0.8-2.7-0.3c-0.7-1.4,0.4-2.6,1.2-3.4S278,190.7,278.3,191.5z"/>
<path class="st97" d="M302.2,203.5c-1.3-0.9,1.7-4.1-2-3.8c0.2-1,0.7-1.9,1.9-1.8s1,1.1,1,1.9C303.1,201.1,303.4,202.5,302.2,203.5z
	"/>
<path class="st98" d="M302,161.2c-1.3,0.4-1.9-0.2-1.7-1.5c0.2-1.6,1.1-2.3,2.7-2L302,161.2z"/>
<path class="st99" d="M294.6,173.6c-0.8-0.6-0.7-1.4-0.5-2.1c0.2-1,1.1-1.2,1.9-0.9s0.7,1,0.4,1.6
	C296.2,173.1,295.5,173.6,294.6,173.6z"/>
<path class="st100" d="M309.6,183.5c1.5,1.2,1.6,2.2,0.7,3.2c-0.3,0.3-1.1,0.5-1.2,0.3C308,185.7,308.7,184.7,309.6,183.5z"/>
<path class="st101" d="M327.3,187.1c1.4,0.6,2.6-0.3,3.9-0.7l1.2,1.1c-1,1.8-3.1,0.8-4.5,1.7l-1.7-0.4L327.3,187.1z"/>
<path class="st102" d="M329.2,164.5c0.9-0.3,2-1.1,2.6,0c0.3,0.4-0.4,1.4-0.7,2.1C328.6,167.7,329,166,329.2,164.5z"/>
<path class="st70" d="M157.1,318.4c2.2-1.4,4.6-0.9,7-1C162,319.4,159.5,318.2,157.1,318.4z"/>
<path class="st103" d="M262.2,250.6c-0.1,0.3-0.1,0.6-0.1,0.9c-2-0.4-3.8-1.4-5.9-1c-0.4-0.2-0.5-0.3-0.4-0.6
	c0.1-0.2,0.2-0.4,0.3-0.4"/>
<path class="st104" d="M303.4,154.4l-0.1-2.7c0.8,0,2-1.1,2.2,0.5c0.1,1-0.6,2-1.6,2.1C303.7,154.4,303.5,154.4,303.4,154.4z"/>
<path class="st33" d="M320.1,175.5c3.8-0.2,1.7,2.3,2,5.1L320.1,175.5z"/>
<path class="st105" d="M278,149.3c-1.4-1.7-1.8-3.2,1-3.8l0,0C280.5,147.3,279.8,148.5,278,149.3L278,149.3z"/>
<path class="st33" d="M278.1,141.2l-0.6,1.1c-2.4-1.4,0-2.6,0.5-4L278.1,141.2z"/>
<path class="st106" d="M244.3,229.2l-1.1,1.3c-0.9-0.5-2.4-1.2-1.5-2.3S243.5,228.6,244.3,229.2z"/>
<path class="st70" d="M164.9,317.3c1.6-1.2,3.2-2.1,5.3-1.9C168.9,317,166.8,317.7,164.9,317.3z"/>
<path class="st107" d="M331.5,192.2c0-1.8,1.3-2.3,2.6-2.8l1.1,1.1c-0.1,0.3-0.2,0.6-0.3,0.9C333.8,191.7,332.4,191.1,331.5,192.2z"
	/>
<path class="st61" d="M301.5,171.6c0.7,0.8,0.8,2,0.2,2.9C300.5,173.5,301.5,172.5,301.5,171.6z"/>
<path class="st108" d="M250,233.6l0.2-1.4c1.1,0.2,2.2,0.2,3,1.1l-1,1L250,233.6z"/>
<path class="st109" d="M348.9,336.7c0.8-0.1,1.2,0.2,1,0.8c-0.1,0.4-0.4,0.8-0.9,1.1c-0.6,0.2-0.9-0.3-0.8-0.8
	C348.4,337.4,348.6,337,348.9,336.7z"/>
<path class="st110" d="M278.7,153.5c-0.6-0.2-0.9-0.5-0.7-1.1c0.2-0.7,0.8-1.1,1.5-1c0.4,0,1,0.6,0.9,0.7
	C280.2,152.8,279.5,153.4,278.7,153.5z"/>
<path class="st111" d="M291.9,121.5c0,1.4-1.1,1.8-2,2.5C288.5,121.5,290.1,121.5,291.9,121.5z"/>
<path class="st25" d="M343,204.5c-0.4-5.3,1.1-10.6,0-16C344.9,193.6,344.9,199.3,343,204.5z"/>
<path class="st25" d="M345.4,201.7c0.5,3.3,1.5,6.7-1,10.9L345.4,201.7z"/>
<path class="st25" d="M341.1,221.5c-0.2-2.2,0.2-4.3,1-6.3C341.9,217.3,343,219.6,341.1,221.5z"/>
<path class="st25" d="M339.7,228.3l1.3-6.4C340.7,224.1,342.3,226.6,339.7,228.3z"/>
<path class="st112" d="M349.2,122.5c-1.1,1.5-2.5,1.7-4.1,1c-0.5-1.7-0.6-3.4,1.5-3.8C348.6,119.3,349.1,120.9,349.2,122.5z"/>
<path class="st113" d="M351.1,122.5l1.1-2.9c3.5-1,2.4,1.2,2,2.9l0,0C353.2,124,352.2,123.9,351.1,122.5L351.1,122.5z"/>
<path class="st114" d="M342.1,117.5c-0.7-1.3-1.5-2.6,0-3.9C343.2,114.8,345.3,116.1,342.1,117.5z"/>
<path class="st115" d="M341,111.7c-1.4-0.2-3-0.2-2.9-2.3c1-0.4,1.7-1.2,2.1-2.2c0.2-0.4,0.5-0.7,0.9-0.8c1.2,1.1,0.8,2.7,1.1,4.1
	L341,111.7z"/>
<path class="st25" d="M354.1,122.5c0.5-1.7,0.8-3.4-2-2.9c0.7-1.3,1.9-1.1,3-1.1C355,119.8,355.6,121.4,354.1,122.5z"/>
<path class="st29" d="M362.5,116.6c-0.3,0.4-0.6,1.1-1.1,1.3s-0.8-0.3-0.6-0.8c0.3-0.5,0.7-0.9,1.1-1.3L362.5,116.6z"/>
<path class="st31" d="M181.1,203.5c-0.9,2.3,3,2.9,1.9,5.4c-0.9,2.1-0.4,4.1,0.3,6.3c0.8,2.6,1.2,4.7,4.6,4.4c1.9-0.2,3.9,0.1,4,2.6
	c0.2,2.9-2.2,2.5-3.9,2.3c-5.1-0.4-5.5,3.1-5.8,6.7c-0.1,1.2,1.2,2.4,0,4.1c-2.4-3.3-0.1-7.2-2.1-11.1c-1.5,3.8-4.5,5.9-5,9.6
	c-0.7,5.3,0.4,6.6,5.6,6.6c1.2,0,3.2-1.5,3.3,1.3c0.1,2-0.1,3-2.7,3.5c-2.8,0.6-6.1,0.4-8.2,3.9c-1.5,2.6-3.3-2.3-5.6-1.9
	c-1.2,1.8,0.3,3.7,0.2,5.4c-1.6,0.9-2-3.8-3.6-0.3c-0.6,0.6-1.5,0.6-2.2,0.1c1-7,2.4-13.9,6.1-20.1c0.2-0.1,0.4-0.4,0.3-0.6v-0.1
	c1.1-7.4,4-14.3,5.9-21.4c1.8-3.4,2.4-7.4,4.9-10.4C181,200.5,182.1,201.3,181.1,203.5z"/>
<path class="st116" d="M168.1,232.5l-5.9,20c0.4,0.9,0.5,2,0.1,3c-3.1,9-6,18.1-9.1,27.1c-0.5,1.5-0.8,3.2-2.3,4.2
	c-0.4,0.1-0.9,0.1-1.4,0c-0.3-0.6,0,0.2-0.3-0.3c-0.3-0.7-0.6-1.4-0.8-2.2c0.1,0.9,0.4,1.7,1,2.4c0.3,3.2-2.1,5.8-2.1,8.9l0,0
	l-1.2,0.9c-2.1-0.5-3.3-2.2-4.7-3.4s-1.8-3.4,0.2-4c4.4-1.3,4-4.5,3.3-7.6c-0.8-3.5,0.2-4.5,3.5-3.4c1.7,0.6,3.8-0.1,3.5-1.5
	c-0.6-2.9,1.6-5,1.4-8.1c-0.3-3.9-1-8.4,2.4-12.5c2.7-3.1,7.2-6,6.4-11.1c-0.3-1.9-1-3.7-1.4-5.6c-0.6-3.1,0.7-6.2-0.4-9.2
	c-0.4-1.2,0-3.1,1.7-3c1.9,0.1,0.8,1.7,0.6,2.7c-0.5,2-0.3,3.3,2.1,1.7C166.3,230.3,166.9,232.2,168.1,232.5z"/>
<path class="st117" d="M178.9,200.4l-3.8,10.1c-2.4-2.1-1.9-3.8,0.9-5c2.9-6.6,1.1-13.6,1.4-20.5c2.1,1.4-0.1,3,0.8,4.2
	c5.9-5.1,6.2-12.7,7.6-19.6c0.8-3.6-0.7-7.7-1.3-11.6c-0.1-0.9-0.3-1.7,0.6-2.1c0.6-0.3,1.4-0.1,1.7,0.5c0.1,0.1,0.1,0.3,0.2,0.5
	c0.8,3.8,3.2,2.7,5.5,1.9c-2.7,10.4-7.3,20.2-9.6,30.8c0.5,2.4-1,4.1-2,6l0.1-0.1C180.3,197,181.4,199.4,178.9,200.4z"/>
<path class="st116" d="M176,205.5c-2.2,1.3-1.2,3.2-0.9,5l-6.9,21.3c-0.4-1.1-1.4-2.5-1-3.2c4.1-7,1.6-14.2,0.9-21.4
	c0-0.3,0.3-0.6,0.6-1c2.7,2.1,0.4,5.4,2,7.8C173,211.3,170.9,206.1,176,205.5z"/>
<path class="st116" d="M153.1,248c0.9,2.5,2.6,3.9,0.9,5.7c-0.2,0.2-1.1,0.3-1.3,0.1C151.7,252.2,151.9,250.6,153.1,248z"/>
<path class="st38" d="M214.2,21.5c0.2-1.2,0.9-2.3,1.9-3c-0.2,1.4,1.6,2.7,0.3,4C215.3,23.5,215,21.7,214.2,21.5z"/>
<path class="st57" d="M136.7,324.2c-0.3,0.5-0.6,1.2-0.8,1.3c-1.1,0.1-0.7-0.8-0.6-1.3c0-0.3,0.5-0.6,0.7-1L136.7,324.2z"/>
<path class="st118" d="M281.1,58.5c0.4,0.7,1.2,1,2,0.9c-0.5,2.8-4.7-0.1-5,3.2c1.1,1.2,2.5,2.2,4,2.9c1-0.6,1-1.5,1-2.5
	c0-0.2,0.3-0.4,0.4-0.6l0.6,1.2c1.2,1,2.7,1.7,4.3,1.9c4.1,0.7,4.5,4.1,5.4,7.1c0.8,1.3-0.6,1.8-1,2.7c-0.7,0.8-1.2,1.7-1.4,2.7
	c-1,2.9-3.8,3.4-6,4.7c-2.2-0.4-3.4,0.5-3.4,2.8l-4.8,5c-0.4,0.3-0.8,0.3-1.3,0.2c-1,0-1.9-2.8-2.8,0c0.3,0.9,1.4,1.5,0.9,2.6
	l-1.6,1.5c-2.4-0.3-2.8,0.9-2.4,2.9c-1.3,2.5-3.7,3.5-6.1,4.6c-2.4,1.4-4.4-1.1-6.7-0.5c-1.6-0.6-3.3-0.6-4.8,0.1
	c-0.9,0.1-1.7-0.1-2.5-0.5c-1-0.4-1.9-1-2.5-1.9c-1.3-0.5-0.6-1.4-0.4-2.2c-0.6-1-1.9-1.5-3-1c-0.7,0.1-1.4,1.1-2,0
	c-0.6-1.6-3.2-1.8-3-4l-1.1-2.2c-1.8-1.2-3-0.6-3.8,1.3c1.2,1.4,3.4,2.5,2,5c0.6,0.5,0.6,1.3,0.1,1.9l-0.1,0.1
	c-1.6,1.2-2.6,3.7-5.5,1c-1.7-1.6-4,0.1-5.4,2c-1.4,0-2.8,0-4.3,0c-0.8-2.8,0-4.4,3.2-4c1.8-1,2.2-2,0-2.9c-0.7,0-2.3,1.1-1.6-0.9
	c0.8-1.8,1.8-3.5,2.9-5.2c1,0.7,0.2,2.7,1.9,2.8c1.3-1,2.5-2.2,3.5-3.5c0.7-1.3-4.7-1.3-0.7-3.3c1.5-0.6,2.8-1.6,3.8-2.9
	c0-1.9-3.3-0.2-2.7-2.1c0.7-2.4,2.2-0.1,3.4,0c1.7,0.1,3.4,0.2,3.2-2.3c-0.9-0.3-1.8,0-2.6-0.6c-1.2-3.7,1.8-3.1,3.6-3.7
	c0.3-1.4,0.7-2.8,1.1-4.2c0-0.8-0.9-1.8,0.5-2.4c1.6-1.5,1.8-2.8-0.4-3.8c-0.7,1.3-1.4,2.5-2.3,3.7c-1,1.2-2,2.8-4.1,1.6
	c-1.9-1.1-3.2-2.7-2.3-4.8c1-2.5,1.8-5.4,4.9-6.4c0.8,0.2,1.3,1.7,2.3,0.9c0.2-0.2-0.9-1.1-1.3-1.8c-1.9-1.7-2.5-3.8-0.1-5.1
	c2.8-1.5,0.9,3,3,2.8c0.8-0.7,2-0.7,2.7,0l0.1,0.1c0.7,0.5,1.1,1.2,1,2c0.6,1.8,1.3,3,3,0.9c0.2-0.4,0.3-1.2,0.5-1.2
	c1-0.1,1.2,0.8,1.6,1.4c1.3,1.2,3.1,1.6,4.8,1c0.4-0.7,0.8-0.9,1.2-0.1c1.6,0.7,3.2,1.6,5.1,0.9l1.9,1c1.2-0.8,2.7-0.8,3.8,0l1.9-1
	c0.5,1.2-0.5,2.1-0.8,3.1c0.2,0.8-0.6,2,0.5,2.4c0.6,0.2,1-1,1.5-1.5c1.8-1.5,1.8,0.2,2.1,1.3c1.8,1.3,3.3,0.7,4.7-0.8
	c0.6-1.5,3.1-3.1-0.9-3.9c-1.8-0.4-3.6-1.1-5.2-2c-2.5-1.4,0-1.3,0.6-1.7C274.2,55.8,277.2,58.7,281.1,58.5z"/>
<path class="st31" d="M151.7,299.4l-3.6-4c-1.5-3.5,0.9-6.1,2.3-8.9l10.9-32.1c3.2,2,2.4,4-0.1,6c0,5.5-1.8,10.5-3.8,15.4
	c-0.6,1.6,0,6,1.2,7.5c0.9,1.1,0.9,2-0.1,7.1"/>
<path class="st119" d="M250.1,100.5l2.1,1c0.3,0.3,0.4,0.6,0.4,1c-0.1,0.8,0.1,1.3,1.1,1c1.4-0.4,2.3-1.7,3.7-2c2.6-2.5,4.4,1,6.7,1
	c-4.5,4.4-9.9,7.9-14,12.7c-1.5,2-2.7,4.4-5.8,4.3c0.5-2.3,0-3.5-2.5-4.9c-3-1.6-0.3-5-1-7.8c2.1,0.7,0.8,3,2.2,3.7
	c1.4-0.8,2.9-1.6,3.6-3.2c0.5-0.6,1.2-1,2.1-1l0.8,0.4c-0.3-0.1-0.5-0.3-0.7-0.4c-1-0.2-1.9-0.5-1.9-1.8
	C247.8,103.1,248.9,101.7,250.1,100.5z"/>
<path class="st31" d="M229.2,134.5c0.3-0.9,1-1.6,1.9-1.9c2.3,0.6,4.5,2.7,6.7-0.2c0.7-1,1.8-0.7,2.6,0.1c1.7,1.6-0.5,3.8,0.7,5.4
	c-0.7,0.4-1.5,1.4-2,1.2c-3.7-1.1-0.6-3,0-5.2c-2.3,1.3-4,2.5-6.4,2.5c-1.6,0-4.1,1.3-4,3.1c0.4,4.7-2.4,3.4-5.6,3.1
	C225.9,139.9,229,138.1,229.2,134.5z"/>
<path class="st25" d="M256.1,291.5c-4.7,2.3-9.4-1-14.2-0.1l3.2-1.9h5c0.6,0.2-0.3,0.1,0.4,0.3s1.5,0.1,2.2,0.3
	c-0.6-0.3-1.4,0-1.8-0.7c3.6-1.9,7.5-0.8,11.2-0.7c6.8,0.1,13.6-1,20.3,0.7c-7.3,0-14.6,0-21.9,0.1
	C258.8,289.5,256.6,288.7,256.1,291.5z"/>
<path class="st31" d="M143,311.1c0.6-4.5,2.6-8.5,4.2-12.7c3,1.2,3.3,2.4,1.4,7.7c-0.1-0.8-0.3-1.5-0.6-2.2
	c-0.2-0.6-0.8-0.6-0.8,0.1c0.2,1.9-1.9,3.5-0.2,5.6c1.1,1.5-0.3,3.6-1.6,4.1C143.4,314.7,143.4,312.5,143,311.1z"/>
<path class="st31" d="M250.1,116.5c1.6-0.5,2.2-2.5,4.4-2.7c0.6,2.8-2,3.2-3,4.7c-1.7,2.3-8.9,1.9-4.3,7.9c0.7,0.9-1.7,2.8-3.2,3.6
	c-0.4,0.3-1.4-0.9-1-1.1c4.3-2.6-1-3.6-0.8-5.4C244.5,120.8,246.3,117.5,250.1,116.5z"/>
<path class="st31" d="M161.1,260.5c0.9-2,1.8-4,0.1-6l0.9-2h2c0.7,4.2-2.1,9,1.9,12.8c0.5,0.9,0.3,2-0.6,2.6l0,0
	c-1.2,0.5-1.7-0.6-2.1-1.5C162.3,264.5,162.7,262.2,161.1,260.5z"/>
<path class="st37" d="M292.1,74.4l1.8-1.8l0.4-0.3c1.1-1,2.4-2,3.7-2.8l2.1-1.1l0.5,0.5c0.1,0.7,0.1,1.4-0.1,2.1
	c-0.7,3-3.7,3.4-5.5,5.1C293.9,75.6,292.6,75.6,292.1,74.4z"/>
<path class="st120" d="M316,93.1c0.6,1.4,2,1.3,3.2,1.3c0.2,0.3,0.1,0.7-0.1,1c-1.8,1.4-3.3,5.1-6.1,1
	C313.8,95.2,314.4,93.7,316,93.1z"/>
<path class="st31" d="M178.9,200.4l2-5.1c1.9,2.7,2.9,5.4,0.2,8.2C181.1,202.1,180.3,200.8,178.9,200.4z"/>
<path class="st57" d="M150.4,286.6l-2.3,8.9l-0.8,0.1c-2.3-3.6,0.8-6.2,1.8-9.2l0,0L150.4,286.6z"/>
<path class="st31" d="M250.1,116.5l-8,7l-1.4-0.2l3.5-3.8l5.8-4.3L250.1,116.5z"/>
<path class="st121" d="M282.1,85.5c-1.5-1.3-1.9-2.8-0.3-4.2c1.8-1.5,3-0.4,3.7,1.4C284.8,84.1,283.6,85.1,282.1,85.5z"/>
<path class="st122" d="M270.2,97.8c-2-0.3-2.4-1.5-1.4-3.1c1.2-2,2.6-1.3,3.8,0.1L270.2,97.8z"/>
<path class="st31" d="M180.9,195.4c0.1-2.1,0.8-4.2,2-6C185.7,192.5,182.1,193.6,180.9,195.4z"/>
<path class="st123" d="M292.1,74.4c1.2-0.1,2.4,0.6,2.8,1.8l-3.4,1.9C290.2,76.5,291,75.5,292.1,74.4z"/>
<path class="st37" d="M300.1,68.5c2-2.2,4,0.1,6.1,0.1c-0.7,1-1.9,1.6-3.2,1.4c-0.6-1.2-2.2-0.2-2.8-1.3L300.1,68.5z"/>
<path class="st124" d="M153.4,315.6h7C157.1,316.8,155.2,316.5,153.4,315.6z"/>
<path class="st125" d="M161.2,313.7h5.6l0.1,0.4h-5.5L161.2,313.7z"/>
<path class="st126" d="M256,249.5c0.1,0.3,0.1,0.6,0.2,0.9"/>
<path class="st31" d="M261.1,253.5l1,2l-5.2-1.4C258.4,253,259.8,253.7,261.1,253.5z"/>
<path class="st127" d="M276,90.5l1.3,0.2c-0.8,1.2-1.7,2.5-3.2,2.8l-2-1.9C273,90.3,274.6,89.8,276,90.5z"/>
<path class="st128" d="M240.4,127.6c-0.9,0.4-1.1-1.3-1.3-2.2"/>
<path class="st129" d="M300.2,68.6c1.3-0.3,2.8-1.2,2.8,1.3l-2.6,1.2C300,70.3,299.9,69.4,300.2,68.6z"/>
<path class="st130" d="M255.8,284.7c-0.4,0.3-0.8,0.4-1.2,0.5"/>
<path class="st131" d="M237.5,55.6c2-0.5,3.4,0.2,3.6,2.3c0.1,1.1-0.7,2.1-1.8,2.2c-0.1,0-0.3,0-0.4,0c-2-0.2-2.8-1.5-2.4-3.5
	L237.5,55.6z"/>
<path class="st132" d="M269.1,62.4c0.5,1.5,0.8,2.9-0.9,3.8c-0.9,0.5-2.1,0.2-2.6-0.7c-1.2-1.9,0.1-3,1.5-3.9L269.1,62.4z"/>
<path class="st133" d="M275.9,62.9c0.4,1.7,0,3.1-1.8,3.5s-2.6-1.1-2.9-2.7C272.5,61.7,274.1,61.5,275.9,62.9z"/>
<path class="st134" d="M247.2,107.5c0.2,3.3-0.8,4.8-4.2,3c-0.4-2.5,0.1-4.3,3.1-4.2C247,106.2,247.4,106.5,247.2,107.5z"/>
<path class="st135" d="M254,57.7c-0.7,1.4-1.4,2.7-3.3,2.2c-1.6-0.5-1.7-1.8-1.5-3.2C251.2,55.1,252.8,55.5,254,57.7z"/>
<path class="st136" d="M247.1,56.5c0.3,1.4,0.4,2.7-1.2,3.4c-1,0.4-2.1,0.1-2.6-0.8c-1.1-1.5,0-2.4,0.9-3.5L247.1,56.5z"/>
<path class="st137" d="M240.1,62.5c1.7-0.7,3.5-0.8,3.8,1.3c0.4,2.6-1.5,2.7-3.5,2.5C239.7,65.2,239.6,63.7,240.1,62.5z"/>
<path class="st138" d="M221,101.5c1.4-2,2.8-2.7,4.3,0c-0.1,1.5-0.6,2.9-2.4,2.8S221.2,102.7,221,101.5z"/>
<path class="st139" d="M250.1,100.5c0.7,2.6,0,4.1-2.9,4c-0.5-0.1-1-0.5-1.1-1c-0.4-1.6,0.5-2.7,1.4-3.8L250.1,100.5z"/>
<path class="st76" d="M234.1,91.5c-1-1.6-1.5-3.2,0.7-4s2.9,0.9,3.2,2.7C236.9,91.2,235.7,92,234.1,91.5z"/>
<path class="st140" d="M231,87.7c0.7,3-0.2,4.4-3.5,3.5C226.1,87.6,228,87.1,231,87.7z"/>
<path class="st141" d="M224.2,94.5c1.2-1.1,2.3-1.2,3.4,0.1c0.6,0.6,0.7,1.6,0.1,2.3c-1,1.4-2.3,1.1-3.6,0.6L224.2,94.5z"/>
<path class="st142" d="M243.2,53.5l-2.8-0.1c-0.5-1.2-1.2-2.5,0.3-3.5c0.8-0.6,2-0.6,2.7,0.2C244.9,51.2,243.8,52.3,243.2,53.5z"/>
<path class="st118" d="M246.1,103.5l1.1,1l2.2,2.2l0,0l-2.1,0.8l-1.1-1.2c-0.4-1.2-2.5-0.2-2.4-1.9c0-0.8-0.5-1.9,0.5-2.1
	C244.8,102.1,245.5,103,246.1,103.5z"/>
<path class="st143" d="M234.1,81.5c0.6,3.5-0.3,4.9-3.8,2.9C229.9,81.2,231.5,80.7,234.1,81.5z"/>
<path class="st144" d="M239.1,92.5c0.1,2,5.4,0.1,3,4C240.3,95.7,236.9,96.2,239.1,92.5z"/>
<path class="st145" d="M260.3,58.5c-2.2,3-3.8,1.8-5.1-0.9C257.1,56.3,258.8,56.7,260.3,58.5z"/>
<path class="st146" d="M240.1,68.7c1,1.8,1.4,3.4-1.1,4.2C238.7,71.3,237,69.3,240.1,68.7z"/>
<path class="st147" d="M244.1,96.5c1-0.6,0.4-3.1,2.3-2.4c1.6,0.6,0.9,2.1,0.7,3.4C245.9,97.8,244.6,98.4,244.1,96.5z"/>
<path class="st148" d="M235.3,76.5c1.1-0.6,2.2-1.5,2.6,0.6c-0.8,0.8-1.4,2.1-2.7,1.5C234,78,235.3,77.2,235.3,76.5z"/>
<path class="st149" d="M266,59.5c-1.2,0.6-2.6,0.6-3.8,0c0-0.7-0.2-1.8,1-1.7S265.8,57.6,266,59.5z"/>
<path class="st118" d="M238.1,98.5c1.8,2.1-0.9,2.1-1.4,3.1c-0.9-0.5-0.4-1.4-0.6-2.1C236.6,98.8,237.3,98.5,238.1,98.5z"/>
<path class="st144" d="M238.1,98.5c-0.4,0.7-1.2,1.1-2,1c0-0.3,0-0.7,0-1c0-0.7,0-1.3,0-2C237,96.8,237.8,97.5,238.1,98.5z"/>
<path class="st115" d="M330.2,95.5c2,0.4,0.9-2.9,3.8-1.8c-1.9-1.8-4.1-0.3-4.8-2.4c1.6-1,1.5-2.4,0.9-4c2.8-0.7,2.3-3.1,2.5-5.3
	c0.4,2,2.8,3.2,1.1,5.7c-1.1,1.6,2.2,0.7,2.3,3c0.2,4.9,7.4,8.5,3,14.5l2.1,1.2l-0.3,0.3c-0.8,0.7-1.5,1.4-2.7,1.1
	c-1.3-2.4-2.8-4.5-6.1-3.2c-0.6-1.4-0.1-2.4,1.2-3c0.7,0.2,1.6,1.3,2,0.3c0.4-1.1,0-2.4-1.1-2.9c-1.6-0.3-3-1.2-4-2.4
	c-0.2-0.2-0.3-0.4-0.2-0.7C330.1,95.6,330.2,95.5,330.2,95.5z"/>
<path class="st68" d="M339.3,150.3c-0.4-0.9-0.8-1.8-1-2.7c-0.3-1.3,0.6-2.6,1.8-2.8c0.1,0,0.2,0,0.3,0c0.9-0.1,1.7,0.3,2.1,1.1
	c0.9,1.4,0.3,2.5-1,3.3C340.8,149.6,340,149.9,339.3,150.3L339.3,150.3z"/>
<path class="st150" d="M339.3,150.2l-0.3,1.4c-1.1,1-2.5,1.6-4,1.8l-1.9,1c-1.3-0.9-2.7-1.6-3.9-2.7l-0.2-2.4
	c-0.2-0.8,0.2-1.1,0.9-1.1c0.5,2,1.3,2.9,3.1,1.1c0.8-0.9,1.7-1.6,3-1C336.4,150.5,337.8,150.4,339.3,150.2L339.3,150.2z"/>
<path class="st151" d="M292.1,147c-0.2,1.2-0.8,2.2-2.1,2.3c-1.2,0.2-2.3-0.6-2.5-1.7c0-0.2,0-0.3,0-0.5c-0.1-1.2,0.8-2.2,2-2.4
	C291,144.6,291.7,145.7,292.1,147z"/>
<path class="st152" d="M307.9,128c-0.2,1.2-0.7,2.4-2.1,2.4c-1.2,0.1-2.4-0.8-2.5-2c0-0.2,0-0.3,0-0.5c0-1.2,0.9-2.1,2.1-2.1
	c0.1,0,0.2,0,0.2,0C306.9,125.8,307.9,126.8,307.9,128z"/>
<path class="st153" d="M295.1,127.9c-0.2,1.5-0.9,2.5-2.5,2.4c-1-0.1-2.3,0-2.5-1.6c-0.2-1.7,0.7-2.3,2.1-2.6
	C293.8,125.7,294.6,126.5,295.1,127.9z"/>
<path class="st154" d="M310.9,108.9c-0.1,1.5-0.8,2.5-2.4,2.4c-1.1,0-2-1-2-2.1c0-0.1,0-0.1,0-0.2c0.1-1.3,0.6-2.7,2.2-2.8
	S310.7,107.6,310.9,108.9z"/>
<path class="st155" d="M319.1,95.5c0.1-0.2,0.2-0.4,0.2-0.6c0-0.1-0.1-0.2-0.1-0.3c1.6-1.4,3.2-1.7,4.2,0.6c0.6,1,0.2,2.2-0.7,2.7
	c-0.1,0.1-0.2,0.1-0.3,0.2C320.4,98.6,319.4,97.3,319.1,95.5z"/>
<path class="st156" d="M343.9,125.7c1.2,0.1,2.1,1.2,2.1,2.4c0.1,1.2-0.8,2.2-2,2.2c-0.1,0-0.1,0-0.2,0c-1.2,0.1-2.2-0.7-2.4-1.9
	c0-0.2,0-0.4,0-0.6C341.6,126.6,342.7,125.7,343.9,125.7z"/>
<path class="st157" d="M324.4,130.5c-1.2-0.2-2.1-1.2-2-2.4s0.9-2.4,2.2-2.2c1.3,0,2.3,1,2.3,2.2c0,0.2,0,0.3,0,0.5
	C326.7,129.7,325.6,130.6,324.4,130.5z"/>
<path class="st158" d="M289.5,157.5c1.5,0.2,2.4,0.8,2.5,2.1c0.2,1.2-0.6,2.4-1.8,2.6c-0.1,0-0.3,0-0.4,0c-1.3,0-2.3-1-2.3-2.2
	c0-0.1,0-0.2,0-0.4C287.4,158.2,288.6,157.7,289.5,157.5z"/>
<path class="st159" d="M321.3,106.3c1.7,0,2.1,1,2.3,2.2c0.2,1.5-0.4,2.7-2,2.7c-1.1,0.1-2.1-0.8-2.2-1.9c0-0.1,0-0.2,0-0.2
	C319.4,107.8,319.8,106.5,321.3,106.3z"/>
<path class="st160" d="M321.4,157.4c1.7,0.2,2.4,1,2.4,2.3s-0.8,2.4-2.1,2.4c-1.3,0.1-2.4-0.9-2.4-2.2c0-0.1,0-0.3,0-0.4
	C319.3,158.2,320.4,157.7,321.4,157.4z"/>
<path class="st161" d="M346,140.3c0,1.6-0.9,2.6-2.3,2.8c-1.2,0-2.2-0.9-2.2-2.1l0,0c-0.2-1.2,0.7-2.4,1.9-2.5c0.1,0,0.3,0,0.4,0
	c1.1-0.1,2.1,0.6,2.2,1.7V140.3z"/>
<path class="st154" d="M330.1,148.3l-0.9,1.1c-1.8,0.2-3.4-0.1-3.5-2.3c-0.1-1.1,0.7-2.1,1.8-2.2c0.1,0,0.2,0,0.3,0
	C329.9,144.9,330.2,146.5,330.1,148.3z"/>
<path class="st94" d="M314.2,128.1c0,1.2-0.9,2.2-2.1,2.2H312c-1.1,0.2-2.1-0.6-2.3-1.7c0-0.1,0-0.2,0-0.3c-0.2-1.2,0.6-2.3,1.8-2.5
	c0.2,0,0.4,0,0.6,0C313.3,125.9,314.2,126.9,314.2,128.1L314.2,128.1z"/>
<path class="st131" d="M324.7,138.3c1.4,0.1,2.4,1.3,2.2,2.7l0,0c0,1.2-1,2.1-2.2,2.1l0,0c-1.2,0-2.2-1-2.2-2.2c0-0.1,0-0.3,0-0.4
	C322.6,139.2,323.5,138.6,324.7,138.3z"/>
<path class="st162" d="M328.1,111.3c-1.3-0.1-2.3-0.7-2.4-2s0.2-2.8,1.9-3c1.5-0.2,2.1,0.7,2.3,2c0.4,1.2-0.3,2.5-1.5,2.9
	C328.3,111.3,328.2,111.3,328.1,111.3z"/>
<path class="st163" d="M305.9,138.4c1.3,0.2,2.2,1.4,2,2.7v0.1c-0.1,1.1-1.1,2-2.3,1.9c-0.1,0-0.1,0-0.2,0c-1.2-0.1-2.1-1.1-2.1-2.3
	c0-0.2,0-0.3,0.1-0.4C303.6,139.1,304.7,138.3,305.9,138.4z"/>
<path class="st94" d="M310.9,146.9c0.1,1.2-0.7,2.3-1.9,2.5c-1.4,0.2-2.1-0.6-2.4-1.9c-0.3-1.1,0.3-2.3,1.4-2.7
	c0.2-0.1,0.4-0.1,0.6-0.1C310,144.7,310.6,145.7,310.9,146.9z"/>
<path class="st164" d="M302.8,149.4c-1.3,0.1-2.4-0.8-2.5-2.1c-0.1-1.1,0.6-2.2,1.7-2.5s2.3,0.4,2.6,1.5c0.1,0.2,0.1,0.4,0.1,0.6
	C304.7,148.2,303.9,149.2,302.8,149.4z"/>
<path class="st165" d="M317.2,109c-0.2,1.2-0.6,2.3-2,2.3c-1.6,0-2.2-1.2-2.2-2.7c0.1-1.2,0.6-2.3,2-2.3
	C316.8,106.3,317,107.7,317.2,109z"/>
<path class="st166" d="M321.3,136.6c-1.2-0.2-2.1-0.9-2-2.3c0-1.2,1.1-2.2,2.3-2.1c1.2,0,2.1,1,2,2.2c0,0.1,0,0.2,0,0.2
	c0,1.1-0.9,2.1-2,2.1C321.5,136.6,321.4,136.6,321.3,136.6z"/>
<path class="st167" d="M327.9,80.6l2.1,1.2c0.3,1.5,0.2,2.9-1.6,3.5c-0.9,0.3-2-0.1-2.4-1C324.8,82.1,326.6,81.5,327.9,80.6z"/>
<path class="st168" d="M328,136.6c-1.3-0.1-2.2-0.7-2.3-2c-0.2-1.2,0.6-2.2,1.8-2.4c0.2,0,0.4,0,0.6,0c1.1,0,2,0.9,2,2
	c0,0.1,0,0.1,0,0.2c0.1,1.1-0.8,2.1-1.9,2.2C328.1,136.6,328,136.6,328,136.6z"/>
<path class="st169" d="M327,102.2c-0.2,1.3-0.8,2.2-2.2,2.3c-1.1,0.2-2.1-0.5-2.3-1.6c0-0.1,0-0.3,0-0.4c-0.1-1.5,0.7-2.7,2.3-2.6
	C326,100,326.9,101,327,102.2z"/>
<path class="st170" d="M320.4,102.6c-0.4,1.4-1.3,2.1-2.6,1.8c-1.1-0.2-1.9-1.2-1.7-2.3c0-0.1,0-0.2,0.1-0.3
	c0.1-1.1,1.1-1.9,2.2-1.8c0.1,0,0.2,0,0.4,0.1c1.1,0.2,1.9,1.2,1.7,2.4C320.5,102.5,320.4,102.6,320.4,102.6z"/>
<path class="st167" d="M323.6,121.3c0,1.8-0.8,2.6-2.1,2.6c-1.1,0.1-2.1-0.6-2.2-1.7c0-0.1,0-0.2,0-0.3c-0.1-1.2,0.9-2.2,2-2.3h0.1
	C322.5,119.4,323.5,120.2,323.6,121.3z"/>
<path class="st171" d="M340.7,119.3c1.2,0.4,2.2,1.2,2.1,2.4c0.1,1.1-0.8,2.1-2,2.2c-0.1,0-0.1,0-0.2,0c-1.2,0.1-2.3-0.8-2.3-2
	c0-0.2,0-0.3,0-0.5C338.5,120.2,339.5,119.4,340.7,119.3z"/>
<path class="st172" d="M310.6,176.6c1.5-0.1,3.1-0.2,3.5,1.6c0.5,2.1-1.1,2.7-2.7,3.1C309.2,180.1,308.8,178.5,310.6,176.6z"/>
<path class="st173" d="M302.5,119.5c1.2,0.1,2.2,1.1,2.2,2.3c0,1.2-0.9,2.2-2.1,2.2c-0.2,0-0.4,0-0.6-0.1c-1.1-0.1-1.9-1-1.9-2.1
	c0-0.1,0-0.2,0-0.3C300.3,120.3,301.2,119.4,302.5,119.5C302.4,119.5,302.5,119.5,302.5,119.5z"/>
<path class="st174" d="M301.4,128.1c-0.1,1.3-0.7,2.3-2.1,2.2c-1.1,0.1-2.1-0.6-2.2-1.7c0-0.1,0-0.3,0-0.4c-0.1-1.2,0.8-2.2,1.9-2.3
	c0.1,0,0.1,0,0.2,0C300.6,125.8,301.1,126.8,301.4,128.1z"/>
<path class="st175" d="M331.1,130.4c-1.7-0.2-2.3-1.1-2.3-2.3c-0.1-1.1,0.7-2.1,1.8-2.2c0.1,0,0.2,0,0.3,0c1.2-0.1,2.2,0.8,2.3,2
	c0,0.2,0,0.4,0,0.6C333.1,129.4,332.2,130.3,331.1,130.4z"/>
<path class="st176" d="M336.4,108.8c0.2,1.1-0.6,2.2-1.7,2.4c-0.1,0-0.1,0-0.2,0c-1.1,0.2-2.2-0.5-2.4-1.6c0-0.3,0-0.5,0-0.8
	c0.1-1.2,0.5-2.4,1.9-2.5C335.7,106.1,336.1,107.5,336.4,108.8z"/>
<path class="st177" d="M339.6,127.8c0.1,1.2-0.7,2.3-1.9,2.5c-1.1,0.3-2.2-0.4-2.4-1.4c0-0.1-0.1-0.2-0.1-0.4
	c-0.3-1.2,0.4-2.4,1.6-2.7c0.1,0,0.3-0.1,0.4-0.1C338.5,125.6,339.3,126.5,339.6,127.8z"/>
<path class="st178" d="M323.6,147c-0.1,1.2-0.5,2.4-2,2.4c-1.3,0.1-2.4-0.8-2.5-2.1s0.8-2.4,2.1-2.5c0.1,0,0.2,0,0.2,0
	c1.1,0,2.1,0.8,2.1,2C323.6,146.8,323.6,146.9,323.6,147z"/>
<path class="st179" d="M295.1,140.3c-0.1,1.6-0.8,2.6-2.1,2.7c-1.2,0.1-2.2-0.8-2.3-1.9c0-0.1,0-0.1,0-0.2c-0.1-1.2,0.8-2.3,2-2.4
	h0.1C294.3,138.3,294.6,139.6,295.1,140.3z"/>
<path class="st180" d="M297.1,157.5c1,1,1.4,2.5,0.9,3.9c-1.6,1-3.3,1.3-3.9-0.9C293.3,158,295,157.4,297.1,157.5z"/>
<path class="st181" d="M318.5,138.5c1.2,0.2,2.1,1.3,1.9,2.5c-0.1,1.2-1.2,2-2.3,1.9s-2-1.2-1.9-2.3l0,0
	C316.2,139.4,317.2,138.5,318.5,138.5C318.4,138.5,318.5,138.5,318.5,138.5z"/>
<path class="st66" d="M281.2,145.5c1.5-0.7,3.3-1.6,4,0.8s-0.8,3.3-3,3.1C280.5,148.5,279.7,147.3,281.2,145.5z"/>
<path class="st182" d="M327.9,162c-1.2,0-2.2-0.9-2.3-2.2c-0.1-1.1,0.7-2.1,1.8-2.2c0.1,0,0.2,0,0.4,0c1.2,0,2.3,0.6,2.2,2.1
	C330,160.9,329.1,161.9,327.9,162z"/>
<path class="st183" d="M320.6,166.2c-0.1,1.2-1.1,2.1-2.3,2.1c-1.1,0.1-2-0.7-2.1-1.8c0-0.1,0-0.3,0-0.4c0-1.2,0.6-2.3,2.1-2.2
	C319.5,164,320.6,165,320.6,166.2L320.6,166.2z"/>
<path class="st184" d="M330.2,95.5v1c-1.1,1.6-2.3,2.5-4,0.8c-0.8-0.7-0.9-1.9-0.2-2.7c0.1-0.1,0.2-0.2,0.3-0.3
	C328.2,92.5,329.3,94,330.2,95.5z"/>
<path class="st165" d="M350.2,138.5c1.2,0.1,2.1,1.1,2,2.2c0,0.1,0,0.1,0,0.2c0,1.1-0.8,2-1.9,2.1c-0.1,0-0.3,0-0.4,0
	c-1.2-0.1-2.1-1.2-2-2.4C348,139.3,349,138.4,350.2,138.5L350.2,138.5z"/>
<path class="st185" d="M339.4,141.1c0,1.1-0.9,1.9-2,1.9c-0.1,0-0.2,0-0.3,0c-1.1,0-2-0.9-2-2c0-0.1,0-0.3,0-0.4
	c0.1-1.2,1.1-2.1,2.2-2c1.2,0.1,2.1,1.1,2,2.2C339.5,140.8,339.5,140.9,339.4,141.1L339.4,141.1z"/>
<path class="st186" d="M296.1,144.8c1.2,0.4,2.2,1.1,2,2.4c-0.2,1.2-0.9,2.2-2.3,2.1c-1.1,0-2-1-2-2.1c0-0.1,0-0.2,0-0.3
	C293.9,145.7,294.9,144.8,296.1,144.8L296.1,144.8z"/>
<path class="st74" d="M314.8,144.8c1.2,0,2.3,0.9,2.4,2.1c0.2,1.1-0.5,2.2-1.7,2.4c-0.1,0-0.1,0-0.2,0c-1.1,0.2-2.1-0.5-2.3-1.6
	c0-0.1,0-0.2,0-0.4C312.8,146,313.7,145.3,314.8,144.8z"/>
<path class="st187" d="M324.7,155.7c-1.2,0-2.2-0.9-2.2-2.1c0-0.1,0-0.1,0-0.2c-0.1-1.1,0.6-2.1,1.7-2.2c0.1,0,0.2,0,0.4,0
	c1.1-0.1,2.1,0.7,2.2,1.8c0,0.1,0,0.3,0,0.4c0.1,1.2-0.8,2.2-1.9,2.3C324.9,155.7,324.8,155.7,324.7,155.7z"/>
<path class="st188" d="M315.2,136.6c-1.1,0.1-2.1-0.8-2.2-1.9c0-0.1,0-0.1,0-0.2c-0.1-1.1,0.7-2.1,1.8-2.2c0.1,0,0.1,0,0.2,0
	c1.4-0.1,2,0.8,2.1,2.1c0.1,1.1-0.6,2.1-1.7,2.3C315.4,136.6,315.3,136.6,315.2,136.6z"/>
<path class="st189" d="M336.1,148.5l-3,1c-1-1.2-1.8-2.5-0.4-3.9c0.5-0.7,1.5-0.9,2.2-0.5C336.5,145.8,336.1,147.2,336.1,148.5z"/>
<path class="st74" d="M334,132.2c1.2-0.1,2.2,0.7,2.3,1.9v0.1c0.2,1-0.5,2-1.5,2.2c-0.2,0-0.3,0-0.5,0c-1.1,0.2-2.1-0.5-2.3-1.5
	c0-0.1,0-0.3,0-0.4c-0.1-1.2,0.7-2.2,1.9-2.3C333.9,132.2,333.9,132.2,334,132.2z"/>
<path class="st190" d="M342.9,134.6c-0.1,1.2-1.1,2.1-2.3,2.1c-1.1,0.1-2.1-0.7-2.2-1.8c0-0.1,0-0.2,0-0.3c-0.1-1.2,0.8-2.2,2-2.3
	c0.2,0,0.4,0,0.5,0C342.1,132.3,342.7,133.4,342.9,134.6z"/>
<path class="st77" d="M318.4,125.8c1.3,0.3,2.2,1,2,2.4c0,1.2-1,2.1-2.2,2c-0.1,0-0.1,0-0.2,0c-1.1,0-2-0.9-2-2c0-0.1,0-0.3,0-0.4
	c0-1.2,1-2.1,2.2-2C318.3,125.8,318.4,125.8,318.4,125.8z"/>
<path class="st83" d="M333.1,140.5c0.2,1.1-0.6,2.2-1.7,2.4c-0.1,0-0.2,0-0.3,0c-1,0.2-2-0.5-2.2-1.6c0-0.1,0-0.3,0-0.4
	c-0.2-1.1,0.5-2.1,1.6-2.3c0.1,0,0.2,0,0.3,0C332,138.4,333,139.3,333.1,140.5L333.1,140.5z"/>
<path class="st191" d="M312,138.5c1.3,0.1,2.2,1.2,2.1,2.4l0,0c-0.1,1.2-1.1,2.1-2.2,2s-2.1-1.1-2-2.2c0-0.1,0-0.1,0-0.2
	c0-1.1,0.8-2,1.9-2.1C311.9,138.5,311.9,138.5,312,138.5z"/>
<path class="st192" d="M301.3,141c0,1.1-1,2-2.1,1.9c-0.1,0-0.2,0-0.3,0c-1.1,0-2-1-1.9-2.1c0-0.1,0-0.2,0-0.3c0-1.1,0.9-2,2-2
	c0.1,0,0.3,0,0.4,0C300.6,138.7,301.5,139.8,301.3,141L301.3,141z"/>
<path class="st193" d="M349.9,130.4c-1.2-0.1-2-1.2-1.9-2.4v-0.1c0-1.1,0.9-2,2.1-1.9c0.1,0,0.2,0,0.3,0c1.1,0,2,0.9,2,2.1
	c0,0.1,0,0.2,0,0.3C352.1,129.8,351,130.1,349.9,130.4z"/>
<path class="st194" d="M307.9,115.3c-0.3,1.6-1,2.4-2.4,2.4c-1.1,0.1-2.1-0.8-2.2-1.9c0-0.1,0-0.1,0-0.2c-0.1-1.2,0.7-2.2,1.9-2.3
	c0.2,0,0.4,0,0.6,0C307.3,113.3,307.6,114.5,307.9,115.3z"/>
<path class="st165" d="M314.9,170.2c1.1-0.1,2.1,0.7,2.3,1.8c0,0.1,0,0.1,0,0.2c0.2,1.1-0.6,2.2-1.7,2.4s-2.2-0.6-2.4-1.7
	c0-0.1,0-0.2,0-0.3c-0.2-1.1,0.6-2.2,1.7-2.3C314.8,170.3,314.8,170.3,314.9,170.2z"/>
<path class="st186" d="M330,121.2c0.1,1.6-0.5,2.5-1.9,2.6s-2.3-0.5-2.4-1.9c-0.1-1.2,0.7-2.2,1.9-2.3h0.1
	C329.1,119.3,329.6,120.3,330,121.2z"/>
<path class="st195" d="M326.8,115.5c-0.2,1.3-1,2.2-2.3,2c-1.1-0.1-1.9-1-1.9-2.1c0-0.1,0-0.2,0.1-0.4c0.1-1,1-1.8,2-1.8
	c1.2,0,2.1,0.9,2.1,2.1C326.8,115.3,326.8,115.4,326.8,115.5z"/>
<path class="st132" d="M324.4,87.3c1.2-0.1,2.3,0.7,2.4,1.9c0,0,0,0,0,0.1c0.2,1.1-0.5,2.1-1.6,2.3c-0.1,0-0.2,0-0.3,0
	c-1.2,0.2-2.2-0.6-2.4-1.8c0-0.1,0-0.1,0-0.2C322.3,88.3,323.2,87.6,324.4,87.3z"/>
<path class="st196" d="M320.5,115.3c0,1.2-0.9,2.2-2.1,2.2c0,0,0,0-0.1,0c-1,0.1-2-0.6-2.2-1.6c0-0.1,0-0.3,0-0.4
	c-0.2-1,0.5-2,1.5-2.2c0.2,0,0.3,0,0.5,0c1.2-0.1,2.2,0.8,2.3,2C320.5,115.3,320.5,115.3,320.5,115.3z"/>
<path class="st197" d="M311,121.9c-0.4,1.2-1.1,2-2.4,1.9c-1.1-0.1-2-1-1.9-2.1c0-0.1,0-0.2,0-0.3c0-1.1,0.9-2,2-2
	c0.1,0,0.2,0,0.3,0C310.3,119.7,310.8,120.7,311,121.9z"/>
<path class="st85" d="M333.1,115.5c-0.2,1.4-1,2.2-2.4,2c-1.1-0.1-1.9-1.1-1.8-2.2c0-0.1,0-0.2,0.1-0.3c0.1-1,1-1.8,2.1-1.7
	c1.1,0,2,0.8,2.1,1.9C333.1,115.4,333.1,115.5,333.1,115.5z"/>
<path class="st198" d="M333.3,101.5l-1.2,3c-2.2,0.1-3.9-0.6-3.1-3C330.1,98.7,331.9,100.5,333.3,101.5z"/>
<path class="st185" d="M318.2,151.2c1.2,0,2.2,1,2.1,2.2c0,1.1-0.8,2-1.9,2.1s-2.1-0.6-2.2-1.7c0-0.1,0-0.2,0-0.3
	c-0.1-1.1,0.7-2.2,1.8-2.3C318.1,151.2,318.1,151.2,318.2,151.2z"/>
<path class="st199" d="M296.1,132.2c1.3,0.2,2.1,0.9,2.1,2.2c0,1.1-0.8,2-1.9,2.1c-0.1,0-0.2,0-0.3,0c-1,0.1-1.9-0.6-2-1.6
	c0-0.2,0-0.4,0-0.5C294,133.2,294.9,132.3,296.1,132.2L296.1,132.2z"/>
<path class="st200" d="M346.6,132.2c1.6,0.2,2.4,0.9,2.5,2.2c0.1,1-0.6,1.9-1.7,2c0,0,0,0-0.1,0c-1.1,0.3-2.2-0.4-2.4-1.5
	c0-0.1,0-0.2,0-0.3C344.7,133.3,345.7,132.7,346.6,132.2z"/>
<path class="st191" d="M295.1,153.2c-0.4,1.4-1,2.4-2.3,2.4c-1.1,0-2-0.9-2-2c0-0.1,0-0.2,0-0.3c-0.1-1,0.6-2,1.7-2.1
	c0.1,0,0.3,0,0.4,0C294.3,151.3,294.8,152.3,295.1,153.2z"/>
<path class="st135" d="M302.2,132.2c1.6,0.2,2.3,1,2.3,2.3c0,1.2-1,2.1-2.2,2.1s-2.1-1-2.1-2.2C300.3,133.2,301.1,132.3,302.2,132.2
	z"/>
<path class="st201" d="M310.9,134.5c-0.4,1.3-1.1,2.2-2.4,2c-1.1-0.1-1.9-1.1-1.8-2.2c0-0.1,0-0.2,0.1-0.4c0.1-1,0.9-1.8,1.9-1.7
	h0.1C310,132.3,310.9,133.3,310.9,134.5z"/>
<path class="st142" d="M335,153.5c0.8-1.9,2-2.6,4-1.8c0,1.4,0.9,3.2-1.1,3.8C336.3,156,335.6,154.7,335,153.5z"/>
<path class="st202" d="M329.3,151.8c2.6-1,3.9-0.1,3.9,2.7C329.6,156.8,328.7,155.4,329.3,151.8z"/>
<path class="st203" d="M315.1,119.4c1.5,0.5,2.2,1.3,2.1,2.6c0,1-0.9,1.8-1.9,1.8c-0.2,0-0.4,0-0.6-0.1c-1-0.1-1.7-1-1.6-2
	c0-0.1,0-0.1,0-0.2C313.2,120.5,314,119.6,315.1,119.4z"/>
<path class="st204" d="M334.4,119.5c1.2,0.2,2,1.3,1.9,2.5l0,0c-0.1,1-1,1.8-2,1.8c-1.3-0.1-2.2-0.7-2.1-2.2
	C332.2,120.4,333.2,119.5,334.4,119.5z"/>
<path class="st78" d="M339.5,115.2c-0.1,1.5-0.6,2.5-2.1,2.4c-1.1,0.1-2-0.8-2.1-1.9c0-0.1,0-0.3,0-0.4c0-1.1,0.8-1.9,1.9-2
	C338.6,113.1,339.2,114.1,339.5,115.2z"/>
<path class="st205" d="M311.9,117.6c-1.2,0-2.1-1-2.1-2.1v-0.1c-0.1-1,0.7-1.9,1.7-2c0.2,0,0.3,0,0.5,0c1.1,0,2,0.8,2.1,1.9
	c0,0.1,0,0.2,0,0.2c0,1.1-0.9,2.1-2,2.1C312,117.6,312,117.6,311.9,117.6z"/>
<path class="st206" d="M311.7,104.5c-1-0.3-2-0.7-1.7-1.9c0.2-1.2,1.2-2.1,2.4-2.2c1.2-0.1,1.6,1,1.6,2c0.1,1.1-0.8,2-1.9,2.1
	C312,104.5,311.8,104.5,311.7,104.5z"/>
<path class="st207" d="M330.1,87.3c2,0.1,2.5,1.4,2.2,3c-0.4,2-1.9,1.1-3.1,1C328.6,89.9,328.9,88.3,330.1,87.3z"/>
<path class="st208" d="M314.1,152.9c-0.2,1.3-0.7,2.4-1.8,2.2c-1.3-0.1-0.9-1.4-1-2.3s0.1-1.8,1.1-1.7
	C313.4,151.3,314,152.1,314.1,152.9z"/>
<path class="st47" d="M338.2,107.7c0.8-0.7,1.5-1.4,2.7-1.1c-0.3,1.3,1.2,2.9-0.4,3.9c-1,0.6-1.7-0.5-2.4-1.2L338.2,107.7z"/>
<path class="st25" d="M281.2,145.5c-0.4,1.4,0,2.9,1,3.9l-4.2-0.1c1.1-1,1.5-2.5,1-3.9L281.2,145.5z"/>
<path class="st25" d="M310.6,176.6c-1.3,1.8-1,3.4,0.8,4.8l-2.2,0.1l0,0C309.4,179.8,308.1,177.6,310.6,176.6z"/>
<path class="st25" d="M351.1,122.5c1,1.2,2,1.2,3.1,0v2C352.7,124.5,351.2,124.5,351.1,122.5z"/>
<path class="st209" d="M298,69.5c0.4,3.1-1.4,3.3-3.7,2.8C293.6,68.8,294.5,67.5,298,69.5z"/>
<path class="st210" d="M282.1,65.5c-3.4,2-4.4,0.5-4-2.9C280.9,61.6,282.5,62.3,282.1,65.5z"/>
<path class="st211" d="M288.4,65.5c-2.5,1.7-3.8,0.8-4.2-1.9C286.5,62.3,288,62.7,288.4,65.5z"/>
<path class="st2" d="M271.2,53.7l3.8-0.3c0.9,0.8,1.4,1.7-0.4,1.6C273.5,55,272.3,54.1,271.2,53.7z"/>
<path class="st30" d="M50.1,404.5c-0.3-0.2-1.8-0.1-0.6-0.9c1-0.6,2.7,0.2,3.6-1.1c1.4,0.2,3.2-0.4,3.4,1.9c0,0.4-0.1,1.3-1.1,1.2
	c-1,0-2,0.6-2.4,1.5L50.1,404.5z"/>
<path class="st25" d="M146.7,403.6l14.5-0.1C156.3,405.9,151.5,404.1,146.7,403.6z"/>
<path class="st25" d="M133.6,402.5c4.2,0.4,8.5-1.3,12.6,1C141.9,403.8,137.7,403.4,133.6,402.5z"/>
<path class="st30" d="M64.2,409c2.3-0.9,4.1-0.2,6.2,1C67.8,411.1,66.2,409,64.2,409z"/>
<path class="st25" d="M123.1,402.5c2.8-1.7,6.2-1.7,9,0H123.1z"/>
<path class="st30" d="M66.1,411.6H71C69.3,412.4,67.6,412.9,66.1,411.6z"/>
<path class="st212" d="M320.7,221.6c0.5,1.5,0.8,3.6-0.9,3.8c-2.3,0.3-0.8-3.2-2.7-3.9l-0.1-1c1.1-0.8,2.1-0.9,3,0.2L320.7,221.6z"
	/>
<path class="st59" d="M320,220.7l-3-0.2c-0.9-3.7,3.3-1.7,3.7-4.4C321.9,218.4,320.3,219.4,320,220.7z"/>
<path class="st92" d="M287.1,206.4l3-0.8c0.4,0.8,0.8,1.5-0.4,2C288.3,208.3,287.6,207.7,287.1,206.4z"/>
<path class="st25" d="M311.9,253.6c6.2,0,12.4-0.1,18.6-0.1c1.3,0,2.7-0.3,3.6,1C326.7,254.4,319.2,255.1,311.9,253.6z"/>
<path class="st25" d="M279.1,252.5c5.3,0.3,10.8-1,16,0.8C289.7,253.5,284.3,254.2,279.1,252.5z"/>
<path class="st54" d="M250.9,289.3l4.1,0.4c-2.3,1-3.6,1.1-4.8-0.3C250.4,289.3,250.6,289.2,250.9,289.3z"/>
<path class="st25" d="M280.1,249.5c1.9-4.4,4.6,0.4,6.9,0H280.1z"/>
<path class="st213" d="M287.1,192.7l0.5,9.6c-4.2-3.7-2.4-6.7-1.8-9.6H287.1z"/>
<path class="st25" d="M279.1,198.5c1.7,0.1,2.5-1.2,3.6-2.5C282.8,200.1,282.8,200.1,279.1,198.5z"/>
<path class="st25" d="M279.2,198.5c-1-0.2-2.4,0.4-2.5-0.9s1-0.8,1.6-0.3C278.6,197.6,279,198,279.2,198.5z"/>
<path class="st25" d="M359.6,124.5c-0.2,0.9-0.9,0.9-1.5,0.9c-1.1,0-1.9-0.5-1.7-1.7c0-0.3,0.1-1.6,1-0.8
	C358.1,123.5,359.4,123.2,359.6,124.5z"/>
<path class="st25" d="M305.1,162.5c2,0.2,2.2,1.4,1.7,3.1C305.4,165,305.3,163.7,305.1,162.5z"/>
<path class="st30" d="M149.1,286.5c-1.2-1.6-4-2.6-2.2-5.6C149.4,282.2,149.1,284.4,149.1,286.5L149.1,286.5z"/>
<path class="st34" d="M253.1,72.3c-0.7,1.8-3.1,0.5-4,2.1c-1,1.3-1.6,2.8-2.8,3.9c-1.4,0.6-2.8,1.4-4.4,1c0-1.7,0.6-3.5-0.8-4.9
	l2.1-2.2c1.2-1,2.7-1.7,3.9-2.8h1.9C250.5,70.3,251.9,71.2,253.1,72.3z"/>
<path class="st214" d="M266.4,95.5c0,1.7-1,2.3-2.4,2.6c-1,0.4-2.2-0.1-2.6-1.1c-0.1-0.3-0.2-0.5-0.2-0.8c-0.2-2,1.5-2.3,2.9-2.6
	S266.1,94.3,266.4,95.5z"/>
<path class="st215" d="M249.3,94.8c0.4-1,1.5-1.6,2.5-1.2l0,0c1.1,0.2,2.1,1,1.8,2.4s-1.1,2.4-2.7,2.1C249.8,97.8,249,97,249.3,94.8
	z"/>
<path class="st68" d="M273.9,79.2c-1.3-0.2-2.2-0.8-2.4-2.2c-0.2-1.2,0.6-2.3,1.7-2.5c0.1,0,0.1,0,0.2,0c1.2-0.2,2.4,0.5,2.6,1.7
	c0,0.2,0,0.4,0,0.6C276,78,275.1,79.1,273.9,79.2z"/>
<path class="st216" d="M288.9,76.8c-0.3,1.5-1.2,2.3-2.4,2.3c-1.2,0.1-2.2-0.8-2.3-2c0-0.2,0-0.4,0-0.5c0-1.2,0.9-2.1,2.1-2.1h0.1
	C288,74.5,288.6,75.6,288.9,76.8z"/>
<path class="st217" d="M257,64.2c0,1.2-0.9,2.2-2.1,2.3c-1.3,0.1-2.4-0.8-2.5-2.1c-0.1-1.3,0.8-2.4,2.1-2.5
	C255.9,61.7,256.7,62.8,257,64.2z"/>
<path class="st218" d="M279.1,83.3c-0.3,1.2-1,2.2-2.3,2.1c-1.2-0.1-2.2-1.1-2.1-2.3c0.1-1.2,1.1-2.2,2.3-2.1
	C278.4,81,279.1,82,279.1,83.3z"/>
<path class="st219" d="M241,83.5c-0.1,1.2-1.1,2-2.3,1.9c0,0,0,0-0.1,0c-1.2,0-2.2-1.1-2.2-2.3s1.1-2.2,2.3-2.2c0.1,0,0.2,0,0.4,0
	C240.3,81,241.2,82.1,241,83.5C241,83.5,241,83.5,241,83.5z"/>
<path class="st220" d="M257.1,76.6c-0.4,1.5-1.1,2.6-2.7,2.5c-1.3-0.1-2.3-1.2-2.2-2.5s1.2-2.3,2.5-2.2h0.1
	C256.1,74.6,256.7,75.6,257.1,76.6z"/>
<path class="st151" d="M252.1,102.5l0.1-1c1.7-2,3.5-2.2,5.2,0c-0.5,2.2-1.6,3.6-4.1,2.8C252.2,104.1,251.6,103.6,252.1,102.5z"/>
<path class="st221" d="M260.1,82.9c0.1,1.2-0.8,2.3-2,2.4c-1.4,0.2-2.2-0.8-2.4-2c-0.2-1.1,0.5-2.1,1.6-2.3c0.1,0,0.3,0,0.4,0
	C258.9,80.9,260,81.8,260.1,82.9z"/>
<path class="st71" d="M272.9,83.3c-0.3,1.2-1,2.2-2.3,2.1c-1.2,0-2.2-0.9-2.2-2.1v-0.1c-0.1-1.2,0.8-2.3,2.1-2.3c0.2,0,0.3,0,0.5,0
	C272,81.1,272.9,82.1,272.9,83.3z"/>
<path class="st76" d="M251.2,85.4c-1.2-0.1-2.1-1.2-2-2.4c0.2-1.2,1.3-2.1,2.5-1.9c1.1,0.1,1.9,1.1,1.9,2.2
	C253.5,84.6,252.5,85.5,251.2,85.4C251.3,85.4,251.3,85.4,251.2,85.4z"/>
<path class="st137" d="M276,90.5c-1.1,1-2.5,1.4-3.9,1.1c-1.2-1.9-1-3.6,1.2-4.1C275.3,87,276.2,88.5,276,90.5z"/>
<path class="st68" d="M237.8,63.7c-0.3,1.3-1.3,2.3-2.6,2.4c-1.5,0.3-2-1-2-2.1c0-1.2,0.8-2.1,2-2.2h0.1
	C236.5,61.7,237.5,62.5,237.8,63.7z"/>
<path class="st222" d="M234.6,96c-0.1,1.2-1.1,2.1-2.2,2l0,0c-1.1,0-2.1-0.9-2.2-2v-0.1c-0.1-1.2,0.7-2.2,1.9-2.3c0.2,0,0.4,0,0.6,0
	C233.8,93.8,234.7,94.8,234.6,96z"/>
<path class="st223" d="M257.8,93.5c1.5,0.3,2.5,1.2,2.3,2.7c-0.2,1-0.6,2.4-2.1,2.1c-1.3-0.3-2.5-1-2.4-2.6
	C255.7,94.4,256.7,93.8,257.8,93.5z"/>
<path class="st170" d="M246.3,78.4c-0.7-2.4,0.2-3.8,2.8-3.9c1.1,1.1,1.9,2.3,0.7,3.8C248.8,79.5,247.5,78.9,246.3,78.4z"/>
<path class="st137" d="M282.3,77c-0.3,1.2-1,2.2-2.4,2c-1.1,0-2-0.9-2-2c0-0.1,0-0.2,0-0.3c0.1-1.3,0.9-2.2,2.3-2
	C281.5,74.7,282.4,75.8,282.3,77z"/>
<path class="st165" d="M267.5,74.6c1.2,0.1,2.1,1.2,2,2.4l0,0c0,1.1-0.9,2-2,2c-0.1,0-0.2,0-0.3,0c-1.1,0-2-0.9-2-2
	c0-0.1,0-0.2,0-0.4C265.3,75.4,266.3,74.5,267.5,74.6z"/>
<path class="st224" d="M260.9,74.5c1.2-0.1,2.2,0.8,2.3,2c0.2,1.1-0.5,2.2-1.6,2.4c-0.2,0-0.4,0.1-0.7,0c-1.2,0-2.1-1-2.1-2.1v-0.1
	C258.8,75.5,259.6,74.8,260.9,74.5z"/>
<path class="st134" d="M292,70.7c-0.2,1.2-1.3,2.1-2.5,1.9c-1.1,0-2-0.8-2-1.9c0-0.2,0-0.3,0-0.5c0-1.1,0.9-2,2-2c0.1,0,0.3,0,0.4,0
	C291.1,68.5,292,69.5,292,70.7z"/>
<path class="st225" d="M272.9,70.2c-0.4,1.6-1,2.6-2.4,2.4c-1.1,0-2.1-0.9-2.1-2c0-0.1,0-0.2,0-0.3c0-1.2,1-2.1,2.1-2.1
	c0.1,0,0.1,0,0.2,0C271.7,68.4,272.6,69.2,272.9,70.2z"/>
<path class="st76" d="M266.4,70.4c0.1,1.2-0.8,2.2-2,2.3h-0.1c-1,0.1-2-0.6-2.1-1.7c0-0.1,0-0.3,0-0.4c-0.1-1.1,0.6-2.1,1.7-2.2
	c0.1,0,0.2,0,0.3,0C265.3,68.3,266.3,69.2,266.4,70.4C266.3,70.3,266.4,70.3,266.4,70.4z"/>
<path class="st201" d="M253.1,72.3c-2.6,0.7-3.9-0.3-4.1-2.9c0.7-1.2,2.2-1.6,3.4-0.9c0.1,0.1,0.3,0.2,0.4,0.3
	C254.1,69.8,253.5,71.1,253.1,72.3z"/>
<path class="st226" d="M248.4,61.8c1.2,0.1,2,1.1,2.1,2.3c0.1,1.1-0.6,2.1-1.7,2.2c-0.3,0-0.5,0-0.8-0.1c-1.1-0.1-1.9-1.1-1.8-2.2
	c0-0.1,0-0.1,0-0.2C246.2,62.8,247.2,61.9,248.4,61.8z"/>
<path class="st227" d="M257,89.5c-0.4,1.5-1.2,2.4-2.5,2.2c-1.2,0-2.1-1-2.1-2.1c0-0.1,0-0.1,0-0.2c0.1-1.2,1.1-2.1,2.3-2l0,0
	C256.1,87.4,256.6,88.6,257,89.5z"/>
<path class="st228" d="M245,85.5c-1.2,0-2.1-0.9-2.2-2c0-0.1,0-0.1,0-0.2c-0.1-1.1,0.7-2.1,1.8-2.2c0.1,0,0.3,0,0.4,0
	c1.2-0.1,2.2,0.9,2.2,2c0,0.1,0,0.1,0,0.2C247.3,84.5,246.4,85.2,245,85.5z"/>
<path class="st229" d="M241.1,74.5c4.3,1,3.8,2.7,0.8,4.9C239.4,78.1,238.9,76.5,241.1,74.5z"/>
<path class="st230" d="M263.2,89.4c0.1,1.2-0.8,2.2-2,2.2c-0.1,0-0.1,0-0.2,0c-1,0.1-2-0.7-2.1-1.7l0,0c-0.3-1.1,0.4-2.2,1.5-2.4
	c0.1,0,0.2,0,0.4-0.1C262.1,87.2,262.9,88.1,263.2,89.4z"/>
<path class="st191" d="M247.1,69.5c0.3,3.2-1.4,3.4-3.9,2.8C242.5,68.3,243.6,67.2,247.1,69.5z"/>
<path class="st203" d="M257.9,68.2c1.1,0.4,2.2,0.9,2.1,2.3c0,1.1-0.8,2-1.9,2.1c-0.1,0-0.2,0-0.3,0c-1.1,0.1-2-0.7-2.1-1.7
	c0-0.1,0-0.3,0-0.4C255.7,69.3,256.7,68.3,257.9,68.2L257.9,68.2z"/>
<path class="st191" d="M285.4,70.2c0,1.3-0.5,2.3-1.9,2.3c-1.1,0.2-2.1-0.6-2.3-1.6c0-0.1,0-0.2,0-0.3c-0.1-1.4,0.8-2.1,2-2.3
	C284.5,68.1,285.1,69.1,285.4,70.2z"/>
<path class="st142" d="M262.1,82.9c0.1-1.1,1.1-2,2.2-1.9c0.1,0,0.1,0,0.2,0c1,0.1,1.8,1,1.7,2c0.1,1.1-0.7,2.1-1.8,2.2
	c-0.1,0-0.3,0-0.4,0C262.8,85.2,262.1,84.3,262.1,82.9z"/>
<path class="st85" d="M276.8,68.3c1.2,0,2.2,0.9,2.2,2.1l0,0c0.1,1.1-0.7,2-1.7,2.1c-0.2,0-0.3,0-0.5,0c-1,0-1.9-0.8-1.9-1.8l0,0
	C274.7,69.5,275.5,68.5,276.8,68.3L276.8,68.3z"/>
<path class="st231" d="M244.1,89c-0.2,1.2-1.1,2.2-2.3,2.4c-1.5,0.3-1.9-0.9-1.9-2.1c-0.1-1,0.7-1.9,1.7-2
	C242.9,87.2,243.6,88.1,244.1,89z"/>
<path class="st232" d="M263.2,64.2c0,1.1-0.8,2.1-2,2.1h-0.1c-1.1,0.1-2.1-0.7-2.2-1.8c0-0.1,0-0.2,0-0.3c-0.1-1,0.6-2,1.6-2.1
	c0.1,0,0.3,0,0.4,0C262.3,62,263,62.8,263.2,64.2z"/>
<path class="st233" d="M269.6,89.3c-0.2,1.6-0.9,2.4-2.2,2.3s-2.2-0.7-2.1-2.1c0-1.1,0.8-2,1.9-2.1c0.1,0,0.2,0,0.3,0
	C268.8,87.4,269.2,88.5,269.6,89.3z"/>
<path class="st234" d="M248.6,87.5c0.9,0,1.6,0.6,1.8,1.4c0.4,0.9,0,2-1,2.4c-0.2,0.1-0.4,0.1-0.6,0.1c-0.9,0.2-1.7-0.1-1.7-1.2
	C246.9,89.1,247.5,88,248.6,87.5z"/>
<path class="st235" d="M249.3,106.7c0.9-0.2,2.1-1,2.4,0.4c0.2,1.1-0.8,2.5-2,2.2C248.7,109,249.2,107.6,249.3,106.7L249.3,106.7z"
	/>
<path class="st118" d="M252.1,102.5l1.2,1.8c-0.6,0.9-1.6,1.6-2.3,0.6C250.4,104.2,251.2,103.1,252.1,102.5z"/>
</svg>
