<svg id="图层_1" xmlns="http://www.w3.org/2000/svg" viewBox="0 0 545.2 420"><style>.st2{fill:#fafaf9}.st3{fill:#fdfdfc}.st4{fill:#100d0d}.st7{fill:#111011}.st9{fill:#130f11}.st10{fill:#0d0d0c}.st18{fill:#120f11}.st19{fill:#0d0c0c}.st21{fill:#140a0a}.st23{fill:#121013}.st25{fill:#101012}.st27{fill:#0f0d0e}.st28{fill:#1f1e1d}.st29{fill:#171414}.st30{fill:#fefefe}.st31{fill:red}.st33{fill:#040404}.st34{fill:#161515}.st37{fill:#191717}.st38{fill:#efefef}.st41{fill:#141111}.st42{fill:#f5f5f5}.st44{fill:#121012}.st47{fill:#fcfcfc}.st54{fill:#0e0d0c}.st57{fill:#f7f6f3}.st58{fill:#f1f0f0}.st59{fill:#f3f3f2}.st61{fill:#111112}.st63{fill:#ad453d}.st66{fill:#c6c4c5}.st68{fill:#bababa}.st70{fill:#1b1211}.st71{fill:#c7c6c7}.st74{fill:#d6d6d6}.st76{fill:#d5d5d5}.st77{fill:#cdcdcd}.st78{fill:#dededf}.st83{fill:#d9d9d9}.st85{fill:#e1e1e1}.st89{fill:#b6b5b5}.st92{fill:#f0efed}.st94{fill:#c0c1c1}.st115{fill:#141214}.st116{fill:#faf9f7}.st118{fill:#060505}.st131{fill:#b8b8b8}.st132{fill:#cdcccc}.st134{fill:#cecece}.st135{fill:#cfcfd0}.st137{fill:#d8d7d7}.st142{fill:#e3e3e3}.st144{fill:#131213}.st151{fill:#bdbdbd}.st154{fill:#c4c5c5}.st165{fill:#d7d7d7}.st167{fill:#d7d6d6}.st170{fill:#d1d0d0}.st185{fill:#dbdbdb}.st186{fill:#d5d6d6}.st191{fill:#dcdcdc}.st201{fill:#ddd}.st203{fill:#e0e0e0}</style><path d="M47.2 416.5c1.7 0 3.3-.1 5-.1.6-.5 1.3-.5 2-.1.3.3.3.9 0 1.2" fill="#f40416"/><path d="M374 151.5l-5.7-1.2c6.6 12.1-5.8 21.4-2.9 32.8-.6-.1-1.2-.2-1.8-.4-2-1-1.6-5.4-4.9-4.2-3.1 1.1-5.6 8.1-4.6 11 .7 2 .8 4.5 2.8 5.7 5.1 3.1 5 7.9 5.1 13 .1 7.3-1 14.6.8 21.9.7 3.3 3 6 6.2 7.1 12.2 5.2 12.2 5.3 13.3 18.3.7 8.5.7 8.5 9.1 9.1 2.7.2 5.3.4 8 .7.8.1 2.3.3 2.3.5.6 7 5.7 3.3 8.2 2.8 5.5-1.1 8.1.7 10.1 5.7 4.4 10.9 10.6 20.6 20.5 27.6 5.5 4 8.9 9.5 10.9 16.2 2.9 9.6 7.5 18.1 17.7 22.1 2.9 1.1 4 3.9 5.3 6.4 7.1 14.8 18 26.1 31.7 34.9 4.2 2.7 8.1 5.9 11.4 9.6-.3 2 3 3.6 1.2 5.2-2.2 1.9-3.8-1-5.6-1.9-2.2-1-3.5-3.9-6.6-3-.4.1-1.2-.6-1.1-.9 1-2.6-2.6-3.2-2.4-5.6.2-2-1.5-2.6-3-1.7-3.3 2.1-6.6 2.8-10.3 1.2-1.2-.2-2.2-.9-2.8-1.9-16.8-20.9-33.2-42.2-49.1-63.8-.6-.8-1-1.7-1.4-2.6-.3-1.2-.9-2.3-1.8-3.2-1-.8-2.4-.1-3.5-.9-4.6-4.8-9-9.3-9.9-16.7-.7-5.8-5.8-9.8-9.7-14-.9-.8-2.2-1-3.3-.7-4.2 1.1-7.4-.5-10.4-3.2-2.2-1.8-4.9-2.9-7.7-3.2-5-.9-9.3-3.6-13.5-6.3-2.6-1.7-3.2-4.8-3.4-7.5-.6-10.6-6.9-16.8-15.4-21.7-1.6-1.2-2.7-3-3-4.9-1.4-6.4-3.4-12.7-6-18.8-2.2-5.1-1.2-10.7-2-16.1-.5-4.2-.5-8.6-1-12.8 0-1.1-.2-2.6.5-3.3 4.5-4.4 3.2-10.3 4.4-15.6.3-1.4 0-3.3 1.5-3.9 1.8-.8 3 .9 4.2 2 1.4 1.2 2.7 2.5 3.7 3.9-.4-1.7-1.8-3.7 1.3-4.4 2.5-2 1.1-4.4.7-6.7-.1-.5-.2-.9-.3-1.4-.3-2.4.1-4.8-.6-7.1-.8-3.9-.2-6.8 4.9-6.5-3.5-2.6-6-5.2-2.4-9.4 2.6-3.1-1.3-4.1-2.3-6-.6-1.6-.8-3.4-.6-5.2.5-3.4 2.3-6.3 3.8-9.3.2-.4.6-.7.7-1.2-.3 0-.6.1-.8.3-2.4 1.2-4.6 3.9-7.2.4-.8-3-2.9-5.7-1.8-9 2.1-1.8 2.9-1 3 1.2.6-.7-1-3.2 1.7-2.9 1.5 3 4.3 1.9 6.6 2 1.8.1 3.6 0 5.9 0-.5 5.3-2.7 9.8-4.3 14.3-1.3 3.5-.9 5.6 2.3 7.8 5.8 4 5.6 4.2 1.2 9.6-1.4 2.4-1.4 4.7.7 6.8 1.3 1.3 1.6 3.2 2.4 4.9l1.2 2.5c.1 2.3-.9 2.2-2.2 1.6z" fill="#fafafa"/><path class="st2" d="M279.2 43c1.8 2.4 4.3 4 6.9 5.5 3.1 1 6.2 1.8 9 3.5-.5-1.5-1.7-2.7-1.6-4.5.3-1.4 1.3-1.9 2.6-1.8.4.1.9.3 1.3.4.8.2 1.6.5 2.3.9.4.2.7.1.6-.3s-.4-.5-.6-.8c-1-1.9-2.5-3.5-2.6-5.7.3-.9.3-2.2 1.8-1.6 4.2 3.5 9.2 6.1 13.9 8.5 9.6 5 16.1 13.2 23.8 20.2 2.5 2.2 2.8 5.6 4.1 8.4.8 1.8 1 3.9 3.2 4.7 1.3 1.2 3 1.9 3.8 3.5 1.9 1.8 3.7 3.9 5.8 5.3 4.7 3.2 6.3 7.7 6.5 13.1-.7 1.2-2.1 2-4.3 2.3-3.5-.2-4-4.4-6.9-5.1-.5 3 .5 6 1.8 8.9.8 1.9 2.2 4.4-.8 5.5s-4.1-1.2-5-3.5c-.7-1.7-1.2-3.4-1.9-5.2-3.9-7.3-5.7-15.5-9-23-2.6-5.9-5.1-12.2-9.7-17.1-2.1-4.5-6.6-6.4-10.4-9.5 1.3 3.5 4.3 6.1 3.6 10-.4.9-1.4 1.4-2.4 1.1-1.9-1-2.8-3.3-4.8-4.4-.8 1.9-1.1 4.1-3.7 4-7.5-2.4-14.7-5.4-21.8-8.8-1.2-.8-2.5-1.3-3.6-2.1-2.3-.9-4.6-1.9-6.9-2.7-2.1-.2-4.2-.1-6.3.3-1 0-2.3-.3-2.3-1.4 0-4.4-3.3-4.9-6.4-5.6-4.7-1-9.5-1.4-14.2-2.3-1.7-.3-3.1-.4-4 1.7s-2.9 2.7-5.1 1.8c-2.3-.7-3.8-2.9-3.6-5.3.2-5.1 3.1-9.4 4.2-14.2-.6-.6 1.6-2-.7-2.1-.4.1-.8.2-1.2.1-3.1-.5-5.1-2-4.9-5.4.1-2.3-1.1-3.1-3.2-3.3-1.3 0-2.6-.3-3.8-.8-1.6-.8-2.7-2.1-3.2-3.8-.1-.5-.1-1 0-1.4.8-2.6 3.1-4.4 5.8-4.5 1.8.3 3.3-.4 4.9-.9.9-.1 1.8.2 2.4.9.7 1.1 1.8 1.9 3 2.3 1.4.8 2 .2 2.4-1.2s.2-2.9 1.1-4.2c2.2-.7 3.2.5 4.2 2.4 3.3 5.9 5.4 12 4.2 18.9-.3 2.1-.4 4.3-.3 6.4 0 1.6.6 2.6 2.4 2.2 3 1 6.5 0 9.3 2l.2.2.3-.2"/><path class="st3" d="M545.1 417.5c-7.5.8-14.9.5-22.4.3-6-1.5-9.2-6.9-13.7-10.4-7.2-5.6-12-13.6-18.3-20.2-.8-.6-1.1-1.8-.5-2.7 4.4 1.4 7.6-2.2 11.4-2.6 4.2-.5 2.2 3.6 3 6l1.7-2.9c1.2 1.2.3 2.3.3 3.3 0 .8-1.5 1.5-.3 2.6s1.8.1 2.6-.5c2.2-1.6 2-.3 2.9 1.5 1 2.2 4.6 2.2 6.1 4.9-.1-2.1-3.2-3.5-.4-5.4"/><path class="st4" d="M105.3 1.5c4.2-1.2 8.7-1.3 12.9-.2.4-.3.7-.2.7.3C126 9.7 127.3 20 129.2 30c.9 5 1.4 10.1 2.1 15.1.4 1.1.9 2.6-.2 3.1-1.7.7-2.5-1.4-2.4-2.3.2-4.4-2.6-8-3-12.2 0-.3.1-.6.3-.9l.7-1.1c-.4.4-.5 1-.9 1.5.2 4.6 1.8 9 3.2 13.1 2 6.1 1.7 12.4 3.4 18.4.4 1.5.2 3.4-2 4-2.2-.8-2.7-2.9-3.2-4.8-3.5-12.4-5.9-24.9-6.4-37.8-.1-3.8-.6-7.7-1.6-11.4-1-3.9-3.2-7.2-7.6-7.5s-6.3 3-7.7 6.6c-1.1 3-1.8 6.1-2.3 9.2-.3 1.5.1 3.6-2.5 3.5-.5-.5-.7-1.3-.6-2-.1 4 .2 8.9.1 13.8-.1 3.2-.1 6.3-2.1 9-1.4.6-1.6-.3-1.8-1.4-.9-5.9-2.5-11.7-2.8-17.6-.4-7 3.2-13.3 5.9-19.7 1.4-3.4 3.8-6 7.5-7.1z"/><path d="M159.1 99.5c1-5.2-3-9.7-2.2-15 .4-2.7-.8-6.2 4.2-3.4 2.1 1.2 4.8.6 7-.9 6.3-4.2 12.7-8.2 19-12.3.9-1 1.2-2.3 2.1-3.3.7-3.6 1.8-7.1 3.1-10.5 2.4-1.5 4.4-2.1 4.3 2.2.5-5.7 3.7-10.4 4.8-15.6.1-.4.2-.9.3-1.3.5-.9.7-2 .7-3.1 0-.4.1-.9.2-1.3.5-1.3 1.6-2.3 3-2.7 1.3.2 2.2 1.4 2.2 2.7-3.1 10.2-6 20.3-10 30.2-1.4 3.6-3.4 6.3-7 8-5.3 2.5-10 5.9-14.8 9.2-4.1 2.8-8.5 5.1-13.5 5.9-.6.1.2 1.1-.1.4-.1-.2 0-.4.3-.4 3.1-.2 6.5.1 7.8 3.1 1.5 3.5.1 7.5-2 10.4-1.7 2.5-2.8-.2-3.5-1.8-.5-2.2.9-4.2.7-6.4-.1-.6-.3-1.2-1-1.2.6.7-.3 1.3-.2 1.5 1.1 4-.8 7.9-.2 11.9.5 2.9-.3 6 .7 8.9.2.7.3 1.5.4 2.2.1 2.1.1 4.2 0 6.2 0 .8-.2 1.5-.4 2.3-.5 1.7-.8 3.4-.9 5.2-.5 2.9-1.2 5.8-2.1 8.7-.7 1.6-.7 3.3-1.2 4.9-.6 1.9-1.9 3.6-3.6 4.7-.7.3-1.6.2-2.2-.3-.2-.5-.3-1-.1-1.5 4.9-11.8 6.4-24.2 5.8-37.9-.3 3 .7 4.9.4 6.9-.2 2.3-1.2 4.5-2.9 6.2-1.5-8.3.8-15.6.9-22.8z" fill="#0d0c0d"/><path class="st7" d="M130.1 68.5c.8-.6 1.2-1.7.9-2.7-2.2-6.5-1.7-13.5-3.7-20.2-1.1-3.8-4.4-8.5-1.3-13.2 1 5.2 4 9.7 3.5 15.3l1.3-.3.2-2.3c2.6 17.9 10.5 34.4 14.2 52 .2 1.1.4 2.3.5 3.4-.7.9.3 2.6-1.2 2.9s-2.1-1.3-2.5-2.5-.6-2.4-.4-3.7c-.4.7.1 2-1.1 2.4-1.3-.5-2.2-1.6-2.3-3-1.7-7.7-5.3-14.7-8-22-.5-1.9-1.6-4-.1-6.1zM159.1 99.5c.9 7-1.6 13.8-.8 21.2 3.6-4.1.3-9 2.6-13.5 1.6 11.7 1.7 22.6-2.4 33.5-1 2.7-1.3 5.6-3.4 7.9-.3.1-.6.2-.9.2-3 .5-.2-3.8-3.6-4-2.5-.1-2.7-3.7-2.3-6.3.1-.5 0-1.1.2-1.4 3.2-4.1 2.2-8.4.9-12.7-.1-.7.1-1.4.7-1.8 1.4 1.2 1.9 3.9 4.5 3.1 2.4-.7 1.5-3 1.8-4.7 1.4-7.2.6-14.5 2.7-21.5z"/><path d="M150.1 122.5c-1.6 2.5 2.2 3.4 1.6 6.7-.6 3.5-2.2 6.9-2.3 10.5-.1 2.5-.1 2.3 3.1 3.8.8.3 2.1 1.8 1.3 2.8-1.7 2.2 1 1.4 1.3 2.2-.4 2.7-2.5 2-4.2 2.2-4.8-1.1-6.1-5-6.6-9-1.1-8.9-2.6-17.8-2.6-26.8 0-3 .6-6-.6-8.9-.8-2.1-1.7-4.2 0-6.3l.3-2.5c2.3 1.3 1.5 4 3.2 5.4l1.5-2.1c.2.2.3.6.2.9 1 1.6-.2 3.5.9 5.1.2.3.2.6.1.9.7 1.8.6 3.9-.3 5.6-1.8-1.9-1.1-4.2-2.1-5.3 1.7 8.4 5 17.4 2.6 25.6-.7-2.4 1.1-5.8 1.1-9.4-.1-.7.4-1.3 1.1-1.3.1-.2.3-.2.4-.1z" fill="#0f0f10"/><path class="st9" d="M239.2 3.7c2.4 3.2-1.3 5.3-.8 7.9-2.3.2-1.9-2.1-3.2-2.3-1.2-.4-2.2-1.1-2.9-2.2-.4-.7-1.3-1-2.1-.7-1.2.7-2.7.9-4.1.8-2.9 0-4.1 2.5-6 4.1-2.7.8-4.6-.2-6-2.5l-.1-.7c6.9-8.8 17.3-10.6 25.2-4.4z"/><path class="st10" d="M203.1 35.5v1c0 1.1-.3 2.1-1 3-1.8 3.1-2.6 6.6-4.4 9.7-.8 1.5-1.4 3.5-3.9 2.3-.4-7.1 3.8-12.8 5.9-19 1.1-3.2 1.8-6.7 4.7-9l.8-1.9c.8-1.6.6-3.8 2.8-4.6 2.1.4 2.6 1.9 2.7 3.7-.1.5-.4.9-.7 1.2-2.8 4.2-5.2 8.8-6.9 13.6z"/><path class="st7" d="M150.1 122.5c-1.8 4.1-1.9 8.6-2.6 13 .6-10.2-3-19.9-2.8-30.1l1.8 6.2c1.1-1.4.3-2.9.6-4.2 2.1 4.8 1.6 10.1 3 15.1z"/><path class="st9" d="M210.1 21.5c0-1.7-.9-3.2-2.3-4.1.4-3.9 3.2-6.3 5.5-9 .2-.1.4-.1.7-.1l.3.3c2.5 5.4.5 11.5-4.2 12.9z"/><path d="M213.3 8.3l-5.5 9-2.6 4.2" fill="#ad4a3e"/><path d="M374 151.5c.8-.3 1.9-.3 2.3-1.3" fill="#f1c596"/><path class="st7" d="M147.1 106.5c-1.6-1.5-.8-3.3-.9-5.1.9 1.5 1.2 3.3.9 5.1z"/><path d="M538.7 417.5c2.1-.2 4.3-.1 6.4-.2" fill="#9a121a"/><path d="M496.1 419.5h4" fill="#392f2d"/><path d="M483.1 419.5h4v.5" fill="#372e2b"/><path d="M98.8 129.6c1 1.3 2.2 2 3.9 1.2 2-1 1.4-2.8 1.5-4.4.2-18.5-.8-36.8-4.5-54.9-.3-1.6-.4-3.3-.6-4.9.2-.4.3-.9.2-1.4-.1-1.3-.4-3.1 1.1-3.5s1.7 1.6 2.1 2.8c3.2 8.4 4.5 17.3 6.8 26 3.4 13.1 1.9 26.3 2.6 39.5.2 4 .6 7.9.6 11.9 0 1.9-.4 3.7-2.3 4.7s-3.1.5-3.7-1.6c-2.7 1-4.4-1.9-6.9-1.8-4.3-.5-4.9-4.6-7.1-7.2-3.9-5.9-7.3-12.1-11-18.2-5.1-9.2-9.6-18.8-17.8-25.8-4.8-6.1-9.8-12-14.4-18.3-.3-.4-.5-.7-.8-1.1-.5-1-.9-2.1-1-3.2-.2-2-1.4-3.6-2.1-5.4s-.8-3.2 1.7-3.4l18.5 20.9c2.2 2.4 5.1 4.3 6.4 7.4l12.7 18.6c1.6.9 1.6 2.7 2.3 4.1 3.9 6 7.3 12.3 11.8 18z" fill="#100f10"/><path class="st4" d="M47.1 60.5c-2.1 1.3-.2 2.7-.2 4 0 1.8 3.6 2.9.9 5-.5.2-1 .2-1.4-.1-4.1-4.4-6.6-10-10.6-14.5-2.9-3.4-5.7-7-9.9-8.9-2.3-1-4.8-1.9-7.1-.1s-2.3 4.6-1.7 7.3c3.2 13.1 9.4 24.8 17.4 35.6.7 1 1.4 1.9 2.2 2.8 2.7 3.5 5.5 7 8.4 10.4 4.3 5.3 7.1 11.5 9.9 17.7.7 1.6 1.5 3.4.5 5.2-3.3 1.2-2.7-2.4-4.4-3.4-.5 1.2.1 3.3-2.3 3.3-3.2-5.4-5.2-11.4-8.7-16.8C33.8 96.6 26.2 86 19 75.1c-5.4-8.2-10-16.3-9.1-26.7.8-9.5 6.8-13.2 15.4-8.6 9.1 5 15.6 12.7 21.8 20.7z"/><path class="st18" d="M12.7 306.4c.4-3.4 2.2-6.1 4.5-8.6 7.8-8.2 15.3-16.6 23-24.8 1.8-1.7 2.6-4.1 2.2-6.6-.8-5.2-.9-10.5-1.2-15.8 2.6-.2 2.1 1.9 2.5 3.3 1.5 5.5.8 11.4 2.9 16.8.9 1.9 0 3.6-1 5.1-7.8 11.6-15.6 23.2-23.4 34.7-.6 1-1.5 1.8-2.6 2.2-2.4-.6-2.5 1.7-3.5 2.8-.7 1-2.1 1.2-3.1.5-1.2-.7-.9-1.5-.9-2.8 0-2.3 2.9-4.4.6-6.8z"/><path class="st19" d="M12.7 306.4c.7-.4 1.5-1.1 2-1 .8.2 1.3 1.6.7 2-2.3 1.6-.5 4.7-2.5 6.4-.7.6-.6 1.1.4 1.2.8.1 1.6 1.5 2.2-.3.4-1.1.9-2.1 1.5-3.1.8-1.5.8-1.4 2.1.8-1.6 4.7-2.8 9.7-8 12.1-1.6-2.5 1-3.8 1.6-5.7-2.1 4.1-2.1 4.1-.7 6.9 1 3.1.6 6.3.4 9.4-1.1 13.9 0 27.9 3.3 41.5.8 3.4 2.7 6.4 3.4 9.9-.2 5.4-.2 5.4-3.4 4.5-4.4-10.1-7.8-20.5-11.9-30.8-1.1-2.5-2-5.2-2.7-7.9-2.6-5.1.2-9.4 1.9-13.8 1.6-1.6 0-5 3.1-5.9 1.5 3.3.2 6.4-.7 9.6s-4.1 7.2 1.7 9.5c.8.3.7 1.9.4 2.8-.6 2-.5 4.2.3 6.1-.8-7.4-1.2-14.9-1.1-22.3 0-2 1.2-4.3-1-6-.3-1.2-.2-2.5.4-3.6v-.1c2.2-.5-.2-2.3.9-3.1 1.5-6.6 3.4-12.9 5.7-19.1z"/><path d="M46.1 271.5c-3.6-2.6-2.3-6.7-2.9-10.1-.5-3.6-.7-7.3-2.2-10.8-2.6-7.3-.4-14.3 1.7-21.3 1.2-4.1 2.3-8.3 3.4-12.4.9-1.4 0-3.4 1.6-4.5 5 1.4 5 1.4 2.2 5.6-.4.7-.6 1.5-.8 2.3-1.1 1.2-1.1 2.9-2.1 4.1-1.1 1.5.1 3.6-.5 4.2.5-.5-.2-2.3.3-3.9 1.1-1.3 1.3-3.1 2.3-4.4.6-1.6.7-3.8 3.4-2.3 1 5.4-2.4 10-2.5 15.2-1.1 7.9-.2 15.9-.5 23.8-.1 2.5.1 5-.2 7.5-.7 2.5-.7 5.3-3.2 7z" fill="#0f0e0d"/><path class="st21" d="M54.1 416.6l-1.9-.3-14-6.9c0-2.4 1.8-1.6 3.2-1.9-.1-1.6-4.2-2.2-1.3-4.7 2.9-.6 4.8 1.5 7 2.6.8.4 1.5.9 2.3 1.3 1.7.9 3.2 2.1 5 2.9 1 .4 2 .8 3.1 1.1 1.1.3 2.3.5 3.5.5.8.1 1.6.2 2.4.5 13.8 1.8 27.5 2.1 41.2-.5 1.8-.3 4.2-1.2 5.2 1.4.8 1.9 0 3.6-2 4.6-14.4.6-28.9.1-43.3.3-3.5-.1-7 .3-10.4-.9z"/><path d="M40.6 403.2c-1.4 1-.5 1.5.3 2.1 1.4 1 2.7 2 4.3 3.1-2.7 1.8-5.1-1.5-7 .9-1.6.1-3.1-.6-4-1.9 0-.4 1-.4.7-.7s-1.2 0-1.8.3c-1.3.2-2.5-.4-3.2-1.5-1.4-2.2-3.8-2.4-6.1-2.6-6-.8-5-6.8-7.7-10.1-.6-.5-.8-1.4-.3-2l.3-.3c3.4.5.1-3 2-3.4 6.8 2.7 12 8 18.2 11.5 1.8 1.3 4.1 2.1 4.3 4.6z" fill="#121011"/><path class="st21" d="M23.9 402.9c3.3-2.4 5 1 7.3 2l-1.2.6c-2.1-.5-4.4-1-6.1-2.6z"/><path class="st23" d="M6.1 332.5c-1.8 1.5-1 4.5-3.1 5.9.3-3.5 1.3-6.8 3.1-9.8v3.9z"/><path class="st21" d="M33.1 407c1.4-2.9 2.7-.1 4 .4h-2.9l-1.1-.4z"/><path class="st23" d="M7 325.3c-.6 1.8 2.9 1.4 1.8 3.2-.6.9-1.8-.2-2.7-.1-.3-1.1.1-2.3.9-3.1z"/><path d="M87.1 111.6c-1.2-1.1-2-2.6-2.3-4.1 2.1.6 2.5 2.2 2.3 4.1z" fill="#cd3332"/><path class="st25" d="M521.6 416.3c-37.5.1-75 .1-112.5.1h-231c-1.7 0-3.3.1-5 .1-.4.2-.9.2-1.3 0-2.8-2-3.8-5.3-5.5-8.1-1.3-2.1-2.5-4.4-5.4-4.5-6.1-.4-12.3-3-17.8-2.7-5.3.3-10.7-.5-16.1.3-3.3.5-6.7.4-9.6 2.1-3.2 1.8-3-.4-2.9-2.3.1-2.7 1.5-5.1 2.6-7.5 3.9-8.5 5.5-17.7 8.5-26.5.4-1.2.6-2.9 2.1-3.1 1.5-.2 1.6 1.5 2.1 2.4-3-5.4-.9-10.5 1.9-15 1.6-2.5-.7-2.6-1.1-3.8-.4-3.8 1.1-7.1 2.4-10.5 2-5.4 2.8-11.2 5.4-16.4.5-.7 1.1-1.2 1.7-1.7 5.1-2.7 10.6-.6 15.8-1.6.5-.2 1-.3 1.4-.4 2.1-.4 4.3-.1 6.4-.8.4-.1.9-.2 1.3-.3 1.8-.3 3.5-.8 5.1-1.7.6-.3 1.3-.5 2-.7 4-1.7 8.3-2.6 12.2-4.6 3.3-1.5 6.6-3.1 9.8-5 5.8-3.2 12.2-5.3 18.8-6 7.1-1 13.7-4.1 20.8-4.8 3.6-.3 7 .1 10.8-1.3 4.2-1.5 9.4-.2 14.1.8.6.1.1-.8.1-.1 0 .1-.2.1-.5 0-1-.2-2.7.3-1.7-1.8 5.5-2.2 11.2-.8 16.8-1.2 13.1-.9 26.4 1 38.7-1.9-.2 0-1.3.6-2.3 0-1.3-2.5.9-2.6 2.3-3 3.5-.9 7-1.9 10.5-3 5.2-1.7 9.8-5 13.2-9.4 4.6-5.8 4.2-9.3-1.6-17.3-.9-2.4-3.1-1.6-4.7-1.6-6.8.3-13.6-.6-20.4-1.1-1.4-.1-3.5 0-3.6-1.8 0-1.7 1.9-1.9 3.4-1.9-2.1-.5-4.3-1.7-5.2-3.1-2.1-3.5-4.6-2.8-7.4-1.7-1.7 0-3.5-.3-5.1-.9-2.1-.9-4.5-.3-6.6-1-.7-.2-1.2-.8-1.4-1.6.4-1.1 1.3-1.4 2.3-1.5-3.1.2-6.5-.1-8.9-1.7-6.4-4.4-14.1-3.1-20.9-5.2-2.2-.7-4.6-2.2-7.2-1.2-1.3.2-2.4-.5-3.5-.9-.5-.4.4-.3-.2-.1-.4.1-.3.3.1.2 1.8.9 3.8 1.4 5.5 2.3.8.4 1.6.7 2.3 1.1.6.3.9.9 1 1.5 3.4 4.9 9.1 5.4 13.8 7.6 4.4 2.1 9.3 2.7 13.4 5.6.5.2 1 .4 1.5.5 5.3 0 10.5-.2 15.8.1 1.2 0 2.3 0 3.5.2 1.4.3 3.3.5 2.9 2.5-.3 1.7-1.9 1.3-3.3 1.3-5.4-.3-10.9-.1-16.4-.1-1.8-.2-3.6 0-5.4.5-5.8.8-11.3-.5-16.9-1.6-1.3-.4-2.6-1-3.9-1.4-6-1.2-12-2.6-18.2-2.6-5 0-9.2-2.6-13.3-5.1-1.8-1.1-3.3-3-1.9-5.5 1.9-1.9 6.6-.1 6.6-4-.1-2.9-4-2.2-5.9-3.6-3.1-2.3-5.7-5.1-8.7-7.5-3-2.6-2.5-6-2.1-9.3.7-6.4 3.7-12 6.5-17.7 2.3-4.6 4.7-9.2 7.3-13.6 2.8-4.7 5.5-9.5 9.5-13.3 2.8-3.1 5.9-5.8 8.9-8.7l.6-.4c.4-.2.9-.3 1.3-.4 4.6-1.8 6.8-5.8 9.3-9.6.6-2.2 2.6-3.5 3.8-5.4.6-.9 1.5-1.7 2.5-2.2 3-1.2 4.7-3.8 6.9-5.9 4.4-4.5 9.1-8.7 13.1-13.6 1.2-1.5 2.6-3.1 4.8-3.2 1.9.2 3.8.3 3.1-2.6.1-1.7 1.5-3 3.2-3.1.7.2 1.3.6 1.6 1.2.4.8.5 1.8.2 2.6-.7.8-.2 1.9-.6 2.8-.9 1.1-1.8 2.3-2.6 3.5-1 .8-1.9-.1-2.8-.1-1 .3-1 1.2-1.3 1.9-1.9 2.2.1 5.2-1.5 7.4-.3 1-.6 2-1 3-.3 1 .7 1.9.4 3-.9.9-2.2 1.4-3.5 1.4-1-.1-2.1 0-3.1.2-1.3.3-2.1 1.5-3.4 1.5-.5-.2-.7-.7-.7-1.2-.6.3-.3.8-.1 1.2s.5.6.7 1c.6.9 1.3 1.6 1 2.8s-1.1 2.2.1 3.2c2 .9 4 1.6 5.2 3.6.3.6.3 1.3.1 1.9-1.3.9-2 2.3-1.9 3.9.8 3.7 2-.7 3 .1 1.9 1 1.6 2.6 1.5 4.2-.5 1.4 0 3 1.2 3.9.7.4 1.5.5 2.3.5 1.5.1 2.9-.2 4.2-.8.4-.1.8-.2 1.2-.2 1.2.2 2.4-.2 3-1.2.7-1.2 1-2.6 1.8-3.8.4-.9.7-1.8.7-2.8l-1.2-2.7c-.1-.6.1-1.2.4-1.8.6-.5 1.4-.7 2.2-.6 1.5-.7-.5-1.4 0-2.1 3.9-1.9 6.4-.9 7.8 2.6.7 1.7 0 4.3 2.6 4.9.9 1.1 1.4 2.4 1.5 3.8 0 .9-.4 1.8-1.1 2.4-1.5 1-1.1 2.6-1.1 4 .8 4.2-3.8 7.1-3 11.3l.9.9c2.4.3 4.8.2 7.1-.2 1.6-1.9-.6-3.1-.8-4.6.6-1.3 1.6-1.4 2.8-.9.8.7 1.8 1.2 2 2.5 0-1.2-.9-1.6-1.6-2.2-.2-.2-.3-.5-.3-.8s.1-.4.2-.4c1-.9 2.4-1.3 3.7-1.2.4 0 1.2.7 1-.6s-.9-2.4-1-3.7c.6-1.5 2-2.4 2.8-3.7.6-.7 1.4-1 2.3-.9.8.4 1 1.7 2.3 1.5 3.3-.9-.2-3.2.9-4.5 1.7-.8 2.2-2.6 3.1-4.1 1-.6 2.2-.8 3.3-.3 1.8 1.3 1.4 3.4 2 5.2-.5 1.7 1.6 1.5 1.9 2.5.9 2.1 1.6.2 2.4-.1 2.1-.9-.5-1.8 0-2.8 1-1.5 2.5-2.5 3-4.3 1.9-2.8-2-2.4-2.3-4-.5-.4-.8-1.1-.6-1.8.7-.4 2.6-.3.9-1.9.9-1.2 1.9-2.4 2.9-3.5.6-.7 1.6-1 2.5-.7.8.5 1 1.9 2.1 1.6.8-.3.2-1.4.2-2.1-.1-2.9-1.5-5.5-1.6-8.4.9-1.1 2.1-2.1 2.3-3.6.2-2.8-3.4-5.6-.1-8.4 2.7.5 3.1 5.2 6.9 3.7.4.1.9.2 1.3.2 5.6 2.8 5.8 3 1.9 7-2 2.1-1.9 3.4.3 5 1.5 1.1 2.7 2.4 4.2 3.7-1.7 2.4-9-2.1-6.6 5.2 1.1 2.7-.5 5.6 1 8.3l.2.3-.2.3c-.1 2.8 1.9 5.9-1.1 8.3-.6 0-1.8-1.3-1.4.5.5 1.8 1.2 3.7 2 5.4l-8.6-9.7-2.1 1.3c-.2 3.8-.1 7.6-.6 11.4-.3 2 1.9 5.7-2.9 5.8-.5 0-.9 2.9-1.3 4.5-.5.8-1.5-.6-1.4-.1.3 2.2-1.7 2.4-2.6 3.6-2.2 2.7-5.3 2.1-8.2 2.1-.7-.2-1.2-.7-1.4-1.4.6-1.8-.2-2.1-1.8-1.7-.7-.2-1.2-.8-1.2-1.5-.1-1.2 1.3-1.8 1.3-3.1-.5 2-2.3 2.8-3.4 4.2-.5.7-1 1.4-1.5 2-.7.5-.6 1.4-.9 2.1-2.3 1-4.6 2-4.6 5.1-.5 3.7-4.2 5.5-5.1 9.2-.5 2-3.2.9-3.8-.7-2.1-5.5-4.5-4.1-7.5-.8-1 1.1-2.8 2.4-3.6-.5-.8-.9 1.9-2.7-.8-3.1-1.6 1.9-2.4 4.5-5.2 5.1-3.5-.9-2.3-3.9-2.9-6.1.8-1.2.5-2.9-.9-2.9-2.7-.1-3.4-1.4-3.7-3.8-.5-3-1.9-2.4-3.6-.6-3.7 3.8-3.8 3.7-6-.3-2 1 .4 1.9.1 2.8-.7 1.5-3.5 2.9.1 4.5 1.5.7 1.9 2.5.7 4.2-1.7-.2-3.3.8-3.7 2.4-1.2 3.1-3.5 5.1-7.6 6.5 3.3-.9 5.6-1.7 8-2.3 1.3-.3 2.7-.8 3.4.8.5 1.3-.4 2.1-1.2 3s-2.2.8-2.6 2.4c13.4 2 26.1 6.4 39.2 9 1.5.6 2.9 1.4 4.4 2.1 1.9 1.1 4 2.1 6 3 1 .4 2.1.8 3.1 1.1 3.1 1.1 6.1 2.2 9.4 1.7 3.4-1.5 2.9-4.9 3.5-7.7.8-3.7.6-7.6 2.2-11.1.6-1.4 1.5-3 3-3.1 1.8 0 1.1 2.1 1.8 3.1 4 6 5.7 12.9 7 19.9.4 1.9.7 4.5 3.9 4 7.9 4.5 13.8 10 15 19.9 1 8.3 7.9 14.6 16.2 15 4.5.3 7.2 3 10.3 5 2.1 1.3 3.5 2 5.7 1.2 3.9-1.3 6.7 0 8.8 3.5 1.6 2.5 3.4 4.9 5.3 7.2.7.9 2 2 1.9 2.8-.8 8.6 5.8 13.3 9.9 19.3 1 .6 2.1 1.1 3.2 1.5.9.2 1.2 1 1.7 1.6.2.5.4.9.6 1.4 16.7 22.7 33.9 45 51.6 67 .2.2.5.4.8.5 9.8 11.9 19.7 23.2 31.7 32.3z"/><path d="M359.1 238.5c-1.4 1.5-2.3 2.3-3.4-.5-2.4-6.1-3-12.8-5.7-18.8-1-2.2-5.4-2.9-2.6-7-3.8 3.4-4.1 4.3-4.8 12.6-.3 3-1 5.9-2.1 8.6-.5 1.2-1.2 2.8-2.7.7-.9-2.3.2-4.2 1.1-6.2 1.2-1.6.8-3.6 1.1-5.4.1-.5.2-1 .3-1.4.5-2 .6-4 .4-6 .1-3-.2-6 .5-8.9.2-.8.5-1.5.9-2.2 1.6-4.8.2-9.7.8-14.5l.1-.8c-.4-2.3 3.9-2.8 2.4-5.7l1.8 2.6c.2 3.4.6 6.9.7 10.4.4 9.6 1.4 19.2 5.6 28 1.5 3.3 2.5 6.8 2.7 10.4.2 2 1.7 2.8 2.9 4.1z" fill="#0b0b0c"/><path class="st27" d="M344.2 105.3c.9 2.3 1.7 4.6 2.6 6.9.3 1.3 1.6 2 2.9 1.7.1 0 .2-.1.3-.1 2.2-.7.8-2.1.3-3.1-2.2-4.4-2.6-9.2-3.7-14.5 4.3 2 6.7 5.5 9.4 8.5.2 2.9 2.4 5.3 2.2 8.4.3 1.2.9 2.7-1.4 2.3s-1.1 1.2-1.3 2c0 .4-.1.9-.2 1.2-.7.7-1.7 1.1-2.4 1.9-.5.9-1.2 1.7-2.1 2.3-.6.2-1.3.2-1.9-.1-1.8-1.8-2.8.1-4 .9-2.6-1-2.4-3.6-3.2-5.6.3-1.4.8-2.8-.3-4.1-.5-.7-.7-1.6-.7-2.5.2-.6.4-1.3.7-1.8 1-1.4 1.1-3.4 2.8-4.3z"/><path class="st25" d="M355.1 118.5c-.4-.9-.8-1.8-1.3-2.6-.5-.9-.2-2 .6-2.6 1-.9 1.7-.1 2.4.7 1.5 1.6 1.1-.2 1.4-.8 2.9 2.2 4.2-2.1 6.6-1.7 1.8-.2 1.9.7 1.2 2l-4 9.1c-.3.3-.7.6-1.1.8-1.1.3-2.3.3-3.4-.1-.4-.2-.8-.5-1-.9 1.9-2.3-1.3-2.5-1.4-3.9z"/><path class="st3" d="M493.7 383.1c-1.7-1.4-3-2.5-4.4-3.6-.9-.7-2.3-1.1-1.4-2.6.5-.8 2.1-1.6 2.4-1 .7 1.2 3.6.8 2.6 2.6-1.2 2 1.1 2.5.8 4.6z"/><path class="st28" d="M362.2 166.5c1.9-2.6.3-5.6 1.1-8.3 1 2.6.4 5.4.6 8.1 0 1.4-1 1.3-1.7.2zM363.2 157.5c-2-2.6-.8-5.5-1-8.3 1.1 2.6 1.5 5.5 1 8.3z"/><path class="st29" d="M361.1 122.5h1l.2 5.8-.4.3c-3-1.7-2.2-3.9-.8-6.1zM366.1 113.3c0-.9-.5-1.7-1.2-2 .5-.7 1.2-1.9 2.1-.8.6.9.3 2-.5 2.6-.2.1-.3.2-.4.2z"/><path class="st30" d="M139.1 321.5l-8 27c1 3.9-1.4 7.1-2.5 10.4-5 15.7-10 31.4-15.5 47-.5 1.4-1.2 2.7-2.2 3.9-1 1.2-2.6 1.4-4 1.9s-3.3-.1-3.4-1.2c-.3-7.2-5.5-2.5-7.9-4.3-.7 1.4-.2 1.4.3 1.5 1.5.2 3.9-.6 3.9 1.6-.1 1.9-1.4 3.5-3.2 3.9-7.2 1.7-14.5.3-21.7.8-1.1 0-2-.8-2-2v-.5c.3-2.4 2.2-1.1 3.4-1.4-3.8-.2-7.4-1.9-10-4.6-1.8-1.9-3.4-2.6-6-2s-5.5-1.5-8.3-.1c-4.2-.3-8.8.5-12.1-3.2.9-2 2.7-1.4 3.9-2-2.7-.6-5 1.6-7.8 1.3-6.2-3.7-12.1-7.8-17.6-12.4-8.1-16.2-7.9-33.6-7.6-51 .1-3.8.4-7.6.6-11.4 3.5-3.5 4.8-8.5 7.8-12.4 9.3-13.4 18.9-26.6 27-40.8l2-6.2c1.2-9 .2-18 .5-27 .1-1.9-.6-3.9.5-5.8-.1-5.2 2.9-9.7 3.1-14.8l-.2-.8c-.5-3.4 1.5-6 2.5-8.9 2.2-6.4 4.4-12.9 5.3-19.7 1.1-7.9 3.1-15.7 5.8-23.2 1.6-4.6 1.3-9.6-.8-14-2.5-5.8-4.5-11.8-7.4-17.4-1.4-2.3-2.2-4.9-2.4-7.5l.1-.8c-.9-7.6-5.4-13.6-9.3-19.9-.6-1-1.3-1.9-1.9-2.9-1-1.9 3.2-2.1 1.3-4.9-1-1.5-.6-3.2-3.3-3.3-3.5-.1-3.2-3.1-3.6-5.5-.1-.8.8-2.2-.9-2.4-.3 0-.7.1-.9.4-1.1 1.3.7 1.3 1 2 .9 1.9 1.1 3.4-1.6 3.8-9.8-10.6-15.6-23.4-19.8-37-1.2-3.9-2.6-8.7 2.3-11.1 4.5-2.2 8.9-.1 12.2 3.2 6.4 6.5 11.8 13.9 16.2 21.8 0 1.5 1.3 2 2.2 2.9.5 1.3-.7 1.6-1.4 2.3 3.9 1.3 2.4 6.7 6.2 8.1 2.7 1 5 2.2 5.2 6 .1 1.7 2.4 3.5 5 2.6 8.6 6.9 13.6 16.3 18.1 26 1.2 5.5 2.7 11 3.7 16.9 2.7-2.5 4.9-.6 7.1 1.2l5.7 7.4c2.8.3 4.4 2.7 7.1 3.5 4.1 1.1 6.1.1 6.1-4.2 0-11.3-.3-22.5-.7-33.8-.5-17.1-6.2-33-10.6-49.3C98 49 98 38.7 98.3 28.4c.1-.7.4-1.3 1-1.7 1.3-5.3 1.6-10.8 4.3-15.7 1.8-3.3 4.1-5.7 8.1-5.4 3.8.2 7.1 2.7 8.2 6.3 1.8 4.9 2.1 10.1 2.3 15.2.6 13.3 2.9 26.6 6.9 39.3.3.7.6 1.5 1 2.1 2.7 10.7 8.2 20.5 10.8 31.3 0 2-.4 4 1.1 5.7 1.3 3-.2 6.3.9 9.4.4 9.4 1.4 18.8 3.1 28 .5 2.7.8 6 4.5 6.8 2.3.7 4.5.7 6.4-1.1l3.1-4.3c1.3-1.4-.2-3.4 1.1-4.7l2.1-8.7c1-1.7-.2-3.7.9-5.3v-1.4c.7-2.7.7-5.5 0-8.2v-1.4c-1.1-5.1-.3-10.2-.5-15.3 0-.8.1-1.8 1.2-1.5.9.2.7 1.4 1.1 2.1.1 1 .1 2.2 1.3 2.4s.9-1.1 1.1-1.8c2.3-8.6 2.3-8.6-8.7-12.7 13.6-2.4 22.1-12.6 33.6-17.4 1.9-.8 2.1-2.5 2.6-4 3.8-10.5 7.6-20.9 11.4-31.4.3-5.1 2.5-9.8 6.2-13.4 1.4-.2 2.3-1 2.1-2.5.1-.4.4-.8.7-1.1 2.5-.2 4.6-1.5 6.9-2.3.9.3 1.9.5 2.8.5 4.8-.9 5.8 1.6 5.1 5.6-.6 3.4 3.3 2 4 3.9 1.7 2.1.5 4.1-.1 6.1-8.5 27.3-17.6 54.4-26.2 81.7-4.7 15.1-9.3 30.2-15.2 44.8-.2.5-.5.9-.9 1.2-3.5 1.6-3.5 1.6-6.3-.7-.3 5.7.6 11.3-.4 17.1-1 5.4-3.5 9.8-6.4 14-1.6 2.4-1.9-.4-2.6-1.3 3.7 6 2.1 11.7-.6 17.4-2.3 1.5-2.9 3.9-3.6 6.3-.3 1.2-.2 3-2.2 2.7-1.6-.3-1-1.9-1.1-2.9 0-.5-.2-1-.4-1.5 3.3 7.1.7 14-.4 21-.1.5-.3.9-.6 1.3-2.3-.7-5.6 2.2-7-1.9.7 2.3.4 4.8.7 7.3.1 1.8-.1 3.4 1.2 5.3 1.5 2.2.2 5.5-1.9 7.7-5.1 5.4-8.1 11.3-6.5 19 .4 1.9-1.5 3.6-1.5 5.9-.1 3-2.9 3.5-5.7 3.3-2-.2-1.3 1.5-1.2 2.5.2 3.1 0 5.9-2.9 8-1.4 1-1.1 2.2 0 3.4s2.3 1.9 3 3.3c-.1 2.5-.6 4.9-1.4 7.2-1 2.7-2.1 5.9-6.1 5.4-.1 0 .1-.3-.2-.3 1.4 3.4-3 4.4-3.1 7.4-.2.5.8.4.2.1-.2-.1-.1-.2-.1-.5.8-2.8 2.2-2 3.4-.4 1.8 1.7 1 3.8.2 5.9z"/><path class="st31" d="M192.5 158.6l.4.3c3.7.4 6.6-1 9.4-3.4 7.6-6.6 15.5-12.8 23.1-19.4 1.1-1 2.1-2.1 3.8-2.1 1.3.4 1.6 1.2.8 2.2-1.2 1.6-2.2 3.2-2.7 4 .6-5.5 6.9-4.5 10.9-6.6 1.9-1 1.1 1.6 1.1 3 .4-1.4 1.1-2.5.2-3.4s-1.7.3-2.5.8c-2.6 1.7-4.6.5-6.3-1.6 1-4.2 4.5-5.7 7.9-7.4.9.3 1.7.3 1.3-1.1.2-.6.8-1.1 1.4-1.1.5 0 .9.1 1.3.3 1.2 1.2 3.6 1.7 3 3.8-2.6-5.4 1.6-7.4 5.4-9.7.3-.2.6-.4.8-.6-.5-.6-1.1.2-1.7-.1-.3-.3-.5-.8-.6-1.2 1.6-4.9 6.1-7.1 9.5-10.3 1.3-1.2 3-2.1 4.4-3.2 2-1.5 4.2-2.6 5.8-4.6.8-1 1.6-2 2.3-3.1.5-.7 1.2-1.2 1.9-1.7 1.2-.8 2.3-1.8 3.3-2.9 1.6-1.6 3.1-3.2 4.8-4.8 1.2-.9 2.4-1.9 3.5-3 1.6-2 5-1.8 6-4.7 1-.9 2.1-1.6 3.4-2.1 1.9-1.5 4.2-2.5 5.4-4.8.7-.8 1.8-1.3 2.9-1.4 1.4.2 2.4-.8 3.4-1.5 1-.6 2.1-1 3.3-1.2 1.9-.5 3.8-1.2 5.7 0l2.5-.1c4.5.5 5.9 3.8 6.5 7.6.4 3.2 0 6.4-1 9.4-1.2 4-4.3 6.9-6.5 10.4-1.1 1.1-2.2 2.3-3.1 3.7-6 5.3-10.3 12.4-17.5 16.4-1.3.6-2.4 1.7-2.9 3-.4 1.5-1.6 2.6-3.1 2.9-5.7 3.1-8.8 8.9-13.7 12.9-1.5 1.2-2.9 2.7-4.3 4-2.6 1.8-4.6 4.4-7.2 6.1l-1.9 2c-2.3 1.7-4.4 3.7-6.1 6-.3.3-.6.6-1 .9-2.9 2.4-4.6 6-7.7 8.2v-.1c-3.7 2.7-7 5.9-9.8 9.5-3.9 3.3-6.8 7.7-8.3 12.7-4.7 9.9-11.6 18.9-13.6 30-.6 3.2-1.5 6.6 1.2 9.4 2.4 5.4 5.8 10.3 8.4 15.6 0 .1-.1.3-.2.3-.2 0-.3.1-.5.1 0 2.8 1.4 4.5 3.9 5.6 4.7 2 9.2 4.1 14.6 3.9 5.1-.2 10.1 1.4 15 2.7-.9.9-2 .4-3.1.6-2.2-.1-4.4.3-6.5-.2 2.1.5 4.2.1 6.3.2 2.1-.3 4.3.1 6.1 1.1.8 1.1.2 1.9-.6 2.6-1 .4-2.1.4-3.2.1 1.1.1 2.6.8 4.3 0 5.5-2.7 11.1-1.1 16.5.2 2.1.5 4.2 1.1 6.3.9 14.1-1.6 28.2-.3 42.3-.9 4.8-.2 7.4 2.4 9.8 5.7 2.7 3.7 1.9 5.7-3 7.7 3.3 2.9 1.9 5.4-.7 7.8s-5.3 5-8.9 6.2c-5.3 2-10.6 4.1-16.5 4.5-3.5.8-7 1.4-10.5 2-14.1 2.2-28.2-1.4-42.2.1-4.3.5-8.3-1.7-12.3-2.7 2.2.7 5.7.3 3 4.5-1.1 1.1-2.6 1.5-3.9 2.3-2.8.4-5.2 2.5-8.3 2.2-16.8 4.9-34.5 6.8-49.8 16.3-4.1 1.5-8.8 1.8-12.3 4.8l-1.9.1c-1.7.8-3.5 1.4-5.3 1.9l-.4-.1-.3.1c-2.2 1.3-4.8-.2-7 1-5.1 1.2-10.2.3-15.4.5-3.1-2.5-1.4-5 .2-7.4 2.8.2 4.4-.2 3.6-3.9-.4-1.5-.9-5 3.1-4.6 1 .1.3-.7.2-1-.3-1.3-1-2.5-1.9-3.4-.6-.9-.2-1.8-.3-2.7.1-.5.5-.8.9-1 .5 0 .9 0 1.4.2.5-.1 1.8 1.6 1.6-.1-.6-4.8 3.4-8.1 3.3-12.6 2.9 0 2.3 2.9 4.6 3.7-6.4-9.6 1.2-17.4 2.8-25.9 2.6.2 1.2 3.2 2.7 3.9-2-3.7-.9-7.8-.5-11.7.6-2 3.8-2.1 3.5-5.1-.1-1.4 1.8-1.2 2.8-.5 2.1 1.4 3.6.9 5.2-.8 2-2.2 5.6-.7 7.5-2.9 0-.7-.1-1.1-.4-1.1-8-1.4-10.4-6.9-5.5-13.5 1.2-1.6 1.6-5.4 4.7-4 2.7 1.2.4 4.2.7 6-.1 1 1 .3.3.4-.1-3.2-.1-6.4 3.9-7.4 1.2-.3 2.7-.1 3.8-.9.3-1.3-.7-1.4-1.4-1.6-3.7-1.1-8-5.3-7.2-8.5.9-3.5-.1-6.1-.9-9.1 1.4-2 1.6-4.7.5-6.9 0-.4 0-.9.2-1.3 1.1-2.2 2.6-4.2 1.6-6.9 2.3-8.3 4.8-16.4 7.3-24.6.5-1.6 1.1-3.6 2.9-4.8z"/><path d="M240.8 123.3l-.6 1.1c.4 1.1 0 1.2-1 .9-3 1.9-5.7 4.4-8 7.2-.3.9-1 1.6-1.9 1.9-9.4 7.9-18.8 15.7-28.3 23.6-2.5 2.1-5 4.3-8.1.9-1.2-3.6 1.8-5.9 2.7-8.8 3.7-12.1 7.8-24 11.6-36 8.1-25.2 16.1-50.3 24.1-75.5 1.4-4.3 2.6-8.8 3.8-13.1.2-.1.4-.1.7-.1 2.1-.8 1.4 1.6 2.4 2.2-.2 5.2-3.8 9.4-4.4 14.5-.2 1.4-.9 2.5.7 3.3s2.9 2.3 5 1.3c3.9-1.8-1.4-2.9 0-4.9 8.5 2 17.7 1.3 26 5.5 1.6.8 4.6 1.5 1.1 4.1-.9.7.8.8 1.4 1 .7-.4 1.1-.1 1.4.5-.3 1.1 1 1.5 1.1 2.5 1.2 2 3.6 1.7 5.4 2.7 3 1.6 3.1 2.9.6 4.9-1.6.4-3.3.6-5 1-1-.2-1.9-.8-2.9-.9-.8-.2-1.5-.8-1.8-1.5 0-.8.2-1.8-1.1-1.7-1.1-.6-2.4-.6-3.4 0-.9.1-1.8-.1-2.5-.5-1.4-.6-2.8-1-4.3-1.3-.3-.5-.9-.7-1.4-.4l-.3.3c-1.5-.2-3-.7-4.5-.9-.8.6-1.3-3-2.2-.1-1.1.2-2.3-.2-3.1-.9-.6-.7-1-1.5-1.2-2.3-1-3.4-1.6.1-2.4.2-1.9-.9-3.6-1.3-2.6 1.9-.1.7-.4 1.3-.9 1.8-1.4 1.2-2.5 2.7-3.3 4.3-.7 1.6-1.2 3.2.5 4.4s2.6-.5 3.6-1.6c.8-.9 1-2.7 2.9-1.9.7.9.9 2.2.4 3.3-1 .8-.4 1.8-.5 2.8-.9 1.5-1 3.2-1.7 4.8-1 .9-2.6 1.2-2.6 2.9.5 1.1 2.1.4 2.5 1.6-.9 5-4.4 1.2-6.6 2 .5 0 1 0 1.5.1.5.2.8.5 1 1-.5 1.8-2.6 2-3.4 3.6-.6 1.1.7 2 .2 3.1-1.5 1.1-2.9 2.5-4 4-1.1.5-1.1-.9-1.9-1 0 1.4-2 2.5-.7 4.1.4.8.4 1.7 0 2.5-1.3 1-2.9 1.9-2.4 4 1.2 1.8 1.8.3 2.5-.5 2.3-2.9 4.9-3.9 8-1.2 2.1 1.8 1.3-2.7 3.1-1.3.4.1.7.4.9.8.2.3 0 .9.4 1.2.1-.4.1-.9 0-1.3-.3-1-1.3-1.6-1.6-2.6-.1-1.8-2.1-3-1.5-5 1.1-1 2.5-1.4 3.9-1.1.9.4 1.5 1.2 1.6 2.1-.2 1.8 1 2.7 2.3 3.5.5 1.7 1.5.1 2.2.3 1.1.1 2.1.4 2.9 1.1.7.9.2 2 .6 2.9 0 1.3-.4 2.6-1.3 3.5-3.4.9 1.6 2 0 2.9-1.1 1.2-2.1 2.6-3 4-.9.2-1.5-.1-1.5-1.1-.8.5-.1 1.1 0 1.6.1 1.2.4 2.5 1.5 3 3 1.3 2.5 3.5 1.5 5.8-.6 1.4-2.2 2.8-4.1 3z" fill="#100f11"/><path class="st33" d="M316 93.1c1.2-3.8 4.6-6.1 6.2-9.6 1.9-3.9 1.6-8 1.1-12.1-.1-.8-.7-1.7.4-2.1.8-.3 1.7 0 2 .8.1.2.1.4.1.6-.8 3.9 2.3 6.4 3.3 9.7-.2.9-1.4 1.4-1.2 2.5 1-.2.8-1.2 1.2-1.8.3-4.8-2.6-8.6-4.3-12.8-.5-1.3-3.1-2.8.3-3.9 1.1 1.2 2.5 2.3 3.1 3.7 4.1 8.3 9.1 16.2 10.9 25.6.8 4.2 4.4 7.2 4.9 11.6-.5 1.8-.7 3.6-1.9 5.1-1.3-.6-1.3-2.2-2.2-3.2-.8-.8-2.5-1.4-1.9-2.6 2.8-5.6-1.8-9.3-3.6-13.6-.9-2.1-2.8-3.5-.8-6.1-.3-.5-1.2-.5-.6-.4 0 0-.1.2 0 .4.6 1.8-1 2.2-1.8 3.1-.8.6-.9 1.7-.4 2.6.9 1 3.4.7 2.9 2.6-.3 1.7-1.8 2.8-3.5 2.7-.7-.1-1.4-.2-2.1-.1.8.9 1.7.1 2.4.4 1.7.6 3.5 1.1 4.8 2.6.8.9 1.1 2.1.8 3.3-.6 1.6-1.9.9-3 .6-.7-.1-1.2-1.2-1.9-.2-.1.2.7.6 1.1.7 3.2-.3 4.9 1.6 6.4 4.1.2.6.4 1.2.6 1.9.2 1.1 1.3 1.7 1.6 2.7l1.1 1.9c-.3 1.3.9 2.6 0 3.9l3 6c1.2-.7 2.6-1.1 4.1-1h1.8l.6.2c.8.3 1.5.8 2.1 1.3l.4.5c-1.6 2.9 1.5 5.3.8 8.1-1.2 1.1-2.1 2.4-2.8 3.9 1.9 2.4 2.8 5 1.9 8-.5.9-1.7 1.4-2.7 1l-2 .9c-2.3-.2-3.3.9-3.2 3.1.4.5 1.2 1.1 1.1 1.4-.3.9-1.3.4-2 .5-.5.6-1.5 1.3-1.1 1.8s1.4-.3 2-.7c2.3-.5 1.6 2.8 3.9 3 .9.1-1.5 1.3-2.2 2.1-.8 1.4-1.7 2.7-2.8 3.9.7 1.2 3.5 1.1 2.4 3.3-.6 1.2-1.6-.3-2.5-.2-1.1.7-2.1 0-3.1-.1-.9-.4-2.9 0-1.6-2.1 1.3-1.9.5-3.5-1-4.8h-4.2c-.8 1.3-1.7 2.6-2.8 3.7 1.6 2.2 4.5 4.7-1.1 5.4-.7-.7-.9-1.8-2-2.1l-2.1 1c-1.9.1-3.7.5-3 3.1 2 1 1.9 2.8 1.8 4.6-.1 1-.1 1-1.9 0-1.9-1.2-3-.5-3.8 1.4v.9c-1.1 0-2.3-.2-3 1.1.6 1.5.6 3.2 1 4.8-3 .9-6 1.8-9 .1.5-.5 1-.9 1.6-1.1.5-.3 1.2-.5 1.3-1.2s-.5-.7-1-.6c-.9.8-.9 2.2-1.9 2.9-2-2.4-2.2-5 .6-6.7s-.1-4.9 2.4-6.3c.4-1.3.1-2.9 1-4.1l1.1-2.3c1.6-1.9.5-2.8-1.2-3.6l-2.2 3.2c-.2-4.7-.2-9-4.7-11-.9-.6-2.2-.3-2.8.7-.1.1-.1.2-.2.3.7.7.8 1.9.1 2.7l-2.1-.9c-1.8-.4-2.8.1-2.6 2.2-.1.9-.5 1.7-1.2 2.3-2.9 2.3-.7 2.6 1.1 3.1 2 1.5.7 2.7-.4 3.9-.6.7-1.3 1.2-2.2 1.6h-.8c-2-1.2-3.7-.7-5.1 1-.6.9-1.2 1.2-1.9.1-.3-1.6-1.5-2.7-2.1-4.1-.3-1.7.7-3.6-.9-5-1.3.9-2.2.1-3-.9-.1-1.5-1.1-3.5 1.9-3.1.6-.5 1.9-.3 1.9-1s-1.3-.5-1.9-1l-6.2-3.2.5-.5c1-.4 2.1-.7 3.2-.7.6-.2 1.4-.2 1.2-1.1s-1-.6-1.6-.7c-.6 0-1.3-.1-1.9-.4l-.5-.4c-.4-1.1-2.3-1.6-1.6-3.2 2.5.6 3.2-1.6 4.6-2.8.8-1.1 1.5-.9 2.1.1 1.7 1.5 2.9 1.2 3.8-.9.7-1.3-4.8-1.3-.7-3.4 1.7-.5 3-1.1 1-2.9.3-2.9-.5-6 1.7-8.5.1-1.2 1.1-1.8 2-2.5l2.3 1.9c1.3-1 2.3-2.3 2.9-3.9-.1-.7-1-1.6.2-2.2.7-.9 2.8-1.6.2-2.7l-1.3-1.1L313 96.5c2.1 0 4.1-.9 6.1-1.3.8.2 1.4.9 2.7.6-1.1-.8-2.4-1.1-3.7-.7-1.3 0-2.5-.1-2.1-2z"/><path class="st34" d="M309.1 67.4l-2.9 1.1c-1.8 1.1-3.9-.7-5.6.7-.7.5-1.6.8-2.4 1-1.5-.2-2.9.6-3.5 2-.3.3-.7.5-1.2.5-2-2.1-2.5-5.5-5.6-6.6-.8-1-2-1.8-3.2-2.1-1.3-.2-1 2.5-2.7 1.6-1.1-1-2.3-2-3.7-2.7-1.3-3.6 3.5-2.5 3.8-5 .7-1.5 1.6-2.3 3.4-1.5l21.7 9.3c.6.6 2.4-.2 1.9 1.7z"/><path d="M325.2 64.5c-.1 4.2 2.7 7.5 4.3 11 1 2 1.1 4.3.4 6.4-1.1.3-1.9 0-2.1-1.2.9-1.7-.6-2.2-1.5-3.1l-.6 1.9h-.7v-9.4c-1.7 4.5.8 9.4-2.9 13.4l.9-6.3c.9-4.5-1.3-9-5.3-11.1l-6.2-12.4c5.3 2.6 10.8 5.1 13.7 10.8z" fill="#161214"/><path class="st10" d="M214.2 21.5c-3.4 3.9-4.5 9-7 13.3-.3-1.1-1.1-1.9-2.1-2.3-.8.2-1.5-.4-1-.9 3.1-2.7 3.5-7 6-10.1 5.4-3 3.2-8.4 4.1-12.9l5.9 2.8-.1 1c0 2.8-2.6 4-3.9 6-.8 1-.3 2.7-1.9 3.1z"/><path d="M270.5 55.3c0-.9-2-.4-1.3-1.8.4-.5 1.1-.8 1.8-.7 1.1 0 2.1 1.1 3.2 0 .2-.5.5-.9.9-1.3l7.1 3c-1 .7-1 1.3-.3 2.3.9 1.2.2 2.1-1.1 2.5-4-.1-7.2-1.8-10.3-4z" fill="#edebeb"/><path class="st37" d="M309.1 67.4l-2-1.8c4.1-1.3-.3-4.4 1.4-6.4 2.6 2 5.3 3.9 6.7 7l-6.1 1.2z"/><path class="st38" d="M216.1 18.5c.7-2.3 2.1-4.4 3.9-6l3.1 3c-2.4 2.5-4.6 3.5-7 3z"/><path class="st30" d="M223.8 10c2.9 1.7 4.7 2.4 6.2.3.4-.6 1.2-.2 1.7.3 1.1 1.2-.4 1.2-.8 1.6-2.9 2.4-4.4 2.1-7.1-2.2z"/><path class="st37" d="M281.1 58.5c1.5-3.1-2.4-1.8-2.7-3.7.9-1.4 2.4-.3 3.7-.3l3.3 1.9c-2 .1-2.3 1.4-2.2 3.1-1.2.6-2.1.8-2.1-1z"/><path class="st30" d="M232 11.2c2.1.9 2.9 1.9 2.6 3.5-.1.2-1 .6-1.2.5-1.2-.9-.9-2.4-1.4-4z"/><path d="M238.1 27.5l-2.4-2.2c.4-1.2.3-2.6 1.7-3.8 1.4 2 .9 4 .7 6z" fill="#141414"/><path class="st30" d="M232.2 7.1c1.3.1 2.5 1 2.9 2.2-2.9 2-2-1.3-2.9-2.2zM226.1 7.3c1.1-1.1 2.7-1.4 4.1-.8-1.3 1-2.3 2.8-4.1.8z"/><path d="M99.2 26.7c-1 16.2 2.3 31.7 7 47 5.1 16.5 7.4 33.8 6.8 51.1-.2 5.6.1 11.3.1 16.9s-2.7 7.6-8 5.4c-2.3-.9-5.1-1.5-6.2-4.3.9-1.3 2.6-2.8 3.4-1.1 1.2 2.5 2.5 2.5 4.6 1.8.3-.1 1.1.2 1.2.4.2.7-2 2.5.9 2 1.2-.2 2.2-1.2 2.2-2.5 0-.8.1-1.7 0-2.5-.3-13.9.5-27.9-1.4-41.6-1.5-10.7-3.7-21.6-7.6-31.9-.7-1.6-1.1-3.3-1-5.1-1.8 1.2-.3 3.4-2.1 4.1l-3-18.8c2.4-8.9-.3-18.2 2.9-27.1l.2 6.2z" fill="#0b090a"/><path class="st7" d="M126.1 32.5c-.1-.2-.1-.3-.1-.5.3-1.2-2.5-1.7-.9-3.2.3-.1.6-.1.9 0 1.7 1.1 1.3 2.4.1 3.7zM124.7 19.3c.7 1 .6 2.3-.1 3.3-.7-1-.7-2.3.1-3.3z"/><path class="st41" d="M192.8 54.4l1.2-2.9c3.6-1.6 3.7-5.4 5-8.4.8-1.7.9-3.5 3.2-3.6 1.9 3.1-1.2 5.1-1.8 7.7-.8 3.9-3.5 7.2-3.4 11.5-2.5-.9 1.1-6.7-4.2-4.3z"/><path class="st7" d="M166 99.7c-.4-.5-.8-1.4-1.2-1.4-1.6-.2-1 1.2-1 2 .1 4.8.2 9.5.4 14.2-2-2.1-.7-4.8-1-7.1-.4-3.4.9-7-.9-10.2-.6-1.1-.3-1.5.9-1.2.5 0 .9 0 1.4-.1-1.1-1.2-1.7-2.7-1.8-4.3 2.9-.2 5.7-.2 3.5 4.7-.5.9-.2 2.2-.3 3.4z"/><path class="st9" d="M210.1 21.5c.3 4.6-3.5 7.3-5 11 .1 1.5-1.4 2-2 3-1.7-1.6-.2-3.3.4-4.4 1.6-2.6 2.9-5.4 3.7-8.4.4-1.7 1.5-2 2.9-1.2z"/><path class="st7" d="M157 148.5c-1.7 2.7-4.1 1.7-6.4 1.1 1.5-.3 3.3.4 4.5-1.1h1.9zM164.2 115.9c.9 2.6.9 5.5 0 8.2v-8.2z"/><path class="st41" d="M202.1 39.5c0-1.1-.2-2.3 1-3 1.8 1.6.1 2.2-1 3z"/><path class="st7" d="M161.2 139.5c.3 1.7-.1 3.4-1.1 4.7.2-1.6-.6-3.5 1.1-4.7zM164.1 125.5c.3 1.8 0 3.7-.9 5.3.1-1.8-.7-3.8.9-5.3zM143 114.8c-.9-3-1.2-6.2-.9-9.4 2 3.1.7 6.3.9 9.4z"/><path class="st42" d="M64.3 91.4c-4.3 2.5-6.2 1.9-6.3-2.8 0-2.8-1.1-3.8-3.4-4.1-2.4-.4-4.2-2.2-4.6-4.6-.2-3.2-1.7-4.2-4.2-4.8.5-2.1 2.8-1.3 3.5-2.8l15 19.1z"/><path d="M93.2 135.5c-2.9-.4-5.7-1.6-8.4.8-.6.5-1.9-.7-1.5-1.3 3.6-4.5-2.6-8.2-1-12.3.7-1.9-1.9-3.5 0-5.2l10.9 18z" fill="#f6f5f6"/><path class="st42" d="M49.3 72.4c-1.2-.6-3.3-.5-2.2-2.9.2.1.5.1.7.1l1.5 2.8z"/><path class="st44" d="M58 147.7l-1.6-2.5-7.7-20.6c2.2-4.8 2.2-4.8 6.1.4.1.1.3.1.5.2.7 4.2 1.8 8.2 4.3 11.9 2.2 3.1 3.4 6.9 3.3 10.7 0 1.1 0 2.6-1.5 2.6-1.3 0-1.8-1.2-2.2-2.4s.4-2.6 0-3.9c.1-.7-.8.2-.1.1.2 0 .2.1.2.5-.1 1.2-.1 2.3-1.3 3z"/><path d="M36.1 92.5c.9-.9 2.1-1.7.6-3.2-1.2-1.3-2.3-2.8-3.3-4.3 5.5-1 7 1.3 6.6 6-.2 2.4 1.7 2.6 3.9 2.1 2.5-.5 5.1-.6 2.6 3.2-.2.3-.6.8-.5 1.2.8 3.2.8 3.4-1.9 5-3-3.1-5.7-6.4-8-10z" fill="#f6f7f6"/><path class="st44" d="M42.5 105.9c2.2.3 2.2 1.9 2.2 3.4-1-.8-2.9-1-2.2-3.4zM48.9 113.9c-.3.5-.5 1.3-1 1.5s-.7-.5-.6-.8c.3-.5.7-1 1.1-1.5l.5.8z"/><path class="st23" d="M6.1 332.5c.9.2 2.5-.3 2.4 1-.8 7-.2 14-.5 21-.1 3.3 1 6.5.8 9.8-.8-3.5-4.5-6.5-1.9-10.7.4-.6-.1-1.5-1.2-1.7-3.1-.6-3.7-2-3.1-5.5.8-4.8 4.2-8.8 3.5-13.9z"/><path class="st18" d="M11.3 324.7c-1.2-2.8-1.2-2.8 1.4-7.4 1.5 2.9-2.6 4.6-1.4 7.4zM48.2 212.5c2.3-11 6-21.5 9.2-32.2.8-2.7 1.8-5.3 2.7-7.9 4.3 4.1 1.4 8.8.7 13.1-1.3 8.9-3.3 17.8-7.5 25.9-1 1.9-.5 4.2-1 6.3-1.8.1-1.9 2.1-3.2 2.8-.7-1.3-.9-2.3.4-3.5 2.7-2.3 1-3.5-1.3-4.5zM45 234.2c2 4.2.9 8.4 1.1 12.4.1.9-.5 1.6-1.4 1.7-1.2.1-1.3-1.2-1.2-1.7.2-2.2-4.1-5 .8-6.9.8-.2-2.6-3.5.7-5.5z"/><path d="M49.2 232.5l-.3 30.6c0 .8 0 1.7-.7 2.2v-28.2c-.1-1.6-.6-3.4 1-4.6z" fill="#1a1819"/><path class="st18" d="M43.2 248.1c5.2 4.5 1.3 9.1 2.5 13.4l-1.4.1-1.1-13.5zM47.1 224.5c.3 2.7.9 5.5-2.1 7.7-.1-3 .4-5.5 2.1-7.7zM47.1 224.5c-.1-1.7.2-3.2 2-4 .1 1.7-.2 3.2-2 4z"/><path class="st47" d="M172.1 416.3l-53.4.3c-3.5 0-7-.2-10.5-.3l1.3-4.5c-16.3 3.3-32 4-47.8.8 1.2-.8 2.3-1.9 4-1.4 1.4 1.4 3.3.2 4.2.7-1.1 0-2.2 0-3.4-.1-2.3-1.8-4.3.5-6.5.6-1.2.3-2.4 0-3.3-.8.3-.5.9-.9 1.5-1.1-.5-.3-.9.1-1.3.1-1 0-1.9-.2-2.8-.2-2-.4-3.8-1.4-5.3-2.8.5-.8.8-1.7.8-2.6.2-.4.5-.7.9-.8 1.1.7 2.6.5 3.3-.6.3-.4.9.1 1.3-.2-.6-.2-1.3-.3-2-.2-.4-.1-.8-.4-1.1-.7 1.5-1.2 3-2 4.9-.7.3.2.7.5.9.5 7.1-2.6 10.6 3.9 15.5 6.5 2 1 4-.5 6 1.2-1.7 1.4-3.9-.2-5.4 1.2.1 2.8 2.2 2.4 4 2.4 4.6 0 9.1-1 13.7-.1 3.3.6 5.9-1.5 7.5-4.5-.9-.6-1.9-.2-2.8.1-1.5.4-3.5 1.6-4-1-.3-2 2.1-3.2 3.3-3 3.6.8 7.9-1.2 10.9 2.3.5 2.1-3.7.3-2.4 2.5 1.9 3.2 4 .2 6-.3 4.1-3.5 8.8-6.2 13.9-7.9 2.6-.1 5.2 0 7.8-.1.8 0 1.6 0 2.4.1 3.7 1.3 7.5.5 11.2.8.5 0 1.1.1 1.6.2 4.3 1.6 8.8.5 13.2.9h.8c1.7-.9 3-1.3 4.2 1 2.2 3.9 4.6 7.8 6.9 11.7z"/><path d="M52.1 402.5h1c.5 2.9-2.4.8-3 2v1c-.8 1-2 1-3.1 1.1l-6.5-3.4-4.5-3.8c2.5-2 5.6-2.3 8.6-2.9 1.2-.2 3-.6 3.1 1.4.1 1.6-1.5 1.4-2.6 1.5h-5.2c3.9 1.8 8 2.8 12.2 3.1z" fill="#f4f4f3"/><path class="st30" d="M54.1 410.5l7.1-1.5.3 1.1-4.7 1.6c-1 .1-2.1-.4-2.7-1.2zM47.1 406.6c.7-1.3 1.9-1.1 3.1-1.1.7 1.4.2 2.1-1.3 2.1l-1.8-1zM60.1 412.5c1.9-1 3.6-2.9 6-1l-4.3 1.2-1.7-.2z"/><path d="M52.3 217.7c-1.5-7 3.3-12.5 4.6-18.8 1.7-8.7 5.3-17.3 3.2-26.5l1.2-5.9 2-3c1.1-3.2 2.1-6.5.3-9.8-.7.7-.7 2.6-2.5 1.9-1.6-2.4-2.1-5.2-3-7.9 1-2 0-4.1.3-6.4 2.6 2.5 1 6.1 3.5 9.8-.2-6.6-1.1-11.3-4.8-15.5-2.4-2.7-2.9-6.5-1.8-10.3 5.4 10.1 9.3 20.7 13 31.5.4 1.4.3 3-.2 4.4-5.6 15.2-6.1 31.6-11.8 46.7-1.3 3.2-2.7 6.5-4 9.8z" fill="#0d0b0b"/><path class="st44" d="M61 155.6l2.5-4.1c3.3 4.9 3.2 7-.2 12"/><path d="M342.3 205.8l-.2 9.3c-1.1 2 .4 4.4-1 6.3l-.2.2.2.2c-1.2 2 .7 4.6-1.3 6.4l-1.8 5.7c-3.6 1.9-6.7 0-9.9-1.3-.7-2 2.3-2.4 1.8-4.3-2.3 0-2.2 3.8-5 3.2-2.3-.2-4.1-1.6-5.9-2.9-.5-2.2 1.5-1.4 2.4-2.1 1.4-.9 2-2.7 1.6-4.3-.3-1.3-1.3-.3-2-.4-.7-.1-1.2-.6-1.4-1.2-.1-.8.1-1.5.4-2.2-.9.5-1.6 1.4-1.9 2.4 0 .4 0 .9-.1 1.3-.4 1.9 1 5.2-3.2 4.4-14.1-2.5-27.7-7.4-43.1-9.5 3.1-2.8 6.4-3.3 7.5-6.6-5 1.1-9.4 4.5-14.6 1.9 5.8-1.2 10.1-3.6 10.3-10.2 0-.9.2-1.7 1.4-1.6 2 .1 1.9 2 2.6 3.2 2.1 2.7 5.1 2 7.9 2 1.2.3 2.5 1.1 2.8-1 .5-1.3.8-2.7 2.5-2.9 1.3.2 1.3 1.1 1.5 2.1.2 1.6.8 2.5 2.4 1.1l4.2-5.6c4.4-.7 1.8 2.2 2 3.8-.4 1.6-.7 3.4 1.5 1.1s4-4.8 6.6-8.2c1.4 4 2 6.2 2.9 8.3.4.9 1.1 1.9 2.2 1.8 1.4-.1 1.4-1.5 1.2-2.3-1-3.7 4.3-4.3 3.7-7.7 1-2.7 2.5-4.8 5.8-4.9.6 0-.2 0 .3-.4.2-.2 0-.5-.4-.7-1.4-.8-.1-1.1.3-1.6.6 0 1.2-.2 1.9-.2 1.5.1 2.4 1.6 3.8 1.9 1.3.1 2.5.2 3.7.5 1.5.4 2.6 3 4.8.3 1.1-1.4 2.8.4 2.7 2.1-.2 4.4.6 8.6-.9 12.6z" fill="#fdfdfd"/><path class="st31" d="M261.1 253.5l1-2c-.3-.3-.4-.5-.3-.6s.3-.2.4-.2l16.7 2 .9-.1c5.1-.1 10.2 0 15.3-.1 5.7.3 11.5 0 17.2.1 5 1.5 10.2.6 15.3.9 2 .1 4-.3 5.9.5l.6.6c6.8 5.5 7.6 11.6 2.6 18.7-5.2 7.3-12.9 10.1-21 12.3-2.2.6-4.5 1.2-6.7 1.9-1.8 1.9-4.3 1.4-6.5 1.7-6.7.8-13.4 1.6-20.1.8-10.1 0-20.3-.4-30.4.5-.6.2-1.2.3-1.8.4-1.8.1-3.6.3-5.1-1.2 1-1.1 2.5-2.5-.4-2.9-2.2-.2-4.4-.2-6.6 0 2.6-1.6 4.7-2.7 6.9-1.8 6.6 2.6 13.4 1.7 20.1 1.8 5.8.1 11.5-.1 17.4.8 7.4 1.2 15-.2 22.2-1.4 3.2-.5 6-3.9 9.6-2.6 5-2.9 11.3-2.6 16.1-6.2 2.1-1.6 1.7-4.9 4.9-5.4.8-.1-.8-1.7-1.7-2.3-1.2-.8-2-2-1.5-3.4.6-2 1.7-1.2 3-.5.3.2 4 .1 2.4-2.6-2.1-3.7-3.9-7.6-9.5-7.4-11.2.4-22.5 0-33.8.1-6.7.1-13.2 1.8-19.9-1.7-3.5-1.8-8.4-.7-12.4 1.6-.3-.9-1.4-1.2-.8-2.3z"/><path d="M311.9 253.6c-5.6.6-11.2.1-16.8-.2-5.3-1.1-10.7.4-16-.8l-.1.1c7.4-2.4 15-.8 22.5-.9.7 0 1.5.8 2.8-1.5h-15.9c-2.7 0-5.6 1.1-8.1-.8 1.2-1.4 2.7-.6 4.1-.5-1.4-.2-2.9-1-4.2.5-5.9-2.3-11.7-4.8-17.6-6.9-3.9-1.4-7.6-3.6-10.6-6.5 0-.2.1-.3.2-.4.3-.1.7-.2 1-.2 2.2-1.5 3.7.4 5.4 1.2 6.8 3.6 33.1 10.4 41.2 10.4-1.4-1.4-3.4-1.8-3.6-3.7 5.8-5.5 7.3 3 11.3 3.8.5.1 2.1 1 3.8.9-1.6 2-4.1.9-5.1 3 8.6 1.1 17.3 1.6 26 1.4 2.8-.1 2.8.1 2 2.1v-.1c-5.4-1.3-10.9-.2-16.3-.6-2.1-.1-4.1.4-6-.3z" fill="#0e0b0c"/><path class="st19" d="M123.1 402.5c-4.4 2.1-8.2 5.5-13 6.9 7.5-18.1 12.8-37 18.9-55.6.6-1.8.7-3.9 2.1-5.4.5 1.1 3.9-.4 2.2 2.4-3.6 5.5-4.7 12.3-3.1 18.7-3.1-.6-.2-3.6-2.7-4.5-3.7 13-7.2 25.9-12.4 38.6 1.2-2.4 3.3-2 5.1-2.4 5.4-1.4 10.9-.9 16.3-.6 4 .2 8.3-1.6 11.9.3 4.1 2.1 8.8.3 12.7 2.6-4.8.7-9.7.8-14.5.1l-.3.2-.2-.2c-4.1-1.5-8.4.2-12.6-1h-1.4c-2.9-1-6-1-9-.1z"/><path d="M296.1 243.4c2.3 2.1 5.8 2.1 7.6 5.3-17.6-1.6-34.7-5-50.6-13.2l-1-1c-.2-1 .4-1.5 1.2-1.8 10.3.3 20.4 3 29.4 8l1.4.8c2.3 1.1 4.8.7 7.2.8l4.8 1.1z" fill="#f6f6f6"/><path d="M287.1 206.4c-2.3 1.1-5 1.3-7.4.4-2.2-.6-1.2-1.8-.8-3 .9-4.3-2.3-4.3-5.1-4.6-.1-3.1 3.2-3.1 4.2-5-.7-.7-.7-1.8 0-2.5.1-.1.2-.1.3-.2.7 0 .9-2 1.7-.8.8 1.4.9 3.1.2 4.5 3.1-1.7 3-6.4 7.1-5.5 3.6.8 1.3 4.2 2.2 6 1.6 1 .9-3.6 2.4-.9 1.3 2.4 1.4 3.4 2.5.1.5.1.9.2 1.3.4.7.3.9.8.3 1.4-.9.9-1.8 1.9-2.7 2.9 0 1.1 0 2.2-1.1 2.8-1.7.4-.5 2.6-1.9 3.2-1 1-1.8 2-3.2.8z" fill="#0f0e0e"/><path class="st54" d="M282.4 289.4l26.6-2c2.7.9 5.6-1.6 9.4.3-21.2 5.7-41.8 2.7-62.2 3.8l-.4-.9c.1-1.3.9-1.6 2-1.6 8.2.2 16.4-.5 24.6.4z"/><path d="M225.5 237.2c-3.2-5-7.3-9.6-7.7-16 4.9 3 7.9 9 14.5 9.4 1.7.1 1.2 1.5 1 2.7-.2 1.8 0 3.7-2.5 4.1-1.8.4-3.6.3-5.3-.2z" fill="#f4f4f2"/><path d="M282.8 240.6c-9.8-2.6-19.2-6.9-29.6-7.2-.9-.6-2.1.2-3-.5-.9-.5-2.1-.7-2.1-2.1 3.8-2.6 7.2.6 10.8.9 4.8.5 9.4 2.3 14.5 1.6 1-.2 1.1 3.3 3.4 3.4 3.6.2 6.8 2.2 11 1.8-1.5 1.1-3.2 1.9-5 2.1z" fill="#0c0b0c"/><path class="st57" d="M143 311.1c-1.2 2.3-1.9 4.8-2.1 7.4 0 .7-.3 1.4-.7 1.9l-1 1c-1.1-2 1.2-5.1-2.1-6.5-1.3 1.6 1.6 4-1 5.2-.5.1-.9 0-1.3-.4-1.4-2.2-.2-5 .8-6 2.6-2.6 2.9-5.2 1.5-8.6 2 .7 1.6 2.5 2.4 3.3 5.6-2.2 4-8.2 6.6-12-.1-1 .2-1.4 1.2-.8l-.1 2.8c-.1 4.6-1.6 9-4.2 12.7z"/><path class="st54" d="M234.1 294.3c2.6-1 4.8-3.1 7.9-2.9 4.7-1.7 9.4-.6 14.2.1.9 1.5 2.7.7 5.2 1.9-6 0-10.8 1-15.2-.6-2.9-1.1-1.2 2.2-2.9 2.2-3.2-.2-6.3.5-9.2-.7z"/><path class="st27" d="M361.1 122.5c.2 2-.7 4.2.9 6.1-4.8 2.8-6.4-.4-7.9-4.1-.5-.4-.7-1-.7-1.6 0-.4.1-.8.2-1.2.4-1.1.4-2.4 1.4-3.2 2.1.6 2.7 2 1.9 4.2l-.3.6c.1.2.2.1.4-.1-.3-.2-.3-.4 0-.7-.1 0-.1.1-.1.2 1.4-.2 2.8-.3 4.2-.2z"/><path class="st58" d="M342.3 205.8c0-3.3 0-6.6-.2-9.9-.1-1.4.9-3.6-1-3.9-2.6-.4-.8 2.7-2.3 4 0-2.8-3.3-2.3-3.8-4.7-.3-.4-.2-.7.3-.9 2.4-1.6 5.5.1 7.8-1.9v-.1c1 5.3 1.1 10.7 0 16l-.8 1.4z"/><path class="st59" d="M320.7 221.6c1 .1 1.2-2.4 2.8-.8 1 1 2.2 2 1.1 3.4s-1 4-3.6 3.7c-1-.1-1.6 0-2 .8l-4.2-2.1c3.9-.3.9-3.7 2.3-5.1 1.3-.9 2.3 2.2 3.6.1z"/><path d="M261.7 206.3c3.8.7 6.8.5 7.3-4.2.1-.6.4-1.4 1.2-1.2.9.2 1.4 1 1.4 1.8.3 2.4-1 4.7-3.2 5.7-2.9 1.7-4.9.3-6.7-2.1z" fill="#d4d3d5"/><path class="st61" d="M297.1 157.5l1-1.9c.6-.9 1.9-1.1 2.8-.6l2.1 2.7c-1 1-2.5 1.8-1 3.5-1.4 1-.5 3.3-2.3 4.1-.9-.2-2 .1-2.6-1 .1-1 3.2-1.2.9-2.9-1.1-1-1.5-2.6-.9-3.9z"/><path class="st59" d="M324.9 231.6c2.4-1.5 2.5-6.6 7.5-4.8-1.2 2.1-1.3 5-4.3 5.9-1.3.1-2.4-.3-3.2-1.1z"/><path d="M258.8 149.3c-1 5.2-4.8 8.1-8.8 10.9-.1.1-.5-.3-.8-.4 2-3.3 4.3-6.4 7-9.2.5-.9 1.5-1.4 2.6-1.3z" fill="#0d0b06"/><path class="st61" d="M305.1 162.5c1.4-2.8 3.1-.7 3.2.3.1 1.6 1.4 4-.7 4.8-1.8.7-3.4-1.1-4.1-2.8-.5-1.1-1.4-3.3 1.6-2.3.5.5.9 1 1.2 1.5-.3-.6-.7-1.1-1.2-1.5z"/><path class="st63" d="M249.1 159.7c-.3 0-.6 0-.9-.1"/><path class="st58" d="M331.5 192.2l-3.6-2.9c.6-2.8 3-1 4.5-1.7 1.5-.3 1.9-2.4 3.6-2.3 1.2 2.2-1.1 2.8-1.8 4.1-.5 1.4-2.3 1.4-2.7 2.8z"/><path d="M238.2 168.5c.4-.5.8-.5 1.2.1-3.6 4-6.7 8.5-9.3 13.2" fill="#8a453d"/><path d="M245.1 212.3c1.7 1.9 5.9.1 5.9 3.5 0 2-2.8.9-4.2.9-3.4-.1-1.5-2.7-1.7-4.4z" fill="#eae8ea"/><path class="st66" d="M290.1 167.5c-.3-1.6-.3-2.9 1.7-3.4 2.2-.6 3 .7 3.4 2.4-1.2 2.4-3.1 2-5.1 1z"/><path class="st63" d="M239.4 168.6l-1.2-.1"/><path d="M324.1 168.6c-1.5-1.1-2.6-2.4-1-4s2.9-.4 4 .9c.1 1.7-1.2 3-3 3.1.1 0 .1 0 0 0z" fill="#b6b6b6"/><path class="st68" d="M339.3 157.5c1.6-.3 3.2-.1 3.5 1.8s-.8 2.7-2.5 3.1c-1.8-1.3-2.9-2.8-1-4.9z"/><path d="M351.3 145.5l2.7-1c.9 1.1 2.2 2.1 1.1 3.8-.4.9-1.5 1.3-2.5.9-1.5-.7-1.7-2.1-1.3-3.7z" fill="#c7c7c8"/><path class="st70" d="M140.1 320.5c-.2-.7.1-1.5.8-1.9l16.2-.2c-2.4 2.1-5.3.8-7.9 1.1-3.1.3-6.2-.7-9.1 1z"/><path class="st71" d="M288 138.8c1.3 1.9 1.1 3.7-1.2 4.2s-2.6-1.5-2.5-3.3c.8-1.2 2.4-1.6 3.7-.9z"/><path d="M327.3 187.1c.8-2.5 5.2-2.8 3.8-6.5.4-.1.9-.5 1.2-.4.4.2.7.6.9 1 .5 2.2-.7 3.7-2 5.2-1.1 1.4-2.3 2.5-3.9.7z" fill="#dfdfe1"/><path d="M346.1 149.6c-1.3-1.2-2.2-2.6-.6-4.1s2.8-.5 3.8 1c0 1.7-1.3 3-2.9 3.1h-.3z" fill="#cacaca"/><path class="st74" d="M318.1 181.3c-2.3-1.2-2.6-2.8-1-4.8 1.6 0 3 .2 3.3 2.1.2 1.7-1.1 2.1-2.3 2.7z"/><path d="M288.3 132.5c1.3 0 2.7-.5 3.5 1.2.4.8.2 1.7-.5 2.2-1.5 1.2-2.8.5-3.9-.5l.9-2.9z" fill="#d5d3d4"/><path class="st76" d="M284.2 152.5c1.3-1.3 2.7-2 4.1-.2.7.8.5 2-.3 2.7-1.4 1.4-2.6.4-3.8-.5v-2z"/><path class="st77" d="M346.1 152.5c-.1 1.8-.5 3.4-2.7 3.2-1.1 0-2-1-1.9-2.1v-.3c.4-2.1 2-2.3 3.8-1.8l.8 1z"/><path class="st78" d="M300.9 155l-2.8.6c-1.1-1.4-1.9-3 .1-4.1 1.8-1 2.6.3 3 2l-.3 1.5z"/><path class="st31" d="M172 315.3c3.2-4 7.9-4.1 12.3-4.8-3.8 2.5-8.4 2.9-12.3 4.8z"/><path d="M282.1 139.5c.6 4.6-2.1 3.6-4.6 2.8-.3-.2-.6-.4-.5-.6.2-.5.6-.5 1.1-.5.8-1.7 1.6-3.7 4-1.7z" fill="#cecdce"/><path d="M320.1 174.5c-1.1-1.5-1.5-3.1.4-4 2.4-1.1 3 .8 3.4 2.6-1 1.1-2.1 2-3.8 1.4z" fill="#c7c8c7"/><path d="M313.1 158.5c1.5-1 3.1-1.6 3.9.5s-.5 3.3-2.7 3.2c-1.1-1-1.6-2.4-1.2-3.7z" fill="#d4d4d3"/><path d="M297.5 114.6c.9-.6 1.8-1.9 2.9-.7.5.6.7 1.5.5 2.2-.6 2.1-2.3 1.4-3.7 1.2-.2-.8-.2-1.8.3-2.7z" fill="#bbbdbd"/><path class="st83" d="M282.3 157.5c1.1-.2 2.2.1 3 .9.2 1.6.2 3.1-1.7 3.5-.8 0-1.6-.4-2.1-1-1-1.3 0-2.3.8-3.4z"/><path d="M352.1 136.5c-2.1-3.5-.9-4.6 2.8-3.9 1 2.6.4 4.2-2.8 3.9z" fill="#e2e1e3"/><path class="st33" d="M290.2 119.5l3.1-2.9c1.6.2 2 1 .9 2.3s-2.3 2.4-4 .6z"/><path class="st85" d="M297.1 119.6c2.2 3.7.9 4.6-2.9 3.9-.6-2.6-.1-4.1 2.9-3.9z"/><path class="st58" d="M325.9 190.5c1.5.8 1.1 1.6-.1 1.9-2.4.6-4 2.3-5.5 4-.3-3.9 2.5-5.1 5.6-5.9z"/><path d="M332.3 161.2c-.7-2.5.3-3.6 2.8-3.7 1 1 1.7 2.3.8 3.6s-2.4.7-3.6.1z" fill="#e1e0e0"/><path class="st63" d="M258.8 149.3l-2.6 1.1"/><path d="M248 230.8l2.1 1.5c.3.3.4.8.1 1.2-.1.1-.2.1-.3.2l-6.8-3.2c-.2-.9.1-1.4 1.1-1.3l3.8 1.6z" fill="#5d5c5e"/><path class="st89" d="M341.9 164.5c1.1-1.4 2.1-.3 3.1.1-.1 1.6-.9 3.3-2.4 3.1-1.9-.2-.9-2.1-.7-3.2z"/><path d="M279.7 168c-.8.1-1.6-.5-1.6-1.4v-.1c-.2-1.3.3-2.3 1.7-2.4 1-.1 2.1.2 2 1.5-.2 1.1-1 2-2.1 2.4z" fill="#c3c2c3"/><path class="st92" d="M292 202.4c.3-1 .1-2.2 1.1-2.8 1.8.8 1.3 2.4 1.2 3.8s.1 2.3 1.8 1.9c-4.5 3.4-2-3.1-4.1-2.9z"/><path class="st61" d="M286.1 163.5c1.4 1 4.4 1.2 2.1 4.1-2.5-.5-2.5-2.2-2.1-4.1z"/><path d="M313.1 164.4c1.2 1.7 1.1 3.2-1 4.1-1.5-1.9-2.8-3.7 1-4.1z" fill="#cfcecf"/><path class="st94" d="M345.1 161.5c-.5-2.3-.1-4 2.8-3.9 1.8 3.2-.2 3.8-2.8 3.9z"/><path d="M291.3 242.3c-2.6 2-4.9.7-7.2-.8 2.4.5 5-1 7.2.8z" fill="#b4b4b4"/><path d="M297.1 164.3c.9.1 2.3-.9 2.6 1-.9 1.4-1.6 3.4-3.7 1.1l1.1-2.1z" fill="#f7f6f8"/><path class="st89" d="M278.3 191.5l-.3 2.7c-.9.1-2.1.8-2.7-.3-.7-1.4.4-2.6 1.2-3.4s1.5.2 1.8 1z"/><path d="M302.2 203.5c-1.3-.9 1.7-4.1-2-3.8.2-1 .7-1.9 1.9-1.8s1 1.1 1 1.9c0 1.3.3 2.7-.9 3.7z" fill="#1b1919"/><path d="M302 161.2c-1.3.4-1.9-.2-1.7-1.5.2-1.6 1.1-2.3 2.7-2l-1 3.5z" fill="#f7f7f8"/><path d="M294.6 173.6c-.8-.6-.7-1.4-.5-2.1.2-1 1.1-1.2 1.9-.9s.7 1 .4 1.6c-.2.9-.9 1.4-1.8 1.4z" fill="#b5b4b6"/><path d="M309.6 183.5c1.5 1.2 1.6 2.2.7 3.2-.3.3-1.1.5-1.2.3-1.1-1.3-.4-2.3.5-3.5z" fill="#e9e9ea"/><path d="M327.3 187.1c1.4.6 2.6-.3 3.9-.7l1.2 1.1c-1 1.8-3.1.8-4.5 1.7l-1.7-.4 1.1-1.7z" fill="#262627"/><path d="M329.2 164.5c.9-.3 2-1.1 2.6 0 .3.4-.4 1.4-.7 2.1-2.5 1.1-2.1-.6-1.9-2.1z" fill="#cfcdce"/><path class="st70" d="M157.1 318.4c2.2-1.4 4.6-.9 7-1-2.1 2-4.6.8-7 1z"/><path d="M262.2 250.6c-.1.3-.1.6-.1.9-2-.4-3.8-1.4-5.9-1-.4-.2-.5-.3-.4-.6.1-.2.2-.4.3-.4" fill="#e1333f"/><path d="M303.4 154.4l-.1-2.7c.8 0 2-1.1 2.2.5.1 1-.6 2-1.6 2.1-.2.1-.4.1-.5.1z" fill="#b5b3b4"/><path class="st33" d="M320.1 175.5c3.8-.2 1.7 2.3 2 5.1l-2-5.1z"/><path d="M278 149.3c-1.4-1.7-1.8-3.2 1-3.8 1.5 1.8.8 3-1 3.8z" fill="#a9a8a8"/><path class="st33" d="M278.1 141.2l-.6 1.1c-2.4-1.4 0-2.6.5-4l.1 2.9z"/><path d="M244.3 229.2l-1.1 1.3c-.9-.5-2.4-1.2-1.5-2.3s1.8.4 2.6 1z" fill="#3b3a3c"/><path class="st70" d="M164.9 317.3c1.6-1.2 3.2-2.1 5.3-1.9-1.3 1.6-3.4 2.3-5.3 1.9z"/><path d="M331.5 192.2c0-1.8 1.3-2.3 2.6-2.8l1.1 1.1-.3.9c-1.1.3-2.5-.3-3.4.8z" fill="#464443"/><path class="st61" d="M301.5 171.6c.7.8.8 2 .2 2.9-1.2-1-.2-2-.2-2.9z"/><path d="M250 233.6l.2-1.4c1.1.2 2.2.2 3 1.1l-1 1-2.2-.7z" fill="#939294"/><path d="M348.9 336.7c.8-.1 1.2.2 1 .8-.1.4-.4.8-.9 1.1-.6.2-.9-.3-.8-.8.2-.4.4-.8.7-1.1z" fill="#585859"/><path d="M278.7 153.5c-.6-.2-.9-.5-.7-1.1.2-.7.8-1.1 1.5-1 .4 0 1 .6.9.7-.2.7-.9 1.3-1.7 1.4z" fill="#bebebf"/><path d="M291.9 121.5c0 1.4-1.1 1.8-2 2.5-1.4-2.5.2-2.5 2-2.5z" fill="#e6e4e0"/><path class="st25" d="M343 204.5c-.4-5.3 1.1-10.6 0-16 1.9 5.1 1.9 10.8 0 16zM345.4 201.7c.5 3.3 1.5 6.7-1 10.9l1-10.9zM341.1 221.5c-.2-2.2.2-4.3 1-6.3-.2 2.1.9 4.4-1 6.3zM339.7 228.3l1.3-6.4c-.3 2.2 1.3 4.7-1.3 6.4z"/><path d="M349.2 122.5c-1.1 1.5-2.5 1.7-4.1 1-.5-1.7-.6-3.4 1.5-3.8 2-.4 2.5 1.2 2.6 2.8z" fill="#dfdfdf"/><path d="M351.1 122.5l1.1-2.9c3.5-1 2.4 1.2 2 2.9-1 1.5-2 1.4-3.1 0z" fill="#cdcacb"/><path d="M342.1 117.5c-.7-1.3-1.5-2.6 0-3.9 1.1 1.2 3.2 2.5 0 3.9z" fill="#e3e2e4"/><path class="st115" d="M341 111.7c-1.4-.2-3-.2-2.9-2.3 1-.4 1.7-1.2 2.1-2.2.2-.4.5-.7.9-.8 1.2 1.1.8 2.7 1.1 4.1l-1.2 1.2z"/><path class="st25" d="M354.1 122.5c.5-1.7.8-3.4-2-2.9.7-1.3 1.9-1.1 3-1.1-.1 1.3.5 2.9-1 4z"/><path class="st29" d="M362.5 116.6c-.3.4-.6 1.1-1.1 1.3s-.8-.3-.6-.8c.3-.5.7-.9 1.1-1.3l.6.8z"/><path class="st31" d="M181.1 203.5c-.9 2.3 3 2.9 1.9 5.4-.9 2.1-.4 4.1.3 6.3.8 2.6 1.2 4.7 4.6 4.4 1.9-.2 3.9.1 4 2.6.2 2.9-2.2 2.5-3.9 2.3-5.1-.4-5.5 3.1-5.8 6.7-.1 1.2 1.2 2.4 0 4.1-2.4-3.3-.1-7.2-2.1-11.1-1.5 3.8-4.5 5.9-5 9.6-.7 5.3.4 6.6 5.6 6.6 1.2 0 3.2-1.5 3.3 1.3.1 2-.1 3-2.7 3.5-2.8.6-6.1.4-8.2 3.9-1.5 2.6-3.3-2.3-5.6-1.9-1.2 1.8.3 3.7.2 5.4-1.6.9-2-3.8-3.6-.3-.6.6-1.5.6-2.2.1 1-7 2.4-13.9 6.1-20.1.2-.1.4-.4.3-.6v-.1c1.1-7.4 4-14.3 5.9-21.4 1.8-3.4 2.4-7.4 4.9-10.4 1.9.7 3 1.5 2 3.7z"/><path class="st116" d="M168.1 232.5l-5.9 20c.4.9.5 2 .1 3-3.1 9-6 18.1-9.1 27.1-.5 1.5-.8 3.2-2.3 4.2-.4.1-.9.1-1.4 0-.3-.6 0 .2-.3-.3-.3-.7-.6-1.4-.8-2.2.1.9.4 1.7 1 2.4.3 3.2-2.1 5.8-2.1 8.9l-1.2.9c-2.1-.5-3.3-2.2-4.7-3.4s-1.8-3.4.2-4c4.4-1.3 4-4.5 3.3-7.6-.8-3.5.2-4.5 3.5-3.4 1.7.6 3.8-.1 3.5-1.5-.6-2.9 1.6-5 1.4-8.1-.3-3.9-1-8.4 2.4-12.5 2.7-3.1 7.2-6 6.4-11.1-.3-1.9-1-3.7-1.4-5.6-.6-3.1.7-6.2-.4-9.2-.4-1.2 0-3.1 1.7-3 1.9.1.8 1.7.6 2.7-.5 2-.3 3.3 2.1 1.7 1.6-1.2 2.2.7 3.4 1z"/><path d="M178.9 200.4l-3.8 10.1c-2.4-2.1-1.9-3.8.9-5 2.9-6.6 1.1-13.6 1.4-20.5 2.1 1.4-.1 3 .8 4.2 5.9-5.1 6.2-12.7 7.6-19.6.8-3.6-.7-7.7-1.3-11.6-.1-.9-.3-1.7.6-2.1.6-.3 1.4-.1 1.7.5.1.1.1.3.2.5.8 3.8 3.2 2.7 5.5 1.9-2.7 10.4-7.3 20.2-9.6 30.8.5 2.4-1 4.1-2 6l.1-.1c-.7 1.5.4 3.9-2.1 4.9z" fill="#f8f7f5"/><path class="st116" d="M176 205.5c-2.2 1.3-1.2 3.2-.9 5l-6.9 21.3c-.4-1.1-1.4-2.5-1-3.2 4.1-7 1.6-14.2.9-21.4 0-.3.3-.6.6-1 2.7 2.1.4 5.4 2 7.8 2.3-2.7.2-7.9 5.3-8.5zM153.1 248c.9 2.5 2.6 3.9.9 5.7-.2.2-1.1.3-1.3.1-1-1.6-.8-3.2.4-5.8z"/><path class="st38" d="M214.2 21.5c.2-1.2.9-2.3 1.9-3-.2 1.4 1.6 2.7.3 4-1.1 1-1.4-.8-2.2-1z"/><path class="st57" d="M136.7 324.2c-.3.5-.6 1.2-.8 1.3-1.1.1-.7-.8-.6-1.3 0-.3.5-.6.7-1l.7 1z"/><path class="st118" d="M281.1 58.5c.4.7 1.2 1 2 .9-.5 2.8-4.7-.1-5 3.2 1.1 1.2 2.5 2.2 4 2.9 1-.6 1-1.5 1-2.5 0-.2.3-.4.4-.6l.6 1.2c1.2 1 2.7 1.7 4.3 1.9 4.1.7 4.5 4.1 5.4 7.1.8 1.3-.6 1.8-1 2.7-.7.8-1.2 1.7-1.4 2.7-1 2.9-3.8 3.4-6 4.7-2.2-.4-3.4.5-3.4 2.8l-4.8 5c-.4.3-.8.3-1.3.2-1 0-1.9-2.8-2.8 0 .3.9 1.4 1.5.9 2.6l-1.6 1.5c-2.4-.3-2.8.9-2.4 2.9-1.3 2.5-3.7 3.5-6.1 4.6-2.4 1.4-4.4-1.1-6.7-.5-1.6-.6-3.3-.6-4.8.1-.9.1-1.7-.1-2.5-.5-1-.4-1.9-1-2.5-1.9-1.3-.5-.6-1.4-.4-2.2-.6-1-1.9-1.5-3-1-.7.1-1.4 1.1-2 0-.6-1.6-3.2-1.8-3-4l-1.1-2.2c-1.8-1.2-3-.6-3.8 1.3 1.2 1.4 3.4 2.5 2 5 .6.5.6 1.3.1 1.9l-.1.1c-1.6 1.2-2.6 3.7-5.5 1-1.7-1.6-4 .1-5.4 2h-4.3c-.8-2.8 0-4.4 3.2-4 1.8-1 2.2-2 0-2.9-.7 0-2.3 1.1-1.6-.9.8-1.8 1.8-3.5 2.9-5.2 1 .7.2 2.7 1.9 2.8 1.3-1 2.5-2.2 3.5-3.5.7-1.3-4.7-1.3-.7-3.3 1.5-.6 2.8-1.6 3.8-2.9 0-1.9-3.3-.2-2.7-2.1.7-2.4 2.2-.1 3.4 0 1.7.1 3.4.2 3.2-2.3-.9-.3-1.8 0-2.6-.6-1.2-3.7 1.8-3.1 3.6-3.7.3-1.4.7-2.8 1.1-4.2 0-.8-.9-1.8.5-2.4 1.6-1.5 1.8-2.8-.4-3.8-.7 1.3-1.4 2.5-2.3 3.7-1 1.2-2 2.8-4.1 1.6-1.9-1.1-3.2-2.7-2.3-4.8 1-2.5 1.8-5.4 4.9-6.4.8.2 1.3 1.7 2.3.9.2-.2-.9-1.1-1.3-1.8-1.9-1.7-2.5-3.8-.1-5.1 2.8-1.5.9 3 3 2.8.8-.7 2-.7 2.7 0l.1.1c.7.5 1.1 1.2 1 2 .6 1.8 1.3 3 3 .9.2-.4.3-1.2.5-1.2 1-.1 1.2.8 1.6 1.4 1.3 1.2 3.1 1.6 4.8 1 .4-.7.8-.9 1.2-.1 1.6.7 3.2 1.6 5.1.9l1.9 1c1.2-.8 2.7-.8 3.8 0l1.9-1c.5 1.2-.5 2.1-.8 3.1.2.8-.6 2 .5 2.4.6.2 1-1 1.5-1.5 1.8-1.5 1.8.2 2.1 1.3 1.8 1.3 3.3.7 4.7-.8.6-1.5 3.1-3.1-.9-3.9-1.8-.4-3.6-1.1-5.2-2-2.5-1.4 0-1.3.6-1.7 4 .6 7 3.5 10.9 3.3z"/><path class="st31" d="M151.7 299.4l-3.6-4c-1.5-3.5.9-6.1 2.3-8.9l10.9-32.1c3.2 2 2.4 4-.1 6 0 5.5-1.8 10.5-3.8 15.4-.6 1.6 0 6 1.2 7.5.9 1.1.9 2-.1 7.1"/><path d="M250.1 100.5l2.1 1c.3.3.4.6.4 1-.1.8.1 1.3 1.1 1 1.4-.4 2.3-1.7 3.7-2 2.6-2.5 4.4 1 6.7 1-4.5 4.4-9.9 7.9-14 12.7-1.5 2-2.7 4.4-5.8 4.3.5-2.3 0-3.5-2.5-4.9-3-1.6-.3-5-1-7.8 2.1.7.8 3 2.2 3.7 1.4-.8 2.9-1.6 3.6-3.2.5-.6 1.2-1 2.1-1l.8.4c-.3-.1-.5-.3-.7-.4-1-.2-1.9-.5-1.9-1.8.9-1.4 2-2.8 3.2-4z" fill="#0f0d0c"/><path class="st31" d="M229.2 134.5c.3-.9 1-1.6 1.9-1.9 2.3.6 4.5 2.7 6.7-.2.7-1 1.8-.7 2.6.1 1.7 1.6-.5 3.8.7 5.4-.7.4-1.5 1.4-2 1.2-3.7-1.1-.6-3 0-5.2-2.3 1.3-4 2.5-6.4 2.5-1.6 0-4.1 1.3-4 3.1.4 4.7-2.4 3.4-5.6 3.1 2.8-2.7 5.9-4.5 6.1-8.1z"/><path class="st25" d="M256.1 291.5c-4.7 2.3-9.4-1-14.2-.1l3.2-1.9h5c.6.2-.3.1.4.3s1.5.1 2.2.3c-.6-.3-1.4 0-1.8-.7 3.6-1.9 7.5-.8 11.2-.7 6.8.1 13.6-1 20.3.7-7.3 0-14.6 0-21.9.1-1.7 0-3.9-.8-4.4 2z"/><path class="st31" d="M143 311.1c.6-4.5 2.6-8.5 4.2-12.7 3 1.2 3.3 2.4 1.4 7.7-.1-.8-.3-1.5-.6-2.2-.2-.6-.8-.6-.8.1.2 1.9-1.9 3.5-.2 5.6 1.1 1.5-.3 3.6-1.6 4.1-2 1-2-1.2-2.4-2.6zM250.1 116.5c1.6-.5 2.2-2.5 4.4-2.7.6 2.8-2 3.2-3 4.7-1.7 2.3-8.9 1.9-4.3 7.9.7.9-1.7 2.8-3.2 3.6-.4.3-1.4-.9-1-1.1 4.3-2.6-1-3.6-.8-5.4 2.3-2.7 4.1-6 7.9-7zM161.1 260.5c.9-2 1.8-4 .1-6l.9-2h2c.7 4.2-2.1 9 1.9 12.8.5.9.3 2-.6 2.6-1.2.5-1.7-.6-2.1-1.5-1-1.9-.6-4.2-2.2-5.9z"/><path class="st37" d="M292.1 74.4l1.8-1.8.4-.3c1.1-1 2.4-2 3.7-2.8l2.1-1.1.5.5c.1.7.1 1.4-.1 2.1-.7 3-3.7 3.4-5.5 5.1-1.1-.5-2.4-.5-2.9-1.7z"/><path d="M316 93.1c.6 1.4 2 1.3 3.2 1.3.2.3.1.7-.1 1-1.8 1.4-3.3 5.1-6.1 1 .8-1.2 1.4-2.7 3-3.3z" fill="#252321"/><path class="st31" d="M178.9 200.4l2-5.1c1.9 2.7 2.9 5.4.2 8.2 0-1.4-.8-2.7-2.2-3.1z"/><path class="st57" d="M150.4 286.6l-2.3 8.9-.8.1c-2.3-3.6.8-6.2 1.8-9.2l1.3.2z"/><path class="st31" d="M250.1 116.5l-8 7-1.4-.2 3.5-3.8 5.8-4.3.1 1.3z"/><path d="M282.1 85.5c-1.5-1.3-1.9-2.8-.3-4.2 1.8-1.5 3-.4 3.7 1.4-.7 1.4-1.9 2.4-3.4 2.8z" fill="#99918f"/><path d="M270.2 97.8c-2-.3-2.4-1.5-1.4-3.1 1.2-2 2.6-1.3 3.8.1l-2.4 3z" fill="#bfbbb6"/><path class="st31" d="M180.9 195.4c.1-2.1.8-4.2 2-6 2.8 3.1-.8 4.2-2 6z"/><path d="M292.1 74.4c1.2-.1 2.4.6 2.8 1.8l-3.4 1.9c-1.3-1.6-.5-2.6.6-3.7z" fill="#d5d8d5"/><path class="st37" d="M300.1 68.5c2-2.2 4 .1 6.1.1-.7 1-1.9 1.6-3.2 1.4-.6-1.2-2.2-.2-2.8-1.3l-.1-.2z"/><path d="M153.4 315.6h7c-3.3 1.2-5.2.9-7 0z" fill="#ea0413"/><path d="M161.2 313.7h5.6l.1.4h-5.5l-.2-.4z" fill="#ed0422"/><path d="M256 249.5c.1.3.1.6.2.9" fill="#e70518"/><path class="st31" d="M261.1 253.5l1 2-5.2-1.4c1.5-1.1 2.9-.4 4.2-.6z"/><path d="M276 90.5l1.3.2c-.8 1.2-1.7 2.5-3.2 2.8l-2-1.9c.9-1.3 2.5-1.8 3.9-1.1z" fill="#251713"/><path d="M240.4 127.6c-.9.4-1.1-1.3-1.3-2.2" fill="#da121e"/><path d="M300.2 68.6c1.3-.3 2.8-1.2 2.8 1.3l-2.6 1.2c-.4-.8-.5-1.7-.2-2.5z" fill="#dcdcd7"/><path d="M255.8 284.7c-.4.3-.8.4-1.2.5" fill="#d11e24"/><path class="st131" d="M237.5 55.6c2-.5 3.4.2 3.6 2.3.1 1.1-.7 2.1-1.8 2.2h-.4c-2-.2-2.8-1.5-2.4-3.5l1-1z"/><path class="st132" d="M269.1 62.4c.5 1.5.8 2.9-.9 3.8-.9.5-2.1.2-2.6-.7-1.2-1.9.1-3 1.5-3.9l2 .8z"/><path d="M275.9 62.9c.4 1.7 0 3.1-1.8 3.5s-2.6-1.1-2.9-2.7c1.3-2 2.9-2.2 4.7-.8z" fill="#c6c5c6"/><path class="st134" d="M247.2 107.5c.2 3.3-.8 4.8-4.2 3-.4-2.5.1-4.3 3.1-4.2.9-.1 1.3.2 1.1 1.2z"/><path class="st135" d="M254 57.7c-.7 1.4-1.4 2.7-3.3 2.2-1.6-.5-1.7-1.8-1.5-3.2 2-1.6 3.6-1.2 4.8 1z"/><path d="M247.1 56.5c.3 1.4.4 2.7-1.2 3.4-1 .4-2.1.1-2.6-.8-1.1-1.5 0-2.4.9-3.5l2.9.9z" fill="#d4d2d3"/><path class="st137" d="M240.1 62.5c1.7-.7 3.5-.8 3.8 1.3.4 2.6-1.5 2.7-3.5 2.5-.7-1.1-.8-2.6-.3-3.8z"/><path d="M221 101.5c1.4-2 2.8-2.7 4.3 0-.1 1.5-.6 2.9-2.4 2.8s-1.7-1.6-1.9-2.8z" fill="#b6b6b8"/><path d="M250.1 100.5c.7 2.6 0 4.1-2.9 4-.5-.1-1-.5-1.1-1-.4-1.6.5-2.7 1.4-3.8l2.6.8z" fill="#d9d5d7"/><path class="st76" d="M234.1 91.5c-1-1.6-1.5-3.2.7-4s2.9.9 3.2 2.7c-1.1 1-2.3 1.8-3.9 1.3z"/><path d="M231 87.7c.7 3-.2 4.4-3.5 3.5-1.4-3.6.5-4.1 3.5-3.5z" fill="#eae9ea"/><path d="M224.2 94.5c1.2-1.1 2.3-1.2 3.4.1.6.6.7 1.6.1 2.3-1 1.4-2.3 1.1-3.6.6l.1-3z" fill="#d7d7d8"/><path class="st142" d="M243.2 53.5l-2.8-.1c-.5-1.2-1.2-2.5.3-3.5.8-.6 2-.6 2.7.2 1.5 1.1.4 2.2-.2 3.4z"/><path class="st118" d="M246.1 103.5l1.1 1 2.2 2.2-2.1.8-1.1-1.2c-.4-1.2-2.5-.2-2.4-1.9 0-.8-.5-1.9.5-2.1.5-.2 1.2.7 1.8 1.2z"/><path d="M234.1 81.5c.6 3.5-.3 4.9-3.8 2.9-.4-3.2 1.2-3.7 3.8-2.9z" fill="#e6e5e6"/><path class="st144" d="M239.1 92.5c.1 2 5.4.1 3 4-1.8-.8-5.2-.3-3-4z"/><path d="M260.3 58.5c-2.2 3-3.8 1.8-5.1-.9 1.9-1.3 3.6-.9 5.1.9z" fill="#b1b0b0"/><path d="M240.1 68.7c1 1.8 1.4 3.4-1.1 4.2-.3-1.6-2-3.6 1.1-4.2z" fill="#f4f2f3"/><path d="M244.1 96.5c1-.6.4-3.1 2.3-2.4 1.6.6.9 2.1.7 3.4-1.2.3-2.5.9-3-1z" fill="#cccece"/><path d="M235.3 76.5c1.1-.6 2.2-1.5 2.6.6-.8.8-1.4 2.1-2.7 1.5-1.2-.6.1-1.4.1-2.1z" fill="#dedddd"/><path d="M266 59.5c-1.2.6-2.6.6-3.8 0 0-.7-.2-1.8 1-1.7s2.6-.2 2.8 1.7z" fill="#f0eeef"/><path class="st118" d="M238.1 98.5c1.8 2.1-.9 2.1-1.4 3.1-.9-.5-.4-1.4-.6-2.1.5-.7 1.2-1 2-1z"/><path class="st144" d="M238.1 98.5c-.4.7-1.2 1.1-2 1v-1-2c.9.3 1.7 1 2 2z"/><path class="st115" d="M330.2 95.5c2 .4.9-2.9 3.8-1.8-1.9-1.8-4.1-.3-4.8-2.4 1.6-1 1.5-2.4.9-4 2.8-.7 2.3-3.1 2.5-5.3.4 2 2.8 3.2 1.1 5.7-1.1 1.6 2.2.7 2.3 3 .2 4.9 7.4 8.5 3 14.5l2.1 1.2-.3.3c-.8.7-1.5 1.4-2.7 1.1-1.3-2.4-2.8-4.5-6.1-3.2-.6-1.4-.1-2.4 1.2-3 .7.2 1.6 1.3 2 .3.4-1.1 0-2.4-1.1-2.9-1.6-.3-3-1.2-4-2.4-.2-.2-.3-.4-.2-.7.2-.3.3-.4.3-.4z"/><path class="st68" d="M339.3 150.3c-.4-.9-.8-1.8-1-2.7-.3-1.3.6-2.6 1.8-2.8h.3c.9-.1 1.7.3 2.1 1.1.9 1.4.3 2.5-1 3.3-.7.4-1.5.7-2.2 1.1z"/><path d="M339.3 150.2l-.3 1.4c-1.1 1-2.5 1.6-4 1.8l-1.9 1c-1.3-.9-2.7-1.6-3.9-2.7l-.2-2.4c-.2-.8.2-1.1.9-1.1.5 2 1.3 2.9 3.1 1.1.8-.9 1.7-1.6 3-1 .4 2.2 1.8 2.1 3.3 1.9z" fill="#181818"/><path class="st151" d="M292.1 147c-.2 1.2-.8 2.2-2.1 2.3-1.2.2-2.3-.6-2.5-1.7v-.5c-.1-1.2.8-2.2 2-2.4 1.5-.1 2.2 1 2.6 2.3z"/><path d="M307.9 128c-.2 1.2-.7 2.4-2.1 2.4-1.2.1-2.4-.8-2.5-2v-.5c0-1.2.9-2.1 2.1-2.1h.2c1.3 0 2.3 1 2.3 2.2z" fill="#bdbabb"/><path d="M295.1 127.9c-.2 1.5-.9 2.5-2.5 2.4-1-.1-2.3 0-2.5-1.6-.2-1.7.7-2.3 2.1-2.6 1.6-.4 2.4.4 2.9 1.8z" fill="#d4d3d1"/><path class="st154" d="M310.9 108.9c-.1 1.5-.8 2.5-2.4 2.4-1.1 0-2-1-2-2.1v-.2c.1-1.3.6-2.7 2.2-2.8s2 1.4 2.2 2.7z"/><path d="M319.1 95.5c.1-.2.2-.4.2-.6 0-.1-.1-.2-.1-.3 1.6-1.4 3.2-1.7 4.2.6.6 1 .2 2.2-.7 2.7-.1.1-.2.1-.3.2-2 .5-3-.8-3.3-2.6z" fill="#cccbcc"/><path d="M343.9 125.7c1.2.1 2.1 1.2 2.1 2.4.1 1.2-.8 2.2-2 2.2h-.2c-1.2.1-2.2-.7-2.4-1.9v-.6c.2-1.2 1.3-2.1 2.5-2.1z" fill="#bab9b9"/><path d="M324.4 130.5c-1.2-.2-2.1-1.2-2-2.4s.9-2.4 2.2-2.2c1.3 0 2.3 1 2.3 2.2v.5c-.2 1.1-1.3 2-2.5 1.9z" fill="#b7b7b7"/><path d="M289.5 157.5c1.5.2 2.4.8 2.5 2.1.2 1.2-.6 2.4-1.8 2.6h-.4c-1.3 0-2.3-1-2.3-2.2v-.4c-.1-1.4 1.1-1.9 2-2.1z" fill="#bebcbd"/><path d="M321.3 106.3c1.7 0 2.1 1 2.3 2.2.2 1.5-.4 2.7-2 2.7-1.1.1-2.1-.8-2.2-1.9v-.2c0-1.3.4-2.6 1.9-2.8z" fill="#d2d1d2"/><path d="M321.4 157.4c1.7.2 2.4 1 2.4 2.3s-.8 2.4-2.1 2.4c-1.3.1-2.4-.9-2.4-2.2v-.4c0-1.3 1.1-1.8 2.1-2.1z" fill="#bcbbbb"/><path d="M346 140.3c0 1.6-.9 2.6-2.3 2.8-1.2 0-2.2-.9-2.2-2.1-.2-1.2.7-2.4 1.9-2.5h.4c1.1-.1 2.1.6 2.2 1.7v.1z" fill="#bebebe"/><path class="st154" d="M330.1 148.3l-.9 1.1c-1.8.2-3.4-.1-3.5-2.3-.1-1.1.7-2.1 1.8-2.2h.3c2.1 0 2.4 1.6 2.3 3.4z"/><path class="st94" d="M314.2 128.1c0 1.2-.9 2.2-2.1 2.2h-.1c-1.1.2-2.1-.6-2.3-1.7v-.3c-.2-1.2.6-2.3 1.8-2.5h.6c1.2.1 2.1 1.1 2.1 2.3z"/><path class="st131" d="M324.7 138.3c1.4.1 2.4 1.3 2.2 2.7 0 1.2-1 2.1-2.2 2.1-1.2 0-2.2-1-2.2-2.2v-.4c.1-1.3 1-1.9 2.2-2.2z"/><path d="M328.1 111.3c-1.3-.1-2.3-.7-2.4-2s.2-2.8 1.9-3c1.5-.2 2.1.7 2.3 2 .4 1.2-.3 2.5-1.5 2.9-.1.1-.2.1-.3.1z" fill="#cdcece"/><path d="M305.9 138.4c1.3.2 2.2 1.4 2 2.7v.1c-.1 1.1-1.1 2-2.3 1.9h-.2c-1.2-.1-2.1-1.1-2.1-2.3 0-.2 0-.3.1-.4.2-1.3 1.3-2.1 2.5-2z" fill="#bbbaba"/><path class="st94" d="M310.9 146.9c.1 1.2-.7 2.3-1.9 2.5-1.4.2-2.1-.6-2.4-1.9-.3-1.1.3-2.3 1.4-2.7.2-.1.4-.1.6-.1 1.4 0 2 1 2.3 2.2z"/><path d="M302.8 149.4c-1.3.1-2.4-.8-2.5-2.1-.1-1.1.6-2.2 1.7-2.5s2.3.4 2.6 1.5c.1.2.1.4.1.6 0 1.3-.8 2.3-1.9 2.5z" fill="#c3c5c4"/><path class="st165" d="M317.2 109c-.2 1.2-.6 2.3-2 2.3-1.6 0-2.2-1.2-2.2-2.7.1-1.2.6-2.3 2-2.3 1.8 0 2 1.4 2.2 2.7z"/><path d="M321.3 136.6c-1.2-.2-2.1-.9-2-2.3 0-1.2 1.1-2.2 2.3-2.1 1.2 0 2.1 1 2 2.2v.2c0 1.1-.9 2.1-2 2.1-.1-.1-.2-.1-.3-.1z" fill="#d5d3d3"/><path class="st167" d="M327.9 80.6l2.1 1.2c.3 1.5.2 2.9-1.6 3.5-.9.3-2-.1-2.4-1-1.2-2.2.6-2.8 1.9-3.7z"/><path d="M328 136.6c-1.3-.1-2.2-.7-2.3-2-.2-1.2.6-2.2 1.8-2.4h.6c1.1 0 2 .9 2 2v.2c.1 1.1-.8 2.1-1.9 2.2h-.2z" fill="#c8c8c8"/><path d="M327 102.2c-.2 1.3-.8 2.2-2.2 2.3-1.1.2-2.1-.5-2.3-1.6v-.4c-.1-1.5.7-2.7 2.3-2.6 1.2.1 2.1 1.1 2.2 2.3z" fill="#b9b6b7"/><path class="st170" d="M320.4 102.6c-.4 1.4-1.3 2.1-2.6 1.8-1.1-.2-1.9-1.2-1.7-2.3 0-.1 0-.2.1-.3.1-1.1 1.1-1.9 2.2-1.8.1 0 .2 0 .4.1 1.1.2 1.9 1.2 1.7 2.4l-.1.1z"/><path class="st167" d="M323.6 121.3c0 1.8-.8 2.6-2.1 2.6-1.1.1-2.1-.6-2.2-1.7v-.3c-.1-1.2.9-2.2 2-2.3h.1c1.1-.2 2.1.6 2.2 1.7z"/><path d="M340.7 119.3c1.2.4 2.2 1.2 2.1 2.4.1 1.1-.8 2.1-2 2.2h-.2c-1.2.1-2.3-.8-2.3-2v-.5c.2-1.2 1.2-2 2.4-2.1z" fill="#cacccc"/><path d="M310.6 176.6c1.5-.1 3.1-.2 3.5 1.6.5 2.1-1.1 2.7-2.7 3.1-2.2-1.2-2.6-2.8-.8-4.7z" fill="silver"/><path d="M302.5 119.5c1.2.1 2.2 1.1 2.2 2.3 0 1.2-.9 2.2-2.1 2.2-.2 0-.4 0-.6-.1-1.1-.1-1.9-1-1.9-2.1v-.3c.2-1.2 1.1-2.1 2.4-2-.1 0 0 0 0 0z" fill="#c2c3c2"/><path d="M301.4 128.1c-.1 1.3-.7 2.3-2.1 2.2-1.1.1-2.1-.6-2.2-1.7v-.4c-.1-1.2.8-2.2 1.9-2.3h.2c1.4-.1 1.9.9 2.2 2.2z" fill="#c8c9c8"/><path d="M331.1 130.4c-1.7-.2-2.3-1.1-2.3-2.3-.1-1.1.7-2.1 1.8-2.2h.3c1.2-.1 2.2.8 2.3 2v.6c-.1.9-1 1.8-2.1 1.9z" fill="#bebfbe"/><path d="M336.4 108.8c.2 1.1-.6 2.2-1.7 2.4h-.2c-1.1.2-2.2-.5-2.4-1.6v-.8c.1-1.2.5-2.4 1.9-2.5 1.7-.2 2.1 1.2 2.4 2.5z" fill="#cfd0cf"/><path d="M339.6 127.8c.1 1.2-.7 2.3-1.9 2.5-1.1.3-2.2-.4-2.4-1.4 0-.1-.1-.2-.1-.4-.3-1.2.4-2.4 1.6-2.7.1 0 .3-.1.4-.1 1.3-.1 2.1.8 2.4 2.1z" fill="#c7c6c6"/><path d="M323.6 147c-.1 1.2-.5 2.4-2 2.4-1.3.1-2.4-.8-2.5-2.1s.8-2.4 2.1-2.5h.2c1.1 0 2.1.8 2.1 2 .1 0 .1.1.1.2z" fill="#c5c5c5"/><path d="M295.1 140.3c-.1 1.6-.8 2.6-2.1 2.7-1.2.1-2.2-.8-2.3-1.9v-.2c-.1-1.2.8-2.3 2-2.4h.1c1.5-.2 1.8 1.1 2.3 1.8z" fill="#d3d3d3"/><path d="M297.1 157.5c1 1 1.4 2.5.9 3.9-1.6 1-3.3 1.3-3.9-.9-.8-2.5.9-3.1 3-3z" fill="#cbcacb"/><path d="M318.5 138.5c1.2.2 2.1 1.3 1.9 2.5-.1 1.2-1.2 2-2.3 1.9s-2-1.2-1.9-2.3c0-1.2 1-2.1 2.3-2.1-.1 0 0 0 0 0z" fill="#d2d2d2"/><path class="st66" d="M281.2 145.5c1.5-.7 3.3-1.6 4 .8s-.8 3.3-3 3.1c-1.7-.9-2.5-2.1-1-3.9z"/><path d="M327.9 162c-1.2 0-2.2-.9-2.3-2.2-.1-1.1.7-2.1 1.8-2.2h.4c1.2 0 2.3.6 2.2 2.1 0 1.2-.9 2.2-2.1 2.3z" fill="#d5d4d4"/><path d="M320.6 166.2c-.1 1.2-1.1 2.1-2.3 2.1-1.1.1-2-.7-2.1-1.8v-.4c0-1.2.6-2.3 2.1-2.2 1.2.1 2.3 1.1 2.3 2.3z" fill="#d6d5d6"/><path d="M330.2 95.5v1c-1.1 1.6-2.3 2.5-4 .8-.8-.7-.9-1.9-.2-2.7l.3-.3c1.9-1.8 3-.3 3.9 1.2z" fill="#c8c7c8"/><path class="st165" d="M350.2 138.5c1.2.1 2.1 1.1 2 2.2v.2c0 1.1-.8 2-1.9 2.1h-.4c-1.2-.1-2.1-1.2-2-2.4.1-1.3 1.1-2.2 2.3-2.1z"/><path class="st185" d="M339.4 141.1c0 1.1-.9 1.9-2 1.9h-.3c-1.1 0-2-.9-2-2v-.4c.1-1.2 1.1-2.1 2.2-2 1.2.1 2.1 1.1 2 2.2.2 0 .2.1.1.3z"/><path class="st186" d="M296.1 144.8c1.2.4 2.2 1.1 2 2.4-.2 1.2-.9 2.2-2.3 2.1-1.1 0-2-1-2-2.1v-.3c.1-1.2 1.1-2.1 2.3-2.1z"/><path class="st74" d="M314.8 144.8c1.2 0 2.3.9 2.4 2.1.2 1.1-.5 2.2-1.7 2.4h-.2c-1.1.2-2.1-.5-2.3-1.6v-.4c-.2-1.3.7-2 1.8-2.5z"/><path d="M324.7 155.7c-1.2 0-2.2-.9-2.2-2.1v-.2c-.1-1.1.6-2.1 1.7-2.2h.4c1.1-.1 2.1.7 2.2 1.8v.4c.1 1.2-.8 2.2-1.9 2.3h-.2z" fill="#c6c6c6"/><path d="M315.2 136.6c-1.1.1-2.1-.8-2.2-1.9v-.2c-.1-1.1.7-2.1 1.8-2.2h.2c1.4-.1 2 .8 2.1 2.1.1 1.1-.6 2.1-1.7 2.3 0-.1-.1-.1-.2-.1z" fill="#d7d8d8"/><path d="M336.1 148.5l-3 1c-1-1.2-1.8-2.5-.4-3.9.5-.7 1.5-.9 2.2-.5 1.6.7 1.2 2.1 1.2 3.4z" fill="#d6d4d5"/><path class="st74" d="M334 132.2c1.2-.1 2.2.7 2.3 1.9v.1c.2 1-.5 2-1.5 2.2h-.5c-1.1.2-2.1-.5-2.3-1.5v-.4c-.1-1.2.7-2.2 1.9-2.3h.1z"/><path d="M342.9 134.6c-.1 1.2-1.1 2.1-2.3 2.1-1.1.1-2.1-.7-2.2-1.8v-.3c-.1-1.2.8-2.2 2-2.3h.5c1.2 0 1.8 1.1 2 2.3z" fill="#c7c7c7"/><path class="st77" d="M318.4 125.8c1.3.3 2.2 1 2 2.4 0 1.2-1 2.1-2.2 2h-.2c-1.1 0-2-.9-2-2v-.4c0-1.2 1-2.1 2.2-2h.2z"/><path class="st83" d="M333.1 140.5c.2 1.1-.6 2.2-1.7 2.4h-.3c-1 .2-2-.5-2.2-1.6v-.4c-.2-1.1.5-2.1 1.6-2.3h.3c1.2-.2 2.2.7 2.3 1.9z"/><path class="st191" d="M312 138.5c1.3.1 2.2 1.2 2.1 2.4-.1 1.2-1.1 2.1-2.2 2s-2.1-1.1-2-2.2v-.2c0-1.1.8-2 1.9-2.1.1.1.1.1.2.1z"/><path d="M301.3 141c0 1.1-1 2-2.1 1.9h-.3c-1.1 0-2-1-1.9-2.1v-.3c0-1.1.9-2 2-2h.4c1.2.2 2.1 1.3 1.9 2.5z" fill="#d7d5d6"/><path d="M349.9 130.4c-1.2-.1-2-1.2-1.9-2.4v-.1c0-1.1.9-2 2.1-1.9h.3c1.1 0 2 .9 2 2.1v.3c-.3 1.4-1.4 1.7-2.5 2z" fill="#d0cecf"/><path d="M307.9 115.3c-.3 1.6-1 2.4-2.4 2.4-1.1.1-2.1-.8-2.2-1.9v-.2c-.1-1.2.7-2.2 1.9-2.3h.6c1.5 0 1.8 1.2 2.1 2z" fill="#c4c6c6"/><path class="st165" d="M314.9 170.2c1.1-.1 2.1.7 2.3 1.8v.2c.2 1.1-.6 2.2-1.7 2.4s-2.2-.6-2.4-1.7v-.3c-.2-1.1.6-2.2 1.7-2.3l.1-.1z"/><path class="st186" d="M330 121.2c.1 1.6-.5 2.5-1.9 2.6s-2.3-.5-2.4-1.9c-.1-1.2.7-2.2 1.9-2.3h.1c1.4-.3 1.9.7 2.3 1.6z"/><path d="M326.8 115.5c-.2 1.3-1 2.2-2.3 2-1.1-.1-1.9-1-1.9-2.1 0-.1 0-.2.1-.4.1-1 1-1.8 2-1.8 1.2 0 2.1.9 2.1 2.1v.2z" fill="#e4e3e4"/><path class="st132" d="M324.4 87.3c1.2-.1 2.3.7 2.4 1.9v.1c.2 1.1-.5 2.1-1.6 2.3h-.3c-1.2.2-2.2-.6-2.4-1.8v-.2c-.2-1.3.7-2 1.9-2.3z"/><path d="M320.5 115.3c0 1.2-.9 2.2-2.1 2.2h-.1c-1 .1-2-.6-2.2-1.6v-.4c-.2-1 .5-2 1.5-2.2h.5c1.2-.1 2.2.8 2.3 2h.1z" fill="#d2d1d1"/><path d="M311 121.9c-.4 1.2-1.1 2-2.4 1.9-1.1-.1-2-1-1.9-2.1v-.3c0-1.1.9-2 2-2h.3c1.3.3 1.8 1.3 2 2.5z" fill="#d3d5d4"/><path class="st85" d="M333.1 115.5c-.2 1.4-1 2.2-2.4 2-1.1-.1-1.9-1.1-1.8-2.2 0-.1 0-.2.1-.3.1-1 1-1.8 2.1-1.7 1.1 0 2 .8 2.1 1.9-.1.2-.1.3-.1.3z"/><path d="M333.3 101.5l-1.2 3c-2.2.1-3.9-.6-3.1-3 1.1-2.8 2.9-1 4.3 0z" fill="#c9c9c9"/><path class="st185" d="M318.2 151.2c1.2 0 2.2 1 2.1 2.2 0 1.1-.8 2-1.9 2.1s-2.1-.6-2.2-1.7v-.3c-.1-1.1.7-2.2 1.8-2.3h.2z"/><path d="M296.1 132.2c1.3.2 2.1.9 2.1 2.2 0 1.1-.8 2-1.9 2.1h-.3c-1 .1-1.9-.6-2-1.6v-.5c0-1.2.9-2.1 2.1-2.2z" fill="#dadada"/><path d="M346.6 132.2c1.6.2 2.4.9 2.5 2.2.1 1-.6 1.9-1.7 2h-.1c-1.1.3-2.2-.4-2.4-1.5v-.3c-.2-1.3.8-1.9 1.7-2.4z" fill="#e6e6e6"/><path class="st191" d="M295.1 153.2c-.4 1.4-1 2.4-2.3 2.4-1.1 0-2-.9-2-2v-.3c-.1-1 .6-2 1.7-2.1h.4c1.4.1 1.9 1.1 2.2 2z"/><path class="st135" d="M302.2 132.2c1.6.2 2.3 1 2.3 2.3 0 1.2-1 2.1-2.2 2.1s-2.1-1-2.1-2.2c.1-1.2.9-2.1 2-2.2z"/><path class="st201" d="M310.9 134.5c-.4 1.3-1.1 2.2-2.4 2-1.1-.1-1.9-1.1-1.8-2.2 0-.1 0-.2.1-.4.1-1 .9-1.8 1.9-1.7h.1c1.2.1 2.1 1.1 2.1 2.3z"/><path class="st142" d="M335 153.5c.8-1.9 2-2.6 4-1.8 0 1.4.9 3.2-1.1 3.8-1.6.5-2.3-.8-2.9-2z"/><path d="M329.3 151.8c2.6-1 3.9-.1 3.9 2.7-3.6 2.3-4.5.9-3.9-2.7z" fill="#e5e3e4"/><path class="st203" d="M315.1 119.4c1.5.5 2.2 1.3 2.1 2.6 0 1-.9 1.8-1.9 1.8-.2 0-.4 0-.6-.1-1-.1-1.7-1-1.6-2v-.2c.1-1 .9-1.9 2-2.1z"/><path d="M334.4 119.5c1.2.2 2 1.3 1.9 2.5-.1 1-1 1.8-2 1.8-1.3-.1-2.2-.7-2.1-2.2 0-1.2 1-2.1 2.2-2.1z" fill="#e6e5e5"/><path class="st78" d="M339.5 115.2c-.1 1.5-.6 2.5-2.1 2.4-1.1.1-2-.8-2.1-1.9v-.4c0-1.1.8-1.9 1.9-2 1.4-.2 2 .8 2.3 1.9z"/><path d="M311.9 117.6c-1.2 0-2.1-1-2.1-2.1v-.1c-.1-1 .7-1.9 1.7-2h.5c1.1 0 2 .8 2.1 1.9v.2c0 1.1-.9 2.1-2 2.1h-.2z" fill="#e4e3e3"/><path d="M311.7 104.5c-1-.3-2-.7-1.7-1.9.2-1.2 1.2-2.1 2.4-2.2 1.2-.1 1.6 1 1.6 2 .1 1.1-.8 2-1.9 2.1h-.4z" fill="#c7c6c5"/><path d="M330.1 87.3c2 .1 2.5 1.4 2.2 3-.4 2-1.9 1.1-3.1 1-.6-1.4-.3-3 .9-4z" fill="#d7d5d7"/><path d="M314.1 152.9c-.2 1.3-.7 2.4-1.8 2.2-1.3-.1-.9-1.4-1-2.3s.1-1.8 1.1-1.7c1 .2 1.6 1 1.7 1.8z" fill="#d4d6d6"/><path class="st47" d="M338.2 107.7c.8-.7 1.5-1.4 2.7-1.1-.3 1.3 1.2 2.9-.4 3.9-1 .6-1.7-.5-2.4-1.2l.1-1.6z"/><path class="st25" d="M281.2 145.5c-.4 1.4 0 2.9 1 3.9l-4.2-.1c1.1-1 1.5-2.5 1-3.9l2.2.1zM310.6 176.6c-1.3 1.8-1 3.4.8 4.8l-2.2.1c.2-1.7-1.1-3.9 1.4-4.9zM351.1 122.5c1 1.2 2 1.2 3.1 0v2c-1.5 0-3 0-3.1-2z"/><path d="M298 69.5c.4 3.1-1.4 3.3-3.7 2.8-.7-3.5.2-4.8 3.7-2.8z" fill="#e0dfdf"/><path d="M282.1 65.5c-3.4 2-4.4.5-4-2.9 2.8-1 4.4-.3 4 2.9z" fill="#dfdedf"/><path d="M288.4 65.5c-2.5 1.7-3.8.8-4.2-1.9 2.3-1.3 3.8-.9 4.2 1.9z" fill="#d1d2d2"/><path class="st2" d="M271.2 53.7l3.8-.3c.9.8 1.4 1.7-.4 1.6-1.1 0-2.3-.9-3.4-1.3z"/><path class="st30" d="M50.1 404.5c-.3-.2-1.8-.1-.6-.9 1-.6 2.7.2 3.6-1.1 1.4.2 3.2-.4 3.4 1.9 0 .4-.1 1.3-1.1 1.2-1 0-2 .6-2.4 1.5l-2.9-2.6z"/><path class="st25" d="M146.7 403.6l14.5-.1c-4.9 2.4-9.7.6-14.5.1zM133.6 402.5c4.2.4 8.5-1.3 12.6 1-4.3.3-8.5-.1-12.6-1z"/><path class="st30" d="M64.2 409c2.3-.9 4.1-.2 6.2 1-2.6 1.1-4.2-1-6.2-1z"/><path class="st25" d="M123.1 402.5c2.8-1.7 6.2-1.7 9 0h-9z"/><path class="st30" d="M66.1 411.6H71c-1.7.8-3.4 1.3-4.9 0z"/><path d="M320.7 221.6c.5 1.5.8 3.6-.9 3.8-2.3.3-.8-3.2-2.7-3.9l-.1-1c1.1-.8 2.1-.9 3 .2l.7.9z" fill="#30302f"/><path class="st59" d="M320 220.7l-3-.2c-.9-3.7 3.3-1.7 3.7-4.4 1.2 2.3-.4 3.3-.7 4.6z"/><path class="st92" d="M287.1 206.4l3-.8c.4.8.8 1.5-.4 2-1.4.7-2.1.1-2.6-1.2z"/><path class="st25" d="M311.9 253.6c6.2 0 12.4-.1 18.6-.1 1.3 0 2.7-.3 3.6 1-7.4-.1-14.9.6-22.2-.9zM279.1 252.5c5.3.3 10.8-1 16 .8-5.4.2-10.8.9-16-.8z"/><path class="st54" d="M250.9 289.3l4.1.4c-2.3 1-3.6 1.1-4.8-.3.2-.1.4-.2.7-.1z"/><path class="st25" d="M280.1 249.5c1.9-4.4 4.6.4 6.9 0h-6.9z"/><path d="M287.1 192.7l.5 9.6c-4.2-3.7-2.4-6.7-1.8-9.6h1.3z" fill="#e5e5e5"/><path class="st25" d="M279.1 198.5c1.7.1 2.5-1.2 3.6-2.5.1 4.1.1 4.1-3.6 2.5z"/><path class="st25" d="M279.2 198.5c-1-.2-2.4.4-2.5-.9s1-.8 1.6-.3c.3.3.7.7.9 1.2zM359.6 124.5c-.2.9-.9.9-1.5.9-1.1 0-1.9-.5-1.7-1.7 0-.3.1-1.6 1-.8.7.6 2 .3 2.2 1.6zM305.1 162.5c2 .2 2.2 1.4 1.7 3.1-1.4-.6-1.5-1.9-1.7-3.1z"/><path class="st30" d="M149.1 286.5c-1.2-1.6-4-2.6-2.2-5.6 2.5 1.3 2.2 3.5 2.2 5.6z"/><path class="st34" d="M253.1 72.3c-.7 1.8-3.1.5-4 2.1-1 1.3-1.6 2.8-2.8 3.9-1.4.6-2.8 1.4-4.4 1 0-1.7.6-3.5-.8-4.9l2.1-2.2c1.2-1 2.7-1.7 3.9-2.8h1.9c1.5.9 2.9 1.8 4.1 2.9z"/><path d="M266.4 95.5c0 1.7-1 2.3-2.4 2.6-1 .4-2.2-.1-2.6-1.1-.1-.3-.2-.5-.2-.8-.2-2 1.5-2.3 2.9-2.6s2 .7 2.3 1.9z" fill="#dadad8"/><path d="M249.3 94.8c.4-1 1.5-1.6 2.5-1.2 1.1.2 2.1 1 1.8 2.4s-1.1 2.4-2.7 2.1c-1.1-.3-1.9-1.1-1.6-3.3z" fill="#bbbcbc"/><path class="st68" d="M273.9 79.2c-1.3-.2-2.2-.8-2.4-2.2-.2-1.2.6-2.3 1.7-2.5h.2c1.2-.2 2.4.5 2.6 1.7v.6c0 1.2-.9 2.3-2.1 2.4z"/><path d="M288.9 76.8c-.3 1.5-1.2 2.3-2.4 2.3-1.2.1-2.2-.8-2.3-2v-.5c0-1.2.9-2.1 2.1-2.1h.1c1.6 0 2.2 1.1 2.5 2.3z" fill="#bebabc"/><path d="M257 64.2c0 1.2-.9 2.2-2.1 2.3-1.3.1-2.4-.8-2.5-2.1-.1-1.3.8-2.4 2.1-2.5 1.4-.2 2.2.9 2.5 2.3z" fill="#bbb"/><path d="M279.1 83.3c-.3 1.2-1 2.2-2.3 2.1-1.2-.1-2.2-1.1-2.1-2.3.1-1.2 1.1-2.2 2.3-2.1 1.4 0 2.1 1 2.1 2.3z" fill="#cecdcd"/><path d="M241 83.5c-.1 1.2-1.1 2-2.3 1.9h-.1c-1.2 0-2.2-1.1-2.2-2.3s1.1-2.2 2.3-2.2h.4c1.2.1 2.1 1.2 1.9 2.6z" fill="#c9c8c8"/><path d="M257.1 76.6c-.4 1.5-1.1 2.6-2.7 2.5-1.3-.1-2.3-1.2-2.2-2.5s1.2-2.3 2.5-2.2h.1c1.3.2 1.9 1.2 2.3 2.2z" fill="#bbbbbc"/><path class="st151" d="M252.1 102.5l.1-1c1.7-2 3.5-2.2 5.2 0-.5 2.2-1.6 3.6-4.1 2.8-1.1-.2-1.7-.7-1.2-1.8z"/><path d="M260.1 82.9c.1 1.2-.8 2.3-2 2.4-1.4.2-2.2-.8-2.4-2-.2-1.1.5-2.1 1.6-2.3h.4c1.2-.1 2.3.8 2.4 1.9z" fill="#dad8d9"/><path class="st71" d="M272.9 83.3c-.3 1.2-1 2.2-2.3 2.1-1.2 0-2.2-.9-2.2-2.1v-.1c-.1-1.2.8-2.3 2.1-2.3h.5c1 .2 1.9 1.2 1.9 2.4z"/><path class="st76" d="M251.2 85.4c-1.2-.1-2.1-1.2-2-2.4.2-1.2 1.3-2.1 2.5-1.9 1.1.1 1.9 1.1 1.9 2.2-.1 1.3-1.1 2.2-2.4 2.1.1 0 .1 0 0 0z"/><path class="st137" d="M276 90.5c-1.1 1-2.5 1.4-3.9 1.1-1.2-1.9-1-3.6 1.2-4.1 2-.5 2.9 1 2.7 3z"/><path class="st68" d="M237.8 63.7c-.3 1.3-1.3 2.3-2.6 2.4-1.5.3-2-1-2-2.1 0-1.2.8-2.1 2-2.2h.1c1.2-.1 2.2.7 2.5 1.9z"/><path d="M234.6 96c-.1 1.2-1.1 2.1-2.2 2-1.1 0-2.1-.9-2.2-2v-.1c-.1-1.2.7-2.2 1.9-2.3h.6c1.1.2 2 1.2 1.9 2.4z" fill="#c9c9ca"/><path d="M257.8 93.5c1.5.3 2.5 1.2 2.3 2.7-.2 1-.6 2.4-2.1 2.1-1.3-.3-2.5-1-2.4-2.6.1-1.3 1.1-1.9 2.2-2.2z" fill="#c8cccb"/><path class="st170" d="M246.3 78.4c-.7-2.4.2-3.8 2.8-3.9 1.1 1.1 1.9 2.3.7 3.8-1 1.2-2.3.6-3.5.1z"/><path class="st137" d="M282.3 77c-.3 1.2-1 2.2-2.4 2-1.1 0-2-.9-2-2v-.3c.1-1.3.9-2.2 2.3-2 1.3 0 2.2 1.1 2.1 2.3z"/><path class="st165" d="M267.5 74.6c1.2.1 2.1 1.2 2 2.4 0 1.1-.9 2-2 2h-.3c-1.1 0-2-.9-2-2v-.4c.1-1.2 1.1-2.1 2.3-2z"/><path d="M260.9 74.5c1.2-.1 2.2.8 2.3 2 .2 1.1-.5 2.2-1.6 2.4-.2 0-.4.1-.7 0-1.2 0-2.1-1-2.1-2.1v-.1c0-1.2.8-1.9 2.1-2.2z" fill="#c8c8c7"/><path class="st134" d="M292 70.7c-.2 1.2-1.3 2.1-2.5 1.9-1.1 0-2-.8-2-1.9v-.5c0-1.1.9-2 2-2h.4c1.2.3 2.1 1.3 2.1 2.5z"/><path d="M272.9 70.2c-.4 1.6-1 2.6-2.4 2.4-1.1 0-2.1-.9-2.1-2v-.3c0-1.2 1-2.1 2.1-2.1h.2c1 .2 1.9 1 2.2 2z" fill="#ccc"/><path class="st76" d="M266.4 70.4c.1 1.2-.8 2.2-2 2.3h-.1c-1 .1-2-.6-2.1-1.7v-.4c-.1-1.1.6-2.1 1.7-2.2h.3c1.1-.1 2.1.8 2.2 2-.1-.1 0-.1 0 0z"/><path class="st201" d="M253.1 72.3c-2.6.7-3.9-.3-4.1-2.9.7-1.2 2.2-1.6 3.4-.9.1.1.3.2.4.3 1.3 1 .7 2.3.3 3.5z"/><path d="M248.4 61.8c1.2.1 2 1.1 2.1 2.3.1 1.1-.6 2.1-1.7 2.2-.3 0-.5 0-.8-.1-1.1-.1-1.9-1.1-1.8-2.2v-.2c0-1 1-1.9 2.2-2z" fill="#cac9c9"/><path d="M257 89.5c-.4 1.5-1.2 2.4-2.5 2.2-1.2 0-2.1-1-2.1-2.1v-.2c.1-1.2 1.1-2.1 2.3-2 1.4 0 1.9 1.2 2.3 2.1z" fill="#d8d8d8"/><path d="M245 85.5c-1.2 0-2.1-.9-2.2-2v-.2c-.1-1.1.7-2.1 1.8-2.2h.4c1.2-.1 2.2.9 2.2 2v.2c.1 1.2-.8 1.9-2.2 2.2z" fill="#d2d3d3"/><path d="M241.1 74.5c4.3 1 3.8 2.7.8 4.9-2.5-1.3-3-2.9-.8-4.9z" fill="#d9d7d7"/><path d="M263.2 89.4c.1 1.2-.8 2.2-2 2.2h-.2c-1 .1-2-.7-2.1-1.7-.3-1.1.4-2.2 1.5-2.4.1 0 .2 0 .4-.1 1.3-.2 2.1.7 2.4 2z" fill="#dddbdb"/><path class="st191" d="M247.1 69.5c.3 3.2-1.4 3.4-3.9 2.8-.7-4 .4-5.1 3.9-2.8z"/><path class="st203" d="M257.9 68.2c1.1.4 2.2.9 2.1 2.3 0 1.1-.8 2-1.9 2.1h-.3c-1.1.1-2-.7-2.1-1.7v-.4c0-1.2 1-2.2 2.2-2.3z"/><path class="st191" d="M285.4 70.2c0 1.3-.5 2.3-1.9 2.3-1.1.2-2.1-.6-2.3-1.6v-.3c-.1-1.4.8-2.1 2-2.3 1.3-.2 1.9.8 2.2 1.9z"/><path class="st142" d="M262.1 82.9c.1-1.1 1.1-2 2.2-1.9h.2c1 .1 1.8 1 1.7 2 .1 1.1-.7 2.1-1.8 2.2h-.4c-1.2 0-1.9-.9-1.9-2.3z"/><path class="st85" d="M276.8 68.3c1.2 0 2.2.9 2.2 2.1.1 1.1-.7 2-1.7 2.1h-.5c-1 0-1.9-.8-1.9-1.8-.2-1.2.6-2.2 1.9-2.4z"/><path d="M244.1 89c-.2 1.2-1.1 2.2-2.3 2.4-1.5.3-1.9-.9-1.9-2.1-.1-1 .7-1.9 1.7-2 1.3-.1 2 .8 2.5 1.7z" fill="#d8d6d7"/><path d="M263.2 64.2c0 1.1-.8 2.1-2 2.1h-.1c-1.1.1-2.1-.7-2.2-1.8v-.3c-.1-1 .6-2 1.6-2.1h.4c1.4-.1 2.1.7 2.3 2.1z" fill="#dcdbdb"/><path d="M269.6 89.3c-.2 1.6-.9 2.4-2.2 2.3s-2.2-.7-2.1-2.1c0-1.1.8-2 1.9-2.1h.3c1.3 0 1.7 1.1 2.1 1.9z" fill="#dfe1e1"/><path d="M248.6 87.5c.9 0 1.6.6 1.8 1.4.4.9 0 2-1 2.4-.2.1-.4.1-.6.1-.9.2-1.7-.1-1.7-1.2-.2-1.1.4-2.2 1.5-2.7z" fill="#e1dedf"/><path d="M249.3 106.7c.9-.2 2.1-1 2.4.4.2 1.1-.8 2.5-2 2.2-1-.3-.5-1.7-.4-2.6z" fill="#b7b4b8"/><path class="st118" d="M252.1 102.5l1.2 1.8c-.6.9-1.6 1.6-2.3.6-.6-.7.2-1.8 1.1-2.4z"/></svg>