<svg xmlns="http://www.w3.org/2000/svg" viewBox="0 0 835.54 848.67"><defs><style>.cls-1{fill:#fff;}.cls-2{fill:red;}.cls-3{fill:#fc0606;}.cls-4{fill:#0b0b0b;}.cls-5{fill:#f90d0d;}</style></defs><title>back</title><g id="图层_1" data-name="图层 1"><path class="cls-1" d="M-418.86,1773.67m0-1920h1349M692.23,396.5,730,401.72c-12.82-3.9-25-6.65-37.79-5.22-3.74-1-7.42-2.35-11.22-2.86-10.16-1.34-20.37-2.31-30.56-3.42l-.14,1.38c.64.09,1.28.19,1.92.26ZM174,143.86l.1.12c-1.32-8.09-9.5-17-17.43-17.79-3.28-.32-7.91.59-9.95,2.78-5,5.36-8.9,11.72-13,17.83-2.06,3-3.65,6.4-5.46,9.61l1.12,1,6.87-3.11c-.58,2.57-.72,4.35-1.38,5.91-2.76,6.59-6.41,12.9-8.3,19.72-1.74,6.28-1.9,13.05-2.24,19.64-.15,3,.95,6,1.53,9.24,3.72-1.14,5.7-4.32,6-8.81,0-.19-.41-.41-.73-.71l-4.57,2.53,7.48-25.5,6.29-1.08-4.62-3.1,3.29-8.21,8.38,9.64L131.81,206l1.76,1c9.49-7.14,10.9-19.42,17.32-28.16l5.22-3.22,6,8.57c-3.39,2.83-6.89,5.21-9.62,8.28-1.24,1.39-1.93,4.83-1.06,6.12,1.08,1.6,4.12,2.85,6.16,2.65,7.55-.75,12.39-5.59,16.53-12.73l-13.58,4.29c2.3-3.45,3.41-8.32,9.26-5.93,1.21.49,3.48-1.61,6.07-2.93l-5.88-4,2.55-5.83-1.23-1-3,5.62-3.8-7.37c3-.55,5.7-.74,8.18-1.57s4.72-2.28,7.44-3.65l-6.83-4.33c1-7.1,5.41-11.34,10.43-15.38,5.22-4.21,5.65-4.5,10.5.24a16.07,16.07,0,0,1,3.23,3.78,18.23,18.23,0,0,1,1.16,4.4c3.53,2.31,7.46,4.35,10.73,7.16s6,6.67,9.2,9.85c1.42,1.43,3.62,2.1,5,3.57,4.35,4.73,12.15,6.95,11.47,15.66,3.49-1,4.5-3.47,4.07-6.46-.34-2.36-.68-4.85-4.34-5-1.66-.07-3.82-1.69-4.74-3.21-2.39-4-4.22-8.28-7-13.88,5.42,1.82,9.67,3.38,14,4.65a19.42,19.42,0,0,0,5.27.44c1.62,0,3.32-.6,4.84-.28,12.86,2.77,25.71,5.61,38.52,8.6,9.89,2.31,19.7,5,29.58,7.33,11,2.62,22.1,5.06,33.15,7.58a3.87,3.87,0,0,0-2.53-1.83c-21.8-5.48-43.57-11.09-65.43-16.29-4.49-1.07-6.79-2.34-7-7.5-.34-7.13-2.64-8.91-9.77-9.28-4.48-.23-9,.16-13.48-.17a7.7,7.7,0,0,1-4.61-2.42c-4.92-5.4-9.6-11-14.37-16.56l-1,.66,3,10.1c-5.44-1.6-10.25-2-14.51,2.33-1.79,1.81-4,1.51-5.72-1.13-3.79-5.67-8-11.08-12-16.61-2.3-3.18-3.63-2.66-6.39.22-4.59,4.78-10.25,8.54-15.68,12.91l-1.48-3.43Zm23.65,399.09c-1.34,1.61-2.73,3.19-4,4.85a97.92,97.92,0,0,0-7.32,9.87c-.61,1,.22,3.59,1.23,4.65.58.61,3.07,0,4.31-.73,4.66-2.74,9.16-5.77,13.72-8.67,2.15-1.37,4.32-2.7,7.51-4.68-9.84-1.43-16.36,2.57-22.73,7.43a70.73,70.73,0,0,1,7.89-9c2.25-2.2,4.78-4.13,6.92-6.42.68-.73,3.38-2.49-.23-3.31l5-6.21c1.53,3.28,3.26,5.23,3,6.91-.31,2.36-2.08,4.53-3.23,6.79l-1.91-1.8,12,4.76c-18.25,11-20.52,27.45-18.19,45.71.19.76-.41,1.07-.89,1.51-3.06,2.8-1.73,5.86.11,8.41.26.37,3.93-1.38,5.76-2.56a65.71,65.71,0,0,0,5.78-4.54c1.77-3.87,3.32-7.19,4.8-10.55,1.67-3.81,3.45-7.58,4.85-11.49,2.94-8.22,2.85-8.25,5.85-9a16.34,16.34,0,0,0-.42,2.45c-.14,11-.36,21.92-.24,32.87,0,1.37,1.91,2.71,2.93,4.06,1.43-1.11,3.84-2,4.1-3.38a39.72,39.72,0,0,0,.43-10.76c-.64-7.4-1.67-14.76-2.54-22.14l2.28-.5c.74,1.93,2,3.82,2.14,5.81q1.05,11.43,1.47,22.92c.06,1.67-1.09,3.39-1.71,5.07-.37,1-1.38,2.53-1.07,2.87a5,5,0,0,0,3.28,1.61c4.87-.07,7.15-2.7,6.59-7.82-1.11-10-2.44-20-3.72-30.37h5.73c1.22,3,2,6,3.53,8.51,2.21,3.65,4.51,7.46,7.59,10.32a4.67,4.67,0,0,0,8-2.61,24.2,24.2,0,0,0-2.54-14.52c-1.65-3.07-2.42-6.61-3.42-9.47,10.77,6.7,21.37,13.52,32.2,19.95,7.51,4.46,11.86,11.14,12,19.4A39.27,39.27,0,0,0,311,621.29c-7-3.15-13.76-6.57-20.45-10.1a5.09,5.09,0,0,1-1.88-2.1,74.58,74.58,0,0,1-4.69-9.66c-.46-1.3.46-4.45,1-4.53a22,22,0,0,1,7.92.46c1.45.36,2.48,2.21,3.92,3,.77.4,2-.1,3-.2-.4-1-.6-2.58-1.24-2.78-4.25-1.31-8.54-2.85-12.92-3.23-3-.26-5.4,1.47-3.6,5.53,1.38,3.11,2.11,6.51,3.42,10.7l-7-5.4-1.1,1c2,2.93,3.43,6.64,6.12,8.63a216.24,216.24,0,0,0,22.07,14.25c8.52,4.8,17.78,3.1,26.62.94,2.68-.65,4.67-4.11,7-6.28l-2-1.36.11.11,3.71-4.35,3.95,2.64a101.94,101.94,0,0,0,6.39-8.28c1.84-3,3.18-6.23,4.73-9.37.76-1.52,1.23-3.3,2.33-4.52,4-4.38,5.74-9.39,4.65-15.17-.86-4.6-3.69-5.58-7.54-3.24l2.64,5.5c-4.64-.36-5.85-2.64-7-5.94a43.37,43.37,0,0,0-6.56-11.59c-1.49-1.94-4.39-2.8-7.55-4.69l.75,4.19-1,1c-2-1.78-4.15-3.49-6.11-5.35-1.08-1-1.79-2.43-2.88-3.44-7.92-7.34-15.93-14.57-23.81-21.94-2.57-2.4-4.85-5.11-7.55-8,15.66-3.14,30.65-6.08,45.6-9.21a38.69,38.69,0,0,0,9.4-3.17c2.07-1,3.63-3.12,5.51-4.81-4.29,1.29-7.93,2.89-11.7,3.37s-7.77-.31-11.65-.21c-2.46.06-5,1.38-7.35,1a71.43,71.43,0,0,1-32.55-13.11,5.48,5.48,0,0,1-1.9-3.17c-1.61-9.16-3.45-18.31-4.41-27.54-.57-5.46-4.15-8.3-7.86-11.64l5.14,33.23-1.56.41-5.44-6.31-1.35.77,5.4,11.67a89.5,89.5,0,0,1-8.46,6.82,6.09,6.09,0,0,1-5.07.12,59.43,59.43,0,0,1-9.6-5.83c-4.39-3.23-10.21-5.21-10.94-11.94-.15-1.42-1.16-2.75-1.78-4.12L245,486c-7.23.51-5.37,6.91-7.57,10.86l-3.35-4-4.4,14-6.94-3.24,6.55,7.18-.89.87-16.93-7.22-.93,1.61L225,521.83l-7.73,4.34c-21.59-19.29-45-34.7-69.22-48.88,8.68,11,19.83,19.15,30.79,27.56,2.62,2,4.4,5.13,6.56,7.75l4.2,5.1,1.22-1-3.6-5.63,26.72,14.62-.39,1.54c-11.9,4-21,11.48-28.71,20.75l1.37,2Zm344.3,5.51c-2.34-3.82-4.76-7.59-7-11.46-6.27-10.75-12-21.85-18.86-32.21-4.73-7.15-11-13.3-16.56-19.9l-.94.81,23.36,35.64-.42.13-44.94-42.62-.72.77,1.45,3.12C456.3,468,444,446.32,424.75,431.8l30.5,35-.48.57-16-8.79-.6,1.15c1.84,1.1,3.77,2.07,5.5,3.33,8,5.86,16.63,11.11,23.84,17.86,10.07,9.43,18.74,20.34,28.64,30,11.73,11.43,16,26.47,22.09,40.78l-5.94,3.91L506,550.15l-.73.57,5.1,8.25-7.22,3.49-29.81-22.85.55-.84,19.87,9.62a27.93,27.93,0,0,0-7.7-6.25c-24.16-12.66-48.65-24.74-72.47-38-9.51-5.3-17.6-13.14-26.34-19.83L388,483c8.72-1.07,17.44-2.08,26.14-3.25a57,57,0,0,0,9.24-2c1.22-.38,2.11-1.82,3.16-2.77-1.09-1.12-2-2.89-3.3-3.21a27.5,27.5,0,0,0-8.82-.89c-8.24.7-16.46,1.79-25.33,2.79l4.27-6.31-.68-.6-4.79,2.27c9.46-14.39,15.52-28.67,14.65-45.15-3,13.24-7.65,25.68-15.81,36.2-.49-21.63-.86-43.18-7.41-64.22,9.42,3.18,12.3,9.82,11.79,18.78-.21,3.74.57,7.54.9,11.31l1.68-.09V408.43c2,1.06,4,2.76,4.7,2.35,4.38-2.76,5.49,1,7.16,3.32,3.57,5,6.88,10.22,10.48,15.22,1.07,1.49,2.76,2.53,4.16,3.78l1-.62-1.63-10.56,4.69-.81c-.46-1.63-.63-3.43-1.45-4.85a8.49,8.49,0,0,0-3.28-3c-8-4.3-9.76-13.25-15.86-19.83,17.56,3.87,30.5,12,36.54,28.71a21.65,21.65,0,0,0,2.74,5.32c3.16,4.36,6.51,8.57,10.59,13.89,1.6-9.37-7.43-12.38-8-20.06l40.22,30.93a74.23,74.23,0,0,0-34.17-29.08c-7.52-3.13-10.83-8.79-14-15.15l1-1.27,26,19.25c-1.42-3-3-6.39-5.59-8.24-7.56-5.37-15.56-10.12-23.35-15.18-2.53-1.64-4.92-3.5-7.38-5.26,3.19-.85,5.77-.43,8.36-.37q52.7,1.27,105.41,2.48a24.67,24.67,0,0,1,5.81.83c5.37,1.46,10.6,3.83,16.05,4.48,8.65,1,17.43,1,26.59,1.37-3,3.09-2.06,4.64,1.34,5.25a32.59,32.59,0,0,0,4,.49c34.94,1.91,68,11.07,99.27,26.49,8.94,4.41,18.77,8.47,25.61,15.27,7.85,7.8,16.66,13.54,25.69,19.41,4.81,3.13,9.14,7,13.57,10.71,9.08,7.57,18.05,15.28,27.15,22.84,2.29,1.9,4.94,3.1,7.55.38s4.9-5.27,7.37-7.94c5.69,3.1,10.86,6.13,16.22,8.77,3.62,1.79,7.38,2.92,11.26-.07,2.55-2,5.57-3.3,8.74-5.14-1.62-9.35-6.29-17.84-12.86-25C811.1,462,796.3,446.89,781.65,431.65c-.72-.75-2.44-1.69-2.9-1.37-3,2-4.87-.46-7.18-1.37-7-2.74-13.82-5.81-21-7.93-16.73-5-34.08-7.91-49.93-15.7a14.27,14.27,0,0,0-4.83-1.17c-21.55-2.12-43.1-4.26-64.67-6.24-9.61-.88-19.07-1.73-28.31-5.23-11.18-4.24-23.1-5.19-35.21-4.69L591,394a32,32,0,0,1-9.78,1.7Q561.12,396,541,396c-19.5,0-39,.11-58.49-.27-17.15-.34-34.3-1.13-51.42-2.12a14.78,14.78,0,0,1-8.84-3.55c-19.45-19-38.61-38.19-57.87-57.34-1.1-1.1-2.3-2.1-3.46-3.14l-1.2,1.19,62.06,65.59c-6.48-2.75-11.8-4.62-16.74-7.22a46.75,46.75,0,0,1-9.28-6.95c-3.44-3.12-6.33-6.87-9.84-9.9-3.33-2.87-5-2.05-6,2.66l-3.05-4.19Q359.76,347.36,342.65,324c-3.4-4.65-8.68-8.3-7.6-15.36.21-1.38-1.66-3.1-2.65-4.62-.62-1-1.45-1.77-2-2.74-3-4.89-5.89-9.85-8.94-14.71-3.85-6.11-8-12.07-11.72-18.23-4.24-7-7.73-14.42-12.45-21-5.79-8.07-12.52-15.47-18.85-23.16,11.38,5.27,20.55,12.95,26.65,24.3-1.19-4.74-2.59-9.39-5.18-13.25s-6.33-6.9-10.23-11L304,226.74l.53-1.63c-7.29-2.51-14.59-5-21.86-7.54a69.74,69.74,0,0,1-9.12-3.57c-7.39-3.84-14.64-7.95-21.6-11.76,2,2.36,4.42,5.23,6.86,8.05,4.23,4.89,4.24,4.88-2.16,9.22,3.41,1.25,6,2.21,8.62,3.15,1.93.7,4.53.8,5.71,2.14,15.35,17.59,30.54,35.34,40.57,56.72,2.55,5.43,4.58,11.1,6.84,16.67l.53-.17L314.15,281a59.37,59.37,0,0,1,11,23.65c.57,2.65,1.29,5.27,1.76,7.19l-2.7,9.46,9.28-1.51.68-1.63,42,57.26-1.14,1c-6.6-2.57-7.46-10.88-14-14.56l5.5,10.79c-2.53-.93-4.2-1.5-5.83-2.15-12.37-4.94-24.73-9.94-37.13-14.82a35.52,35.52,0,0,0-5.69-1.24l-.59,1.7a65.29,65.29,0,0,0,6.65,3.81c9.33,4,18.85,7.61,28,11.91,7.67,3.59,17.58,3.56,21.82,14.44l1.73-5c6.57,1.17,7.37,6.53,9.54,10.81l-.9,1.18L374.88,388c.38,1,.71,1.81,1.05,2.65a24.92,24.92,0,0,1,1.32,3.23c6,23.91,7.59,47.72-2,71.15-1.13,2.74-.73,4.52,1,6.71,7.13,8.81,12.25,19.4,22.49,25.65l-5.39-2.53c5.73,11.4,7.76,13.28,17.95,18.4,18.3,9.18,38.29,15.18,54.62,28.49L461,534a9.19,9.19,0,0,1,2,.75c17.54,14.93,37.61,26.83,53,44.39,3.32,3.8,6.92,7.36,10.49,11.14l-13.09-3.47-.71,1.24c2.34,2,4.45,4.35,7.07,5.84,6.94,3.94,13.81,8.21,21.22,11,15.63,6,27.07,16.55,36.35,30a75.9,75.9,0,0,0,5.57,6.34c3-9.35-2.41-14.86-5.82-21.31,21.78,8.58,43.18,17.71,64.71,26.54a33.84,33.84,0,0,1,16.76,14.92,54.66,54.66,0,0,0,19.82,19.92L665,661.57c7.07,3.76,14.19,6,22.19,5a47,47,0,0,0-9.83-5.69c-12.6-5.17-22.61-13.64-31.18-24a277,277,0,0,0-81.36-66.84c-2.2-1.21-4.58-2.08-6.88-3.11,28.91,20.42,57.29,41.14,81,69.37l-63.47-26.9.25-.86,21.54,3.83a15.66,15.66,0,0,0-6.3-3.07c-10.65-2.69-21.23-5.79-32-7.79s-16.75-11.1-25.44-16.26c1.54-.36,2.75.25,3.93.23a15.25,15.25,0,0,0,3.75-1c-1-.78-2-2.24-3-2.23-5.72.06-6-3.15-4.91-7.92,12.61,6.47,22.89,15.49,33,24.94-4.56-6.9-9-14.09-14.91-19.56-7.66-7-9.56-16.79-14.59-25.21a31.81,31.81,0,0,1,5.89,1.33c1.89.46,3.84.64,5.77.95a42.43,42.43,0,0,0,6.52,2c4.94.7,10,.63,14.87,1.69a34.38,34.38,0,0,1,11.86,4.66,83.78,83.78,0,0,1,14,12.05A146.29,146.29,0,0,1,610,595c1.22,1.82,1.76,4.36,4,3.21,1.75-.9,3.68-3.73,3.52-5.53a16.45,16.45,0,0,0-3.44-8.62c-4.76-5.75-10.07-11-15.27-16.41-.8-.83-2.22-1.05-3.35-1.56l1.44-1.79L631.2,571c-9.78-7-19.79-12-30.62-13.44-15.33-2.09-27.38-9.29-38.15-19.66a82.91,82.91,0,0,0-9.11-7.79c-3.71-2.66-5.21-5.9-5.35-10.49-.45-15.26-6.81-27.11-20.66-34.58-7.33-4-14.33-8.51-17.64-16.79a8.72,8.72,0,0,1-.32-1.78L508,467.78l4.24,7.22-.69.48-54-31.9a24,24,0,0,0,7.24,8.23c8.87,5.9,17.92,11.53,27,17.08,10.72,6.53,21.59,12.84,32.35,19.31,3.71,2.23,7.38,4.54,10.89,7.07,1.24.89,2.63,2.48,2.75,3.86.63,7.57.7,15.18,1.33,22.75.71,8.42.5,17.22,5.85,24.44,2.41,3.26,4.26,6.4,3.77,10.55l-5-5.52ZM177.12,434.92c-.12-1.33-1.34-4.32-.37-6.17,1.77-3.38,5.13-1.55,8-.85,1.76.42,3.72,0,5.58,0a33.29,33.29,0,0,1,4.88-.21q12.9,1.49,25.77,3.2c5.6.74,12.32,0,12.21,8.81,0,.31,1.34.63,2.34,1.07l-15.67,3.39c4.74,1.49,8.08,2.33,11.25,3.58,7.37,2.9,8.35,6.35,3.65,12.68l5.14-.3c5.13-8.67.2-17.68,1.51-26.39.07-.48-.56-1.12-1-1.61q-4.46-5.57-9-11.12l1.94-.44c.65-1.71,2.29-3.81,1.79-5.07-3.67-9.38-6.36-19.33-15.18-25.81a77.26,77.26,0,0,1-22.31-25.84c-2.31-4.25-5.42-8.07-8.93-13.2L201.13,355l.69-1.31c-5.2-3.13-10.43-6.2-15.57-9.42a24.53,24.53,0,0,1-5.4-4.14c-10.21-11.42-20.12-23.11-30.49-34.39-5.32-5.78-11.39-10.88-17.12-16.29l.46-.78,51.84,16.1c-7.8-3.94-16-6.73-24-9.87-16.59-6.47-34.89-8.58-49.42-20.37-5.57-4.52-8.81-9.63-6.88-17.33l3.5,1.54.61-1.07-2.24-3.14c2.14-14.2,4.66-27.19,11.89-38.64l2.45,1.22,1.13-1c-2.18-3.19-4.4-6.35-6.54-9.57-.87-1.31-2.44-2.83-2.27-4.06,1.89-13.43,1.25-27.65,10.71-38.23l-4.2-.82-2.56,3.34c-.7-5-1.67-9-7.93-11.48,4.36,8.87,2.7,16.45.07,24.12l-10.07-6.7-.65.91,5.67,8.74-11.68-.54c2.92,9.28,10.44,7.2,16.55,8.8l-1,3.72c-4.35-1.36-8.21-2.42-12-3.77-3.95-1.42-8.79-2.08-8-8.57l-1.7.54.56,7.34a9.35,9.35,0,0,1-2.4-4.45c-.44-1.72-.6-3.5-.88-5.25l-1.57.28v4.76l-3.52-5c-2.3,8.06,1.16,14.72,8.9,18.13,1.91.84,3.73,1.86,4.43,2.21L105,197.82c-2,5.48-3.13,9.9-7.95,10.7-3.5.58-7.22,0-10.82-.29-.79-.07-1.65-1-2.22-1.75a39.19,39.19,0,0,1-3.37-5c-2.29-4.14-4.24-8.47-6.69-12.5-2.67-4.38-6.26-8.25-8.53-12.81C62.32,169.9,60,163.16,57,155.6v12.93c-2.08-1.08-3.88-2.83-5.47-2.66-3.85.42-4.62-2.07-5.24-4.61a20.28,20.28,0,0,1,4.42-18.71,97.82,97.82,0,0,1,10.11-9.63c2.24-2,4.73-3.69,7.15-5.45,2.26-1.65,4.59-3.21,6.89-4.82-16.52,5.68-30.13,14.7-36.68,33.06l-4-8.92,2.49,14.26-1.28.16L33.8,155l-1.42.19c0,1.88-.67,4.14.13,5.56,2.36,4.21,0,6.81-2.54,9.77L26.59,169c-.13,6.48,4.95,13.46,11.48,14.92-.9-2.21-1.31-4.05-2.3-5.49-2.11-3.07,0-3.46,1.16-3.9,2.22,8.89,4.3,17.57,6.6,26.18a80.47,80.47,0,0,0,3.74,10.86,29.31,29.31,0,0,0,4.49,7.6c.86,1,4.29,1.49,4.57,1,2.26-3.8,5-1,7.49-.87s5.12.81,7.66.71c5.17-.19,10.32-.73,15.48-1.13l.2,1.28-6.5,2.36,9.77,5.4-.5.93-3.62.29-.14,1.58c2,.2,4.75,1.32,5.8.43,4.49-3.84.7-7.78-.84-11.87,5.11-.44,9.69-6.83,15-.77,1.14-4.8,1.57-4.76,7.33.23-3.16,9.11-6.12,17.89-9.29,26.61a19.64,19.64,0,0,1-2.62,4.2c-.27,2.71.1,5.17-.82,7-3.74,7.3-3.05,14.88-1.47,22.34.53,2.49,2.85,5.21,5.1,6.59,5.09,3.1,10.65,5.42,16,8.05l-.24,1.45c-4.53,1.43-9.16,2.61-13.53,4.42-1.48.61-2.32,2.78-3.45,4.24a42.41,42.41,0,0,0,4.42,3.16c.92.51,2.38.13,3.22.7,7.83,5.32,16,10.27,23.27,16.27q32.22,26.48,63.79,53.75c3.52,3,5.83,7.43,8.8,11.11.83,1,2.78,2.67,2.94,2.53,2.63-2.26,3.94.08,5.28,1.5,3.87,4.12,8,8.11,11.26,12.65a30.93,30.93,0,0,1,4.52,10.39c.85,3.31.56,6.91.83,10.38.08,1.09.34,2.17.54,3.46-8.38-1.43-16.31-3.39-24.35-4-9.74-.75-20.06-2.27-29.18.15-6.74,1.79-13.07,2-19.66,2.33l-4.43.21L159,431c-18.68-.37-23.53,2.68-19.28,12.18,1.57-7.19,6.78-8.27,12.61-8.29C160.86,434.9,169.44,434.92,177.12,434.92ZM720.78,665.25c-8.63-7.85-16.83-16.12-25.88-23.31-7.92-6.3-16.81-11.38-25.25-17-1.5-1-3.41-1.94-4.19-3.41-7-13.19-17.31-23.6-28.32-33.35-5-4.46-10.61-8.29-15.94-12.4,10.52,13.71,21.69,26.5,32.82,39.32,4.21,4.85,7.93,10.21,12.61,14.53s10.66,7.35,15.51,11.58c10.52,9.16,20.73,18.69,31,28.16,3.89,3.59,4.64,7.78,1.46,12.27l-11.23-4.83-.63,1.07,9.45,7.08c-5.88,5.89-12.36,6.69-19.29,1.46,7.39,9.92,11.45,11.18,16.88,5.8,4.7.68,7.17,7.95,12.94,4l3.46,6.25c6.6-7.08.42-14.13.8-19.71l6.49-2.32c-1.17-2-2-4.32-3.6-5.94-1.17-1.2-3.25-1.51-4.93-2.23-.86-.37-1.71-.77-2.57-1.16,8.65.06,16.69,1.8,23.53,7.07,4.74,3.66,9.37,7.42,5.54,14.44A6.76,6.76,0,0,0,751,695c-1.26,12.08-2.6,24.16-3.66,36.26-.13,1.51.76,3.94,1.89,4.5s3.69-.06,4.8-1.07c1.57-1.42,2.39-3.68,3.24-5.1,4.19,3.82,8.36,7.57,12.47,11.38a17,17,0,0,1,2.95,3.32c8.18,13.13,14,27.18,16.37,42.56.91,6,1.74,12,2.74,18.89,5-6.18,7.06-12.58,5.61-19.24-2.18-10-5.38-19.84-8.29-29.7-.93-3.16-3.9-5.78-1.51-9.7.58-.95-.63-3.68-1.78-4.84a116.56,116.56,0,0,0-9.06-7.7c-2.94-2.41-6.37-4.4-8.78-7.25-6-7.15-12.34-14.32-10.46-24.93.53-3-.3-6.43.84-9.07,2.14-5,2-9.55-.7-13.85C751.36,669.28,742,663.69,730,663.35,726.73,663.25,723.42,664.67,720.78,665.25ZM470.18,259.34c1.88-3.66,5.2-7.17,4.9-10.34-.35-3.78-4.6-6.06-9-6.31a13.39,13.39,0,0,0,3.37,4.83c2.85,2.56,2.44,4.75-.37,6.94a25.41,25.41,0,0,1-3,2.57c-2.5,1.36-2.68,3.09-2.19,5.77.29,1.58-1,3.73-2.12,5.14-.42.52-2.85.08-3.82-.64-4.5-3.35-8.8-7-12.67-10.06L450,238l14.05,14.82,1.34-1c-2.84-3.86-5.24-8.17-8.62-11.48-4.88-4.79-10-9.23-11.81-16.16,0-.09-.46-.08-.93-.15l.79,5.56c-13.45-9.56-26.4-18.42-41.71-23a21.38,21.38,0,0,0,5.21,4.08c11.4,7.18,22.83,14.33,34.17,21.6,1.31.84,3,2.36,3.07,3.62.2,6.37-1,12.4-5.42,17.06C423,244.09,408.39,231.81,389.38,228l47.21,27.13-.44,1.51c-5.57,1.71-10.59,6.8-17.32,1.59-.92-.71-4,1.36-6.06,2.14.89,1.39,1.49,3.5,2.74,4,2.68,1.11,5.91,2.38,8.55,1.83,6.17-1.27,12.13-3.56,19.36-5.81,6.55,5.3,13,13.52,22.75,17.39,1,.39,1.68,1.58,2.45,2.45,1.44,1.62,2.59,3.64,4.33,4.79,1.39.92,4.6,1.6,5,1a9.35,9.35,0,0,0,1.68-6.15c-.2-1.44-2.29-2.64-3.61-3.89-1.57-1.48-3.21-2.89-5.31-4.77,16.58-2.86,32-3.23,47.31,1.6l-7.22-2.67.41-1.28,7.44,1.73L511.32,260l17.74,2.38,0,1.56-3.37,2.58c5.06,2.35,7.1-1.12,7.79-4.34.25-1.18-3.32-3.62-5.52-4.74-1.65-.84-3.91-.61-5.9-.65-3.91-.08-7.82,0-11.43,0l3-8.11,12.72-5c-7.91-3.81-15.18-1.71-22.16.64-5.89,2-11.49,4.12-17.79,2.2-.78-.24-1.81.33-4.16.83,8.82,1.87,15.58,8,24.15,1.83L504,255.81l-5.47-1.74-.43.76,10,8.83c-7.33,0-13.87.6-20.24-.17S475.36,260.6,470.18,259.34ZM301.39,443.4l1.14-1.29c-10.52-8.63-21.12-17.17-31.48-26a14,14,0,0,1-3.87-6.52c-4.51-15.46-8.78-31-13.1-46.52-.34-1.24-.44-2.54-.78-3.78-.73-2.71-.73-6.22-2.48-7.95-5-4.93-10.68-9.14-16.1-13.63L233.12,339c1.81,2.68,3.5,5.45,5.46,8,2.39,3.14,6.34,5.75,7.3,9.22,4.38,15.85,8,31.92,11.76,47.94a34.7,34.7,0,0,1,1,8.41c-.22,13.67.54,27.12,5.44,40.14,4,10.66,7.46,21.53,11.16,32.31,4-22.14.07-43.39-6.95-64.54ZM415,581l.74-.34c-.64-1.47-1.25-2.94-1.91-4.4-12.35-27.41-27.43-53.31-43.62-78.59-2.72-4.25-2.27-7.07,1.43-9.49l24.17,17.44.83-1.1c-6.43-7.34-11.19-16.44-22.45-19.33l3.47-3c-14-17.77-16.41-19.93-23.63-21.71l14.29,14.61-8,10.41-1.35-.83c.63-1.34,1.73-2.66,1.77-4,.05-1.59-.31-3.79-1.37-4.68-2.35-2-5.37-3.12-7.9-4.93-4.63-3.31-9.11-6.86-14.74-11.14a20.4,20.4,0,0,0,1.06,2.68c5.1,7.16,11.12,13.92,9.64,23.78-.13.87.55,1.89.93,2.81,3.07,7.41,2.91,7.16-3.86,12-1.66,1.17-2.77,4.71-2.3,6.73.32,1.38,3.8,2.71,5.91,2.78,1.61.05,4.5-1.69,4.72-3,1.33-7.72,8.47-9,12.83-13.79ZM719.57,722.2l-1.27,1c.91,1.32,1.75,2.7,2.73,4q16.78,21.75,33.57,43.51c1.08,1.4,2.54,3.31,2.33,4.76-.94,6.48,2.6,11.46,4.61,17a25.46,25.46,0,0,1,1.4,12.87c-1.48,7.5.31,10.37,8,9.5,2-.23,3.93-1.36,6.09-2.14.18.13.59.4,1,.7,6.92,5.34,9,4.53,10.26-4,.22-1.48,1.08-3,.91-4.37a78.23,78.23,0,0,0-1.84-8.22l-1.11.39-3.72,10.85c-2.19-2.54-4.16-4.54-5.79-6.78-4.59-6.29-9-12.73-13.57-19a21,21,0,0,1-4.44-10.09c-.9-6.59-3.44-13-5.29-19.41-.13-.44-.29-.88-.46-1.39l4.76.76-18.46-22c-.73,8.22,4.18,12.4,7.56,17.69a6.54,6.54,0,0,1-4-1.76C735.05,738.19,727.32,730.19,719.57,722.2ZM509.13,793.34l.85-.15a22.67,22.67,0,0,0-.24-2.91c-5.85-28-10.42-56.41-17.86-84C478.09,655.06,455.47,608,421,567.15c-2.28-2.7-4.69-5.29-7-7.93a10.15,10.15,0,0,0,2.19,4.37c9.61,13.6,20,26.74,28.66,40.9C472.16,649.16,489,698,499.4,749.12,502.41,763.9,505.87,778.6,509.13,793.34ZM40.35,127c16.11-22.21,37.94-31.1,63-34.06-11.86-3.62-23.14-.85-34.08,3.42-2.52-3.22-4.89-6-.71-8.73l-4.55-3c-1.27,1.59-2.3,3.51-3.87,4.74a25.38,25.38,0,0,0-9.59,15.32c-1.28,6.34-5.06,10.15-10.76,12.59-6.73,2.88-12.48,7-16.13,13.56-2.3,4.13-3.5,8.49-1.47,13.81,4.81-9.47,9.72-18.15,18.57-24.28Zm314.54,65.58-1.25,2.33,37.65,19.45c-6.28,3.61-11.07,6-17.15,4.62a91.54,91.54,0,0,0-13.84-1.81c-1.34-.09-2.78,1.16-4.18,1.8.83,1.07,1.62,2.18,2.51,3.2a18.68,18.68,0,0,0,2.44,1.77c-19.33-1.52-37.35-4.56-55.54-4.83l-.12,1.6,78.69,9.13.18-1-12.69-3.21.11-.92h15.6l-1.8-2.53a9.84,9.84,0,0,0,2.57-1.11c2.13-1.92,5.6-3.82,5.81-6s-2.57-5.22-4.83-6.62a140.09,140.09,0,0,0-15.61-7.83C367.33,197.82,361.09,195.26,354.89,192.59ZM108.6,86c20.41,8.15,26.57,13,26.81,21.58l-2.88-.34,3.8,5.36-.59.29-15.47-10.49-1.07,1.44c2.85,3.22,5.6,6.54,8.58,9.64,6.59,6.87,6.63,6.83,2.75,15.34l7.85-6.31,1.32,1.2c-3.81,4.86-7.47,9.86-11.48,14.56s-8.4,8.92-10.2,16.51c13.79-8.25,21.1-19.76,26.08-31.86-1.06-4.58-2.46-8.65-2.84-12.8-.51-5.59-2.34-10.36-6.3-14.26C127.64,88.68,118.42,86.51,108.6,86Zm60.53,174.88c-5.86-5.59-13.17-7.89-20.86-8S132.85,254,125,254.65l-1.32-7.75-1.66,0-.88,6.31c-8.47-6.05-2.64-14.36-5.07-21.64l-3.42,23,1.53-.38,5.64,2.66-8.65,5.58C130.61,257.32,149.61,253.6,169.13,260.91ZM143.56,441.22c-3.33,8.29-.1,23.86,6.16,29.53a6.47,6.47,0,0,0,3.34.81c1.38-4.52,4.8-2.58,7.46-2.15l3.66-8.83c-2.08-.48-4.07-.47-5.44-1.38-1.59-1.06-3.41-2.78-3.75-4.49-.51-2.57.18-5.38.36-8.09l-1.81-.66c-1.36,2.76-4,5.64-3.72,8.23.25,2.39,3.21,5.3,5.69,6.45,3.22,1.51,2.22,2.75,1.39,4.5-4.19-2.36-8.3-4.41-9.39-9.58C146.51,450.87,145,446.3,143.56,441.22ZM320.83,318.06c-.63-.49-1-1-1.4-1-4.75-.95-9.63,2.48-11.15,7.8a11.25,11.25,0,0,0,6.7,13.46c4.58,1.74,12.26-.54,13.72-4.28.39-1,.06-3.23-.49-3.44-1.11-.42-2.6.21-3.93.32-2.58.21-5.75,1.37-7.62.29-3.11-1.8-2.32-5.18-.32-7.86C317.68,321.48,319.27,319.85,320.83,318.06ZM399.3,197.48c-3.88-2.29-7.52-5.21-11.67-6.78-19.14-7.23-38.26-14.58-57.71-20.9-11.49-3.73-23.54-5.77-35.41-8.25-3.07-.64-6.38-.1-9.59-.1C324.79,168.44,362.91,179.79,399.3,197.48Zm119,179.44c18,4.8,36.19,7.85,55.58,5.45C566.74,379.67,520.81,374.68,518.25,376.92Zm218.83,340.7c2.73-9.4.83-19.56,5.31-29.73l3.13,9.66,1.37-.42c-.84-4.38-1.57-8.78-2.66-13.09-.14-.54-2.46-1.15-3.3-.75a8,8,0,0,0-3.58,3.3C732.17,696.84,732.12,707.23,737.08,717.61ZM599.31,652.16,123.19,80.09c-5.82-10.06-14.53-14-22.44-10.69C94.43,72,90.29,78.76,91.67,84.17,98.06,71.45,106.71,70.15,123.19,80.09ZM373.87,327.42c14.29,15.2,34.62,18.81,52.56,26.85-8.32-4.94-17.14-8.89-25.81-13.14C391.73,336.77,383,332.11,373.87,327.42Zm-84.7,21.78,1.25-1.86c-4.34-3.26-8.35-7.18-13.12-9.59-5-2.52-8.46.9-7.21,6.46a10.55,10.55,0,0,0,2.14,4.94c1.14,1.18,3.15,1.51,4.78,2.21a28.86,28.86,0,0,0-.69-5.3c-.39-1.23-1.51-2.24-2.3-3.34l.83-.7Zm-93.34-44.5L227,339.54C220.53,325.19,203.84,307.16,195.84,304.71ZM259.14,196c1.84-11.93-.92-23.14-10.57-27.17ZM267.21,182l-1.39.53c2.26,8.93-.78,18.71,3.79,27.27l1.59.09,2.8-7.61ZM114,268.48c19.74-2.47,39.36-4.7,56.53,9C161.22,264.85,130,260,114,268.48ZM697.27,707.19c1.45,1.23,2.61,3,3.64,3,7.67-.55,14,2.37,20,7.87C717.44,707.85,708,703.54,697.27,707.19ZM295.15,366c.12-3.84-5-9.31-7.94-8.87-1.48.22-2.69,2.23-4,3.44,2.87,2.68,5.66,5.46,8.75,7.86C292.27,368.71,294.4,366.62,295.15,366ZM233.72,481.85c4.83-9.52-3.23-14.69-5-21.44C226.92,468,230.14,474.34,233.72,481.85ZM93.67,249.24c-4.71-5.17-10.51-9.73-9.24-18.29l-4.7.47C80.88,240.38,84.26,247.17,93.67,249.24Zm249.93,280-.29-1.89-18.86,1.79C329.78,534.51,338.5,534,343.6,529.26Zm-32.48-191c-8.82-2.84-18.05-1-24.47-8C289.23,337.67,301.61,341.81,311.13,338.29Zm-77.55,21.89,1.81-1.23c-3.73-6.58-9.46-11.6-14.07-17.49l-1,.78ZM395,461.1c-.12,4.18,1,7,4.9,7.8.77.15,2.7-1.35,2.67-2C402.42,462.17,398.57,462.19,395,461.1ZM197.63,496.27l1.25-1.94-17.53-9.05-.64,1.09ZM473.9,238.55l.42-1.83-14-3.77-.59,2.62ZM363.74,285.91l-1,.7L376,306.06l1-.67Zm49-35.15.09-.49-26.11-2.16-.07,1Zm-69.39-2.81v.43l15,1.62-4.8-4.52-.1,1.27Zm-35.2,177.79-.75,1.23L320,435.73l.94-1.43ZM178.43,184.93l1.26,2.54,5.58-2.62-1.31-2.8Zm134,159.49-2.09,2.3,8.2,6-.66.46Z"/><path d="M548.5,556.76c-1.93-.3-3.88-.49-5.77-.95a31.81,31.81,0,0,0-5.89-1.33c5,8.42,6.93,18.18,14.59,25.21,6,5.48,10.36,12.67,14.91,19.56-10.14-9.45-20.43-18.47-33-24.94-1.1,4.76-.82,8,4.91,7.92,1,0,2,1.45,3,2.23a15.25,15.25,0,0,1-3.75,1c-1.19,0-2.39-.59-3.93-.23,8.69,5.16,14.53,14.24,25.44,16.26s21.36,5.1,32,7.79a15.66,15.66,0,0,1,6.3,3.07l-21.54-3.83-.25.86L639,636.32c-23.73-28.23-52.11-48.95-81-69.37,2.3,1,4.68,1.91,6.88,3.11a277,277,0,0,1,81.36,66.84c8.57,10.36,18.58,18.83,31.18,24a47,47,0,0,1,9.83,5.69c-8,1-15.12-1.27-22.19-5l13.22,19.81a54.66,54.66,0,0,1-19.82-19.92,33.84,33.84,0,0,0-16.76-14.92c-21.52-8.83-42.92-18-64.71-26.54,3.41,6.45,8.85,12,5.82,21.31a75.9,75.9,0,0,1-5.57-6.34c-9.27-13.47-20.72-24.06-36.35-30-7.4-2.83-14.28-7.1-21.22-11-2.62-1.49-4.73-3.86-7.07-5.84l.71-1.24,13.09,3.47c-3.58-3.78-7.17-7.34-10.49-11.14-15.34-17.56-35.41-29.46-53-44.39a9.19,9.19,0,0,0-2-.75l5,7.77c-16.33-13.31-36.32-19.31-54.62-28.49-10.19-5.11-12.22-7-17.95-18.4l5.39,2.53c-10.24-6.26-15.36-16.84-22.49-25.65-1.77-2.18-2.17-4-1-6.71,9.64-23.43,8.05-47.24,2-71.15a24.92,24.92,0,0,0-1.32-3.23c-.35-.85-.68-1.7-1.05-2.65l9.29,5.14.9-1.18c-2.17-4.28-3-9.65-9.54-10.81l-1.73,5c-4.24-10.88-14.15-10.85-21.82-14.44-9.2-4.3-18.72-7.88-28-11.91a65.29,65.29,0,0,1-6.65-3.81l.59-1.7a35.52,35.52,0,0,1,5.69,1.24c12.4,4.88,24.75,9.88,37.13,14.82,1.63.65,3.3,1.22,5.83,2.15L361,361.76c6.53,3.68,7.39,12,14,14.56l1.14-1-42-57.26-.68,1.63-9.28,1.51,2.7-9.46c-.48-1.92-1.2-4.54-1.76-7.19a59.37,59.37,0,0,0-11-23.65L318.88,298l-.53.17c-2.27-5.56-4.3-11.24-6.84-16.67-10-21.38-25.22-39.13-40.57-56.72-1.18-1.35-3.78-1.45-5.71-2.14-2.61-.94-5.21-1.9-8.62-3.15,6.39-4.33,6.38-4.32,2.16-9.22-2.44-2.83-4.85-5.69-6.86-8.05,7,3.81,14.21,7.91,21.6,11.76a69.74,69.74,0,0,0,9.12,3.57c7.27,2.56,14.57,5,21.86,7.54l-.53,1.63-14.32-2.54c3.89,4.09,7.65,7.15,10.23,11s4,8.51,5.18,13.25c-6.1-11.36-15.27-19-26.65-24.3,6.32,7.69,13.06,15.09,18.85,23.16,4.72,6.59,8.21,14.06,12.45,21,3.76,6.16,7.87,12.12,11.72,18.23,3.06,4.85,5.94,9.82,8.94,14.71.59,1,1.43,1.78,2,2.74,1,1.52,2.86,3.24,2.65,4.62-1.08,7.06,4.2,10.71,7.6,15.36q17.08,23.42,34.24,46.78l3.05,4.19c1-4.71,2.69-5.53,6-2.66,3.51,3,6.4,6.78,9.84,9.9a46.75,46.75,0,0,0,9.28,6.95c4.94,2.6,10.26,4.48,16.74,7.22l-62.06-65.59,1.2-1.19c1.15,1,2.35,2,3.46,3.14,19.26,19.14,38.43,38.38,57.87,57.34a14.78,14.78,0,0,0,8.84,3.55c17.13,1,34.27,1.78,51.42,2.12,19.49.38,39,.25,58.49.27q20.09,0,40.18-.23A32,32,0,0,0,591,394L567.67,388c12.1-.5,24,.45,35.21,4.69,9.24,3.5,18.7,4.35,28.31,5.23,21.57,2,43.12,4.11,64.67,6.24a14.27,14.27,0,0,1,4.83,1.17c15.85,7.79,33.2,10.75,49.93,15.7,7.14,2.11,14,5.19,21,7.93,2.31.91,4.18,3.41,7.18,1.37.46-.31,2.18.62,2.9,1.37,14.65,15.25,29.45,30.36,43.76,45.92,6.57,7.14,11.24,15.63,12.86,25-3.17,1.83-6.19,3.18-8.74,5.14-3.88,3-7.64,1.85-11.26.07-5.36-2.64-10.54-5.67-16.22-8.77-2.47,2.66-4.88,5.34-7.37,7.94s-5.26,1.52-7.55-.38C778,499,769.07,491.28,760,483.71c-4.43-3.69-8.76-7.58-13.57-10.71-9-5.87-17.84-11.61-25.69-19.41-6.85-6.81-16.68-10.87-25.61-15.27-31.29-15.42-64.34-24.58-99.27-26.49a32.59,32.59,0,0,1-4-.49c-3.4-.61-4.35-2.16-1.34-5.25-9.16-.41-17.95-.34-26.59-1.37-5.45-.65-10.68-3-16.05-4.48a24.67,24.67,0,0,0-5.81-.83q-52.7-1.27-105.41-2.48c-2.59-.06-5.17-.48-8.36.37,2.46,1.76,4.85,3.62,7.38,5.26,7.78,5.06,15.79,9.8,23.35,15.18,2.61,1.86,4.17,5.2,5.59,8.24l-26-19.25-1,1.27c3.21,6.36,6.53,12,14,15.15a74.23,74.23,0,0,1,34.17,29.08l-40.22-30.93c.53,7.67,9.56,10.68,8,20.06-4.08-5.32-7.43-9.53-10.59-13.89a21.65,21.65,0,0,1-2.74-5.32c-6-16.71-19-24.84-36.54-28.71,6.1,6.58,7.82,15.53,15.86,19.83a8.49,8.49,0,0,1,3.28,3c.82,1.43,1,3.22,1.45,4.85l-4.69.81,1.63,10.56-1,.62c-1.4-1.25-3.09-2.29-4.16-3.78-3.6-5-6.91-10.2-10.48-15.22-1.66-2.33-2.78-6.08-7.16-3.32-.66.42-2.67-1.28-4.7-2.35v17.46L392,426c-.33-3.77-1.11-7.57-.9-11.31.5-9-2.38-15.6-11.79-18.78,6.55,21,6.91,42.59,7.41,64.22,8.16-10.51,12.76-23,15.81-36.2.87,16.48-5.19,30.76-14.65,45.15l4.79-2.27.68.6-4.27,6.31c8.88-1,17.09-2.1,25.33-2.79a27.5,27.5,0,0,1,8.82.89c1.29.32,2.21,2.1,3.3,3.21-1,1-1.93,2.39-3.16,2.77a57,57,0,0,1-9.24,2c-8.7,1.17-17.43,2.18-26.14,3.25l-.74,1.31c8.74,6.69,16.83,14.53,26.34,19.83,23.82,13.27,48.31,25.34,72.47,38a27.93,27.93,0,0,1,7.7,6.25l-19.87-9.62-.55.84,29.81,22.85,7.22-3.49-5.1-8.25.73-.57,6.32,5.42,5.94-3.91c-6.06-14.31-10.36-29.35-22.09-40.78-9.89-9.64-18.57-20.55-28.64-30-7.2-6.75-15.81-12-23.84-17.86-1.73-1.26-3.66-2.23-5.5-3.33l.6-1.15,16,8.79.48-.57-30.5-35C444,446.32,456.3,468,477.27,482.75l-1.45-3.12.72-.77,44.94,42.62.42-.13L498.54,485.7l.94-.81c5.57,6.6,11.82,12.74,16.56,19.9,6.86,10.36,12.59,21.46,18.86,32.21,2.26,3.87,4.67,7.65,7,11.46-3.09-.18-4.8-2-6.31-4.58-2.25-3.86-4.53-7.85-7.52-11.12-9.65-10.52-19.61-20.76-29.5-31.05-2.43-2.52-5-4.86-7.58-7.28,8.77,12.43,18.33,24.05,27.82,35.74,4,4.89,8.44,9.53,11.48,15,3.3,5.9,8.81,7.06,14.36,9.7l-.86-3.49,4.95,5.51Zm-7.74,14.29c-2.82-5.64-5.13-10-7.23-14.51-1.47-3.14-3.55-3.54-6.31-2v7c-6.56-5.84-6.56-5.84-11-1.54Zm273.91-92.86-19.36-20.61C793.62,462.28,802.09,471.21,814.67,478.19ZM529.31,549.08l-12.12-16c1.08,4.84,3.24,9.07,4.91,13.48C523.39,549.92,525.34,550.7,529.31,549.08Zm-16.62,17.69c.17,6.91,1.5,8.65,7.36,9.58C518.71,572.3,520.64,565.74,512.69,566.77Zm252.25-95.83,1-1.35-17.82-13.11-.87,1.16Z"/><path d="M337.27,620.1l2,1.36c-2.31,2.17-4.3,5.63-7,6.28-8.83,2.16-18.1,3.86-26.62-.94a216.24,216.24,0,0,1-22.07-14.25c-2.7-2-4.12-5.7-6.12-8.63l1.1-1,7,5.4c-1.31-4.19-2-7.58-3.42-10.7-1.8-4.06.58-5.8,3.6-5.53,4.37.38,8.67,1.92,12.92,3.23.64.2.84,1.82,1.24,2.78-1,.1-2.27.6-3,.2-1.44-.75-2.46-2.6-3.92-3a22,22,0,0,0-7.92-.46c-.57.07-1.49,3.22-1,4.53a74.58,74.58,0,0,0,4.69,9.66,5.09,5.09,0,0,0,1.88,2.1c6.69,3.52,13.42,6.95,20.45,10.1a39.27,39.27,0,0,1-6.54-22.09c-.1-8.26-4.46-14.94-12-19.4-10.83-6.43-21.43-13.25-32.2-19.95,1,2.87,1.78,6.41,3.42,9.47a24.2,24.2,0,0,1,2.54,14.52,4.67,4.67,0,0,1-8,2.61c-3.08-2.86-5.38-6.67-7.59-10.32-1.53-2.52-2.32-5.49-3.53-8.51h-5.73C242.62,578,244,588,245.06,598c.56,5.11-1.72,7.74-6.59,7.82a5,5,0,0,1-3.28-1.61c-.31-.34.7-1.87,1.07-2.87.62-1.69,1.77-3.4,1.71-5.07q-.41-11.48-1.47-22.92c-.18-2-1.4-3.87-2.14-5.81l-2.28.5c.87,7.38,1.9,14.74,2.54,22.14a39.72,39.72,0,0,1-.43,10.76c-.26,1.34-2.67,2.27-4.1,3.38-1-1.35-2.92-2.7-2.93-4.06-.13-11,.09-21.92.24-32.87a16.34,16.34,0,0,1,.42-2.45c-3,.74-2.91.77-5.85,9-1.4,3.91-3.18,7.68-4.85,11.49-1.47,3.36-3,6.68-4.8,10.55a65.71,65.71,0,0,1-5.78,4.54c-1.83,1.18-5.5,2.93-5.76,2.56-1.84-2.55-3.17-5.61-.11-8.41.48-.44,1.08-.76.89-1.51-2.33-18.26-.05-34.68,18.19-45.71l-12-4.76,1.91,1.8c1.15-2.25,2.91-4.42,3.23-6.79.22-1.69-1.5-3.63-3-6.91l-5,6.21-7.29,6-11.41,7-1.37-2c7.71-9.27,16.81-16.78,28.71-20.75l.39-1.54L187.22,511l3.6,5.63-1.22,1-4.2-5.1c-2.16-2.61-3.94-5.73-6.56-7.75-11-8.41-22.1-16.55-30.79-27.56,24.26,14.19,47.63,29.6,69.22,48.88l7.73-4.34L210.51,506l.93-1.61,16.93,7.22.89-.87-6.55-7.18,6.94,3.24,4.4-14,3.35,4c2.19-4,.33-10.35,7.57-10.86l.93-1.94c.62,1.37,1.63,2.7,1.78,4.12.73,6.72,6.55,8.7,10.94,11.94a59.43,59.43,0,0,0,9.6,5.83,6.09,6.09,0,0,0,5.07-.12,89.5,89.5,0,0,0,8.46-6.82l-5.4-11.67,1.35-.77,5.44,6.31,1.56-.41-5.14-33.23c3.7,3.35,7.29,6.18,7.86,11.64,1,9.23,2.81,18.38,4.41,27.54a5.48,5.48,0,0,0,1.9,3.17,71.43,71.43,0,0,0,32.55,13.11c2.34.35,4.88-1,7.35-1,3.88-.1,7.84.69,11.65.21s7.41-2.08,11.7-3.37c-1.88,1.69-3.43,3.77-5.51,4.81a38.69,38.69,0,0,1-9.4,3.17c-14.95,3.13-29.94,6.07-45.6,9.21,2.7,2.87,5,5.58,7.55,8,7.88,7.37,15.9,14.61,23.81,21.94,1.09,1,1.8,2.41,2.88,3.44,2,1.86,4.07,3.58,6.11,5.35l1-1-.75-4.19c3.17,1.89,6.06,2.75,7.55,4.69a43.37,43.37,0,0,1,6.56,11.59c1.18,3.31,2.39,5.58,7,5.94l-2.64-5.5c3.85-2.34,6.68-1.37,7.54,3.24,1.08,5.78-.7,10.79-4.65,15.17-1.1,1.22-1.57,3-2.33,4.52-1.56,3.14-2.89,6.41-4.73,9.37a101.94,101.94,0,0,1-6.39,8.28l-3.95-2.64c-1.22,1.43-2.46,2.89-3.72,4.34L322,615.44c4.56-1.58,10,.47,9.72-4.09-2.62-3.1-5.51-5-5.69-7-.44-5.08-2.66-7.74-8.55-7.89l-1.36,9.7-4.82,1.79C316.34,618.52,326.34,623.66,337.27,620.1ZM236.48,530.82,216,535.31l0,1.58c1.89,1.3,3.9,2.45,5.65,3.92,3.68,3.09,7.38,6.18,10.74,9.61,1,1.05,1,3.19,1.39,4.84-1.61-.39-3.38-.47-4.79-1.24a50.92,50.92,0,0,1-5.74-4.21c1.12,8.17,4,11,7.63,9.36l5.43,4.51,1.17-7.67,2.76,6.74,9.22-2.65,5.3,7.1c.53-3.21.54-5.62,1.34-7.74,1.86-4.95,3.31-9.34-1.71-13.71-2.7-2.36-.81-5,2.8-6.14a70.29,70.29,0,0,0,11.59-5.23c.89-.46,1.21-2,1.76-3l-11.09-4.08c3.88-5.29,6.93-5.75,12-3.33,1.74.84,5.09,3.6,6-.3l37.72-4.88-.35-1-23.18-10.4c-.43,2.13-1.05,4.35-1.28,6.62-.36,3.58-2.4,4.85-5.72,4.74-1.12,0-2.32.31-3.34,0a60,60,0,0,1-5.66-2.24c1.24-1.69,2.12-4.11,3.78-4.94,5-2.48,6.28-4.88,4.41-11.59-3.49,5.67-11.15,6.5-12.87,13.52-.15.61-1.84,1.47-2.3,1.23a4.11,4.11,0,0,1-1.85-2.52,5.94,5.94,0,0,1,.49-2.58c-4-1.32-7.77-2.16-11.14-3.79s-6.68-4.18-10-6.32l-7.3,11.31-2.49-7c-1.14,3.83-2.63,6.78-2.77,9.8-.19,4,.67,8.07,1,11.4,1.37.8,4.43,1.71,4.5,2.81.19,3.08-.84,6.24-1.39,9.37l-1.29-.11Zm83.37,59,16-20c-6.89-6.3-17.13-7.39-23.61-14.65a4.63,4.63,0,0,0-2.27-1c-6.55-1.65-13.12-3.25-19-4.7,1.09,4,2,8.11,3.34,12.05a13.07,13.07,0,0,0,3.25,5.12,25.13,25.13,0,0,0,5.87,3.77c3.44,1.76,3.47,3.89,1.11,6.67l-5.4-2.72-.85,1.12,8.49,9.39-.29-5.95C316.9,581.17,319.68,583.57,319.85,589.78ZM325.2,588l3.8,2.45c-6.19,5.77-4.59,8,2,11.58-.83-8.06,4.94-13.18,8.68-19l-3.27-9.21-1.85-.56Zm-117.06-4c4.25-10,14.79-18.28,8.56-31.75C210.58,562.32,207.59,572.68,208.14,584.08Z"/><path d="M177.12,434.92c-7.68,0-16.26,0-24.83,0-5.83,0-11,1.1-12.61,8.29-4.25-9.5.6-12.56,19.28-12.18l-4.54-2.86,4.43-.21c6.59-.36,12.92-.54,19.66-2.33,9.11-2.42,19.44-.9,29.18-.15,8,.62,16,2.58,24.35,4-.21-1.28-.46-2.36-.54-3.46-.27-3.47,0-7.07-.83-10.38a30.93,30.93,0,0,0-4.52-10.39c-3.3-4.55-7.39-8.54-11.26-12.65-1.33-1.42-2.64-3.76-5.28-1.5-.16.14-2.11-1.49-2.94-2.53-3-3.69-5.28-8.09-8.8-11.11q-31.64-27.18-63.79-53.75c-7.29-6-15.44-10.94-23.27-16.27-.84-.57-2.29-.19-3.22-.7a42.41,42.41,0,0,1-4.42-3.16c1.13-1.46,2-3.63,3.45-4.24,4.37-1.8,9-3,13.53-4.42l.24-1.45c-5.37-2.64-10.93-5-16-8.05-2.26-1.37-4.58-4.1-5.1-6.59-1.58-7.46-2.27-15,1.47-22.34.92-1.79.54-4.25.82-7a19.64,19.64,0,0,0,2.62-4.2c3.17-8.71,6.13-17.5,9.29-26.61-5.76-5-6.19-5-7.33-.23-5.31-6.06-9.89.33-15,.77,1.54,4.09,5.33,8,.84,11.87-1,.89-3.82-.23-5.8-.43l.14-1.58,3.62-.29.5-.93-9.77-5.4,6.5-2.36-.2-1.28c-5.16.4-10.31.94-15.48,1.13-2.54.09-5.1-.55-7.66-.71s-5.23-2.93-7.49.87c-.28.46-3.71,0-4.57-1a29.31,29.31,0,0,1-4.49-7.6,80.47,80.47,0,0,1-3.74-10.86c-2.3-8.62-4.37-17.29-6.6-26.18-1.19.44-3.27.82-1.16,3.9,1,1.44,1.4,3.28,2.3,5.49-6.53-1.46-11.61-8.44-11.48-14.92L30,170.56c2.54-3,4.9-5.56,2.54-9.77-.8-1.43-.13-3.69-.13-5.56L33.8,155l1.61,6.19,1.28-.16L34.2,146.79l4,8.92c6.55-18.36,20.16-27.38,36.68-33.06-2.3,1.6-4.62,3.17-6.89,4.82-2.42,1.77-4.91,3.48-7.15,5.45a97.82,97.82,0,0,0-10.11,9.63,20.28,20.28,0,0,0-4.42,18.71c.63,2.53,1.39,5,5.24,4.61,1.59-.17,3.38,1.58,5.47,2.66V155.6c3.06,7.56,5.36,14.31,8.51,20.63,2.27,4.55,5.86,8.43,8.53,12.81,2.45,4,4.4,8.36,6.69,12.5a39.19,39.19,0,0,0,3.37,5c.57.74,1.43,1.68,2.22,1.75,3.6.3,7.32.88,10.82.29,4.82-.8,6-5.23,7.95-10.7l-12.49,2.71c-.69-.35-2.52-1.37-4.43-2.21-7.75-3.41-11.2-10.07-8.9-18.13l3.52,5v-4.76l1.57-.28c.28,1.75.45,3.54.88,5.25a9.35,9.35,0,0,0,2.4,4.45L87,182.52l1.7-.54c-.8,6.48,4,7.15,8,8.57,3.75,1.35,7.61,2.41,12,3.77l1-3.72c-6.11-1.6-13.63.49-16.55-8.8l11.68.54-5.67-8.74.65-.91,10.07,6.7c2.63-7.67,4.29-15.25-.07-24.12,6.25,2.44,7.23,6.47,7.93,11.48l2.56-3.34,4.2.82c-9.46,10.59-8.82,24.8-10.71,38.23-.17,1.23,1.39,2.75,2.27,4.06,2.14,3.21,4.36,6.38,6.54,9.57l-1.13,1L119,215.87c-7.23,11.45-9.76,24.43-11.89,38.64l2.24,3.14-.61,1.07-3.5-1.54c-1.93,7.7,1.31,12.81,6.88,17.33,14.53,11.79,32.84,13.9,49.42,20.37,8,3.14,16.23,5.93,24,9.87l-51.84-16.1-.46.78c5.73,5.41,11.8,10.5,17.12,16.29,10.37,11.27,20.28,23,30.49,34.39a24.53,24.53,0,0,0,5.4,4.14c5.14,3.21,10.38,6.29,15.57,9.42l-.69,1.31-12.29-4.38c3.51,5.13,6.62,8.95,8.93,13.2a77.26,77.26,0,0,0,22.31,25.84c8.82,6.48,11.51,16.43,15.18,25.81.49,1.26-1.14,3.36-1.79,5.07l-1.94.44q4.49,5.56,9,11.12c.39.49,1,1.13,1,1.61-1.31,8.71,3.62,17.73-1.51,26.39l-5.14.3c4.7-6.33,3.72-9.79-3.65-12.68-3.18-1.25-6.51-2.09-11.25-3.58l15.67-3.39c-1-.44-2.35-.77-2.34-1.07.11-8.79-6.61-8.08-12.21-8.81q-12.87-1.69-25.77-3.2a33.29,33.29,0,0,0-4.88.21c-1.87.06-3.83.46-5.58,0-2.92-.7-6.27-2.53-8,.85C175.78,430.59,177,433.59,177.12,434.92ZM63.6,185.22C61,188.81,57.19,187,50.43,170.84c-.73,1.3-2.27,2.78-2,3.74a29.72,29.72,0,0,0,3.89,9c3,4.2,6.64,7.93,10,11.85l-.57.81-8.86-2.87,3.85,7.85-1.39.79c-6.81-7-8.31-17.42-15.3-24.62L51.5,212.28l2-4.07c4.88,6.4,18.33,8.39,26.27,4.56l-3.57-2,6.89-1.05c-3.46-4.49-6.52-8.58-9.7-12.57S66.91,189.24,63.6,185.22Zm111.48,155,.94-1.06c-9.77-10.57-19.58-21.1-29.27-31.75-2.64-2.91-5.2-4.66-9.48-3.49-2.44.67-5.84.87-7.81-.35-6.1-3.77-10.42.38-16.34,2.26l24.61,14.07-1.89-10.08c1.76.28,2.72.87,2.89,1.63,1.67,7.49,6.59,11,13.85,12.45,3.16.64,6,2.8,9,4.27l-.46,1h-9.7C157.62,337.32,166.55,338.29,175.09,340.18Z"/><path d="M174,143.86l3.49-2.05,1.48,3.43c5.44-4.38,11.09-8.14,15.68-12.91,2.76-2.88,4.09-3.39,6.39-.22,4,5.53,8.19,10.94,12,16.61,1.77,2.64,3.93,2.94,5.72,1.13,4.26-4.32,9.08-3.94,14.51-2.33l-3-10.1,1-.66c4.77,5.54,9.45,11.16,14.37,16.56a7.7,7.7,0,0,0,4.61,2.42c4.47.33,9-.06,13.48.17,7.12.37,9.43,2.15,9.77,9.28.24,5.16,2.54,6.43,7,7.5,21.87,5.2,43.63,10.8,65.43,16.29a3.87,3.87,0,0,1,2.53,1.83c-11.05-2.52-22.13-5-33.15-7.58-9.88-2.35-19.69-5-29.58-7.33-12.81-3-25.66-5.83-38.52-8.6-1.52-.33-3.22.29-4.84.28a19.42,19.42,0,0,1-5.27-.44c-4.34-1.27-8.6-2.83-14-4.65,2.76,5.6,4.59,9.91,7,13.88.92,1.53,3.08,3.14,4.74,3.21,3.65.15,4,2.65,4.34,5,.43,3-.58,5.48-4.07,6.46.67-8.72-7.12-10.93-11.47-15.66-1.35-1.47-3.55-2.14-5-3.57-3.17-3.19-5.81-6.94-9.2-9.85s-7.2-4.86-10.73-7.16a18.23,18.23,0,0,0-1.16-4.4,16.07,16.07,0,0,0-3.23-3.78c-4.86-4.74-5.28-4.45-10.5-.24-5,4-9.4,8.29-10.43,15.38l6.83,4.33c-2.72,1.37-5,2.83-7.44,3.65s-5.17,1-8.18,1.57l3.8,7.37,3-5.62,1.23,1L170,179.94l5.88,4c-2.59,1.32-4.86,3.42-6.07,2.93-5.85-2.39-7,2.48-9.26,5.93l13.58-4.29c-4.14,7.14-9,12-16.53,12.73-2,.2-5.08-1-6.16-2.65-.87-1.29-.17-4.73,1.06-6.12,2.72-3.07,6.22-5.45,9.62-8.28l-6-8.57-5.22,3.22c-6.42,8.74-7.83,21-17.32,28.16l-1.76-1,15.49-32.46-8.38-9.64-3.29,8.21,4.62,3.1L134,176.27l-7.48,25.5,4.57-2.53c.32.3.74.52.73.71-.29,4.49-2.27,7.68-6,8.81-.58-3.27-1.68-6.29-1.53-9.24.34-6.58.5-13.36,2.24-19.64,1.89-6.81,5.54-13.13,8.3-19.72.65-1.56.8-3.34,1.38-5.91l-6.87,3.11-1.12-1c1.8-3.21,3.4-6.57,5.46-9.61,4.14-6.1,8.06-12.47,13-17.83,2-2.19,6.67-3.1,9.95-2.78,7.93.77,16.11,9.7,17.43,17.79l-4.22-2.44-8.49,15.17h7.46Zm-10.25,1.6-14.6-10.73c-5.78,4.64-10.26,13.48-8.32,16.28,1.33-1.52,2.61-3,3.94-4.49s2.48-2.64,3.73-4a40.72,40.72,0,0,1-3.62,8.45c-3.53,6.85-1.1,11.81,7,13.72l4.27-7.08L147,155l-.38-1.25C153.92,154.46,161.43,155.67,163.72,145.46Zm107.14,13.71c-12.22,7.55-22.48,4.81-33.29-3.19,2.23,5,3.64,8.35,8.63,9.15,8.72,1.39,17.33,3.42,26.51,5.3Zm-52.56-5.64c.84,8.59,7.24,8.48,15,9.12-2-3.7-2.76-7.76-5-8.79C225.41,152.51,221.38,153.53,218.3,153.53Zm-9.56-.51,1-1.11-10.68-17.61c-1.15,2.68-2.13,5.85-1,7.38C201.23,145.76,203.65,150.87,208.74,153Z"/><path d="M720.78,665.25c2.64-.58,6-2,9.23-1.9,12,.34,21.35,5.93,27.69,16.11,2.68,4.3,2.85,8.89.7,13.85-1.14,2.65-.31,6.08-.84,9.07C755.67,713,762,720.16,768,727.31c2.4,2.86,5.84,4.84,8.78,7.25a116.56,116.56,0,0,1,9.06,7.7c1.15,1.16,2.36,3.9,1.78,4.84-2.39,3.92.57,6.54,1.51,9.7,2.91,9.86,6.11,19.67,8.29,29.7,1.45,6.67-.64,13.06-5.61,19.24-1-6.9-1.82-12.9-2.74-18.89-2.34-15.38-8.19-29.43-16.37-42.56a17,17,0,0,0-2.95-3.32c-4.11-3.81-8.27-7.56-12.47-11.38-.86,1.43-1.67,3.68-3.24,5.1-1.11,1-3.61,1.66-4.8,1.07s-2-3-1.89-4.5c1.07-12.1,2.4-24.18,3.66-36.26a6.76,6.76,0,0,1,.39-2.45c3.83-7-.8-10.78-5.54-14.44-6.84-5.27-14.87-7-23.53-7.07.86.39,1.71.79,2.57,1.16,1.67.72,3.76,1,4.93,2.23,1.57,1.62,2.43,3.93,3.6,5.94L727,682.7c-.38,5.58,5.8,12.63-.8,19.71l-3.46-6.25c-5.77,4-8.24-3.31-12.94-4-5.43,5.38-9.49,4.12-16.88-5.8,6.93,5.22,13.41,4.43,19.29-1.46l-9.45-7.08.63-1.07,11.23,4.83c3.18-4.49,2.43-8.68-1.46-12.27-10.25-9.47-20.46-19-31-28.16-4.85-4.23-10.8-7.23-15.51-11.58S658.23,619.9,654,615c-11.13-12.82-22.29-25.61-32.82-39.32,5.33,4.12,10.91,7.95,15.94,12.4,11,9.75,21.29,20.16,28.32,33.35.78,1.47,2.69,2.4,4.19,3.41,8.43,5.66,17.32,10.75,25.25,17C703.95,649.13,712.15,657.4,720.78,665.25Z"/><path d="M548.5,556.76l.25.1c.49-4.14-1.35-7.28-3.76-10.54-5.35-7.22-5.14-16-5.85-24.44-.64-7.57-.7-15.18-1.33-22.75-.11-1.37-1.51-3-2.75-3.86-3.51-2.53-7.18-4.84-10.89-7.07-10.76-6.47-21.63-12.77-32.35-19.31-9.1-5.54-18.15-11.18-27-17.08a24,24,0,0,1-7.24-8.23l54,31.9.69-.48L508,467.78l1.31-1.26a8.72,8.72,0,0,0,.32,1.78c3.31,8.28,10.32,12.84,17.64,16.79,13.85,7.47,20.21,19.31,20.66,34.58.14,4.59,1.64,7.84,5.35,10.49a82.91,82.91,0,0,1,9.11,7.79c10.76,10.37,22.82,17.58,38.15,19.66,10.84,1.47,20.84,6.44,30.62,13.44l-34.35-6.72-1.44,1.79c1.13.51,2.55.73,3.35,1.56C604,573,609.27,578.33,614,584.07a16.45,16.45,0,0,1,3.44,8.62c.16,1.8-1.78,4.63-3.52,5.53-2.23,1.15-2.76-1.4-4-3.21a146.29,146.29,0,0,0-14.22-17.87,83.78,83.78,0,0,0-14-12.05,34.38,34.38,0,0,0-11.86-4.66c-4.85-1.06-9.93-1-14.87-1.69A42.43,42.43,0,0,1,548.5,556.76Zm2-20.65c1.2,7.21,7.54,13.62,15,14.23Z"/><path d="M470.18,259.34c5.19,1.26,11.39,3.39,17.76,4.15s12.9.17,20.24.17l-10-8.83.43-.76,5.47,1.74,2.26-6.71c-8.58,6.16-15.33,0-24.15-1.83,2.35-.5,3.38-1.07,4.16-.83,6.3,1.92,11.9-.22,17.79-2.2,7-2.35,14.25-4.45,22.16-.64l-12.72,5-3,8.11c3.61,0,7.52-.06,11.43,0,2,0,4.24-.19,5.9.65,2.2,1.12,5.77,3.56,5.52,4.74-.69,3.22-2.73,6.69-7.79,4.34L529,263.9l0-1.56L511.32,260l7.34,10.71-7.44-1.73-.41,1.28,7.22,2.67c-15.32-4.83-30.72-4.46-47.31-1.6,2.1,1.88,3.74,3.29,5.31,4.77,1.31,1.24,3.41,2.45,3.61,3.89A9.35,9.35,0,0,1,478,286.1c-.44.61-3.64-.07-5-1-1.74-1.15-2.89-3.18-4.33-4.79-.77-.87-1.46-2.06-2.45-2.45-9.75-3.87-16.21-12.09-22.75-17.39-7.22,2.24-13.18,4.54-19.36,5.81-2.64.54-5.87-.72-8.55-1.83-1.25-.52-1.85-2.63-2.74-4,2.07-.78,5.14-2.85,6.06-2.14,6.73,5.21,11.75.11,17.32-1.59l.44-1.51L389.38,228c19,3.76,33.67,16,50.82,24.91,4.4-4.66,5.62-10.69,5.42-17.06,0-1.25-1.76-2.78-3.07-3.62-11.34-7.27-22.77-14.42-34.17-21.6a21.38,21.38,0,0,1-5.21-4.08c15.32,4.59,28.26,13.45,41.71,23l-.79-5.56c.47.07.91.05.93.15,1.85,6.93,6.93,11.37,11.81,16.16,3.38,3.31,5.78,7.62,8.62,11.48l-1.34,1L450,238l-4.81,19.24c3.86,3.1,8.17,6.71,12.67,10.06,1,.72,3.4,1.16,3.82.64,1.15-1.42,2.41-3.56,2.12-5.14-.49-2.68-.31-4.41,2.19-5.77a25.41,25.41,0,0,0,3-2.57c2.81-2.19,3.22-4.38.37-6.94a13.39,13.39,0,0,1-3.37-4.83c4.4.25,8.65,2.54,9,6.31C475.38,252.17,472.05,255.68,470.18,259.34Z"/><path d="M301.39,443.4l-33.08-22.88c7,21.14,11,42.4,6.95,64.54-3.7-10.78-7.15-21.65-11.16-32.31-4.9-13-5.66-26.47-5.44-40.14a34.7,34.7,0,0,0-1-8.41c-3.77-16-7.39-32.09-11.76-47.94-1-3.48-4.91-6.08-7.3-9.22-2-2.57-3.65-5.34-5.46-8l1.59-1.28c5.42,4.49,11.12,8.69,16.1,13.63,1.74,1.73,1.74,5.24,2.48,7.95.33,1.24.43,2.54.78,3.78,4.32,15.52,8.59,31.05,13.1,46.52a14,14,0,0,0,3.87,6.52c10.36,8.82,21,17.36,31.48,26Zm-29.6,4.29c-3.86,6-2.45,11,0,17.26Z"/><path d="M415,581l-49.34-87.1c-4.36,4.78-11.5,6.08-12.83,13.79-.23,1.31-3.12,3.06-4.72,3-2.11-.07-5.58-1.4-5.91-2.78-.47-2,.64-5.56,2.3-6.73,6.78-4.79,6.94-4.55,3.86-12-.38-.92-1.06-1.94-.93-2.81,1.49-9.86-4.54-16.62-9.64-23.78a20.4,20.4,0,0,1-1.06-2.68c5.64,4.28,10.11,7.83,14.74,11.14,2.52,1.8,5.55,3,7.9,4.93,1.06.89,1.43,3.1,1.37,4.68,0,1.36-1.14,2.68-1.77,4l1.35.83,8-10.41L354,460.54c7.22,1.78,9.62,3.94,23.63,21.71l-3.47,3c11.27,2.9,16,12,22.45,19.33l-.83,1.1-24.17-17.44c-3.7,2.42-4.15,5.24-1.43,9.49,16.19,25.27,31.26,51.18,43.62,78.59.66,1.46,1.28,2.93,1.91,4.4Z"/><path d="M719.57,722.2c7.75,8,15.48,16,23.28,23.92a6.54,6.54,0,0,0,4,1.76c-3.38-5.29-8.28-9.47-7.56-17.69l18.46,22-4.76-.76c.17.51.33.94.46,1.39,1.85,6.46,4.39,12.82,5.29,19.41a21,21,0,0,0,4.44,10.09c4.61,6.27,9,12.72,13.57,19,1.63,2.24,3.6,4.24,5.79,6.78l3.72-10.85,1.11-.39a78.23,78.23,0,0,1,1.84,8.22c.17,1.4-.69,2.89-.91,4.37-1.29,8.54-3.34,9.35-10.26,4-.39-.3-.8-.57-1-.7-2.16.79-4.07,1.92-6.09,2.14-7.7.87-9.49-2-8-9.5a25.46,25.46,0,0,0-1.4-12.87c-2-5.59-5.54-10.57-4.61-17,.21-1.46-1.25-3.36-2.33-4.76q-16.72-21.8-33.57-43.51c-1-1.27-1.82-2.64-2.73-4Z"/><path d="M509.13,793.34c-3.26-14.74-6.71-29.43-9.73-44.22C489,698,472.16,649.16,444.75,604.49c-8.69-14.16-19.05-27.3-28.66-40.9a10.15,10.15,0,0,1-2.19-4.37c2.35,2.64,4.76,5.23,7,7.93,34.52,40.82,57.14,87.91,70.93,139.12,7.44,27.61,12,56,17.86,84a22.67,22.67,0,0,1,.24,2.91Z"/><path d="M40.35,127l.43-6.65c-8.85,6.13-13.76,14.81-18.57,24.28-2-5.32-.83-9.69,1.47-13.81,3.64-6.53,9.4-10.68,16.13-13.56,5.7-2.44,9.48-6.25,10.76-12.59a25.38,25.38,0,0,1,9.59-15.32c1.58-1.23,2.61-3.15,3.87-4.74l4.55,3c-4.18,2.71-1.81,5.51.71,8.73,10.94-4.27,22.22-7,34.08-3.42C78.29,95.91,56.46,104.8,40.35,127Z"/><path d="M354.89,192.59c6.2,2.67,12.44,5.24,18.57,8a140.09,140.09,0,0,1,15.61,7.83c2.26,1.4,5,4.53,4.83,6.62s-3.67,4.07-5.81,6a9.84,9.84,0,0,1-2.57,1.11l1.8,2.53h-15.6l-.11.92,12.69,3.21-.18,1-78.69-9.13.12-1.6c18.19.26,36.2,3.31,55.54,4.83a18.68,18.68,0,0,1-2.44-1.77c-.89-1-1.68-2.13-2.51-3.2,1.4-.64,2.83-1.89,4.18-1.8A91.54,91.54,0,0,1,374.15,219c6.08,1.38,10.86-1,17.15-4.62l-37.65-19.45Z"/><path d="M108.6,86c9.81.48,19,2.65,26.35,9.85,4,3.91,5.8,8.67,6.3,14.26.38,4.16,1.78,8.22,2.84,12.8-5,12.09-12.29,23.61-26.08,31.86,1.8-7.6,6.24-11.87,10.2-16.51s7.67-9.69,11.48-14.56l-1.32-1.2-7.85,6.31c3.88-8.51,3.84-8.47-2.75-15.34-3-3.1-5.72-6.42-8.58-9.64l1.07-1.44,15.47,10.49.59-.29-3.8-5.36,2.88.34C135.18,99,129,94.18,108.6,86Z"/><path class="cls-2" d="M543.81,551.34l.86,3.49c-5.54-2.64-11.05-3.81-14.36-9.7-3-5.43-7.51-10.08-11.48-15-9.49-11.69-19.05-23.32-27.82-35.74,2.53,2.42,5.16,4.75,7.58,7.28,9.89,10.3,19.85,20.53,29.5,31.05,3,3.27,5.27,7.25,7.52,11.12,1.5,2.58,3.22,4.4,6.31,4.58Z"/><path d="M169.13,260.91c-19.52-7.31-38.52-3.59-58,1.49l8.65-5.58-5.64-2.66-1.53.38,3.42-23c2.44,7.28-3.4,15.58,5.07,21.64l.88-6.31,1.66,0,1.32,7.75c7.89-.63,15.6-1.81,23.3-1.72S163.27,255.32,169.13,260.91Z"/><path d="M143.56,441.22c1.42,5.08,2.94,9.66,3.93,14.35,1.09,5.18,5.21,7.22,9.39,9.58.83-1.75,1.83-3-1.39-4.5-2.48-1.16-5.44-4.06-5.69-6.45-.27-2.58,2.36-5.47,3.72-8.23l1.81.66c-.18,2.71-.87,5.52-.36,8.09.34,1.71,2.16,3.43,3.75,4.49,1.37.91,3.35.9,5.44,1.38l-3.66,8.83c-2.66-.44-6.08-2.37-7.46,2.15a6.47,6.47,0,0,1-3.34-.81C143.47,465.07,140.24,449.51,143.56,441.22Z"/><path d="M320.83,318.06c-1.56,1.8-3.15,3.43-4.5,5.24-2,2.68-2.79,6.06.32,7.86,1.86,1.08,5-.08,7.62-.29,1.34-.11,2.82-.74,3.93-.32.55.21.88,2.44.49,3.44-1.46,3.75-9.14,6-13.72,4.28a11.25,11.25,0,0,1-6.7-13.46c1.53-5.31,6.4-8.75,11.15-7.8C319.85,317.09,320.2,317.57,320.83,318.06Z"/><path d="M399.3,197.48c-36.38-17.69-74.51-29-114.37-36,3.2,0,6.52-.55,9.59.1,11.87,2.48,23.92,4.52,35.41,8.25,19.45,6.32,38.57,13.66,57.71,20.9C391.78,192.27,395.42,195.18,399.3,197.48Z"/><path d="M518.25,376.92c2.56-2.23,48.49,2.76,55.58,5.45C554.43,384.77,536.25,381.72,518.25,376.92Z"/><path d="M737.08,717.61c-5-10.38-4.91-20.77.27-31a8,8,0,0,1,3.58-3.3c.84-.4,3.16.21,3.3.75,1.09,4.31,1.82,8.72,2.66,13.09l-1.37.42-3.13-9.66C737.91,698.06,739.81,708.21,737.08,717.61Z"/><path d="M197.62,542.95l7.29-6c3.61.82.91,2.58.23,3.31-2.14,2.29-4.68,4.22-6.92,6.42a70.73,70.73,0,0,0-7.89,9c6.38-4.86,12.9-8.86,22.73-7.43-3.19,2-5.36,3.32-7.51,4.68-4.57,2.9-9.06,5.93-13.72,8.67-1.24.73-3.73,1.34-4.31.73-1-1.05-1.84-3.62-1.23-4.65a97.92,97.92,0,0,1,7.32-9.87C194.89,546.14,196.28,544.56,197.62,542.95Z"/><path d="M123.19,80.09c-16.48-9.94-25.13-8.64-31.51,4.08C90.29,78.76,94.43,72,100.75,69.4,108.65,66.13,117.37,70,123.19,80.09Z"/><path d="M373.87,327.42c9.12,4.69,17.86,9.34,26.74,13.7,8.67,4.25,17.49,8.2,25.81,13.14C408.5,346.23,388.17,342.63,373.87,327.42Z"/><path d="M289.18,349.21,274.84,342l-.83.7c.79,1.11,1.91,2.11,2.3,3.34a28.86,28.86,0,0,1,.69,5.3c-1.63-.7-3.65-1-4.78-2.21a10.55,10.55,0,0,1-2.14-4.94c-1.24-5.56,2.22-9,7.21-6.46,4.77,2.41,8.78,6.33,13.12,9.59Z"/><path d="M195.84,304.71c8,2.46,24.69,20.49,31.17,34.83Z"/><path d="M259.14,196l-10.57-27.17C258.22,172.81,261,184,259.14,196Z"/><path d="M267.21,182,274,202.27l-2.8,7.61-1.59-.09c-4.57-8.56-1.54-18.34-3.79-27.27Z"/><path d="M114,268.48c16-8.44,47.24-3.63,56.53,9C153.34,263.79,133.72,266,114,268.48Z"/><path d="M697.27,707.19c10.72-3.65,20.17.66,23.66,10.83-6-5.51-12.35-8.42-20-7.87C699.89,710.22,698.73,708.42,697.27,707.19Z"/><path d="M295.15,366c-.74.58-2.88,2.67-3.21,2.42-3.09-2.39-5.88-5.18-8.75-7.86,1.33-1.2,2.54-3.22,4-3.44C290.12,356.73,295.27,362.2,295.15,366Z"/><path d="M233.72,481.85c-3.58-7.51-6.8-13.9-5-21.44C230.49,467.16,238.56,472.33,233.72,481.85Z"/><path d="M93.67,249.24c-9.41-2.07-12.79-8.86-13.94-17.82l4.7-.47C83.16,239.5,89,244.06,93.67,249.24Z"/><path d="M343.6,529.26c-5.1,4.74-13.82,5.25-19.15-.1l18.86-1.79Z"/><path d="M311.13,338.29c-9.52,3.52-21.9-.62-24.47-8C293.07,337.3,302.31,335.46,311.13,338.29Z"/><path d="M692.21,396.49l-40-4.63c-.64-.07-1.28-.17-1.92-.26l.14-1.38c10.19,1.12,20.4,2.08,30.56,3.42,3.8.5,7.48,1.88,11.22,2.86Z"/><path d="M692.19,396.5c12.8-1.43,25,1.32,37.79,5.22l-37.76-5.23Z"/><path d="M233.58,360.19l-13.27-18,1-.78c4.61,5.9,10.34,10.91,14.07,17.49Z"/><path d="M395,461.1c3.56,1.09,7.41,1.07,7.58,5.76,0,.69-1.91,2.2-2.67,2C396,468.12,394.89,465.28,395,461.1Z"/><path d="M197.63,496.27l-16.92-9.9.64-1.09,17.53,9.05Z"/><path d="M473.9,238.55l-14.19-3,.59-2.62,14,3.77Z"/><path d="M363.74,285.91,377,305.4l-1,.67-13.3-19.46Z"/><path d="M412.71,250.76l-26.08-1.69.07-1,26.11,2.16Z"/><path d="M343.32,247.95l10.08-1.2.1-1.27,4.8,4.52-15-1.62Z"/><path d="M308.13,425.74,321,434.3l-.94,1.43L307.37,427Z"/><path d="M178.43,184.93l5.53-2.87,1.31,2.8-5.58,2.62Z"/><path d="M312.47,344.43l5.44,8.81.66-.46-8.2-6Z"/><path class="cls-2" d="M540.76,571.05l-24.52-11.13c4.42-4.3,4.42-4.3,11,1.54v-7c2.76-1.49,4.84-1.09,6.31,2C535.64,561,537.94,565.41,540.76,571.05Z"/><path class="cls-2" d="M814.67,478.19c-12.58-7-21.05-15.91-19.36-20.61Z"/><path class="cls-2" d="M529.31,549.08c-4,1.62-5.92.84-7.21-2.57-1.67-4.41-3.83-8.64-4.91-13.48Z"/><path class="cls-2" d="M512.69,566.77c8-1,6,5.53,7.36,9.58C514.19,575.42,512.85,573.68,512.69,566.77Z"/><path class="cls-2" d="M764.93,470.94l-17.68-13.29.87-1.16,17.82,13.11Z"/><path class="cls-2" d="M236.48,530.82v6.26l1.29.11c.55-3.13,1.59-6.29,1.39-9.37-.07-1.1-3.13-2-4.5-2.81-.34-3.33-1.2-7.39-1-11.4.14-3,1.63-6,2.77-9.8l2.49,7,7.3-11.31c3.31,2.13,6.46,4.61,10,6.32s7.14,2.47,11.14,3.79a5.94,5.94,0,0,0-.49,2.58,4.11,4.11,0,0,0,1.85,2.52c.45.24,2.15-.62,2.3-1.23,1.72-7,9.38-7.85,12.87-13.52,1.87,6.71.58,9.11-4.41,11.59-1.67.83-2.54,3.25-3.78,4.94a60,60,0,0,0,5.66,2.24c1,.3,2.22,0,3.34,0,3.32.11,5.36-1.15,5.72-4.74.23-2.26.86-4.49,1.28-6.62l23.18,10.4.35,1-37.72,4.88c-.93,3.9-4.28,1.14-6,.3-5-2.43-8.1-2-12,3.33l11.09,4.08c-.55,1-.87,2.54-1.76,3a70.29,70.29,0,0,1-11.59,5.23c-3.61,1.11-5.5,3.79-2.8,6.14,5,4.38,3.57,8.77,1.71,13.71-.8,2.12-.82,4.53-1.34,7.74l-5.3-7.1-9.22,2.65L237.51,556l-1.17,7.67-5.43-4.51c-3.6,1.69-6.51-1.19-7.63-9.36A50.92,50.92,0,0,0,229,554c1.41.76,3.18.85,4.79,1.24-.43-1.64-.35-3.78-1.39-4.84-3.35-3.43-7.06-6.52-10.74-9.61-1.75-1.47-3.76-2.62-5.65-3.92l0-1.58Zm9.25-9.95c.54-2.07.43-4.36,1.48-5.22,3.77-3.06,2.64-6.28,1-9.83,1.43,5.42-1.79,8.41-6.06,11.1Z"/><path class="cls-2" d="M319.85,589.78c-.17-6.21-3-8.61-13.31-10.86l.29,5.95-8.49-9.39.85-1.12,5.4,2.72c2.36-2.78,2.33-4.91-1.11-6.67a25.13,25.13,0,0,1-5.87-3.77,13.07,13.07,0,0,1-3.25-5.12c-1.34-3.95-2.26-8-3.34-12.05,5.87,1.45,12.43,3.05,19,4.7a4.63,4.63,0,0,1,2.27,1c6.48,7.27,16.72,8.35,23.61,14.65Zm-19-29.22-1,1.05c5.27,6.25,9.56,13.51,17.43,17.08l1.28-1.33Z"/><path class="cls-2" d="M337.27,620.1c-10.93,3.56-20.93-1.58-26-12.2l4.82-1.79,1.36-9.7c5.89.15,8.11,2.81,8.55,7.89.18,2.09,3.07,3.94,5.69,7,.33,4.56-5.15,2.52-9.72,4.09l15.39,4.76Z"/><path class="cls-2" d="M325.2,588l9.34-14.76,1.85.56,3.27,9.21c-3.74,5.83-9.51,11-8.68,19-6.58-3.55-8.17-5.81-2-11.58Z"/><path class="cls-2" d="M208.14,584.08c-.55-11.4,2.43-21.76,8.56-31.75C222.94,565.8,212.4,574.08,208.14,584.08Z"/><path class="cls-3" d="M63.6,185.22c3.3,4,6.58,7.9,9.75,11.88s6.24,8.08,9.7,12.57l-6.89,1.05,3.57,2c-7.95,3.83-21.39,1.84-26.27-4.56l-2,4.07L40.07,177.36c7,7.2,8.49,17.65,15.3,24.62l1.39-.79-3.85-7.85,8.86,2.87.57-.81c-3.37-3.93-7-7.66-10-11.85a29.72,29.72,0,0,1-3.89-9c-.28-1,1.26-2.45,2-3.74C57.19,187,61,188.81,63.6,185.22Z"/><path class="cls-2" d="M175.09,340.18c-8.53-1.88-17.46-2.86-23.63-11h9.7l.46-1c-3-1.47-5.85-3.63-9-4.27-7.26-1.47-12.18-5-13.85-12.45-.17-.76-1.13-1.35-2.89-1.63l1.89,10.08-24.61-14.07c5.92-1.88,10.24-6,16.34-2.26,2,1.21,5.37,1,7.81.35,4.28-1.17,6.84.58,9.48,3.49,9.68,10.65,19.5,21.18,29.27,31.75Z"/><path class="cls-4" d="M163.72,145.46c-2.29,10.21-9.8,9-17.06,8.29L147,155l9.08,2.67-4.27,7.08c-8.1-1.91-10.53-6.86-7-13.72a40.72,40.72,0,0,0,3.62-8.45c-1.25,1.32-2.51,2.61-3.73,4s-2.61,3-3.94,4.49c-1.94-2.8,2.53-11.64,8.32-16.28Z"/><path class="cls-2" d="M270.86,159.17l1.85,11.25c-9.18-1.87-17.8-3.91-26.51-5.3-5-.79-6.41-4.14-8.63-9.15C248.38,164,258.64,166.72,270.86,159.17Z"/><path class="cls-2" d="M218.3,153.53c3.08,0,7.11-1,10,.33,2.21,1,3,5.08,5,8.79C225.54,162,219.13,162.12,218.3,153.53Z"/><path class="cls-5" d="M174,143.86l-5.15,12.85h-7.46l8.49-15.17,4.22,2.44Z"/><path class="cls-2" d="M208.74,153c-5.09-2.15-7.51-7.26-10.62-11.35-1.17-1.53-.19-4.7,1-7.38l10.68,17.61Z"/><path class="cls-2" d="M550.51,536.11l15,14.23C558.05,549.73,551.71,543.32,550.51,536.11Z"/><path class="cls-2" d="M271.78,447.69V465C269.34,458.69,267.92,453.72,271.78,447.69Z"/><path d="M245.73,520.87l-3.58-3.94c4.27-2.7,7.49-5.69,6.06-11.1,1.64,3.55,2.76,6.77-1,9.83C246.15,516.51,246.26,518.8,245.73,520.87Z"/><path d="M300.88,560.56l17.7,16.81-1.28,1.33c-7.87-3.57-12.16-10.83-17.43-17.08Z"/></g></svg>